<?xml version="1.0" encoding="UTF-8"?>
<svg id="Calque_2" data-name="Calque 2" xmlns="http://www.w3.org/2000/svg" viewBox="0 0 808.16 1402.48">
  <defs>
    <style>
      .cls-1 {
        fill: #fff;
      }
    </style>
  </defs>
  <g id="Illu_Vectorisée_WHITE_" data-name="Illu Vectorisée (WHITE)">
    <g id="Cereal">
      <path class="cls-1" d="M767.57,61.05c1.41,22.47.89,44.97,3,67.45,2.88,30.67,13.2,66.09,11.97,95.94-2.97,71.79-3.2,143.06-2.03,214.91,1.5,91.84,6.3,183.87,5.99,275.73-.43,125.85,3.04,251.25,9.05,376.79,1.01,21.04,1.08,41.97,1.95,63.01.84,20.33,5.05,40.66,6.03,60.93.9,18.62-.27,38.28,1.02,56.94.25,3.61,3.93,18.43,3.6,19.52-.39,1.25-4.05,5.59-5.09,5.73l-3.88-2.75c-11.26,3.14-23.27,2.27-34.83,4.28-10.91,1.9-20.34,6.79-31.38,8.6-19.81,3.25-39.18,2.62-58.71,4.25-32.94,2.74-66.4,14.27-98.36,21.56-77.9,17.76-156.76,29.01-236.59,33.23-17.21.91-33.67,5.91-50.39,9.57-26.65,5.84-53.81,11.59-80.2,18.73-6.03,1.63-13.82,5.89-19.36,6.63-3.9.52-19.76.48-23.91.09-2.23-.21-10.05-2.31-10.43-4.61,1.73-5.96,6.34-1.81,10.43-1.39,2.57.26,19.65.26,21.93-.06,5.37-.75,16.97-6.61,23.55-8.45,10.64-2.98,22.52-4.83,33.41-7.56,26.31-6.61,62.44-18.16,88.98-19.95,44.01-2.97,83.88-5.55,127.79-12.12,64.77-9.69,127.05-28.07,191.33-39.52,28.1-5,56.05-3.18,83.38-8.56,8.43-1.66,15.74-5.68,24.58-7.4,10.64-2.07,22.09-1.81,32.42-3.55,1.78-.3,6.51-2.09,7.21-3.7-2.07-10.11-1.13-20.33-1.43-30.58-.86-29.42-3.85-57.67-6.05-86.89-1.61-21.4-1.02-40.94-1.95-62.01-1.46-33.19-5.11-66.58-6.08-99.85-.51-17.66,1.27-36.65.08-54.04-.1-1.52-.22-5.94-2.03-6.45-.68,5.14-1.49,10.55-2.98,15.51-8.28,27.66-38.27,72.1-56.6,95.3-15.26,19.31-31.15,32.43-47.39,49.55-4.4,4.64-7.22,9.99-12.44,14.54-6.92,6.04-15.68,9.42-22.52,15.46.02.99,5.21.51,6.39.38,41.29-4.61,85.8-17.26,127.13-23.78l3.4-.08c.4,7.86-3.45,4.72-7.04,5.44-47.6,9.54-95.94,16.02-143.24,26.66-7.71,10.84-17.01,20.24-25.57,30.39-3.59,4.26-6.55,9.84-10.04,13.94-18.04,21.16-39.43,34.11-58.45,53.47-26.01,26.47-37.81,36.99-72.16,52.76-2.54,1.16-4.52,3.93-7.74,5.25-16.12,6.58-24.15,2.35-39.14.09-41.27-6.23-78.65-20.38-115.97-38.92-13.42-6.67-23.19-11.41-32.74-23.23-8.27-10.23-17.08-17.19-24.53-26.44-2.88-3.58-9.81-17.42-12.73-18.28-14.58.7-29.15,1.85-43.71,2.85-7.04.49-30.42.16-35.54,4.44-2.69,2.25-.04,10.71.06,13.97.67,21.88.33,43,1.97,64.99.84,11.3,3.49,23.5,4.03,34.94.89,19.02,1.83,49.65.02,68.06-.4,4.03-2.9,8.63-7.16,4.99-1.69-2.09.11-4.52.15-7.01.5-37.14.47-74.24-5.04-110.98l-1.94-66.9-3.08-1.05,3.09-3.96c.74-46.28-.81-92.79-1.12-138.9-.77-112.53,2.7-226.01-12.06-337.71-.95-7.2-2.71-5.18-5.31-8.67-4.03-5.41,1.89-12.37,2.48-18.37.96-9.71-1.71-23.9-2.09-33.99-.51-13.4.13-27.63-.97-41-1.99-24.19-8.48-49.93-10.02-73.92-2.54-39.53-.4-87.11,1.08-126.92.76-20.5,3.83-43.1,2.95-62.99-.23-5.17-3.25-19.67-1.47-23.48,2.44-5.24,7.47,2.41,7.59,5.52.07,1.92-2.16.95-2.22,2.92-.3,10.77,2.8,22.92,2.15,35.06-3.05,56.92-6.76,114.64-3.08,171.89,1.59,24.76,8.13,50.89,10.02,75.92,1.51,19.89.48,40.04,2.02,59.94l1.51,2.5c15.21-13.67,38.47-13.28,42.47,10,14.9-4.29,23.63-20.16,40.96-19.99-3.25-7.04-11.73-17.73-13.55-24.94-.74-2.94,2.07-4.56,3.81-1.77,4.78,7.66,7.15,18.65,15.45,24.57,3.41.86,24-12.83,28.25-15.35l-19.47-17.58c-3.04-1.86-7.58,1.52-5.47-6.89,2.7-.47,4.39.53,6.47,1.98,2.44,1.7,18.35,16.46,19.59,18.46.89,1.44.06,2.13-.1,3.52,10.88-4.71,22.7-8.16,33.94-12.52,6.03-2.34,11.9-6.01,17.76-8.23,11.59-4.39,24.06-5.54,35.16-11.33l-5.91-16.88,3.83.17,6.76,13.9c10.01-3.92,19.27-9.31,30.4-9.55,1.64-1.28.52-1.06.02-2.04-2.22-4.32-9-10.66-4.53-15.46,4.39-.62,3,3.55,3.98,5.99,1.17,2.91,5.01,10.61,8.05,11.01,1.81.24,16.23-2.84,17.02-3.98l-2.57-11.03c6.79-1.46,4.58,7.08,9.44,9.61l19.45-3.7c1.91-4.42-9.62-19.04-7.9-20.89,10.28-.73,9.07,18.1,13.99,20.5,2.8,1.37,4.93-.46,7.51-.52,10.2-.21,32.31-1.28,41.5-4.46,3.44-1.19,8.65-8.29,12.03-10.95,2.67-2.1,9.43-7.7,11.91-4.06,1.17,4.17-13.45,9.07-13.99,14.46l57.44.99,2.09-.91c6.13-9.45,14.02-16.29,25.76-17.14l1.25,4.11c-8.81,2.6-15.18,5.86-20.09,13.98-.95.72.53,1.6,1.19,1.8,15.92,4.81,38.07,3.01,54.77,5.15,4.91-3.02,7.61-7.12,12.84-10.13,2.39-1.37,12.88-6.21,14.95-5.68,2.51.64,3.34,4.01,1.43,5.6-2.1,1.74-10.77,3.9-14.65,6.81-1.09.82-6.02,5.12-5.06,6.42l31.77,5.79c4.5-6.93,19.11-13.88,27.14-15.35,2.37-.43,4.65-1.16,5.07,2.09,0,2.92-13.12,6.29-16.69,8.31-4.09,2.31-7.16,5.22-10.31,8.66,11.67,7.8,26.11,8.66,39.16,12.78,3.41,1.08,9.39,4.79,11.7,5.23,4.54.86,32.86-25.64,42.75-21.79,7.16,2.79.55,16.61-1.82,21.64-2.15,4.58-12.59,19.51-11.48,23.63,5.51,9.25,18.92,10.91,26.13,17.92,5.16,5.02,7.73,13.51,12.02,18.96,1.09,1.39,2.38,3.33,4.42,3.06-.21-13.48.28-27.02.05-40.51-2.39-136.4-11.95-273.23-6.05-409.7.41-9.56,1.61-18.7,2.05-27.93.92-19.11-4.26-35.62-6.87-54.17-2.38-16.89-3.8-33.84-5.17-50.79-1.33-16.5-2.88-32.85-1.98-49.48-11.96-.88-24.19,3.85-35.23,8.25-15.8,6.3-30.44,16.27-46.05,22.91-9.67,4.11-19.88,6.49-29.62,10.35-15.86,6.29-30.68,15.27-46.74,21.21-13.57,5.02-27.94,8.32-41.5,13.47-79.37,30.11-158.89,59.69-237.83,90.96-68.3,27.05-135.37,47.1-198.03,86.83-1.9,1.2-2.18,5.69-6.6,1.34-.57-3.03,12.37-11.87,15.27-13.69,46.95-29.63,95.75-45.4,146.88-64.98,62.66-24,123.86-50.97,187.11-73.72,45.09-16.21,91.04-30.87,135.7-48.19,22.86-8.87,45.47-19.41,68.37-28.57,16.52-6.61,31.8-17.45,48.04-23.91,7.37-2.93,28.93-11.23,35.67-10.19,2.95.46,5.81,3.06,9.55,1.94ZM606.6,611.77c-10.06-1.48-20.29-.98-30.4-2.08-10.44-1.14-21.66-4.26-32-4.97-18.64-1.29-39.04-.1-57.86-.92-5.45.27-7.82,5.04-9.31,9.68-.99,3.1-.98,12.26-4.77,12.26-6.41,0-1.09-16.96.49-20.03-1.18-1.06-20.08,2.67-23.49,2.98-8.23.74-17.94.07-25.92.97-5.87.66-11.72,2.17-17.54,3.05.02,3.71,8.46,17.87,2.38,18.92-3.91.68-7.04-13.95-7.41-16.9-2.78.41-17.77,3.04-18.49,3.98-.51.66-.41,2.1-.48,2.99-3.06.83-3.97-2.61-6.53-3.03-8.36-1.35-21.72,5.86-29.31,9.14-2.48,3.92,8.19,12.54,5.87,16.86-3.4,2.55-10.57-11.16-11.03-13.97-1.09-.8-11.76,4.8-13.95,5.48-22.86,7.11-46.58,14.63-68.63,24.31-11.25,4.94-20.89,12.74-32.3,17.18-.88,1.16,8.57,12.13,9.5,13.97s.18,1.9-1.03,3c-4.66,1.21-10.69-14.65-14.9-14.91-14.95.88-23.19,9.82-34.63,17.33-1.91,1.26-7,2.68-6.79,4.89l7.4,15.71c5.09-2.83,11.12-2.15,16.68-3.3,6.93-1.43,13.68-4,20.57-5.41,8.45-1.72,22.05-2.1,29.23-4.77,2.34-.87,1.92-2.59,4.4-3.55,9.56-3.72,23.34-2.93,33.79-7.2,3.94-1.61,7.52-4.92,11.34-6.65,12.89-5.86,22.7-8.5,36.86-10.11,46.47-5.28,93.16-7.87,139.94-8.96,52.31-1.22,104.58-3.19,156.89-5.09l28.9,4.07c12.2-8.79,21.59-21.05,36.93-24.97l.12-2.06c-1.82-1.93-25.04-7.98-27.89-7.67-.97.1-16.98,5.74-18.35,6.38-1.88.89-1.75,4.16-4.74,3.31-1.86-.53-2.27-5.25-.52-6.5,4.67-2.07,10.72-1.5,15.31-3.67,1.46-.69,2.18-1.07.69-2.32-1.07-.9-8.84-4.06-10.98-5-2.77-1.21-5.74-3.01-7.4-3.67-5.23-2.1-15.69-2.83-21.8-4.11-2.52-.52-5.41-2.26-7.57-2.53-4.21-.52-10.9,8.38-11.29-2.1ZM749.57,619.7c-1.39-.17-2.69.06-4.02.46-4.57,1.39-24.57,14.17-28.3,17.66-.74.69-2.01.89-1.65,2.34l18.47,14.5,15.51-34.97ZM735.63,668.69c-.42.29-.24,3.93-3.53,2.96-2.72-.8-.19-5.74-.67-8.25-1.08-5.61-17.37-17.42-23.15-19.55-15.06,5.61-27.5,13.73-38.22,25.76-1.17,1.31-1.22,3.55-2.07,4.13-1.1.76-3.64.6-5.26,1.51-9.42,5.29-4.76,8.35-5.01,15.88-1.35,40.66-6.9,71.77-14.9,111.2-.39,1.94,1.93,6.51-1.8,7.17-1.12.2-3.42-2.02-3.85-2.96-1.8-3.95,1.45-9.49,2.18-13.76,5.64-33.08,10.09-59.73,11.3-93.63.14-3.81,1.87-8.27.98-12.5-3.12-.51-5.43,4.17-7.99.47l9-12.46-78.95-2c-2.29,2.28,9,16.84,10.53,19.94,16.65,33.7,15.1,70.69,5.2,106.21-.42,1.49-.97,2.77-2.24,3.74-2.01-1.42-1.57-3.37-1.5-5.44.5-14.63,7.25-31.59,8.04-46.96.8-15.5-5.92-42.12-12.85-56.19-3.33-6.76-10.65-13.14-10.18-21.3-11.8.87-22.9,5.61-34.59,6.87-4.82.52-23.14-.28-25.87,2.11-5.63,12.45-10.69,26.69-11.53,40.44-1.29,20.99,5.39,51.29,17.21,68.83,3.71,5.5,9.02,9.07,12.36,13.62,1,1.37,1.88,2.02,1.45,4.04-2.04.45-2.67-.46-4.04-1.45-24.18-17.52-32.94-64.86-29.83-92.88,1.23-11.12,7.79-23.07,10.88-33.58l-27.81,3.17c-2.62,8.22-.23,16.42-.13,24.27.4,30.59-1.79,57.76-4.03,87.99-.3,4.11,1.91,17.51-3.51,17.5-3.76,0-3.59-4.98-3.56-7.55.23-19.2,4.43-38.67,5.1-57.89l-.04-63.51c-12.98.77-26.46,1.18-39.36,3.12-18.64,2.8-38.96,5.97-56.26,9.86-2.29.51-11.72,1.48-12.26-1.6l1.94-4.38c-5.36.24-10.01-1.44-15.48-.99-6.59.54-18.87,4.34-25.7,6.27-1.98.56-11.66,2.91-11.75,4.21,3.09,4.94,6.9,6.72,10.14,11.83,15.18,23.99,20.19,60.32,17.81,88.1-.3,3.56-4.12,22.17-2.98,23.49,15.75-6.15,29.08,2,43.91,4.56,2.42.42,5.94-1.66,8.09,1.07l-.08,3.32c-6.27-.17-11.09,5.14-14.92,9.57-5.96,6.89-26.75,41.22-27.01,49.06-.08,2.51,2.49,3.75,2,6.36-9.66,2.08.68,4.36,3.93,6.57,7.24,4.92,9.52,14.42,15.74,20.29,4.59.23,7.81-3.5,11.61-5.05,10.39-4.26,21.75-6.55,33.11-4.75,4.5.72,36.78,16.6,40.07,19.89,1.94,1.94,2.86,3.58,3.95,6.02,5.11-1.17,6.19-13.5,2.51-16.97,4.59-1.11,9.17,1.67,10-4.51.43-3.17-7.83.17-7-3.98.35-1.73,6.11-1.49,8.37-2.64,2.97-1.51,14.54-14.8,16.84-18.14,8.19-11.89,1.99-12.57,2.67-23.25.21-3.34,2.25-4.71,2.07-7.8-.36-6.09-7.95-31.68-11.53-36.56-4.1-5.59-5.12.92-6.96-2.04-2.43-9.66,5.73-5.36,10.77-6.24,8.7-1.51,14.86-6.01,26.2-6.83,15.3-1.1,17.33-1.05,32.08-4.89,21.15-5.51,34.51-.22,53.95-2.02,6.27-.58,11.85-4,18.05-4.94,2.14-.33,11.35-1.37,11.37,1.4-.75,1.08-1.83,1.5-2.98,2-4.17,1.79-20.79,7.92-24.57,8.41-15.31,2.02-30.75-3.71-47.44-.47-6.9,1.34-14.83,5.63-21.51,6.47-6.59.83-14.24-.45-20.94.04-8.31.61-15.71,3.37-23.45,6.05,1.94,5.24,4.22,10.33,5.71,15.76s4.96,18.88,5.23,23.84c.19,3.46-1.77,7.54-1.73,10.86.03,3.8,2.22,7.6,1.84,11.99-.79,9.28-15.09,20.61-15.03,23.98.01.73,2.23,4.56,2.48,4.49l13.18-6.83,5.81,4.83c6.57-7.64,6.65-3.18,11.48,2.01.25-2.96,1.63-8.72,4.71-9.81,5.26-1.86,2.94,3.94,5.01,4.82,6.57,2.79,7.59-2.09,9.78-2.07l3.97,3.11c2.15-.29,4.96-4.26,8.27-4.87,3.61-.67,6.33,2.34,9.34,1.25,3.4-1.23,3.09-5.55,7.29-4.35,2.56.85,1.4,5.85,1.61,7.91l12.06-1.57c1.55,1.09.41,4.04,1.15,5.36,1.54,2.75,13.07,2.89,6.14,13.29-4.74-2.44-6.11,1.14-9.08,1.72-1.95.38-7.1-.28-9.63.51-2.72.85-3.48,4.49-8.63,1.68l-1,4c15.38-5.37,31.99-4.19,47.95-1.99-.55-6.26,6.59-24.09,14.28-21.82,9.43,4.51-5,26.45-3.84,28.78,11.91,10.25,19.82,26.55,35.52,31.52,11.13,3.52,23.04,2.19,30.44,13.53,5.2,7.96,1.23,11.47-.16,18.74-5.52,28.85-11.28,55.54-21.8,83.13l-20.46,38.99c17.11-5.57,24.67-19.6,36.44-31,34.79-33.71,59.91-65.08,85.27-106.6,25.03-40.97,19.85-92.11,19.14-137.67-.25-16.07-.43-32.01-1-47.97-.24-6.82.27-13.71.03-20.52l-5.89,9.46c.82,4.95,8.91,15.64,1.9,19.05-5.62,2.73-7.99-5.99-9.97-4.53-5.67,10.3-2.11,21.83-3.14,33.35-.71,7.93-3.96,8.86-4.71,11.25-1.06,3.36,1.19,15.06-6.54,13.44-4.79-1.01,4.46-24.55.38-29.05-4.73,5.23-10.3,18.68-8.96,25.46.44,2.25,2.62,3.26,3.5,5.49,1.38,3.49,2.63,22.39.39,23.92-.71.48-4.59-.25-5.32-.8-1.3-.98.36-3.38-1.57-3.11-.04,4.46,1.16,11.23-4.34,12.8l-3-2.04-1.65-10.76c-1.3,3.53-4.26,19.26-7.54,19.96-4.17.9-3.39-12.9-7.45-13.97-3.25,13.97-4.38,28.54-4.86,42.83l3.84,2.63c-2.84,3.23-8,3.83-8.96-1.01,1.38-13.97,1.08-29.75,4.63-43.28,1.23-4.68,2.19-9.59,8.33-7.7l4.99,7.53c2.29-5.97,3.22-15.96,6.22-21.27,1.15-2.05,3.8-2.76,3.83-3.29.06-.97-1.22-2.87-1.08-4.87.19-2.82,1.21-13.12,2.23-14.85,1.39-2.35,3.89-2.01,5.26-3.73,4.24-5.36,6.4-25.22,17.53-14.94v-4.99c-10.26,5.4-8.05-15.14-3.06-16.56,1.49-.42,4.1-.11,4.89-.62,1.36-.88,3.61-10.48,10.18-7.82,1.56-6.98-7.95-8.61-3.83-15.3,2.25-3.65,4.96,0,6.81-1.12.46-.28,5.97-7.79,6.4-8.66,2.77-5.56.62-6.48.56-11.35-.24-19.29,4.39-40.63-3.48-58.48-.71-1.61-4.52-4.07-5.91-6.08-4.13-5.96-6.86-14.76-12.53-19.45-1.62-1.33-20.92-13.15-21.96-12.44ZM134.98,727.62c10.95-10.84,22.32-20.89,35.54-28.99-2.38-23.94-31.93-19.53-38.41-.54l2.87,29.53ZM310.84,700.64c-21.05,3.35-37.92,14.69-56.27,24.17-3.37,1.74-9.15,3.06-12.04,4.94-4.65,3.03-7.29,21.57-7.66,27.31-1.73,26.81,4.67,44.47,18.22,66.8,3.09,5.08,6.65,9.96,11.52,13.5,18.03-2.32,36.61-3.51,54.43-7.13,4.1-.83,13.21-2.08,14.91-6.08,1.44-3.39,3.58-19.69,3.89-24.1,1.86-26.78-2.78-63.35-17.78-86.13-2.98-4.52-8.69-7.41-9.2-13.3ZM218.42,849.54h16.99c1.2,0,19.31-7.66,22.06-8.91.89-.4,1.81.6,1.45-1.6-.34-2.07-7.04-9.29-8.82-12.17-6.64-10.76-14.3-25.83-16.88-38.09-4.02-19.12-2.66-37.45,2.68-56.15-4.16,1.47-10.46,1.8-14.26,3.05-.9.3-.77,1.91-1.29,1.98-3.6.52-5.84-3.96-2.75-6.11,2.54-1.77,13.32-4.19,17.66-6.07,5.24-2.26,11.98-5.42,15.63-9.84-10.99-1.64-24.39,5.63-34.53,6.02-3.16.12-5.71-1.28-8.82-1-1.29.12-10.27,3.07-10.64,3.66-.57.91-1.09,4.33-.8,5.54,1.44,6.04,11.21,15.28,13.71,21.34,2.2,5.33,3.59,19.37.15,23.97-.73.97-2.8,1.03-3.07,2.11-1.76,7.11,2.61,44.4,4.11,53.68.57,3.54,3.27,5.28,1.91,8.58-3.95.47-6.09-3.38-6.76-6.72-3.88-19.34-3.56-42.08-4.19-61.77-.09-2.71-2.9-11.45.58-12.41l3.37.96c.06-1.42.11-2.86-.22-4.27-.31-1.31-12.93-22.14-13.88-23.1-1.98-2.02-4.05-1.96-6.32-4.67-4.69-5.6-8.93-17-11.57-23.92-1.11-.23-1.95.11-2.95.52-5.76,2.37-25.67,18.35-29.43,23.55-2.68,3.71-2.87,7.15-5.69,10.38,2.91,25.89,6.64,51.95,8.09,77.99.81,14.45-1.32,39.08,1.05,51.91.23,1.22,6.89,13.1,7.6,13.39.97.39,2.28.09,3.34.15l.48-12.02c2.17-2.3,4.27-.52,5.07,1.98,1.56,4.87-.3,13.15.6,19.39,1.8,12.44,3.45,16.57,3.82,30.06.14,5.12,3.73,10.66,4.04,14.16.28,3.17-2.05,4.23-1.96,7.71.16,6.62,6.63,11.75,2.98,18.22-5.41,1.29-4.02-4.1-5.59-6.49-.76-1.16-2.48-1.17-3.54-3.45-1.91-4.12.86-6.8-.05-9.88-.97-3.31-4.81-10.27-5.91-14.15-2.39-8.45-2.31-15.36-.87-24l-3.16-1.15-.33-7.43-5.57-1.95,2,200.86,3.64-1.88c4.17.52.93,4.17,1.74,6.89,4.44,4.23,6.63,17.22,10.51,20.56,1.96,1.69,10.77,3.58,15,5.99,8.61,4.88,15.85,12.93,24.05,18.41.58-.75-1.7-6.89-2.23-8.26-10.48-27.27-30.23-71.89-23.3-100.72,1.55-6.43,5.17-9.71,10.07-13.91,32.31-27.71,77.71-31.23,117.3-42.6l38.07-28.89c-4.05-2.9-9.96.03-11.48-4.49-2.22.95-8.48,21.14-9.5,3l-6.98-1.01c-4.28,22.11-8.39,5.49-10.57,5.01-2.66.44-4.26,3.71-6.97,3.96-4.12.39-12.54-3.31-17.66-.94-1.78.82-2.47,4.76-7.79,2.96.85,5.78-1.1,9.06-6.98,7-.21,12.71-7.57,2.88-14.99,4.01,1.13,13.39-4.55,5.54-7.36,6.13-.97.2-1.7,1.83-2.72,2.32-3.09,1.51-3.42-.57-5.53,4.47-4.79-2.29-6.98,3.31-11.96,2.98-5.39-.36-7.06-8.05-8.99-10.84-.74-1.06-3.26-1.76-3.33-2.55-.03-.33,1.43-2,1.67-3.26.49-2.62.59-7.46,2.17-9.57,3.31-4.43,15.93,1.3,20.05,2.31-1.61-11.29,3.6-21.88,9.5-5.01,2.16-1.45,1.06-4.14,1.99-5.99.75-1.5,3.26-1.54,3.52-2.68.32-1.4-.41-8,1.58-8.37,1.86,1.11,7.16,1,8.33,1.54,2.2,1.02,3.43,5.5,7.05,4.53-.1-2.93-.31-6.27,1.99-8.5,2.84.43,6.92-2.12,8.68-2.28,1.99-.18,3.56,2.34,5.71,1.72,1.15-.33,1.35-2.34,2.32-2.97,3.56-2.35,4.55.8,6.83,1.03,1.92.19,4.24-1.74,6.45.03,1.09-8.94,11.16-13.89,15.65-3.94l7.27-1.15c-.05-5.3,2.76-7.81,7.06-3.92-.47-2.57,2.31-11.34,4.65-11.82,5.16-1.04,5.26,10.58,7.86,11.81,2.17.44,1.3-1.76,3.13-2.81,3.41-1.96,11.67-.38,14.06,2.11,2.18,2.28.74,6.32,8.29,4.7,1.12-.82-11.87-17.85-14.06-19.41-3.42-2.44-10.32-3.2-9.67-8.92.19-1.62,1.94-3.08,2.21-4.52,3.54-19.38,16.43-42.21,29.51-57.58,1.43-1.68,5.8-2.49,3.42-5.49-7.58.19-16.66-5.09-23.86-5.03-2.36.02-12.37,1.74-14.27,2.79s-3.05,4.08-3.82,4.23c-1.06.22-2.19-1.74-3.74-1.77-3.58-.07-16.05,3.88-21.32,4.64-17.12,2.48-34.84,3.35-51.12,7.84-7.6,2.1-17.23,8.64-25.01,9.05-1.85.1-14.53-.63-15.52-.94-.76-.24-1.16-.78-1.65-1.35l1.49-2.48ZM612.65,937.48c2.36-6.89,7.03-13.27,6-20.98-5.8,4.21-8.92,12.43-7.98,19.51.18,1.38.52,2.91,1.98,1.47ZM439.77,932.5c-8.26-1.76-17.99-10.2-25.7-11.79-9.4-1.94-20.58.66-29.26,4.27-3.93,1.63-13.01,6.27-15.9,8.07-1.25.78-8.45,5.63-7.08,7.42,17.86,3.33,25.72,10.1,20.53,29.03-1.76,6.43-7.8,14.77-14.52,16.5-2.19.57-12.7-.41-15.04-1.02-5.86-1.52-16.44-10.6-17.01-17.02-.25-2.75,1.03-4.94.56-7.49l-26.05,19.97,5.39,7.5c-4.93,6.22-8.34,12.16-9.72,20.1-1.5,8.63-2.01,17.09,3.48,24.29,9.13,11.99,19.29,7.14,28.86-.94,7.79-6.58,13.22-14.95,16.24-24.74.78-2.54,4.23-12.99.64-14.13l-23.32,6.41c4.85,5.51,2.54,13.28-.18,19.31-7.51,2.19-10.18-5.37-10.75-11.44-.23-2.42-.21-7.08,3.45-4.4.78,4.13.68,8.81,3.97,12,1.9.05,1.91-9.8,1.52-11.26-.23-.84-1.74-.98-2.39-1.83-2-2.62-1.01-3.96-6.62-3.88-.66-5.97,4.92-2.68,9.38-3.09,12.63-1.16,36.27-17.82,30.6,9.09l13.33-.84,1.21.79.44,3.05c-9.03-.81-12.16-.15-17.18,7.3-9.08,13.49-16.29,37.09,6.82,39.55,5.48.58,18.81,1.61,23.91,1.17,7.56-.66,10.11-7.65,11.59-14.38,2.97-13.49-2.53-17.23-11.62-25.66-5.01-4.64-14.04-7.92-13.51-15.96,3.92-.84,4.03,3.26,6.5,4.98l12.48,7.99c-12.16-10.3-11.73-27.02-4.87-40.34,5.46-10.62,10.38-5.55,18.45-4.7,7,.74,14.29.3,21.4,2.07-1.98-5.1-5.96-8.46-5.98-14.48-.01-2.44,1.9-10.95,4.5-11.49,5.02-1.05-.08,3.9-.31,4.69-.55,1.86-.49,7.7-.15,9.74,1.12,6.64,13.04,18.3,20,13.11,9.1-6.79,10.74-31.34-3.02-33.11-4.06-.52-8.93,3.1-5.05-4.41ZM543.88,941.32c1.3.81,8.6-2.06,8.69-3.32l-3.4-7.52c-2.91,2.89-5.49.52-7.75,1.13-2.09.56-2.27,3.75-7.17,2.88-2.56-.45-2.97-2.64-4.52-3.41-2.05-1.01-6.98,1.73-9.65-3.53-1.88-.34-12.08,12.58-16.35,11.94-.27,1.74,1.19.8,2.19.71,6.29-.6,32.99-3.7,36.8-1.2.68.44.76,2.07,1.15,2.32ZM499.73,940.49c-6.3.34-5.26-4.25-8.43-7.67-4.65.02-18.33,9.18-21.85,6.69-.9-.64-.49-2.31-1.19-2.02l-6.5,7.99,24.4-1.08,13.57-3.91ZM612.67,945.48c.25,1.49-.09,5.56-2.49,4.99-2.86-.68,1.1-11.49-11-12.99-26.9-3.33-38.06,3.04-61.94,11.01-10.74,3.59-21.55,7.09-32.5,9.98-.29,2.6.04,1.58,1.46,2.02,6.82,2.1,9.05-.27,15.42,5.57,9.51,8.73,11.61,24.91,3.63,35.39-3.15,4.14-16.08,14.71-21.09,14.91-6.23.25-15.45-11.09-18.82-16.02-8.23-12.07,1.74-29.4,11.4-37.88l-34.41-2.12-1.48-1.36c-.12-.7,2.59-4-.58-3.51-3.48,3.17-3.02,8.11-5.67,12.32-4.32,6.86-10.22,9.7-17.82,5.66,4.47,11.03,1.71,21.97-3.15,32.34-9.27,19.79-17.8,16.53-35.83,8.65,10.25,10.83,11.64,21.85,4.71,35.18s-12.55,9.24-24.21,8.79c-19.72-.76-34,.44-33.47-24.99l-4.87,2.62-8.09,6.84c6.16,6.15,12.71,13.43,16.84,21.14,1.59,2.98,2.47,9.77,5.61,10.38,5.29,1.03,19.79.21,26.04.03,38.36-1.14,76.23-7.11,114.05-12.87,4.06-.62,8.2-1.29,12.32-1.17-3.9-20.95,16.9-38.19,36.97-37.97-2.68-6.1-3.45-10.74-2.98-17.47.32-4.52,5.75-24.9,8.43-27.54,5.18-5.11,17.72-4.15,24.35-2.27,9.03,2.55,23.78,15.35,25.07,24.89,2.13,15.76-6.75,35.74-24.89,34.4l5.99,11.55c1.75,1.11,9.1-1.76,11.51-2.54,16.3-5.28,38.82-13.63,54.41-20.54,6.93-3.07,24.61-12.42,28.47-18.5.82-1.29,4.15-12.35,4.16-13.45.08-7.62-13.55-11.24-19.22-12.37-8.39-1.67-10.72-.92-18.7-6.29-9.89-6.65-16.86-20.06-25.14-25.82-.85-.59-.99-1.39-2.51-.99ZM536.71,943.49c-20.33,2.38-41.15,2.49-60.92,8.06l-.04,5.92c5.16-1.43,11.81,2.18,16.26,1.78,5.33-.48,32.63-10.22,39.22-12.75,1.53-.59,4.99-1.37,5.47-3.01ZM339.91,957.6c2.26,5.54-3.04,7.33.07,13.24,4.4,8.37,19.61,14.2,28.57,10.84s13.24-18.72,11.03-27.46c-1.82-7.2-21.84-14.93-23.76-3.75l-3.98-1.56-11.93,8.69ZM503.49,963.67c-8.96,2.41-20.76,23.75-15.81,32.33.52.9,11.22,13.48,11.99,13.99,3.11,2.07,5.07,2.07,8.43.32,1.96-1.02,12.24-9.54,13.6-11.37,6.9-9.32,4.72-24.29-4.95-31.01-2.3-1.6-10.86-4.9-13.27-4.26ZM408.79,970.47c-12.46-3.84-14.81-1.14-17.54,10.93-2.97,13.15-.84,20.96,10.64,28.45,16.67,10.88,23.37,5.59,29.38-11.42,4.76-13.49,5-25.97-12.47-26.96,2.27,7.47,1.26,26.24-10.3,22.78-3.33-1-2.81-5.11-2.69-7.79h3.99s0,4.01,0,4.01c3.97,1.33,4.77-5.13,5.03-8.46.17-2.15-.17-4.39-.04-6.54-2.45-1.35-9,3.34-9.98.49-1.13-3.28,3.41-2.83,3.99-5.47ZM586.33,990.8c-5.7-6.13-15.89-12.07-24.45-12.15-3.17-.03-3.38,3.03-7.18.24-5.29,8.41-12.53,33.14-5.03,40.8,1.68,1.72,16.86,8.49,19.53,8.73,13.81,1.27,21.61-5.91,22.53-19.45.58-8.55.43-11.92-5.39-18.18ZM305.86,988.46c-2.06-.68-3.45,1.53-4.8,1.77-25.59,4.69-72.03,10.5-94.16,22.67-3.97,2.18-21.09,14.83-22.82,18.15-1.87,3.59-.23,13.34,1.67,17.06,6.72,13.15,34.41,13.62,47.17,16.28-12.21-16.78-1.49-54.48,23.98-43.95-.54,5.6-6.74,1.03-11.24,2.23-11.16,2.96-14.6,22.23-12.31,31.81s19.75,13.75,28.1,13.96c7.87.19,19.01-15.31,20.19-22.76,3.54-22.43-21.19-8.7-22.74-27.24l3.41-.06c2.68,9.75,15.93,6.09,21.99,13.12,7.85,9.11-2.73,31-11.41,37.4l5.99.49c-.97-6.26,6.95-13.3,11.52-16.97,5.93-4.75,13.07-8.28,20.46-10.03.83-1.15-6.74-8.58-7.83-10.64-4.69-8.86-.59-17.5-1.45-25.7-.19-1.8-2.01-2.98-1.71-6.03.38-3.88,5.78-7.4,6-11.58ZM673.62,1013.44l-30.62,17.84-58.32,24.14,1.99,6.98c-3.57.64-4.3-2.21-6-4.54l-1.42-.44c-5.81,3.35-18.85,3.32-23.79,5.99-2.74,1.48-.14,4.38-6.95,1.17-101.12,20.42-205.68,30.16-307.79,10.5-16.97-3.27-36.31-7.21-51.29-15.67l-.5,4.99-4.98-3.99c-.45,5.67,1.47,11.12,2.98,16.5,10.19,36.45,37.39,100.9,61,129.88,5.63,6.91,13.81,11.81,19.48,18.5,4.51,5.32,6.66,10.61,12.47,15.52,11.74,9.92,62.61,31.88,78.68,37.24,6.72,2.24,35.65,10.81,41.04,11.05,2.16.1,2.94-1.55,4.25-1.38,5.21.69,22.62,8.35,27.45,8.13,11.81-.52,33.01-10.47,44.13-16.41,25.95-13.87,39.96-33.74,60.28-52.65,14.89-13.85,31.69-22.96,45.98-38.97,4.03-4.51,31.96-37.74,32.75-40.22.52-1.64-.18-4.14.39-5.1.15-.25,3.43-1.1,4.87-2.62,4.68-4.95,16.82-22.24,20.48-28.49,11.29-19.32,19.64-42.47,25.96-63.98,1.22-4.17,8.65-32.67,7.49-33.97ZM574.69,1048.4c1.49-1.7-5.6-11.74-7.6-12.88-2.69-1.53-7.18-1.54-10.77-3.23-6.02-2.84-5.65-6.57-14.01-5.77-19.04,1.82-31.49,13.98-33.59,32.86,1.07.75,21.86-2.33,23.93-3.54,5.73-3.35,5.68-21.08,18.49-2.83l23.54-4.63ZM347.83,1074.39c-.91-7.65-15.69-27.81-22.54-28.92-13.34-2.15-31.88,7.42-39.94,17.91-7.11,9.26,5.05,7.75,11.52,8.02-.85-5.11,1.14-12.61,7.39-12,6.95.67,11.01,13.1,13.25,13.84l30.32,1.15ZM310.85,1073.39c1.27-3.09-6.02-10.69-8.01-9.55l-1.98,8.55,9.99.99ZM147.96,1100.38v95.94c8.23-.83,16.23-3.22,24.49-3.99,15.47-1.44,32.4-.65,47.97-2,.97-.08,4.55-.7,4.52-1.55-4.78-8.08-7-17.52-11.15-25.82-1.94-3.87-4.56-9.92-8.85-8.07-10.83-9.57-22.12-21.61-35.31-27.72-2.8-1.3-7.33-1.32-9.65-3.34-4.82-4.21-6.01-19.36-12.03-23.45Z"/>
      <path class="cls-1" d="M105.99,304.4c-1.05-10.78-5.02-10.42-8.39-17.59-3.14-6.68-.47-11.61,3.55-17.22,7.3-10.18,17.31-10.91,27.49-16.48,15.27-8.35,29.69-19.36,46.02-25.93,5.73-2.3,13.63-2.64,18.26-7.21-6.23.83-11.68,4.07-17.55,5.93-11.71,3.72-20.82,6.55-32.91,8.06-11.15,1.4-33.7,13.46-43.79,19.17-10.54,5.97-16.21,4.85-26.92,7.06-6.5,1.34-11.75,4.66-17.74,6.25-4.9,1.3-9.6.96-13.82,2.17-7.07,2.02-11.26,12.37-20.15,11.33-.43,2.06,1.02,2.31,2.3,3.18,5.05,3.44,11.53,3.63,16.91,6.07,11.38,5.16,20.58,23.18,30.72,31.24,5.2,4.14,11.69,6.29,16.54,11.44,5.59,5.94,8.18,14.74,13.02,20.95.34.44,9.14,7.71,1.96,6.04-5.75-1.33-12.56-15.39-16.98-20.01-5.51-5.75-12.57-7.66-18.53-12.45-13.77-11.06-20.83-31.45-39.96-33.48,1.36,9.74,4.35,20.75,5.03,30.44,1.75,24.87-1.46,48.68-3.02,73.01-2.31,36.03,10.68,80.34,13.02,116.87,1.69,26.41-1.16,56.9-1.09,84.03.11,42.72.37,83.97-.96,126.86-2.42,77.61-6.52,162.51-3.03,239.9,1.08,23.87,7.62,47.21,9.03,70.92,1.05,17.65-.92,36.25.02,53.95,1.22,22.93,6.62,47.11,8.02,69.93,1.38,22.34-2.25,44.86-3.08,66.95-1.17,31.33,4.11,62.17,3.05,93.48l3.98-1c1.93,5.17,1.43,10.09-3.94,12.61-3.37.83-4.84-9-5.03-11.12-.69-7.69.46-16.16-.03-23.96-1.37-21.82-6.29-44.07-4.97-65.95,1.48-24.65,4.45-47.72,3.03-73.01-1.27-22.54-6.79-46.34-8.03-68.92-.97-17.66,1.13-36.36-.02-53.94-.96-14.75-5.05-29.47-6.84-44.12-3.12-25.58-3.05-53.01-3.19-78.76-.33-63.98,1.72-128.07,4.03-191.93,2.28-62.92,1.22-125.93,2.05-188.83.59-44.14-15.26-91.29-13.07-135.99,1.38-28.26,5.19-61.76-.1-89.76-1.57-8.34-3.06-15.26-11.34-19.65l-1.51,4.02c-4.57.39-7.86-1.78-8.05-6.52l12.06-63.87c-4.15-5.85.08-4.03,1.77-7.28,1.3-2.49.72-6.59,1.7-9.29,2.83-2.45,4.15-.82,4.16,2.31,0,1.31-2.13,6.56.83,5.68,2.34-1.27,4.11-3.3,6.48-4.52,7.97-4.09,21.93-11.09,30.03-13.94,7.95-2.79,16.12-2.46,23.34-5.64,8.42-3.71,15.34-12.1,24.1-15.87,6.32-2.72,12.54-2.97,18.77-5.21,6.79-2.44,12.92-7.74,19.72-10.26,4.95-1.83,10.39-2.09,14.98-4.01,5.09-2.13,9.16-7.5,13.65-10.33,15.9-10,43.48-11.44,61.12-16.83,5.64-1.72,11.43-6.58,17.19-8.79,17.51-6.74,37.15-12.24,55.2-16.76,10.83-2.71,21.98-6.48,33.09-6.88,3.25-1.06,3.8-15.47,5.18-18.81.7-1.7,15.16-21.39,16.9-23.07,2.32-2.23,5.91-4.8,7.98-.91.98,1.85.22,5.37,3.53,4.93,7.71-12.36,17.48-25.29,34.34-20.07,2.81,3.45,2.35,7.58,2.67,11.58.12,1.48-.8,2.9,1.48,2.48,7.73-7.24,23.33-29.39,35.54-25.53,10.69,3.38,1.85,26.79,13.01,34.97,1.74,1.27,13.89,5.6,10.92,8.55-9.28-.88-19.52-5.89-21.74-15.72-3.08-13.66,3.17-33.55-17.7-16.22-4.3,3.57-15.46,18.34-19.06,18.97-10.63,1.84-5.86-12.81-8.38-14.56-8.6-2.08-12.97.66-18.56,6.55-3.01,3.17-9.65,13.9-12.72,15.25-6.28,2.75-6.91-.52-6.75-6.24-1.68-.38-2.02.54-2.97,1.52-1.43,1.46-13.72,18.42-14.26,19.71-1.49,3.56-3.64,14.92-5.04,19.95-1.53,5.48,1.51,6.85-6.76,9.23-4.01,1.16-4.74-5.13,1.07-3.46l-1.58-5c-5.84.98-11.45,3.46-17.16,4.75-22.14,5.02-43.84,10.91-65.17,18.78-6.27,2.31-11.82,7.08-17.02,8.96-6.26,2.27-15.34,2.35-22.03,3.95-9.6,2.3-21.86,5.67-31.16,8.81-10.53,3.56-14.84,11.28-24.08,14.89-4.94,1.93-10.66,2.29-15.67,4.32-5.71,2.31-10.69,6.98-16.72,9.26-6.63,2.51-13.6,2.71-20.28,5.7-9.14,4.1-16.53,13.25-26.27,16.7-5.94,2.1-11.68,1.67-17.65,3.34-6.65,1.86-27.88,11.98-34.33,15.64-2.97,1.69-9.49,6.33-10.65,9.34-6.28,16.41-6.51,42.44-12.03,59.94-.28,3.55,4.87-1.23,7.03-1.98,4.13-1.43,8.68-1.39,12.67-3.32,4.46-2.16,7.91-7.57,12.57-9.41s9.37-1.18,13.76-2.23c10.08-2.41,18.04-5.42,29.17-7.8,14.07-3.01,17.26-8.9,28.38-13.59,6.73-2.84,20-8.62,26.34-10.63,6-1.9,11.43-.8,17.04-1.95,8.53-1.75,23.93-9.63,33.71-12.26,9.04-2.43,16.03-1.43,25.57-5.41,2.54-1.06,5.87-4.37,8.33-4.68,10.55-1.34,11.84-4.52,21.28-8.67,14.43-6.35,31.05-10.72,45.31-17.65,43.7-21.21,81.45-41.27,128.09-56.79,8.99-2.99,23.83-12.1,33.2-8.27,4.46,1.82,12.41,12.57,15.77,13.22,4.96-.14,10.01.32,14.96.01,5.06-.32,32.23-2.81,34.8-4.18,2.01-1.07,1.64-3.32,3.13-4.86s6.87-3.57,9.46-5.53c6.47-4.91,7.19-8.89,11.11-13.87,1.46-1.85,12.98-8.37,12.94-10.02-8.83-3.49-6.27-9.51-1.81-15.82,8.2-11.57,45.03-22.45,59.46-28.48,3.25-1.35,5.61-3.84,8.05-4.94,4.65-2.1,13.21-2.54,17.25-5.73,3.17-2.5,8.07-22.59,10-27.47-8.76-2.88-15.7,5.56-23.28,8.19-4.17,1.45-8.74,1.47-12.98,3.01-10.62,3.88-11.02,5.47-23.77,8.21-5.62,1.21-14.48,7.04-20.66,9.32-20.71,7.66-42.31,12.82-62.9,22.05-12.93,5.79-24.5,14.3-37.97,19.03-1.96.28-3-2.33-2.2-3.75,14.83-6.1,28.12-15.32,42.88-21.57,18.93-8.01,38.19-12.98,57.18-19.77,8.75-3.13,16.25-8.45,25.32-10.66,10.69-2.61,10.5-3.52,19.72-7.26,4.61-1.87,8.42-1.58,12.95-3.04,6.72-2.16,14.27-9.2,21.45-10.53,3.92-.73,8.27.01,12.25-.22.04,1.73-2.76,1.32-3.49,2.92-.38.84.54,2.37.35,3.42-1.63,8.91-5.03,17.07-7.84,25.62,14.91-6.76,30.82-11.47,43.93-21.52,3.75-1.85,7.86-2.71,11.71-4.28,2.47-1,8.89-6.43,10.31-2.66.93,2.47-4.54,5.09-6.77,6.2-19.08,9.51-41.51,22.35-61.23,29.71-5.27,1.96-13.73,3-18.94,5.04-2.81,1.1-5.13,3.86-7.98,5.01-13.76,5.51-49.91,16.44-57.96,26.98-.78,1.02-2.69,4.02-2.96,5.04-.6,2.3,5.85,1.27,6.47,4.48,1.7,3.73-2.83,8-5.49,10.47-5.79,5.37-15.54,13.47-20.03,19.94-3.9,5.62-1.13,6.44-9.6,10.38-9.15,4.25-46.69,8.38-56.84,7.16-10.5-1.26-12.83-15.14-24.97-14.02-7.55.7-25.59,8.99-33.96,12.02-41.69,15.06-77.2,34.15-116.77,53.12-20.4,9.78-41.57,17.2-62.61,27.33-27.65,13.32-54.46,22.59-81.64,37.28-5.14,2.78-9.97,6.92-15.3,9.69-8.15,4.22-17.82,5.52-23.44,13.53-1.27,1.81-3.67,6.32-3.64,8.45.06,4.45,8.07,9.64,8.07,13.97v24.98l-1.51,1.49-2.48-1.49c-.36-5.18.5-10.9,0-15.99Z"/>
      <path class="cls-1" d="M538.71,361.85l16.33-3.15,1.52-1.48c.65-10.26-.38-20.63.1-30.88.87-18.72,2.31-40.23,4.05-58.91.58-6.19,4.95-24.29,3.54-28.54-.71-2.13-3.32-3.14-2.43-6.24,9.93-8.86,26.37-5.54,38.54-3.99,5.31,2.22,6.65,15.42,7.29,20.78,2.71,22.8,1.14,46.94,3.02,69.93,1.9,23.3,8.08,46.04,9,69.46l1.98-7.5c.44-29.83,2.96-56.67,16.29-83.64,3.19-6.46,14.73-30.64,22.44-19.31l-.75,2.53c-1.41.35-3.28-1.09-4.4-.84-1.06.24-8.95,13.58-10.11,15.81-12.61,24.35-15.74,45.34-17.46,72.48-1.47,23.24-1.7,37.76,5.97,59.97,7.54,21.84,12.95,22.16,29.47,35.49,3.55,2.87,6.88,8.17,11.12,9.87,3.67,1.47,21.7,1.86,25.86,1.08,2.25-.43,3.58-2.44,4.93-4.06,9.82-11.81,18.29-27.29,20.3-42.66.67-5.09,2.08-22.36,1.26-26.68-.54-2.84-7.2-10.48-8.49-14.49-.71-2.21-1.89-13.42-2.49-14.01-12.28,7.03-7.57,21.15-14.18,32.28-5.02,8.45-12.36,13.73-22.3,14.67-9.4.89-17.88,1.12-23.47-7.47-6.03-9.25-.11-30.62,9.95-36.03,4.36-2.35,7.7-1.85,11.87-3.12,6.19-1.89,10.17-10.72,14.17-15.81,4.25-5.4,7.79-6.11,10.76-14.22,3.49-9.52,2.14-29.39-3.92-37.6-5.14-6.96-20.19-14.68-26.9-21.07l-.93-3.55c3.92-1.38,8.53,1.45,11.9,3.58,17.96,11.33,26.78,19.88,28.96,41.99,1.84,18.66-6.48,25.48-16.86,37.89-3.64,4.35-5.91,10.85-11.31,13.67-9.21,4.82-16.07-.13-21.19,12.79-7.05,17.81-.19,24.16,17.87,21.87,5.74-.73,10.09-4.03,13.58-8.41,8.3-10.42,3.02-23.76,14.03-34.94,16.8-17.07,14.23,6.76,17.25,15.71,1.16,3.45,6,8.19,7.49,11.5,4.12,9.18-1.25,42.87-5.58,52.91-2.43,5.64-14.94,24.93-19.26,28.71-5.65,4.93-17.92,4.22-25.42,3.63-14.65-1.15-14.96-6.81-24.44-14.54-4.81-3.93-11-7.46-15.47-11.51-12.69-11.48-13.81-28.62-19.4-43.56-.48-1.27-.22-3.07-2.11-3.38l5.98,53.47c1.41,11.57.2,23.43,1,34.98.28,4.07,2.68,5.74,1.59,10.53-1.87,8.17-8.47,1.74-13.13,1.02-5.04-.78-9.88.45-14.47,2.4-2.58,1.09-12.03,9.34-12.95,5.02,4.47-8.81,19.03-14.16,28.25-12.25,1.78.37,7.93,4.59,8.71,3.76-4.23-13.15-2.54-26.83-4-40.46-1.74-16.17-6.03-32.79-7.86-49.11-4.46-39.97-9.01-82.77-11.13-122.78-.58-10.93-.39-22.03-1-32.98-.28-4.95-1.7-20.85-3.25-24.73-1.42-3.55-5.63-5.47-9.24-5.77-2.97-.24-21.27,1.6-21.45,3.5,4.33,8.39-.25,19.01-1.02,28-1.16,13.59-1.16,27.34-2.02,40.95-1.25,19.87-4.58,39.84-2.13,59.81-3.11,4.77-4.48-1.09-5.55-1.37-3.32-.86-23.37,8.05-24.36,3.4.52-4.28,2.42-6.1,1.99-10.74-2.19-23.57-10.1-49.35-14.44-72.54-4.25-22.68-1.61-44.15-1.47-66.99-10.41-.21-14.72,9.18-23.5,10.91-4.93,27.72-2.62,56.37,1.53,84.03l4.33-.91c5.18,3.53.5,6.32.6,10.33.44,17.8,5.35,37.19,7.05,55.04,3.24,34.08,6.71,68.83-.48,102.44-2.17,10.13-6.8,20.16-6.5,30.97,14.59-2.14,30.77-13.17,43.95-1.5-3.6,3.48-9.07.38-13.46.42-11,.09-21.75,7.09-31.47,8.68-4.67.76-6.2-1.43-5.94-5.94.94-16.18,9.2-34.85,11.65-51.39,3.13-21.06-.68-49.93-2.74-71.68-1.43-15.14-3.64-30.31-5-45.46l-4.34-.14-1.45-1.56c-1.15-18.31-6.14-36.51-7.18-54.78-.73-12.95.71-44.68,4.28-56.67,2.39-8.04,3.69-3.11,5.76-4.26.4-.22,4.21-5.55,5.94-7.03,5.79-4.96,8.68-3.77,13.79-6.22,1.59-.76,5.44-7.5,8.46-1.02,4.59,9.84.01,26.68-.29,37.19-.82,28.21,9.24,64.59,13.17,93.84.93,6.89,4,13.94,1.86,20.62Z"/>
      <path class="cls-1" d="M201.67,346.01c2.31-.32,4.56,2.14,3.79,3.87-2,4.49-15.28,10.42-19.46,13.53-10.74,8.02-32.77,40.29-37.89,53.05-12.07,30.06-6.69,83.78,16.34,108.3,16.17,17.22,42.68,6.05,62.24,2.26,8.59-1.66,16.57-.73,25.26-4.72,11.4-5.24,30.01-25.27,30.4-38.55,6.72-2.98,2.27,10.95,1.02,14.01-3.74,9.17-19.8,25.9-28.79,30.17-10.13,4.81-21.26,4.1-31.89,6.09-20.36,3.8-43.99,13.52-61.78-3.72-24.48-23.73-28.21-67.76-23.81-99.85,3.78-27.58,27.25-60.41,49.91-76.01,2.07-1.43,13.12-8.21,14.66-8.42Z"/>
      <path class="cls-1" d="M463.1,380.51c.68.85,2.51,1.2,3.22,2.3l-.56,3.03c-4.07-.46-6.83-3.31-9.46-6.05-.92-.96-.98-3-1.82-3.67-1.62-1.3-4.18-.37-4.21-4.26-8.36,9.77-21.15,17.74-26.25,29.71-10.61,24.9-15.45,52.18-6.01,78.49.84,2.35,5.8,13.43,6.9,15.08,2.64,3.93,17.52,6.31,22.29,5.56,7.8-1.23,15.55-15.18,24.38-17.07,1-1.6-.57-5.17-.46-7.18.23-4.15,3.27-17.68,2.5-20.01-1.76-5.27-18.2,1.93-22.37,2.34-10.39,1.04-19.05,2.09-21.39-9.57-2.35-11.75-.64-35.31,13.08-39.71,2.84-.91,6.61-.45,9.13-1.86,4.97-2.79,9.66-16.91,18.67-8.29.63,2.7-4.68,2.36-6.55,3.43-3.21,1.84-5.32,7.83-9.08,9.91-7.44,4.13-13.67-.68-18.15,10.84-2.16,5.55-5.19,28.82,2.32,30.25,9.9,1.89,18.74-2.95,28.01-5.01,4.78.49,10.64,3.03,14.25,5.51-3.33,3.98-1.34,9.97-1.82,15-.74,7.79-.38,15.23-6.51,20.47-4.53,3.88-14.24,12.83-18.78,15.2-9.04,4.71-19.08,2.59-28.21-1.13-7.38-3.01-13.16-18.16-15.15-25.83-7.49-28.98-4.6-50.3,6.94-77.41,4.62-10.86,19.19-26.04,28.72-33.23,1.69-1.28,3.06-2.73,5.45-2.48.46.05,6.92,2.65,7.16,2.95.72.89-.74,3.4-.44,5.29.23,1.52,3.06,6.01,4.18,7.41Z"/>
      <path class="cls-1" d="M238.9,361.86c1.27,2.06,3.55,3.2,2.99,5.99-10.27-2.46-13.57,8.6-19.96,14.52-9.8,9.07-16.34,8.45-24.18,21.79-11.2,19.06-17.45,41.01-1.25,59.56,8.52,9.75,20.79,12.96,31.42,4.58,7.07-5.57,27.21-26.38,31.05-33.91,1.04-2.04.71-4.83,1.82-6.19.71-.86,5.48-2.68,6.6-4.36,3.65,2.56-.53,5.52-1.07,7.95-.67,3.01,7.88,21.85,9.6,26.47s2.55,9.78,4.48,14.51c1.53,3.75,4.97,5.48,3.48,9.01-4.94-.57-6.9-3.49-8.87-7.62-4.77-10.03-7.08-23.96-12.13-34.35-.8-.62-7.41,9.77-8.47,11-4.42,5.16-23.81,24.99-28.81,27.16-19.43,8.43-37.3-8.82-43.42-25.91-6.47-18.06,1.55-38.69,11.33-54.15,7.43-11.74,14.67-12.13,23.87-20.1,9.89-8.56,6.79-12.49,21.52-15.96-.96-1.55-2.61-2.59-2.98-4.52-.64-3.37.79-30.54,1.89-33.04,1.76-3.98,3.69-2.86,4.13,1.04.58,5.11.06,12.65,0,18.08-.06,5.19-3.04,10.84.71,15.96-.75,1.81-2.06,2.09-3.75,2.49Z"/>
      <path class="cls-1" d="M546.94,1280.03c-5.7-5.7,3.26-21.05,9.82-23.26,2.61-.88,4.07.62,5.89.02,7.25-2.38,23.11-12.12,32.05-15.97,19.12-8.22,40.43-13.78,58.91-22.03,7.56-3.38,24.27-13.12,24.64-22.12.4-9.52-.95-12.77,5.94-21.25,6.82-8.39,24.22-8.89,33.31-3.5,14.74,8.74,9.01,24.58,1.88,36.7-12.52,21.28-25.88,14.24-45.76,21.2-11.39,3.99-20.55,11.67-31.32,16.65-14.59,6.75-31.43,11.64-46.02,17.94-8.67,3.74-15.55,10.01-24.35,13.63-5.89,2.42-19.91,7.11-25.01,2ZM548.83,1277.14c17.03,5.97,31.76-9.93,46.16-16.04,23.12-9.81,40.96-16.54,63.62-28.32,16.74-8.7,26.49-7.45,42.64-12.33,11.08-3.34,22.03-22.43,21.39-33.65-.54-9.56-10.68-15-19.41-14.35-9.96.75-16.38,3.15-20.1,12.88-2.1,5.5-.27,6.81-.41,11.49-.3,9.44-14.62,19.7-22.4,23.67-10.6,5.41-23.61,8.06-34.65,12.32-16.45,6.34-33.56,12.77-49.34,20.61-6.9,3.43-12.73,5.24-16.13,12.83l-.5-5.97c-5.45-.84-13.45,12.91-10.86,16.86Z"/>
      <path class="cls-1" d="M584.63,394.86c1.9,1.26.88,33.22,1.01,38.5.38,16.47,1.98,33.34,1.08,49.97-.27,5.06-3.89,23.5-2.54,26.42.96,2.07,5.8,3.22,1.98,6.02-.73.14-5.72-2.68-6.17-3.3-3.02-4.12.56-20.37.74-26.14.93-29.26-1.85-58.32-.04-87.49-10.35-.09-15.85,11.72-27.03,11.45l-.82,1.18c-.12,8.28-.3,16.61-.17,24.89.2,13.28,2.3,31.05.92,43.81-.35,3.19-1.16,13.57-5.22,12.49-6.06-1.6-.34-21.88-1.63-27.15-.27-1.11-2.38-1.19-3.09-2.1-2.02-2.59.03-4.52.07-7.11.24-14.3.05-29.79,1.01-43.95.14-2.06.99-10.38,1.5-11.49,2.51-5.47,5.26,1.68,7.11,2.88,5.61,3.66,15.43-6.76,21.57-8.24,3.45-.83,6.3.31,9.74-.64Z"/>
      <path class="cls-1" d="M331.62,513.52c-.63.38-12.82,2.96-14.39,3.11-4.5.42-15.04-.53-18.76-2.97-5.24-3.44-4.86-24.48-5.73-31.25-2.98-23.14-6.47-46.17-9.71-69.24-4.21-30.01-4.69-46.52-16.97-74.97-.64-1.49-6.11-8.16-1.62-9.29,2.85-.72,5.16,4.68,6.29,6.63,14.57,25.16,14.28,47.92,18.27,75.67,3.69,25.68,7.3,51.34,10.85,77.09,1.09,7.9-.59,16.84,4.66,23.55l28.33-1.58c-1.53-4.78-1.43-9.97-2.29-14.7-9.86-54.09-18.76-108.51-29.42-162.45-1-5.07-.55-23.91-7.71-23.24-2.88,2.91-23.58,10.87-24.49,12.15-.26.37,1.46,7.72-4.98,3.3-4.14-2.85.4-7.32,3.56-9.28,2.17-1.34,23.53-11.85,24.9-12.07,15.61-2.49,13.68,17.89,15.72,28.12,9.3,46.46,15.85,93.04,22.97,139.93,1.98,13.04,6.02,25.85,6.67,39.2l-2.28,1.42-2.17-1.85c-.74.03-1.08,2.36-1.72,2.74Z"/>
      <path class="cls-1" d="M665.34,259.61c-3.69,3.3-4.89-1.82-2.19-5.66,1.96-2.79,14.12-10.32,17.99-13.99,3.84-3.65,20.95-21.39,22.01-24.96,3.12-10.54-3.47-19.53-4.41-29.65-.69-7.44.62-15.01-1.13-22.36-13.31.55-19.66,15.09-27.46,24-3.91,4.47-9.29,8.46-13.02,12.96-4.52,5.47-22.96,36.62-23.48,42.48-1.21,13.79,10.52,8.31,17.37,13.62,2.92,2.26,1.95,5.02-1.6,4.69-8.14-.76-25.84-5.85-22.78-17.11.27-.99,2.03-.98,2.46-1.71.97-1.63,1.6-6.89,3.01-10.02,3.12-6.92,10.24-18.76,14.36-25.61,6.57-10.93,21.21-26.57,30.18-36.77,4.92-5.59,19.2-18.11,25.41-8.48,2.7,4.19,1.71,19.13,2.66,25.32,1.52,9.91,6.87,17.78,4.19,28.41-3.43,13.63-32.91,35.3-43.57,44.84Z"/>
      <path class="cls-1" d="M357.07,503.54c-2.77-14.2-4.23-28.67-6.53-42.95-1.41-8.73-8.04-33.15-6.49-40.05,2.13-9.47,25.37-7.04,33.03-10.48,5.16.47,6.02,5.03,6.62,9.38,2.93,21.2,4.97,44.47,6.11,65.84.13,2.44,1.2,4.69,1.63,7.05-6.3,6.72-16.41,6.91-24.67,8.91-2.84.69-7.62,4.56-9.71,2.31ZM385.7,490.67c-1.09-6.69-.26-13.7-.9-20.37-1.07-11.18-4.32-22.03-5.86-33.12-.44-3.15-.97-18.53-1.57-19.41-1.34-1.96-12.12,1.47-15.17,1.93-3.95.6-8.3-.24-12.38,1.13l12.01,75.95,23.87-6.1Z"/>
      <path class="cls-1" d="M116.53,1321.7c.39.3.4,1.33,1.16,1.51,1.73.4,4.75-1.16,4.28,1.51-2.32,1.51-6.97,3.15-9.61,3.48-3.29.41-9.81-1.12-12.83-.94-4.67.28-8.24.89-13.88,1.05-3.86.11-11.36,5.03-13.64.42-1.33-2.7,3.52-.6,4.34-.75,1.3-.24,2.46-2.13,4.36-2.52,5.95-1.24,12.66,3.57,18.82-1.18l14.44.96c1.02-.88-4.72-7.46-6.51-7.97-3.6-1.03.49,3.17.03,3.98-2.32,4.12-6.14-4.73-4.51-6.99l-8,.52c-4.7-2.83.5-30.43,5.52-32.49,2.06-.4,1.7.8,1.28,2.28-2.56,9.1-6.16,17.92-4.79,27.69h5.46c.61-3.88-.76-7.3-.35-11.38.25-2.53,4.49-16.55,6.38-16.57l5.46,1.93,2.56-5.95c6.19,2.84.47,11.14-.25,15.75-.51,3.29.1,6.5-.36,9.63-.97,6.59-5.66,11.25.65,16.06Z"/>
      <path class="cls-1" d="M669.59,350.82c-6.19.7-17.84,13.26-23.33,12.11-7.73-15.63-6.13-34.4,4.96-47.96,4.85-5.93,11.36-10.74,19.44-8.6,11.16,2.95,9.49,22.65,13.93,31.01l-2.49,1.53c-7.11-.01-3.59-36.99-21.42-25.48-12.19,7.87-18.36,30.59-11.52,43.43.94.2,8.47-5.5,10.46-6.52,3.28-1.68,10.9-6.08,9.98.47Z"/>
      <path class="cls-1" d="M143.96,1386.19c-3.43,3.38-18.97-8.84-22.98-10.49-4.92-2.02-10.16-1.64-15.03-2.96-9.52-2.58-14.71-9.62-22.42-14.56-8.99-5.76-15.46-8.58-24.58-15.41-2.09-1.57-6.07-1.35-3.46-5.6s13.83,7.46,16.19,8.88c3.72,2.24,8.21,3.36,12.25,5.74,6.72,3.94,12.92,11.39,19.68,14.3,6.39,2.75,13.7,2.02,20.05,4.93,5.16,2.37,10.51,7.57,15.39,10.6,2.13,1.32,5.83-.08,4.92,4.56Z"/>
      <path class="cls-1" d="M348.18,365.51c-4.55-4.37-5.51-16.01-3.92-21.75.53-1.91,2.39-1.78,2.56-2.58.85-4.12-.99-12.07,5.72-14.1,14.05-4.24,15.87,18.21,14.06,27.05-1.5,7.31-10.6,18.87-18.41,11.37ZM356.53,361.55c5.72-5.04,7.92-25.31-1.21-28.7-10.41,5.42.71,17.52-1.43,25.47-6.5.45-1.02,6.45,2.64,3.23Z"/>
      <path class="cls-1" d="M716.39.31l40.85,47.59c3,2.6,10.15,2.15,9.32,7.16-6.44.02-13.71-3.69-18.38-8.1-8.43-7.94-26.7-29.84-33.41-39.54-1.6-2.32-3.02-4.75-4.17-7.32l5.79.21Z"/>
      <path class="cls-1" d="M329.84,562.72c-1.43,1.69-2.2-1.24-2.59-1.86-1.54-2.44-4.35-12.65-6.88-12.12-3.57.75-4.33,13.69-6.46,16.54-3.58,2.43-6.87-3.95-8.04-2.55.44,9.1-4.53,13.47-12.98,8.99-1.25,5.96-6.12,9.63-12.31,7.79-6.29-1.88.1-23.19,6.4-23.26,8.91-.11,6.55,5.74,7.12,12.26,12.5,8.81,7.73-11.9,10.24-15.81,3.39-5.29,5.65,9.99,7.03,10.01,3.22-5.73,2.15-17.69,11.48-16.52,1.57.75,7.59,15.84,7,16.53ZM287.87,558.74c-2.26-.53-1.62.32-2.29,1.24-3.06,4.2-4.9,11.53-4.7,16.74,4.31.48,7.45-.11,9.08-4.48,1.83-4.89-3.6-7.97-2.09-13.51Z"/>
      <path class="cls-1" d="M265.87,540.75c.83,6.87,5.43,10.36,6.05,17.44.6,6.85-2.16,26.12-11.46,25.52-12.58-.82-7.42-32.13-20.08-33.03-13.72-.97-11.58,19.3-7.47,27.53-2,1.81-3.16-1.74-3.74-3.25-3.83-9.87-3.3-27.91,11.21-27.29,13.19.57,10.99,23.19,16.49,30.57,8.92,11.97,13.26-16.57,11.79-23.78-.75-3.68-4.17-7.22-4.71-12.3-.21-1.97.19-1.46,1.92-1.42Z"/>
      <path class="cls-1" d="M385.05,557.49c5.6,5.64,16.87-8.93,22.43-10.57,1.45-.43,2.72-.73,2.31,1.31-7.04,3.43-15.18,15.07-23.25,13.31-10.99-2.4-3.74-24.82.26-31.34,1.18-1.92,1.8-3.22,4.44-3.41,4.11.82-.52,14.51-1.88,17.02-2.05,3.77-9.3,8.67-4.31,13.7Z"/>
      <path class="cls-1" d="M359.82,578.73l-.51,2c-3.28-.93-6.69-2.51-10.09-2.91-16.74-1.95-78.25,14.42-89.88,26.84-1.8,1.92-.51,4.59-3.45,4.03-.92-5.22,5.77-8.45,9.68-10.79,18.07-10.82,65.19-24.93,85.66-22.09,3.07.43,5.59,2.31,8.58,2.93Z"/>
      <path class="cls-1" d="M379.81,555.74c1.45,1.39-7.37,11.49-12.83,2.34-1.63-2.72-1.34-5.17-2.23-7.58-.32-.86-1.89-.79-1.97-1.39-.1-.73,2.58-9.47,2.92-11.99.59-4.4.68-23.31,5.63-24.36,3.4.29,2.63,4.86,2.47,7.48-.67,10.75-9.82,27.24-4.39,36.41,4.6,7.78,8.57-2.66,10.4-.91Z"/>
      <path class="cls-1" d="M362.82,557.74c.29,3.1-4.58,5.24-7.03,4.57-3.54-.96-6.82-7.14-7.52-10.52-1.02-4.94-1.23-31.15,4.2-32.92,8.55-2.79,3.95,18.06,2.87,21.89-1.79,6.33-6.49,8.66-2.36,15.32,4.67,7.54,8.74.58,9.83,1.65ZM354.82,522.76c-2.71-.46-1.72.5-2.26,2.17-1.97,6.07-1.87,12.49-1.72,18.8l2.7-7.78,1.29-13.19Z"/>
      <path class="cls-1" d="M92,1278.27c.71.69-3.19,9.07-3.71,10.77-2.64,8.72-4.76,18.05-4.28,27.2l4.53-.68,1.46,2.67c-16.33,6.06-7.36-24.44-4.48-31.96.56-1.47,3.98-10.43,6.48-8Z"/>
      <path class="cls-1" d="M65.01,1276.27c2.71,10.26-1.89,22.45.02,32.46.49,2.58,3.69,3.35,2.98,6.51-3.65-.37-5.64-4.25-6.01-7.47-.6-5.1-.82-24.35.03-29,.31-1.71,1.07-2.81,2.99-2.5Z"/>
      <path class="cls-1" d="M78,1313.23c-1.99.38-2.42-.91-3.07-2.41-2.62-6,.9-15.59.88-22.07,0-2.72-2.84-5.65-.29-7.48,2.51-.47,3.37,4.96,3.49,6.5.67,8.41-3.86,17.08-1.01,25.46Z"/>
      <path class="cls-1" d="M345.83,563.73c.82,2.24-2.11,2.93-3.6,2.97-5.6.14-6.21-8.51-7.46-12.21-.3-.88-4.34-1.46-.42-4.73,2.58.06,4.73,12.43,6.46,14.56l5.03-.58Z"/>
      <path class="cls-1" d="M538.99,775.3c-1.77-1.46-2.83-7.07-3.48-7.52-.97-.67-3.8.31-4.8-1.71,4.48-6.46.91-14.83,2.24-22.73s12.71-22.4,20.21-13.7c2.13,2.47,2.73,19.3,2.57,23.49s-1.47,15.41-3.25,18.74c-2.09,3.92-9.78,6.47-13.5,3.41Z"/>
      <path class="cls-1" d="M640.69,882.49c-1.36-4.86-5.02-9.66-5.8-14.7-3.23-20.86,2.44-35.06,15.33-51.14,5.33-6.65,20.37-17.21,27.2-8.38-.07,7.12,2.84,14.97,3.19,21.81.96,18.48-19.78,36.69-28.49,51.44l-2.48-1.53c6.54-15.31,19.74-24.99,25.46-41.46,3.26-9.37-1.16-19.87-2.43-29.54-2.62-1.9-14.19,4.13-16.57,6.54-3.53,3.58-16.45,24.2-17.22,28.75-1.98,11.84-.47,26.4,5.76,36.72l-3.96,1.49Z"/>
      <path class="cls-1" d="M390.35,699.65c4.68-1.41,5.2,8.38,5.45,11.49,1.89,23.79,2.25,53.25,1.02,76.95-.42,8.13-.18,28.24-4.14,34.83-1.76,2.92-4.87,4.11-4.45-.39.67-7.24,3.38-15.57,3.63-23.41.17-5.4-1.06-10.3-1.08-14.99-.11-27.03,1.03-54.13-2.04-81-.09-1.2.44-3.12,1.63-3.48Z"/>
      <path class="cls-1" d="M654.63,927.5c3.1,2.98-16.94,13.26-13.54,19.97,1.56,3.08,13.75,2.62,17.59,3.46,4.94,1.08,14.21,8.3,16.9,7.08,3.97-1.8,10.81-14.7,11.1-19.04.32-4.82-3.72-22.57-6.59-26.45-5.49-7.4-25.26.27-30.96,5.95l-1.53-2.49c4.88-7.36,20.26-11.64,28.46-10.41,11.26,1.69,15.56,26.24,14.56,35.42-.53,4.86-7.04,17.36-11.03,19.95-7.85,5.09-12.81-2.75-19.98-4.93-8.55-2.6-29.18,1.38-22.03-15.1,1.03-2.38,10.25-11.13,12.51-12.47,1.59-.94,2.7-1.2,4.54-.94Z"/>
      <path class="cls-1" d="M607.31,860.89c10.79,11.94,3.4,29.49-1.15,42.65l-1.07.84c-4.11-2.31-2.86,1.41-4.9,1.18-2.76-.62-3.92-3.55-6.02-5.04-4.17-2.95-10.39-5.18-11.43-11.56-2.11-13,7.85-46.58,24.57-28.07ZM599.67,859.54c-7.4-1.07-11.03,14.05-11.71,19.76-1.8,15.23,5.01,12.87,14.7,21.21,1.65-8.32,6.4-15.58,6.02-24.44-.07-1.67-2.3-11.01-3.06-11.5-3.14-2.03-4.16,6.56-7.95,1.44l2-6.47Z"/>
      <path class="cls-1" d="M443.9,908.37c-.75-2.12-2-4.03-2.19-6.36-.12-1.43.9-12.9,1.21-13.87.43-1.32,2.3-1.32,2.89-2.33,1.92-3.28,6.78-16.07,12.32-14.21,5.61,1.88.05,21.02-1.61,25.17-2.16,5.38-5.74,12.48-12.62,11.6Z"/>
      <path class="cls-1" d="M401.66,881.66c4.23,8.32-3.15,29.58-10.68,33.79-3.58,2.01-6.76-2.11-7.22-5.4-1.25-8.96,6.38-30.47,17.9-28.39Z"/>
      <path class="cls-1" d="M605.66,638.68c.26,2.13.12,2.66-1.61,3.88-7.2,5.08-25.97,8.24-34.62,6.87-7.2-1.14-13.76-8.68-20.22-8.76-7.52-.1-28.21,5.4-35.47,8.52-3.29,1.41-9.1,3.13-5.15,6.14l-1.51,2.21c-3.27.82-5.4-.26-6.13-3.53-.14-1.61.82-2.7,1.85-3.76,6.74-6.89,42.82-15.47,52.18-13.36,3.07.69,7.85,5.23,11.41,6.58,14.92,5.69,25.29-1.73,39.27-4.79Z"/>
      <path class="cls-1" d="M260.89,685.65c-1.6-2.09,6.75-9.36,8.52-10.96,5.15-4.65,20.81-17.35,27.07-17.97,7.33-.72,8.16,4.75,13.04,7.78,6.8,4.23,31.36,4.9,39.85,4.2,3.87-.32,7.25-1.98,10.69-2.38,3.67-.43,3.91,2.65,1.05,4.12-5.87,3.02-28.38,2.69-35.75,2.21-3.77-.24-11.38-1.02-14.7-2.29-5.22-2-9.14-9.93-14.04-9.5s-19.39,12.63-23.75,16.29c-2.23,1.86-9.55,11.67-11.97,8.51Z"/>
      <path class="cls-1" d="M486.41,1003.78c13.75,14.17-5.27,52.55-24.44,54.42-11.39,1.11-26.95-7.6-28.95-19.52-1.72-10.29,3.1-36.49,14.05-40.43,2.36-.85,20.54-.09,24.17.21,4.62.39,11.87,1.92,15.17,5.32ZM449.51,1001.61c-9.85,1.93-13.14,29.06-11.51,37.08,1.77,8.68,15.69,15.66,23.99,14.53,11.12-1.51,21.99-19.31,23.49-29.55,3.83-26.08-18.48-19.72-35.97-22.06Z"/>
      <path class="cls-1" d="M303.63,802.34c-1.9,1.9-12.52,2.86-14.31,1.36-5.01-4.17-6.57-26.76-4.77-32.94.26-.91,6.94-13.86,7.46-14.52,2.49-3.12,9.41-3.27,11.37-.66s4.66,25.34,4.55,29.5c-.07,2.64-2.86,15.81-4.3,17.25Z"/>
      <path class="cls-1" d="M372.32,1018.78c1.08.02,2.52,1.51,4.08,1.65,2.6.23,4.71-1.41,7.66-.83,10.04,1.97.53,22.72-9.51,20.64s-9.3-21.56-2.23-21.46ZM371.95,1023.57c-3.03,16.29,10.85,15.49,11.74,1.5-.98-2.94-3.87-.9-5.42-1.12-2.13-.3-3.66-2.37-6.33-.39Z"/>
      <path class="cls-1" d="M440.77,956.48l1.5-9.98c4.79,3.68,1.35,17.93-4.88,15.89-3.46-1.13-1.82-9.79,3.38-5.91Z"/>
      <path class="cls-1" d="M259.89,1034.43l-.99,4.98c15.27-1.75,8.38,21.49-3.54,8.05-5.31-5.99,1.39-15.85,4.53-13.03Z"/>
      <path class="cls-1" d="M561.35,992.6c2.21-.7,10.95-.63,12.43,1.25,5.24,6.67-5.98,18.5-12.11,10.11-1.4-1.91-2.88-10.54-.32-11.36ZM570.68,996.45c-4.72-1.29-7.97,2.01-4.48,5.98,3.08.9,4.8-3.59,4.48-5.98Z"/>
      <path class="cls-1" d="M506.49,983.66c9.05-1.28,6.5,8.39,2.76,12.81-9.23,10.9-19.54-10.45-2.76-12.81ZM508.72,986.46c-4.68,1.06-8.85-.02-8.01,6.43,1.09,8.42,10.38,0,8.01-6.43Z"/>
      <path class="cls-1" d="M359.83,968.46c-2.16-5.21,7.67-9.82,8.98-5.46,1.17,3.88-6.25,6.35-8.98,5.46Z"/>
      <path class="cls-1" d="M459.24,1009.86c.5-.18,7.36-.59,8.02-.47,5.88,1.07,2.64,14.89-2.44,16.6-10.64,3.58-9.53-14.68-5.58-16.13ZM465.62,1013.57l-4.86-1.13c.36,3.25-1.25,7.54,1.51,9.98,2.01.94,4.39-7.18,3.35-8.85Z"/>
    </g>
  </g>
</svg>