<?xml version="1.0" encoding="UTF-8"?>
<svg id="Calque_2" data-name="Calque 2" xmlns="http://www.w3.org/2000/svg" viewBox="0 0 1201.46 1158.2">
  <defs>
    <style>
      .cls-1 {
        fill: #fff;
      }
    </style>
  </defs>
  <g id="Illu_Vectorisée_WHITE_" data-name="Illu Vectorisée (WHITE)">
    <g id="Ski">
      <g id="Ski-2" data-name="Ski">
        <path class="cls-1" d="M611.69,125.41c-7.05-3.83-13.21-1.61-20.54-1.96-11.17-.53-22.43-1.93-33.72-.84-3.21,1.42-4.37,5.23-6.66,7.33-3,2.74-13.75,9.74-15.14,11.91-1.92,2.99,3.52,3.29-5.2,6.73-34.04,13.43-71.15,17.48-105.6,30.31-12.62,4.71-8.18,8.8-7.98,18.93.14,6.71-.94,48.41.43,50.55.77,1.21,1.33,1.13,2.55.49,2.38-1.25,5.6-5.34,9.6-7.39,7.8-3.99,17.09-5.51,25.03-9.95,6.05-3.39,10.85-8.59,16.6-12.38,7.35-4.85,31.07-16.75,39.23-15.84,8.79.99-.72,8.33-2.76,11.33-8.99,13.3-8.96,19.41-13.54,33.44-3.74,11.47-12.6,24.05-17.68,35.29-6.66,14.73-11.82,30.98-14.52,46.94l93.01-5.43c2.25-13.26,4.51-26.66,8.43-39.54,2.81-9.23,7.75-17.99,10.21-26.77,1.05-3.76,2.78-19.62,5.96-20.27,2.77-.57,14.15,5.95,18.54,7.32,16.8,5.24,28.58,5.33,44.05,15.92,1.54,1.05,10.75,8.07,11.2,8.79.98,1.57.08,3.97-1.02,4-1,.02-10.98-8.44-13.18-9.79-14.19-8.72-26.16-9.36-41.1-13.87-5.97-1.8-11.27-5.43-17.18-7.29.68,13.87-6.89,25.24-11.04,37.43-3.37,9.9-9.83,33.23-9.99,43.08-.07,4.52,4.98,8.58-2.02,10,1.14,18.02-4.47,35.82-1,53.79l-4.93,1.63c2.39,7.38,2.08,15.79,3.26,23.22.43,2.7,2.28,5.08,2.52,6.51.45,2.69-1.73,6.53.76,10.2,1.87,2.75,10.75,4.92,9.55,12.93,4.55.96,18.69-1.46,21.64,1.36,3.18,3.04,3.59,13.84,4.27,18.23.21,1.33-.66,1.78,1.46,1.49,14.95-9.41,26.99-22.24,40.58-33.38,16.85-13.81,33.79-28.06,48.39-44.55,6.9-7.8,12.86-14.63,13.51-25.46.26-4.31-2.22-14.51.37-16.62,8.85-7.22,7.87,17.31,7.33,21.32-2.49,18.38-23.14,31.04-34.23,43.72-2.84,3.25-4.91,7.66-7.43,10.55-8.9,10.22-21.23,18.94-31.53,27.44-11.95,9.86-23.67,19.79-36.57,28.44l-.82,1.97c1.74,5.47.02,10.41,2.14,15.84.94,2.41,3.94,2.68,1.77,6.71,15.56,3.56,31.39,6.06,46.99,9.49,35.3,7.78,71.24,19.65,107.95,13.04,16.38-2.95,31.12-10.47,46.42-16.54l.54,6.31c-6.69,6.77-17.08,10.99-26.22,13.98-46.85,15.28-87.25-1.06-132.69-10.79-25.75-5.52-51.77-9.84-77.34-16.18-17.45,7.55-31.8,20.09-47.92,29.86-20.04,12.15-34.13,19.25-53.14,33.81-6.01,4.6-31.08,17.66-38.49,20.48-17.81,6.76-46.86,10.91-52.82-12.78.89-2.24,3.62-3.65,5.88-2.24,3.43,6.89,5.55,10.72,13.57,12.43,2.37.5,9.49,1.29,11.79,1.05,14.3-1.52,41.45-15.12,53.89-23.11,5.73-3.68,9.26-9.32,14.74-13.25,13.74-9.85,33.22-17.05,46.38-27.57,6.77-5.41,7.54-6.28,15.06-10.92,4.88-3.01,9.48-6.59,14.42-9.54-1.17-1.49-3.01-1.86-4.74-2.24-22.33-4.84-49.67-5.62-72.62-9.33-32.98-5.33-83.28-9.37-96.69-44.22-1.52-3.94-5.99-20.73,2.49-18.56,4.2,1.07,1.51,6.97,2.35,10.68,7.29,32.04,45.9,36.18,73.11,40.87,19.23,3.31,38.58,6.01,57.76,9.19,8.96,1.48,18.28,2.63,27.36,3.1-2.41-2.91-6.6-4.6-9.47-7.01-2.12-1.78-6.92-7.76-8.53-8.46-4.84-2.11-7.46-.79-13.48-5.51-18.12-14.19-15.02-41.81-25.29-59.66-1.4-2.44-14.81-18.12-16.6-19.38-3.71-2.61-7.66,1.43-10.13-6.86-4.28-14.38.34-27.95,2.24-41.66,5.63-40.6,15.11-55.29,32.09-91.02,3.13-6.58,4.34-11.31,7.02-17.96s7.28-12.66,10.16-19.31c-1.82-1.69-27.18,11.46-30.7,13.76-5.74,3.75-10.55,8.87-16.59,12.39-10.53,6.13-23.03,7.53-32.66,15.31-2.08,1.68-6.4,7.34-8.02,8.05-2.66,1.16-6.83-2.69-8.56,1.91-.38,2.46,4.19,10.88,1.08,11.53-2.25.47-6.11-5.66-5.49-7.99-17.38,8.2-20.2-2.51-18.98-17.98-1.49-1.68-11.82,9.44-13.86,3.35-1.87-5.59,6.06-14.83,3.86-21.34-4.65.14-9.13,11.85-13.51,7.99-3.45-3.04,6.31-13.43,7.51-17.5l-4.5-2.47c-4.03-7.83,13.12-20.19,16.49-26.47-7.24-19.68-19.63-37.62-18.97-59.5-6.69,1.22-12.95,4.74-19.99,2.49-.6-4.41,7.91-4.16,11.53-5.46,10.18-3.64,5.23-4.91,5.52-12.38.19-5.05,4.77-11.71,4.64-3.41-.04,2.87-.64,5.52.3,8.77,3.74.07,6.23-3.34,9.61-4.88,3.89-1.77,9.96-3.66,14.18-3.88,5.05-.26,6.06,2.13.85,3.91-8.52,2.92-15.75,4.56-22.64,11.34l.1,1.4c3.46.18,1.54,7,2.02,10.46,1.42,10.28,5.62,20.01,9.4,29.57,2.47,6.24,7.13,11.68,6.47,19.03,3.28,3.4,25.48-20.06,29.49-7.99l.94-.03c6.57-6.73,16.88-6.91,25.29-9.7,9.15-3.04,19.1-7.43,28.23-9.75,16.25-4.12,37.77-4.49,53.19-11.77,2.87-1.35,20-15.99,23.76-19.21,5.19-4.45,9.36-12.88,16.97-11.52-4.52-5.59-9.19-10.09-12.49-16.96-2.7,2.93-11.2,16.98-14.19,17.81-.9.25-1.78.37-2.69.09l-1.72-2.79c-6.62-.14-4.85,5.91-10.39,7.66l-3.98-6.78-5.02,4.97c-6.31-2.25.56-7.84,1.92-11.08,1.7-4.05,7.07-23.56,10.12-24.86.44-.19,2.48-.4,2.48.48-.39,6.28-9.22,19.73-6.49,25.46,1.94,4.08,4.4.11,7.12-.63,2.86-.77,8.1.95,9.89-.24,3.45-2.3,15.66-23.66,13.46-26.09-8.34-.93-18.1-6.16-18.08-15.51,0-3.54,1.56-6.9,1.08-10.49-3.55,4.82-8.43,5.25-12.49,7.99-1.82,1.23-10.95,10.74-11.47,12.52.55,4.2,8.84-1.11,10.53,1.43,1.9,2.84-4.52,15.63-8.55,10.52l2-5.47-8.34-.15c-4.34-1.42.95-9.94,2.52-12.17,5.96-8.44,11.1-9.57,18.32-14.66,3.12-2.2,4.93-6.99,8.52-9.47,1.57-1.08,4.68-1.45,4.85-1.64.56-.64-.2-4.65.16-6.34,4.08-18.98,26.97-33.06,44.19-38.76,18.87-6.24,41.22,1.62,58.38,9.53.87.78,7.43,17.62,7.85,19.62,3.25,15.4-8.76,20.06-15.48,31.41,3.79,2.76,5.25,8.07,7.91,11.15,1.47,1.7,4.91,3.2,5.53,4.47,1.14,2.36.09,5.64.69,8.31.43,1.93,2.35,3.13,2.75,5.24.78,4.06-1.56,13.55-4.49,16.42-1.09,1.07-2.91,1.13-3.97,2.03-6.29,5.33-13.25,11.11-14.49-1.99l-6.39.19-7.56,12.34c-.01.69,2.48.31,2.99,2.92,1.95,9.88-1.6,24.58-5.01,34.03-2.32,6.42-5.94,12.2-8.01,18.47,1.74,0,3.54-.17,5.26.24,8.2,1.99,24.98,6.87,31.66,11.31,11.61,7.72,20.2,25,31.03,33.93,6.84,5.64,15.26,9.62,22.68,14.36,2.34.36,17.14-13.61,18.3-4.89l-14.51,9.01c-1.58,6.97,6.96,23.76-.52,28.43-1.73,1.08-4.72,1-5.7,1.8-.73.59-1.6,3.99-3.68,5.81-1.56,1.37-4.68,2.28-5.13,2.9-1.22,1.71.69,4.8.39,7.27-1.44,12.17-25.7,11.16-31.43,1.83l-1.4.37-38.56,40.52c-1.77,3.8,11.07,13.07,10.6,15.51-1.29,1.69-2,1.94-3.99,1.02-2.31-1.08-10.69-12.76-13.95-10.45-1.9,2.6-5.57,18.53-8.53,17.94-2.22-1.43-.99-2.17-.87-3.79.52-6.68,3.43-11.09,5.35-17.18l-10.99-1.01.15-3.85c5.82-2.85,11.05-.16,16.75.78,7.11-15.87,25.42-24.54,36.03-37.44,3.18-3.86,7.03-8.08,6.03-13.47l3.83.18c1.33,3.62,5.31,10.21,9.1,11.37,2.41.74,11.99.96,14.05-.05,5.48-2.68-1.46-12.69.44-15.54,1.66-2.5,6.25,1.88,9.07-.93,3.03-3.04-.6-8.68,2.44-10.57s7.25,6.24,8.08.03c.3-2.3-3.8-21.43-5.13-22.4-1.69-.48-3.79,1.32-5.3.87s-1.06-3.57-3.08-2.99c-5.28.73-20.68,19.56-22.09,25.04-.68,2.64.25,3.93.51,6.37l-.9,1.15-2.9.33c-5.68-6.82,3.47-19.48,8.36-24.85,2.57-2.82,13.84-10.36,14.29-11.15.48-.83.18-1.88.17-2.78-21.72-6.84-29.18-36.19-50.7-43.76-4.03-1.42-24.93-7.59-27.72-7.3-5.05.54-2.44,11.95-9.04,7.05-1.68-2.4,10.84-21.08,12.72-25.34,1.24-2.81,6.82-17.33,6.82-19.16v-17.49ZM637.44,15.71c-8.02-2.36-17.31-7.71-25.49-8.99-19.73-3.09-34.52,2.47-50.9,12.58-6.82,4.21-14.81,13.36-16.89,21.15-1.57,5.86,4.83,9.2,4.56,10.49-1.64,2.4-4.71.95-7,2.01-3.63,1.68-5.96,15.94-4.46,19.48,2.71,6.41,22.14,8.63,28.03,13,4.7.16,7.3-4.35,10.71-6.19,10.75-5.81,13.43,3.25,22.17,4.23,4.03.45,15.87-.93,19.21-2.82,8.71-4.92,7.12-16.85,3.07-24.46-6.1-11.44-23.78-7.75-34.24-8.74-4.15-.39-8.81-2.2-13.12-2.87-2.75-.43-15.13,1.15-13.36-4.61,1.51-4.91,22.59.96,26.58,1.38,13.52,1.43,28.25-2.77,37.8,10.16,2.22,3.01,1.51,7.24,5.84,5.74.85-.29,8.62-8.91,9.69-10.32,9.03-11.91,1.06-19.11-2.21-31.23ZM632.35,68.79c-.43-.38-2.52-1.48-2.66-1.34-.77,4.26-1.99,11.31-4.99,14.51-5.42,5.81-23.85,8.56-30.89,5.86-3.33-1.28-8.92-5.87-12.51-5.4-4.78.63-8.83,9.14-16.99,8.01-3.05-.43-5.65-3.82-8.93-.08-3.71,4.25,2.11,15.68,5.35,19.57,2.4,2.88,6.76,2.82,4,7.49l38.51.98,7.46,2.04c-.73-5.23,4.11-8.65,5.52-12.98,1.53-4.72.87-10.65,2.38-15.43l4.1-.58c-.46,4.12-1.7,8.45,1.5,11.97l3.65-6.81,3.95.42,1.39,14.4c3.63-1.39,4.85-4.63,7.07-6.96.97-1.02,2.75-.73,3.51-1.69,4.59-5.81.13-10.46-.86-15.05-.47-2.19.3-5.8-.43-7.08-.15-.26-3.49-2.09-4.79-3.7-1.77-2.19-3.25-6.31-5.32-8.15ZM408.68,181.56c-1.5-.58-24.57,14.24-27.38,16.77l-2.46,4.03c10.76,1.37-2.86,12.6-3.9,17.61l-.1,1.38c9.73.93,5.81,13.77,4,20,16.68-4.67,10.3,8.43,11.99,17.5,1.13,6.05,15.46-2.13,18.68-4.3,6.46-4.36,2.41-13.96,2.26-20.64-.37-16.62.66-33.22-1-49.78-.96-.32-1.95-2.5-2.1-2.56ZM551.59,332.45c-1.32-.6-2.86-1.19-4.34-1.16-21.02.41-41.99,2.5-62.99,4-5.84.42-19.97-2.14-22.71,3.27-3.2,6.32-4.34,29.62-3.81,37.26.13,1.94.61,3.61,1.06,5.45,2.35-1.59,3.6-3.81,6.93-2.94,1.05,8.65,9.97,13.19,15.02,19.46,14.5,18,12.15,55.39,32.32,65.62,11.32,5.74,16.52,9.18,26.19,17.79,1.81,1.61,4.37,5.98,5.47,6.52.61.3,12.75,2.55,13.46,2.48,3.09-.3,26.54-17.1,26.55-19.45.04-5.27-13.83.95-16.36,2.65-5.05,3.39-7.65,7.53-6.67,13.82-4.88.65-4.41-3.43-3.56-7.06,1.77-7.52,11.26-13.16,18.55-13.93-1.86-4.81-6.68-7.23-9.17-12.31-3.02-6.16-2.86-14.3-7.41-19.5-7.21-1.66-19.33,17.93-19.41,24.82l-3.77-1.46c1.58-10.27,7.84-19.72,16.3-25.54l-7.52-54.95h4.01s1.85-44.84,1.85-44.84ZM590.71,466.22l-4.95-18.52c-4.36-.66-8.86-.59-13.26-.77-1.03-.04-1.4-1.32-2.74.8,3.13,8.81,11.52,17.44,20.96,18.49ZM590.7,480.23l-16.33,10.94-.66,3.05,18.99,3c-2.64-5.61-2.05-10.91-2-16.98Z"/>
        <path class="cls-1" d="M147,751.08c6.14-2.89,6.88,2.52,10.49,5.98,1.62-.02,4.77-12.08,8.83-11.79,4.1-.11,4.36,8.23,6.15,10.8,4.46-2.22,5.72-16.02,10-16.02,6.24,0,1.39,12.24,5,15,.83-.02,4.38-7.52,4.98-8.99,1.65-4.07,3.79-17.59,8.15-17.71,3.15-.09,4.78,2.08,4.42,5.23s-2.61,1.22-3.11,2.05c-4.44,7.43-7.71,37.38-21.92,20.45-2.84,9.73-11.49,9.99-14.02,0-1.13-.89-4.52,9.91-11.97,6.48-1.98-.91-2.83-4.44-3.66-4.56-1.85-.26-4.93,2.29-7.39.63-2.64-1.79-1.85-11.44-1.96-14.54-5.6,2.4-9.4-2.46-11.76-6.69-.15-28.62.95-57.18.82-85.82-.16-35.18,1.16-64.85,2.99-99.86.72-13.73-1.14-26.78,1.41-40.57,1.45-7.87,5.07-14.62,7.05-21.93,1.22-4.5,5.42-29.1,8.13-29.92,2.54,1.23,7.08-.27,8.65.09,6.72,1.54,18.05,27.93,22.27,34.74,7.92,12.79,18.39,24.08,25.57,37.39,8.91,16.5,14.89,35.15,24.62,51.34,5.62,9.35,14.52,25.69,20.35,33.62,3.32,4.51,7.53,7.14,10.62,12.37,6.87,11.6,11.69,28.37,19,40.97,4.22,7.27,26.36,29.44,18.93,38.04-5.7,6.6-29.53-11.08-30.73-9.74,1.3,6.32,2.08,18.37-6.5,10.01-1.06-.02-6,19.6-12.99,4.98-2.21,3.2-5.77,4.2-8.54,6.45-1.66,1.34-2.36,3.47-3.71,4.56-7.91,6.42-13.32-.65-21.23-2.02,2.39,11.38,5.08,22.92,9.97,33.52,1.36,1.08,17.62-14.1,20.09-15.95,19.4-14.56,45.57-25.13,68.35-33.59,28.38-10.54,88.56-21.97,112.47.5,20.35,19.12,38.5,79.26,40,106.92,2.21,40.7-1.09,59.57-28.06,89.97-10.48,11.82-20.67,15.52-32.43,24.54-41.11,31.52-63.81,83.08-58.36,135.28.94,8.98,12.1,34.15,18.47,40.5,2.49,2.48,7.12,3.01,6.35,7.05-7.84,3.61-15.76,5.01-24.45,4.06-5.11-.56-10.02-3.66-15.26-4.73-8.62-1.75-17.65-1.01-26.44-2.54-27.52-4.81-54.52-18.09-80.71-25.23-19.53-5.32-47.01-6.06-67.43-6.52-34.92-.8-64.56,4.49-99.32-3.61-10.48-2.44-26.86-8.71-37.37-12.6-5.95-2.2-20.02-6.72-21.53-13.45-1.21-5.39,1.47-24.64,4-29.56,1.05-2.03,1.63-1.9,3.78-1.71l-1.5,15.98c2.28-2.68,4.84-.64,7.73-1.17,10.74-1.98,42.86-20.78,51.75-28.29,6.08-5.13,11.37-12.39,17.51-17.47s13.95-8.5,19.98-14c7.74-7.06,28.5-30.7,33.62-39.33,26.74-45.02,27.24-96.71,60.37-140.51,3.39-4.48,19.87-21.7,20.43-25.62-3.68-13.76-8.29-27.12-10.73-41.22-1.73-10.02-1.73-20.95-3.4-30.59-1.21-7.02-5.99-13.23-2.88-20.59,4-.15,2.71,4.87,3.9,7.57.9,2.05,2.51,3.2,3.39,5.61,3.45,9.53,3.9,19.78,6.38,29.53,1.4,2.85,14.79,5.89,17.26,4.77,5.34-2.4,5.76-13.57,8.7-14.42,1.61-.46,3.27.79,4.71.63,3.54-.39,5.03-3.08,9.6,1.28.82-3.44,1.59-7.8,3.99-10.51,1-1.13,7.32-5.24,8.55-5.48,7.62-1.46,17.43,9.61,25.45,9.98-3.26-10.66-13.38-18.27-18.81-27.65-6.95-12-11.76-28.95-18.14-39.83-3.03-5.17-8.66-9.73-12.04-14.94-17.97-27.71-28.76-57.78-44.14-85.78-6.66-12.13-16.37-22.64-23.6-34.37-5.21-8.45-8.14-17.75-13.15-25.82-.82-1.32-7.43-11.12-9.02-9.46-1.27,13.97-6.83,26.9-10.51,39.96-5.26,18.66-3.96,44.54-4.53,64.43-1.12,39.31-.66,78.72-1.92,118.02-.4,12.42-3.19,28.91-2.08,40.98.24,2.59.45,5.57,2.54,7.44l3.65-7.81,5.84,1.33v23.49ZM364.85,1108.87c-9.58-12.72-21.55-31.31-22.97-47.48-4.71-53.61,18.6-100.55,58.47-134.38,10.95-9.29,23.52-13.58,33.42-24.54,29.43-32.56,33.85-57.99,26.72-101.63-4.97-30.42-23.57-97.73-60.16-101.74-21.86-2.4-57.02,2.94-77.97,9.98-30.45,10.24-69.9,27.17-92.35,50.58-.98,1.02-1.93,1.92-1.59,3.52l16.51,59.86c-3.04.51-4.41-1.52-5.52-3.97l-17.65-46.31-2.83-1.22c-6.19,9.01-14.25,16.46-20.78,25.2-30.56,40.92-31.95,95.02-57.98,137.91-5.07,8.35-27.49,33.36-35.13,39.82-5.5,4.65-12.92,7.96-18.48,12.5-5.77,4.72-10.8,11.58-16.5,16.48-11,9.47-27.34,18.37-40.63,24.33-7.43,3.33-16.39,7.65-24.34,8.14-.61,11.84,12.11,14.63,21.45,18.02s22.53,8.35,31.31,10.67c33.29,8.79,61.27,3.5,94.69,4.25,23.12.52,55.25,1.14,77.19,7.76,36.04,10.87,58.62,21.52,97.64,26.28,8.92,1.09,18.9,6.68,26.15,6.91,3.55.11,7.49-1.73,11.34-.94Z"/>
        <path class="cls-1" d="M1026.43,848.02c1.67.38,2.02-.54,2.97-1.51,6-6.17,10.33-15.51,15.59-22.38,4.49-5.86,9.93-10.23,14.38-15.61,8.36-10.11,16.22-24.77,28.34-30.63,1.32-.64,6.08-3.02,6.66-.32.22,1.04-10.16,9.92-11.96,12.01-9.17,10.64-20.12,25.52-28.99,36.97-7.78,10.04-14.41,21.13-22.82,30.76,4.46,19.49,11.32,38.35,16.31,57.66,7.37,28.53,10.69,44.95,27.46,70.49,15.68,23.89,47.58,37.58,68.5,57.42,14.86,14.1,42.18,44.56,51.96,61.97,4.94,8.8,9.83,26.07,3.91,34.93-15.62,23.37-61.35,19.81-85.2,14.39-44.06-10.02-88.56-20.59-131.61-34.29-20.56-6.55-46.25-13.34-65.71-21.24-9.97-4.05-19-9.71-29.47-13.5-9.19-3.33-18.92-5.08-27.9-9.08-9.74-4.34-17.2-11.49-26.95-16.02-14.47-6.73-48.37-17.26-63.81-16.92-2.95.06-15.8,4.52-16.49,1.28-.45-2.11,2.12-2.18,3.35-2.63,25.18-9.39,60.6.55,83.95,12.29,7.65,3.85,14.31,10.51,21.94,14.04,9.33,4.31,21.12,6.4,30.92,10.06,10.52,3.92,20.06,9.75,30.21,13.76,19.48,7.7,44.44,14.34,64.96,20.98,41.38,13.38,86.87,23.99,129.42,33.47,18.6,4.14,51.56,6.59,67.88-4.09,10.43-6.83,10.48-11.8,7.78-23.6-2.4-10.5-20.13-32.21-27.71-41.25-19.38-23.09-40.19-39.87-64.03-57.9-6.63-5.02-16.3-9.58-21.88-15.1-10.9-10.77-28.26-44.87-33.27-59.68-3.3-9.75-4.14-21.03-6.79-31.19-4.33-16.59-10.34-32.75-13.92-49.55-.92-.71-9.04,10.11-9.99,11.48-2.65,3.85-2.19,9.38-9.98,8.5l.54-4.95c3.56-5.6,14.06-16.39,15.96-22.1.35-1.06.63-1.85.11-2.95-9.89-18.84-14.3-43.78-25.41-61.65-26.74-42.99-66.78-66.11-114.16-80.72-19.29-5.95-68.47-11.9-86.89-5.03-10.33,3.86-20.95,13.01-31.31,17.66-4.63,2.08-12.03,3.37-15.59,5.39s-10.99,11.78-13.47,15.51c-2.14,3.22-8.67,17.86-9.52,18.46-6.32,4.45-2.07-7.19-1.24-9.24,3.54-8.71,14.68-26.99,23.16-30.8,5.76-2.59,11.75-3.85,18.01-6.97,26.3-13.11,28.11-20.92,61.48-19.55,52.82,2.17,105.04,17.49,144.89,52.99,11.05,9.85,30.86,35.6,36.94,49.01,7.15,15.8,11.86,32.94,18.51,48.96Z"/>
        <path class="cls-1" d="M1154.34,769.05c12.27,2.59,2.45,12.43,2.03,18.62-.2,2.95,1.42,4.69,1.5,6.86.3,8.09-15.64,27.04-21.48,33.04-1.59,1.63-4.03,1.96-5.49,3.51-1.94,2.06-6.7,13.18-7.74,13.74-1.29.7-3.32-.29-4.6.4-.4.21-1.9,4.15-3.84,5.65-6.93,5.33-8.49-1.83-9.84-1.83-4.27,4.8-7.83,8.13-14.41,4.4-.9-.51-12.53-11.26-13.53-12.45-2.65-3.13-11.46-21.13-8.53-23.95l2.92.06c.95,2.45.84,5.23,1.86,7.66.55,1.31,7.43,12.8,8.15,13.59,1.01,1.1,2.83.83,3.57,1.64,2.68,2.94,7.73,12.01,12.49,9.58,3.79-1.93,6.64-14.41,13.48-2.55.93.03,8.62-12.05,10.04-13.92,1.19-1.57,3.09-2.08,4.31-3.69,1.88-2.49,2.27-7.27,5.4-8.62,1.13-.49,2.52.29,3.66-.26,3.04-1.48,15.72-19.03,16.61-22.44,1-3.87-.99-7.15-.48-11.42s3.51-7.49,3.93-11.58c-13.14-.23-1.01-15.12-1-21.48.01-7.04-.07-23.65-1.07-29.94-.58-3.67-3.42-7.07-3.93-12.06-.78-7.77.55-16.59,0-24.48-11.54,1.74-12.06-4.21-15.49-12.96-5.66,2.29-12.65,11.09-18.92,9.97-1.74-.31-2.97-2.37-4.86-1.9-3.94.99-19.08,22.26-25.18,9.9-10.16,6.54-16.44,20.23-27.49,25.48-2.41,1.15-5.2,1.07-7.53,2.47-8.59,5.16-15.05,20.48-18.97,29-1.39,3.02-9.18,16.74-7.47,19,20.73-13.53,10.65,5.8,12.97,14.28.26.96,2.18,1.19,2.9,2.3,2.73,4.2-3.05,14.96-1.89,20.4l9.5-3.96,1.52,2.48c0,1.21-7.52,6.57-8.97,7.04-11.13,3.62-4.29-16.24-4.95-22.07-.26-2.3-2.65-1.35-3.13-3.94s.59-13.87.02-14.52c-3.68.72-6.37,4.73-10.47,4.06-5.16-.84-2.7-10.16-1.57-13.61,3.29-10.1,19.95-43.63,29.98-46.97,2.83-.94,4.7-.11,8-1.99,7.53-4.3,21.95-28.1,30.36-25.34,1.83.6,1.84,4.13,4.02,3.81,5.82-1.76,15.49-14.17,19.6-15.5,4.62-1.49,3.67,3.73,6.37,3.5,5.4-2.35,13.42-11.44,19.66-8.4,3.58,1.74,3.15,9.8,5.39,11.59,3.34,2.67,8.56-2.02,11.67,2.33,2.14,2.99-1.16,23.97,1.43,32.54,3.91,12.93,2.43,10.65,2.43,23.5,0,10.48,3.16,19.12-2.94,29.47Z"/>
        <path class="cls-1" d="M723.64,771.07c1.57-.11,2.35-.34,3.45,1.02.4.49,5.09,9.87,5.71,11.28,15.67,35.61,16.5,63.32,18.81,101.12,3.23,52.92,12.09,87.14-4.29,140.65-1.34,4.39-3.22,16.14-9.28,11.81l12.54-62.51c-.81-42.89-2.99-87.38-7.96-129.93-2.24-19.18-6.48-35.74-12.97-53.99-2.26-6.35-8.42-12.64-6.02-19.45Z"/>
        <path class="cls-1" d="M538.75,435.24c-1.37-.87-3.53-27.79-4.3-32.19-1.87-10.68-4.56-13.44-7.92-22.06-1.82-4.68-5.14-22.89-8.74-25.24-1.65-1.07-2.08.01-3.04,1.02-2.14,2.25-11.23,15.27-12.78,18.2-5.1,9.68,1.17,20.73,6,29.58,6.95,12.72,24.01,27.31,25.67,40.29.4,3.1-.02,6.28.11,9.38l-3.05-.44-.79-1.21c1.7-15.71-10.87-23.7-18.96-35.01-3.68-5.15-7.69-11.7-10.72-17.26-1.56-2.87-2.41-7.7-4-10.01-1.03-1.49-3.23-1.79-3.47-2.73-.48-1.95-.1-6.2.57-8.25,1.85-5.66,14.08-23.21,18.21-28.76,5.99-8.06,9.35-2.42,13.03,4.42,5.57,10.36,11.74,34.08,13.89,46.08,1.82,10.14,1.79,20.69,4.33,30.75.64,2.35-2.28,4.55-4.03,3.44Z"/>
        <path class="cls-1" d="M581.72,101.43l.91,7.33c4.36,4.08,11.6.07,12.95-4.98.55-2.07-4.44-2.68-5.83-3.4l1.42-3.79c22.03,2.53.5,26.59-11.42,16.3-3.19-2.75-4.31-11.53-1.96-14.88,3.29-4.67,12.29,1.4,7.93,3.95l-4-.52Z"/>
      </g>
    </g>
  </g>
</svg>