<?xml version="1.0" encoding="UTF-8"?>
<svg id="Calque_2" data-name="Calque 2" xmlns="http://www.w3.org/2000/svg" viewBox="0 0 782.5 1622">
  <defs>
    <style>
      .cls-1 {
        fill: #fff;
      }
    </style>
  </defs>
  <g id="Illu_Vectorisée_WHITE_" data-name="Illu Vectorisée (WHITE)">
    <g id="Sapin">
      <path class="cls-1" d="M402.22.18c3.22,2.26-7.51,16.3-9.14,19.29-10.08,18.57-20.91,36.53-32.99,53.96-8.15,11.75-21.6,26.04-28.18,37.78-3.57,6.37-6.11,15.59-9.43,22.55-2.35,4.92-7.53,10.99-9.37,15.63-6.86,17.31-15.98,37.5-26.96,52.98-7.15,10.08-18.29,20.07-24.62,30.35-5.62,9.13-9.55,22.76-14,32.98-1.54,3.52-6.91,11.06-6.01,14.54.33,1.27,1.97,2.39,2.4,3.72,2.25,6.92-10.11,28.47-11.58,36.62l.15,1.24c4.56,1.23,4.16,4.65,3.86,8.64-1.7,22.42-29.08,71.9-40.79,93.13-3.71,6.71-18.88,27.87-19.96,33.04-.48,2.28,1.13,9.94.55,14.5-1.22,9.67-7.38,26.5-10.99,35.98-10.19,26.75-25.99,51.86-37.72,77.7,3.66-.14,5.81,2.69,6.57,5.94,6.44,27.53-20.72,78.6-28.41,105.73-.1,1.88,2.16,1.81,3.17,3.56,6.47,11.16-7.57,52.24-13.13,64.37-6.73,14.7-18.42,25.75-21.06,41.92-.1,3.05.09,1.78,1.13.12,3.39-5.39,11.35-22.93,16.02-24.97,1.33-.58,2.58-1.09,4.06-.65,7.22,2.27-1.55,26.32-3.31,31.39-6.73,19.43-17.04,41.26-26.12,59.83-1.48,3.02-5.68,8.03-6.43,10.56-1.44,4.86-1.48,13.12-2.94,19.05-4.64,18.93-12.9,42.77-19.75,61.2-2.65,7.12-7.69,15.54-9.72,22.27-.87,2.89,3.83.51,5.42.53,7.45.1,6.6,17.73,6.56,22.93,2.6-3.15,17.9-27.04,22.31-16.76,3.61,8.42-4.2,30.32-7.31,39.27-12.72,36.57-27.8,72.63-37.71,110.21-3.57,13.52-6.85,30.35-2.31,43.75,2.07,1.57,9.09-10.41,12.75-10.43,7.09-1.04,5.56,14.13,5.14,18.24-1.22,11.89-17.94,55.79-17.54,59.12.12.97,2.04,1.8,2.47,3.17,1.71,5.41-2.58,12.75-2.79,18.29l7.32-.07c5.96,15.74-5,32.1-6.32,48.05,7.08-5.21,16.93-28.5,27.96-23.47,8.52,3.89.09,33.29,17.03,15,9.64-10.41,18.23-24.7,34.55-26.45,5.48-.59,7.83,2.62,9.9,2.59,1.38-.02,4.16-2.8,6.46-3.28,6.67-1.38,8.63,6.33,8.03,11.61,7.27-7.82,16.45-13.89,17.47,1.99,3.82-4.75,8.56-8.89,12.47-13.51,4.31-5.09,11.56-21.67,17.51-8.48,5.11-7.92,12.06-18.63,22.45-19.55,1.4-.12,11.15,3.05,12.39,3.74,1.79.99,1.19,3.87,3.95,2.67,4.56-1.54,11.9-16.98,16.13-20.88,2.02-1.87,7.5-4.78,6.54-.47-.08.36-3.03,2.97-3.82,4.18-3.24,4.95-11.44,19.4-16.41,21.56-6.19,2.69-5.89-1.48-9.49-2.98-.61-.25-7.29-2.19-7.83-2.24-3.97-.43-8.74,2.7-11.45,5.45-4.12,4.18-8.16,17.12-14.24,15.4-3.33-.94-1.71-6.92-5.53-4.67-.55.32-5.3,8.94-6.75,10.72-2.52,3.09-5.98,5.58-8.39,8.6s-6.65,14-11.39,12.39c-4.39-4.06-1.62-10.81-3.12-15.91-2.4,2.06-4.24,4.41-5.92,7.07-2,3.17-7.25,16.75-10.95,15.79-4.31-3.28-.1-10.4.36-15.39.34-3.76-.2-7.7.01-11.47-3.13.15-5.17,3.08-8.5,3.06s-5.07-2.69-9.91-2.02c-16.97,2.35-23.27,19.3-33.62,28.38-14.29,12.54-20.25-5.24-19.93-17.44-1.79-1.69-7.69,5.09-8.96,6.53-7.41,8.4-13.35,21-20.01,28.96-4.14,4.95-7.34,1.88-6.92-3.85,1.06-14.46,9.31-32.18,11.67-46.36.4-2.42.27-4.83.23-7.26-2.45,1.4-4.23,4.53-5.53,6.95-1.81,3.39-4.86,14.31-7.98,15.05-.99.24-2.35.08-3.39-.11-.37-.98-.69-1.95-.58-3.03.78-7.25,6.99-17.86,7.5-26.36.2-3.29-2.55.91-5.08-.93-1.15-.84-1.09-2.65-.9-3.96,6.01-17.67,13.29-35.69,18.45-53.59,1.69-5.85,7.06-24.52,6.53-29.47-.16-1.46.43-1.75-1.52-1.5-11.24,13.82-18.61,4.76-19.48-9.52-.53-8.69,1.83-18.75,3.66-27.29,7.23-33.64,17.17-68.18,29.81-100.11,6.29-15.88,16.7-31.55,16.98-48.98-3.35,3.02-6.04,6.8-8.31,10.68-2.49,4.28-8.19,20.97-9.68,22.3-8.06,7.19-4.54-10.86-4.46-13.45.26-8.57-.14-17.04-1.05-25.53-2.62-.12-3.54,2.79-5.94,3.56-4.9,1.58-7.83-.83-6.98-5.92,7.95-30.74,23.51-62.27,31.4-92.6,1.93-7.42,1.1-5.57-.29-11.76-.42-1.86,9.16-15.77,10.97-19.55,6.45-13.48,26.06-55.65,27.82-68.14.16-1.15.18-2.13-1.01-1.01-4.01,3.78-11.12,25.34-19.39,19.42-5.54-3.97,1.39-21.66,3.92-26.89,2.75-5.67,7.18-10.29,10.28-15.7,11.34-19.78,19.97-45.41,20.17-68.27-4.1,2.26-8.59,20.42-15,16.52-3.79-2.31,1.82-10.59,3.04-14.01,8.48-23.89,17.97-49.57,25.24-73.71,3.92-13.02,8.56-27.08,7.23-40.74-4.72,2.25-11.44,16.99-14.49,18.49-11.39,5.63-2.57-13.37-.89-16.88,8.8-18.32,18.22-36.48,27-54.95s20.91-37.63,25.83-58.61l-22.98,32.48c-8.53,2.49-3.92-7.79-2.17-12.17,4.7-11.77,15.63-31.17,21.99-42.97,8.07-14.95,18-28.88,26.33-43.63,10.04-17.78,18.57-36.46,28.8-54.15l-5-.49c0-1.74-.24-3.54.25-5.26,1.8-6.37,9.86-18.92,12.92-26.05,4.46-10.38,8.32-21.32,11.69-31.95-4.78-3.75-1.83-9.57-.37-14.69,3.5-12.28,13.04-32.12,18.63-44.34,8.21-17.96,23.29-29.36,33.26-45.7,3.36-5.5,16.24-27.53,17.82-32.2.69-2.04-.67-4.01.17-6.74,2.02-6.58,12.71-20.19,16.42-28.59,3.35-7.58,3.62-11.12,5.37-18.62s6.55-5.19,8.85-7.39c7.62-7.25,22.85-37.66,30.09-48.62,4.57-6.91,10.53-12.94,15.21-19.77,3.25-4.75,16.75-28.94,19.58-30.4.9-.46,3.34-.91,3.97-.47Z"/>
      <path class="cls-1" d="M414.24,151.57c-.7-5.94-4.94-13.15-6.71-19.27-5.48-18.98-7.38-48.57-8.27-68.69-.74-16.86,1.58-33.61.99-50.46l3.05.44c1.92,1.4.68,33.59.9,39.08.86,21.55,2.51,55.66,8.11,75.84,6.08,21.88,9.68,28.26,7.91,53.04-.66,9.25-3.64,14.15-2.86,23.87,1.17,14.58,3.32,34.6,6.16,48.8,1.34,6.68,4.16,8.53,5.45,13.54,3.3,12.8,3.31,32.55,5.39,46.58,3.19,21.51,8.58,42.73,11.71,64.25,2.73,18.79,3.9,37.82,6.1,56.67.68,1.48,3.94-.5,5.78,3.41,4.73,19.87,5.37,41.09,11.33,60.63,2.25,7.37,4.32,10.37,8.48,16.5,5.81,27.49,5.53,62.27,13.13,88.81,2.3,8.03,10.43,14.22,13.81,22.17l23.46,49.99v-24.49c0-.33,1.59-3.78,1.96-4.04,5.34-2.18,6.56,1.81,8.07,6l14,79.45c1.27.16,2.8-.13,3.94.53,2.2,1.27,8.16,26.62,9.72,31.28s8.57,25.76,10.25,28.49c.69,1.13,2.76.83,4.08,2.13,2.95,2.9,10.49,35.46,12.66,42.32,2.18,6.85,14.25,43.68,17.73,46.31l1.01.68c10.25-6.09,11.01,13.19,13.24,19.98,6.3,19.17,19.31,43.85,28.73,62.22,6.7,13.09,17.32,25.51,22.69,38.28,1.16,2.75,6.84,18.51,6.76,20.21-.12,2.54-2.73,3.56-4.95,3.47l.15,1.32c3.24,6.22,10.35,33.62,16.55,35.45,6.15,1.81,10.99-1.52,18.62,3.37,5.94,3.81,23.91,31.38,28.16,38.8,6.87,11.98,24.48,47.35,26.24,59.74.32,2.23.47,5.59-1.25,7.27-2.16,2.1-5.96-.46-5.54,2.47,4.65,9.98,8.26,21.28,12.81,31.18,3.15,6.84,11.12,13.83,7.95,22.06-5.72,5.93-11.51-15.04-13.04-17.97-17.36-33.46-23.09,16.44-37.65,20.75-16.38,4.85-29.29-11.09-44.29-8.3-4.69.87-8.13,7.75-9.22,7.75h-16.49v14.49c0,.29-1.93,2.06-2.64,2.33-4.25.85-9.19-12.99-11.18-16.49-2.23-3.93-4.56-7.99-7.67-11.32-5.04,22.48-23.11,1.68-26.52-9.99-4.99,2.08-7.98,1.79-13.16.69-6.59-1.4-16.91-8.88-22.34-5.74-7.45,4.3-8.92,31.16-17.38,39.58-7.87,7.82-15.83-1.38-18.92.57-1.73,6.42-5.13,9.78-12.07,8.92l-1.69,6.01c-4.72,1.12-6.36-3.77-10.34-5.06-.06,1.61-.59,4.68-1.99,5.54-7.18,4.4-18.16-19.03-23.99-21.53-2.02,5.87.55,21.47-9.25,19.82-3.13-.53-13.19-9.41-14.74-7.82,1.37,28.81-11.1,11.75-20.5,0-2.91,9.98-1.18,19.56-15.16,13.16-2.8-1.28-13.79-11.73-15.31-10.16-.25,5.7,4.6,20.88.52,25-6.25,6.32-13.55-15.58-17.03-17-2.38-.97-.72,3.81-2.93,6.04-.64.65-2.33,1.65-3.21,1.73-6.72.61-20.02-20.41-23.83-25.77l-2,3c-4.92-.89-2.44-4.4-2.83-6.36-.6-3.05-4.11-8.44.82-9.63,10.34,9.75,15.52,25.05,27.49,32.97,2.15-2.91-5.72-22.17,1.39-20.93l17.59,26.92c1.25-6.1-5.15-20.09,3.96-21.56,7.15-1.15,14.56,12.45,22.43,12.64,2.36-.38.1-14.07,7.16-15.09,5.39.02,9.08,6.72,12.45,10.56.98,1.11.95,3.99,2.99,1.96-.9-7.85,1.69-15.94,10.98-12,4,1.69,7.08,6.83,11.99,6.51.55-4.5.16-18.06,5.52-19.03,9.59-1.74,14.76,16.05,21.97,20.02,1.58-7.44,8.01-5.84,11.99-1.01,1.66-4.99,7.56-3.6,10.46-5.52,2.46-1.63,1.85-7.28,6.77-8.28,5.26-1.08,9.22,4.71,15.02,2.16,4.64-2.03,9.92-29.54,14.03-36.01,10.45-16.48,22.35.48,34.75.71,4.42.08,2.28-6.79,8.12-4.31,5.35,2.28,10.61,20.37,16.95,22.13,4.11,1.14,3.08-4.23,4-6.69,6.44-17.13,19.15,14.8,20.82,14.81,3.59-11.17,13.31-5.15,20.78-6.96.42-.1,2.51-3.59,4.37-4.86,17.18-11.66,33.75,10.25,49.6,5.63,8.86-2.58,15.11-38.38,31.68-32.78,1.61-1.43-15.6-32.01-13.99-40.46,1.31-6.86,8.06.96,9.99,3.49-1.83-6.29-4.51-12.18-7.46-18.01-7.6-15.01-26.61-52.8-37.51-63.43-7.44-7.26-16.15.44-24.49-8.49-6.03-6.46-14.02-31.3-17.18-40.78-3.49-10.48-5.75-23.67-9.49-33.49-2.4-6.31-8.19-13.49-11.31-19.67-4.77-9.46-8.16-18.99-12.61-28.36-8.43-17.76-19.46-34.32-21.93-54.52-2.3-.34-4.65.41-6.9-.6-6.55-2.93-19.42-44.74-22-53.46-9.5,6.83-9-16.58-10.45-23.02-3.3-14.67-10.06-29.84-14.79-44.18-1.83-5.57-3.79-17.96-5.91-22.07-1.38-2.67-4.91-.95-7.33-8.66-5.94-18.94-7.3-41.48-11.48-60.98-2.28,1.26-1.09,6.06-3.97,7.5-2.37,1.18-5.15.81-7.07-.96-3.47-3.21-9.42-22.18-12.08-27.89-3.9-8.38-8.88-18.61-13.33-26.65-3.73-6.75-11.71-14.97-13.99-20.99-5.19-13.7-7.87-47.3-10.35-63.61-1.25-8.17-1.35-20.25-3.39-27.6-.86-3.09-4.05-5.11-5.65-8.34-6.92-13.98-7.13-34.25-10.6-49.38l-1.09-.84c-6.1,2.79-6.95-3.48-7.97-8.07-9.23-41.61-19.44-98.29-22.43-140.48-.86-12.11.73-29.8-1.06-40.91-.57-3.56-4.45-8.23-5.65-14.34-3.94-20.08-7.67-50.21-9.27-70.68-.26-3.3-.62-16.49.14-18.82.9-2.76,4-1.52,5.84-.65-.39-4.63.54-9.97,0-14.49Z"/>
      <path class="cls-1" d="M282.33,1248.46c-4.03,1.89-5.58,11.56-10.54,12.04-6.19.6-7.43-13.29-10.43-11.04l-9.14,25.85-2.86.14,1.98-22.99-8.74,13.74c-12.33,73.56-27.52,146.63-37.21,220.64-4.94,37.75-7.34,78.65-15.08,115.85-.3,1.42-1.3,5.01-3.41,4.57-2.26-1.73-1.61-4.95-1.5-7.48.83-19.33,4.63-38.7,5.97-57.99,2.04-29.3,1.89-56.33,6.17-85.78,4.39-30.19,10.43-62.63,16.3-92.64,8.21-41.99,21.52-82.87,26.63-125.29.35-2.88,1.37-5.77,1.89-8.61,6.61-.37,2.53,4.22,2.97,7.41.23,1.65,2,2.71,2.07,5.02.09,2.6-1.99,6.4-1.05,9.55,7.94-7.83,8.54-2.93,7.99,5.99l4.52-8.95c7.6-7.92,7.87,4.7,11.97,8.95,3.06.72,7.04-13.78,11.99-13.78,4.02.3,2.05,12.96,2.5,15.78,2.41-1.21,2.97-7.28,4.96-8.52,1.58-.98,5.02-.36,5.02,1.03v17.49c1.8.38,1.97-.52,2.84-1.66,4.07-5.34,11.62-27.51,15.16-7.34,3.51-2.26,6.4-5.53,11.04-3.55l2.93,13.54c1.79-6.5,3.73-13.97,8.51-18.96,4.94.05-1.19,20,9.76,17.77,9.94-2.02,7.9-11.05,12.63-18.15,8.57-3.34,4.1,10.52,7.6,14.35l4.48-10.31,3.01-.67c1.21,1.07-7.37,16.96-8.35,18.98-.59,1.21,1.27,3.77-2.14,4.06-4.43.38-7.53-4.69-9.08-8.13-3.21-.54-7.17,5.33-14.16,2.41-3.61-1.51-2.85-8.48-6.22-10.32-1.34,2.88-4.95,18.73-8.49,17.98-3.24-5.56-.46-13.54-2.52-19.99-4.5-.43-6.27,6.11-11.35,5.08l-1.64-8.07-5.79,7.69c-3.36,4.15-3.33,13.54-10.02,11.13-.15-.72-1.17-1.97-1.17-2.33v-17.49c-4.31,3.08-3.22,12.31-9.99,11.99v-18.99ZM361.27,1269.45c.06-2.46.09-4.91-.11-7.37-.11-1.29-.55-6.13-1.86-6.62l-3.06,9.39,5.04,4.59Z"/>
      <path class="cls-1" d="M169.39,683.81v2.96c-7.42-2.88-14.41.5-19.5,5.98-16.08,17.32-13.82,62.38-9.17,84.18,7.24,34.01,60.84,56.46,90.56,40.19,33.86-18.53,61.24-91.83,63.03-128.86,2.38-49.22-16.88-72.96-68.17-67.18-8.82,1-39.26,9.15-47.13,12.83-8.9,4.16-3.07,12.43-2.62,19.87-2.15,2.51-4.4-7.07-4.54-7.94-1.4-8.76-1.14-12.41,7.27-15.81,18.81-7.6,49.68-15.73,69.71-14.21,48.37,3.67,53.12,40.7,50.52,81.48-2.33,36.6-36.21,119.38-75.93,127.95-26.83,5.79-63.59-7.92-79.43-30.63-8.95-12.84-11.74-47.65-10.56-63.37,1.43-19.1,10.49-53.49,35.95-47.46Z"/>
      <path class="cls-1" d="M396.25,882.67c-15.78,2.11-33.55,3.06-49.5,2.04-6.79-.44-23.21-2.59-9.14-9.23,2.65-1.25,13.28-5.85,12.68-.82-3.03.77-9.65,1.92-12.01,3.49-1.1.74-1.2,1.38,0,2.03,1.86,1,34.7.82,39.53.53,19.27-1.17,38.23-3.76,57.9-2.02,3.08.27,10.49,1.08,11.52,4.47-3.93.4-7.44-1.27-11.46-1.53-11.24-.73-23.2,1.63-34.56,1.5-6.93,19.91-10.25,41.18-18.18,60.77-8.64,21.35-32.29,61.09-54.45,69.47-17.63,6.67-47.43-.17-60.77-13.73-14.12-14.36-28.09-38.71-47.45-46.5-6.61-2.66-14.54-3.91-21.24-6.75-10.82-4.59-18.91-12.8-26.23-21.74-2-.41-1.22.46-1.7,1.27-2.59,4.33-3.77,9.52-5.92,14.07-4.58,9.69-10.38,20.88-16.04,29.93-1.12,1.79-7.42,12.97-9.8,10.68l55.46-117.91c4.49.03.07,11.95-.74,14.23-4.88,13.8-13.72,27.94-19.59,41.47-.68,2.93,2.48,5.99,4.33,8.25,18.33,22.44,43.66,17.03,62.98,36.95,19.81,20.43,31.11,45.34,62.96,47.97,18.25,1.51,28.07-2.4,40.48-15.45,28.69-30.16,41.61-73.85,50.93-113.46Z"/>
      <path class="cls-1" d="M361.27,1610.26c-4.07,4.33-5.83-13.21-5.98-14.49-5.15-43.68-5.26-93.02-4.02-136.93.87-30.69,3.28-61.27,1-91.93-1.26-16.92-4.86-58.92-10.81-73.15-1.34-3.2-3.57-5.15-4.69-7.31-.71-1.37-.11-2.7,1.03-3,4.69-1.23,9.99,13.49,10.98,16.98,23.05,81.28,6.83,170.74,9.53,254.33.6,18.56.75,37.08,2.95,55.51Z"/>
      <path class="cls-1" d="M368.27,629.8c-2.88.53-1.62-.76-2.24-2.2-4.81-11.2-9.32-12.54-18.75-4.3-15.16,13.24-23.07,44.49-24.96,63.99-2.45,25.36.54,87.85,40.19,78.17,25.58-6.25,52.62-50.09,57.27-74.65,5.4-28.53-3.12-73.72-41.04-69.02-2.01.25-11.83,5.24-9,0,.73-1.35,6.38-3.65,8.09-3.9,18.32-2.74,35.39,8.89,42.58,25.25,16.94,38.56-2.04,80.09-28.18,109.09-15.76,17.48-44.62,28.99-61.91,7-24.46-31.1-16.02-117.2,17.05-140.81,10.8-7.71,21.18-1.11,20.9,11.4Z"/>
      <path class="cls-1" d="M289.32,1546.3c.39,20.65-1.82,42.13,5.12,61.84,5.64,2.27,41.56,1.43,42.76,3.21l-.84,4.47c-1.24.87-19.39.6-22.53.43-26.04-1.43-49.3-9.08-75.66-3.69-18.29,3.74-29.17,6.21-48.26,7.71-2.17.17-9.87,3.48-10.5.47-1.1-5.28,16.08-4.22,18.47-4.49,26.16-2.97,45.96-12.37,73-11.02,3.33.17,19,3.07,20.44,2.03-1.32-3.02-2.36-6.32-2.89-9.59-1.02-6.21-1.83-15.5-2.15-21.84-.31-6.31-.96-21.5.05-27.02.31-1.71,1.07-2.81,2.99-2.5Z"/>
      <path class="cls-1" d="M245.35,1378.4c-6.2,15.77,2.67,33.6,4.88,49.58,3.56,25.82-1.12,68.93-7.03,94.68-1.27,5.53-3.69,4.98-3.23-.15,2.84-31.95,11.72-61.88,7.26-94.53-1.45-10.65-10.98-39.23-5.69-47.9,1.16-1.9,1.6-1.93,3.81-1.68Z"/>
      <path class="cls-1" d="M241.19,716.9l-1.68-.25c-.95-1.23,6.8-8.75,8.34-9.88,6.46-4.74,14.97-4.68,16.42,4.55,1.38,8.85-7.64,46.49-17.45,48.39-19.16,3.72-10.57-33.67-5.64-42.81ZM259.11,708.01c-3.93-3.95-15.62,3.98-16.74,8.26-.11.4,5.95,2.47,3.98,6.48l-3.98-1c-2.31,5.55-6.65,30.94-1.25,34.02,1.85,1.06,5.09.38,6.68-1.08,5.94-5.45,17.01-40.96,11.31-46.68Z"/>
      <path class="cls-1" d="M367.03,683.02c2.87,2.93-.09,11.27-1.04,14.96-2.51,9.75-12.46,38.73-23.46,40.59-12.1,2.05-5.93-21.24-4.56-27.63.95-4.44,3.46-16.72,6.95-19.08,2.62-1.78,6.61-.45,6.37,3.4-1.22,1.88-2.78-1.34-3.5-1.31-2.62.09-5.39,13.11-6.01,15.8-1.85,8.06-3.81,16.87-2.48,25,3.29,3.15,12.08-9.51,13.5-11.98,2.8-4.89,14.47-34.64,11.47-37.99-1.99.08-4.34,1.43-5.93,2.56-.67.48-8.36,8.24-5.91,2.09,1.3-3.27,11.24-9.83,14.59-6.41Z"/>
      <path class="cls-1" d="M297.31,1400.38c.61,16.76,2.06,33.68,4.13,50.35,1.74,14.03,3.23,28.26,7.86,41.6-2.66,2.72-6.33-6.6-6.72-7.76-4.9-14.62-8.39-56.82-9.31-73.64-.19-3.49.21-7.06.05-10.54h3.99Z"/>
    </g>
  </g>
</svg>