<?xml version="1.0" encoding="UTF-8"?>
<svg id="Calque_2" data-name="Calque 2" xmlns="http://www.w3.org/2000/svg" viewBox="0 0 1047.2 1008.52">
  <defs>
    <style>
      .cls-1 {
        fill: #fff;
      }
    </style>
  </defs>
  <g id="Illu_Vectorisée_WHITE_" data-name="Illu Vectorisée (WHITE)">
    <g id="Pendu">
      <g>
        <path class="cls-1" d="M816.88,133.73c-.3.55-2.61-.78-.62,3.58-4.23,8.8-10.05,25.25-9.13,36.08.38,4.51,2.92,7.02,3.16,10.01.34,4.25-1.93,11.09-2.14,15.94-.7,16.38,1.6,34.7.28,49.84-.54,6.18-2.5,11.09-2.27,17.2.28,7.37,3.02,15.25,5.81,21.99l-3.77,3.44c10.62,1.69.41,13.64-.06,20.45-.53,7.65,4.55,17.18,5.1,25.98.89,14.11-4.04,28.09-3.03,42,1.21,16.62,3.69,36.4.99,52.8-.04.22-2.94,3.15-2.98,3.37-.59,3.17,2.36,7.05,5.01,8.86l-1.03,3.43c.96.03,2.45-.47,3.05.64,2.74,5.02,2.08,32.27,1.98,39.89-.21,16.14-.07,31.52,1.02,47.89.27,4.03-1.45,6.86.96,10.53l8.02-2.67c-.11-12.95-1.14-25.9-1.54-38.78-.33-10.55.15-16.31,1.48-27.02.43-3.47-1.61-7.98,2.01-8.97-4-5.54-4.55-13.84-3.01-20.49h-3.99c2.85-1.36,4.78-6.66,3.84-9.41-.64-1.89-3.22-.85-3.86-2.3-1.96-4.47.66-10.1-1.07-14.78,3.48-16.6,3.86-32.65,1.99-49.04l-1.89-1.02-.07-8.88,3.06-.53-1-4.98h3.99c-.62,13.71,4.95,25.69,4.05,39.51-.58,8.96-4.29,21.44-4.08,29.89.39,16,8.04,34.96,7.02,50-.43,6.27-2.74,13.5-3.02,19.96-.53,11.86,2.54,26.69,2.94,39.12.09,2.76-1.4,5.55-.96,8.93.42,3.26,3.57,4.85,1.06,8.44l15.4-2,.6,2.51c-.3.94-15.71,4.41-17.95,2.51l-9.55,19.96c-2.17,2.74-3.47-1.36-5.48-1.99.13,1.48.25,5.65-1.52,5.99-5.59,1.08.05-16.37.63-18.87l3.88-.11c.28,3.37-1.42,6.38-1.89,9.6-.15,1.05-.84,3.64.89,3.38.48-6.17,4.95-10.76,7.54-15.95.61-1.23.18-3.14.65-4.38.78-2.05,3.68-.81,2.81-3.65-5.07,2.03-10.95,1.07-15.99-.49-4.34-9.62-3.03-20.64-3.03-31.03,0-10.93-1.05-19.68-.92-30.9.21-17.92.72-26.32-4.74-43.31-4.14-12.88.76-35.05-.26-49.71-.41-5.98-2.7-12.27-3.07-17.91-.73-11.08,4.13-24.05,4.11-35.02-.02-11.78-6.47-21.96-5.08-33.98.59-5.11,4.73-9.9,4.83-13.96.11-4.63-3.15-9.24-4.18-13.67-1.6-6.87-3.47-16-2.2-22.88.53-2.85,4.18-9.11,4.18-10.45s-2.3-4.1-2.66-6.97c-.91-7.28.94-15.6,1.07-23.06.05-3.33-1.13-6.4-1.12-9.96.01-6.81,3.4-18.37,3.03-23.92-.27-4.11-3.32-6.25-2.94-14.03.71-14.74,6.74-26.17,11.98-39.47-9.04-1.38-18.35-1.22-27.53-1.06-29.53.51-59.5,4.08-88.9,7.03-32.45,3.26-64.46,9.22-96.92,12.01-51.86,4.46-104.03,4.55-155.9,8.99-14.57,1.25-29.08,3.86-43.81,3.95-4.76,10.33-14.51,17.35-21.07,26.11-4.02,5.36-6.53,11.66-11.07,16.91-8.14,9.43-19.13,20.28-27.98,29.98-6.26,6.86-14.14,11.38-20.01,17.96-5.11,5.73-17.46,26.74-24.96,27.06-2.96.13-1.85-3.7-1.51-5.07l3.04.59c1.22-4.69,5.16-6.65,7.91-10.1,3.94-4.94,7.6-11.8,11.64-16.38,5.65-6.43,14.06-11.75,20.4-18.54,2.87-3.07,14.6-19.27,17.41-19.43.83-.05,2.33,1.18,2.54.92-.75-5.07,4.3-7.07,6.97-10.53,2.45-3.18,8.01-9.23,9.54-11.51.59-.88-.44-2.6.99-4.87,2.21-3.52,10.15-10.74,13.46-14.59.75-.88,5.75-6.83,5.02-7.46-5.29.02-10.67-.11-15.9-.5-8.91-.65-4.91,1.17-11.68,2.38-5.15.92-11.67.9-16.96,1.2l-2.41-2.08c-.82,5.73-12.89,1.65-16.81,4.18-.4.26-1.68,4.36-2.76,5.74-6.4,8.22-14.72,18.46-21.44,26.52-5.57,6.69-13.21,10.61-18.48,16.5s-9,14.91-14.51,21.46c-1.6,1.91-6.01,4.79-6.46,5.53-2.27,3.74,2.14,12.93-2.52,14.49,3.07.77,1.96,2.72,2,5.5l-1.47-.75-.72,1.43c-2.89-1.98-2,3.35-3.3,3.32l-3.03-88.93,2.21-1.91,2.84.87c1.24,1.3,2.15,7.54,2.35,9.64,1.4,14.52-.95,31.03.13,45.85.11,1.49-.78,2.89,1.49,2.47,7.54-6.15,10.56-17.2,16.98-24,3.97-4.21,10.16-6.97,14.05-10.93,4.28-4.35,8.1-11.93,12.04-16.94,3.64-4.63,8.67-8.84,11.91-13.07.77-1,1.94-1.27,1.49-3-33.05,3.69-66.2,5-99.47,5.95-13.82.39-25.19.24-38.93-.02-5.84-.11-10.58,4.01-12.5-3.41.23-1.51,9.69-1.92,11.5-1.96,50.25-1,99.8-2.79,149.89-6.57,12.63-.95,25.34-2.45,37.89-4.07l.61,2.08,1.63-2,47.81-2.99c30.13-4.89,60.65-5.48,91-6.53,2.61-.09,7.93-4.09,8.94.56.86.07.12-1.49,1.22-1.97,4.98-2.21,27.12-.33,33.76-.6,66.65-2.73,132.1-17.48,198.88-21.41,18.42-1.09,37.13-.15,55.45-2.01,1.65-14.08,1.8-28.34,3.02-42.45.77-8.94,1.16-18.09,2-26.98.81-8.46,4.03-16.87,3.99-25.49,4.32-.23,3.25,8.32,3.03,11.52-1.18,16.85-3.7,33.96-5.02,50.94-.43,5.56-3.31,34.85-2.26,37.21.88,1.99,4.33,3.44,2.93,6.04Z"/>
        <path class="cls-1" d="M899.14,670.56c6.52-10.81,5.64-27.22,16-37.46,4.06-4.02,5.5,3.87,5.88,7.1.83,7.05,1.09,13.6,2.02,20.95,1.57,12.33-9.77,25.84-19.88,31.9,18.22,9.35,19.64-15.55,35.97-15.03l2.84,5.88c-5.3,4.74-4.55,10.3-5.85,16.63,13.9-4.63,21.16,6.61,15.99,18.99,11.21-1.27,14.58,9.25,15.02,18.45.75,15.74-9.33,18.35-23.01,15.54,1.37,4.06,4.28,7.02,4.9,11.57.94,6.96-.39,15.17-6.4,19.41l-7.5,3.98c4.52-.74,8.42,2.36,12.57,2.92,8.73,1.18,32.39-2.48,40.28-6.52,7.63-3.91,12.3-11.38,19.16-15.81,10.63-6.86,4.06,16.56-.07,21.92s-21.57,19.34-27.92,22.04c-11.17,4.74-25.63,5.36-37.54,6.43-12.85,1.15-19.73-4.69-28.09-4.98-2.35-.08-4.45,2.24-7.11,2.76-12.34,2.38-12.59-5.02-19.99-6.53-3.85-.78-8.32.07-12.26-.22.95,4.98,6.82,11.15,11.28,13.2,2.96,1.36,6.58,1.03,9.01,2.02.21.09,3.35,2.79,3.43,3,1.74,4.29-6.46,10.28-10.18,10.8-11.21,1.57-14.92-6.47-22.15-6.99-2.43-.18-14.62,2.68-15.24,4.59,1.53,14.84-8.17,20.43-21.5,20.12-2.89-1.07-1.32-10.05-1.63-13.24-.29-2.93-1.47-5.64-2-8.5-8.2,3.09-14.88,6.69-23.98,3.99-.42-2.29.16-1.59,1.28-2.23,7.52-4.25,22.74.18,19.71-14.76,4.15-1.11,3.84,3.12,8,2.01.97,2.59-1.83,4.68-1.94,6.47-.13,2.25,2.52,5.86,2.72,8.25.14,1.75-.93,3.31-.78,4.73.32,2.99,1.99,1.44,1.05,7.1-.5,3.02,8.52-.33,9.87-1.14,9.37-5.61-.1-20.83,2.08-28.42,5.64.51,4.08,5.55,6,10,3.21-1.86,5.93-.84,8.36-1.05.41-.04,2.42-2.96,7.26-2.62,6.18.43,10.01,5.25,16.08,6.43,4.64.9,9.45.52,12.26-3.75-11.28-.65-24.41-10.14-24.83-21.85,4.54-2.12,8.13-3.92,13.4-3.22,1.47.2,3.83,4.53,8.42,1.07l.15,2.8c3.47-.77,7.6,2.7,9.47,2.93.58.07,7.99-.59,8.3-.87.21-.2.02-3.86,3.08-4.36-2.77-.46-2.44-4.1-3.97-5.01-1.67-1-5.84-.36-8.02-1.49l1.01-1.97-8.97-.55c-1.77-4.38-8.08-8.64-10.06-11.92-1.28-2.11-.99-4.55-2.51-6.48-.66-.85-15.39-11.83-17.05-12.93-6.31-4.16-24.66-4.54-31.21.05,2.16,12.91-6.69,20.65-15.67,27.81-2.28.64-1.39-2.02-1.06-3.02.34-1.05,2.31-5.22,2.83-5.73,2.19-2.14,5.35,1.56,5.71-3.73l3.03-.55,1-12.95c-7.74,3.32-13.96,8.83-19.84,14.63-2.62,2.16-3.68,7.81-5.06,9.75-.72,1.01-2.52.12-3.12,1.25-1.22,2.32-.94,7.09-1.61,9.41-1.48,5.11-6.47,14.97-11.41,17.39-1.05.52-2.67-.12-4.28.59-3.18,1.4-14.88,5.1-8.4,8.18,8.4,3.99,15.91-9.07,24.23-8.23l-.5-1.99,2.87.84c.43-3.33,13.41-6.76,15.12-5.83v3.95c-2.46-.91-25.55,9.87-23.99,11.02l4.97,1.5c-6.07,9.8-31.53,5.79-30.9-7.43,10.49-3.68,19.45-4.74,25.13-15.34,3.99-7.44,3.17-14.73,4.84-22.67.75-.48,2.89.99,4.01.49,1.27-.57,10.11-12.49,12.77-14.14.15-.8-5.02-12.04-6-13.68-1.52-2.53-10.98-11.37-6.84-14.16,1.68-1.13,1.95-.03,2.99,1.02,5.62,5.63,11.33,16.64,13.01,24.47,2.33-3.53,17.54-8.21,18.51-9.93.34-.61-1.31-8.83,2.47-11.04-2.99,1.17-9.64-5.99-10.98-5.01-10.9,22.54-22.53-1.64-17-15.98l-3.94.05c-.28,2.64-1.97,16.46-7.06,13.44-1.97-1.17,3.54-12.07,2.01-14.95-.84-4.95-7.76-2.62-5.99-8.53l4.98,1c.63-.49,2.94-11.79,3.05-13.55s-2.52-8.28,1.45-7.44c1.25.26,3.62,4.4,3.52,5.99l3.98-1.99c-1.01,1.44.62,2.92.56,3.48-.49,4.41-10.03,13.01-6.54,19.49,2.05-.63,9.78-4.55,10.97-1.49.82,3.35-1.74,2.69-3.96,3.58,1.65,4.75-5.93,10.17-1.51,14.97.73.79,3.57-.66,3.99,4.91l2.83.9c3.16-.86,7.08-14.81,10.64-11.88-.06,5.45,1.49,3.85,2.96,4.7s5.31,4.03,6.52,2.28c2.65-4.61,2.38-8.96,2.99-14.02l5.44-.02c2.93-5.51-1.48-6.33-4.82-9.57,1.48-5,4.36-8.92,2.94-14.64-.34-1.37-3.53-.67-3.04-4.2.04-.28,3.29-.79,2.02-3.49-4.45-.49-10,1.71-12.97-2.5,1.61-2.84,4.34-2.2,6.97-2.99-4.71-7.35-5.67-16.27-7.98-24.48,1.22-1.03,5.18,1.04,5.71,2.28.35.81-.38,1.85-.06,2.68,1.81,4.77,3.52,12.48,5.58,16.28,1.63,3.01,6.13,4.98,6.6,6.39,1.28,3.85,2.41,13.56,2.08,17.74-.26,3.27-3.65,5.62,1.07,7.58l3.52-5.99c1.42-.3,2.43,1.23,2.54,2.5.07.75-4.06,13.46-4.63,14.41-3.04,5.02-7.04.02-7.32,8.68-.06,1.95,1.21,3.57.73,5.63-.8,3.46-7.18,8.95-6.82,13.75l5.6-6.88c8.82-1.93,11.91-2.52,16.56-10.42,1.32-2.23,1.13-6.25,3.81-5.68-.32,2.19,1.7,4.12,1.54,6.1-.22,2.84-3.32,5.38-3.51,7.42-.15,1.57,1.6,10.06,2.55,11.39,4.49,6.25,18.51,10.68,21.84,18.13.71,1.6.44,3.51,1.06,4.93.94,2.17,8.56,10.19,10.55,11.43,4.28,2.69,9.13,1.23,13.95,1.54v4.01s1.91-.95,1.91-.95l2.27,7.73c9.28,4.16,18.06,5.87,28.28,5.19,6.05-.4,11.92-.55,17.99-1,14.89-1.11,30.89-11.3,41.03-21.93,2.58-2.71,5.05-6.21,5.45-10.03-1.48-1.55-8.56,7.92-10.01,8.52s-3.33-.85-5.72.13c-.41.17-4.25,3.54-4.82,4.34l-1.92.02c-3.84-6.78-13.29,3.74-17.24,4.74s-9.13-.19-13.24.23l-.48-2.94c-2.77.82-7.11,2.11-9.9,1.92-2.55-.17-18.12-4.15-20.84-5.22-7.06-2.77-13.42-7.22-11.75-15.73-6.67-.09-12.97,3.71-17.84-4.65-2.88-4.94-.16-9.03-5.91-10.78,4.5-15.14,4.57-34.36-8.22-45.53.19,4.93-1.65,9.5-1.03,14.52.49,4.02,3.64,5.27,2.01,9.46-10.06-1.39-5.4-13.02-7.15-18.32-.61-1.85-9.55-4.06-4.34-9.64,1.98,1.81,3.37,4.54,6.49,3.97.33-.35-1.09-7.72,2.49-6.99l1.52,5c6.95-3.04,8.54,6.17,12.49,9.96.95-6.48,19.77-7.8,20.48-4.46-1.73,5.14-8.98,2.74-13.23,4.74-5.37,2.52-3.37,9.35-4.21,13.74-1.05,5.5-1.6,5.98-1.99,12.94-.2,3.49-.9,7.09-1.28,10.54l5.73,1.49c-.1,2.93-.33,6.27,1.98,8.51l12.04-.11,1.95,4.14c.07.69-1.71.07-1.98,1.45,3.12.04,2.1,2.56,4.49,5.01,2.89,2.95,8.77,4.5,12.73,3.75.95-.18,11.25-3.89,11.73-4.29,4.58-3.82,3.81-16.06.86-20.79-1.36-2.18-5.58-4.61-4.83-7.14l3.97-1.58.03-4.94c6.22,1.36,9.99,4.74,16.93,2.44,6.24-2.06,4.52-14.39,2.28-19.16-2.61-5.58-13.34-5.57-16.86-.38l-6.36-1.89c-.09-5.79,9.41-4.08,11.55-10.93,3.06-9.8-2.95-10.87-10.93-9.93-8.06.95-10.79,5.31-17.16,8.81-7.93-.37-16.09-1.01-23.98-1.88-1.46-.16-2.57-.14-3.44-1.56.61-7.77,6.33-.12,9.48-.4l2.54-3.08c10.51,5.06,21.79,1.12,26.99-9.46,2.43-4.93,1.32-11.09,5.95-15.04-.89-1.43-3.03.46-3.91,1.09-6.13,4.39-8.91,13.26-17.02,14.96-3.17.67-9.26.94-12.34.24-.94-.21-7.56-3.88-7.69-4.3-1.05-3.38,2.35-2.72,3.64-3.85,8.19-7.18,19.57-17.09,18.35-29.13-.29-2.9-1.91-5.3-2.06-8.02-.23-4.46,2.49-8.75.04-13.45l-6.46,12.01-5.53,19.97-1.98-1.01c.94,4.39-2.64,5.31-4.43,8.08-1.41,2.19-4.77,9.6-7.32,10.68l-9.24,1.23c-.2-6.68,2.76-4.24,6.83-5.65,5.51-1.91,3.98-4.96,6.1-8.89,1.35-2.5,3.31-3.56,5.05-6.44l-3.98.99c-1.65-5.51-.47-10.55-2.3-16.19-.68-2.11-1.93-6.05-4.71-5.77l-3.74,20.74c-1.72,4.11-3.09-1.26-3.26-3.25-.34-3.87,3.27-23.42,6.62-24.43,2.97-.89,7.37,6.95,8.4,9.41,2.44,5.84,2.15,12.3,2.97,18.51ZM856.16,753.51l-12.98,3.98,12.99,1.01v-5Z"/>
        <path class="cls-1" d="M27.71,180.9c14.77-.47,29.7.64,44.46-.01,19.82-.88,43.23-3.08,62.72-6.24,2.99-.48,11.54-4.63,10.76-.75l1.63-2.06c4.93,2.36,10.97-2.75,14.84-1.67.33.09,1.94,2.7,3.51,2.24,1.13,5.1-7.25,3.18-10.37,3.62-9.5,1.34-18.79,5.43-28.15,4.33-13.3,3.81-27.62,3.19-41.44,4.53.43,5.98-.57,12.61,0,18.5,1.04,10.77,2.12,21.11,3.02,31.96,2.35,28.28,8.88,54.55,13.68,82.24,7,40.37,11.94,81.53,13.33,122.58.86,25.48-2.59,52.05-1.08,77.03.98,16.23,3.31,30.96,4,47.97,3.63,89.89,2.06,180.67,5.08,270.73.92,27.61-2.95,54.54-4.08,81.94-.91,22.15-.15,44.49-2.43,66.52l-2.93.9c-1.52-.48-3.7-5.66-3.58-7.35.11-1.49,1.52-2.82,1.53-4.03.48-36.83,2.72-71.45,5.45-107.98,1.35-18.09-2.14-34.45-3.03-51.91-1.17-23.02-.54-46.94-1-69.95-1.21-60.1.73-120.91-2-180.87-.71-15.6-3.07-29.15-4-43.97-1.82-29.15,2.15-60.31,1.08-90.02-1.71-47.36-9.12-90.4-17.32-136.57-5.18-29.14-9.48-58.79-11.71-88.22-.45-6,.34-12.45.01-18.5l-58.82-.13,1.79-45.22c.28-.97,4.56-2.02,5.06-.12v40.47Z"/>
        <path class="cls-1" d="M828.17,9.03l-2,.55-2.98,16.43-1.78-.71-.7,1.73-2.5-.03c1.21-2.22,1.44-5.2-.67-7.03-7.54-.91-15.61.93-22.77,1.08-87.99,1.88-172.99-12.45-260.91-9.08-80.96,3.11-161.88,13.72-242.81,18.02-36.25,1.93-69.25,1.36-105.63,6.3-41.88,5.69-83.19,14-125.2,18.71-10.19,1.14-20.42,2.31-30.5,4,1.17,3.66,1.73,10.73.99,14.46-.43,2.17-2.76,3.35-2.75,3.99,0,.39,1.65,1.93,1.83,3.97,1.36,15.77-2.61,32.89-1,48.91l-6.05,1.61c1.65-13.46.53-26.99.95-40.51.31-9.9,2.66-22.21,1.97-31.91-.12-1.7-2.63-3.02-.78-5.4,12.68-2.34,25.53-3.47,38.33-5.11,62.53-8.01,120.31-20.7,183.86-24,103.21-5.36,206.4-17.67,309.85-19.93,48.92-1.07,92.44,3.56,140.88,6.94,40.01,2.8,79.92,2.19,119.92,1.02,4.09-.78,5.64-12.41,12.06-8.07,1.26.85,7.5,8.14,3.91,9.06-2.91.23-5.02-2.41-5.5-4.99Z"/>
        <path class="cls-1" d="M260.55,269.85l-.99,3.98,3.53-.77c2.26.38,1.56,12.56,1.52,15.32-.05,3.64-.13,3.98,0,7.89s-.22,7.72-.05,11.55c3.55-2.08,7.35-8.25,11.47-9.01,1.62-.3,1.65.07,1.55,1.55-.46,7-12.94,12.47-13.98,19.02-.67,34.25,1.09,68.77-1.07,102.86-2.99,47.32-10.3,97.38-8.03,144.95,1.25,26.11,10.36,48.44,9.03,74.9-.41,8.08-2.6,16.99-3.03,24.95-.99,18.47-.04,37.47-.92,56.04-2.32,49-6.05,93.34-4,142.82.25,5.92,1.47,45.35,3.12,47.35.62.75,6.72,2.34,8.31,2.23,6.86-.49,17.43-4.63,25.01-4.16.79.05,9.69,2.27,7.48,4.08-4.31.4-9.11.55-13.36,1.13-9.17,1.27-18.67,4.91-27.61,2.87-.72,21.81-4.6,43.35-2.94,65.38-2.99.24-3.2,2.5-4.73,3.37-6.18,3.55-26.09-1.3-33.83-1.79-7.91-.5-16,.29-23.92.06l-1.04-3.06-.51,2.98c-12.74.24-27.69,6.03-40.42,3.96-2.78-.45-4.03-3.14-6.54-1.95v-3.99c3.78,1.54,9.49-.43,12.48-.08s1.37,3.81,4.5,3.06l-1-2.98c7.97,2.22,15.73-3.74,23.99-1.02l-1.01-1.97c4.16-.92,10.6-3.15,12.49,1.99l.55-2.94c.73-.79,12.55.34,14.47,1.14.91.38,0,1.87.97,1.8l.56-2.94c1.09-.12,2.37-.27,3.45-.08,3.3.6.93,2.3,3,4l3.98-3.11c9.46.91,19.1,2.94,28.48,1.1-.42-1.17-.98-2.11-1.03-3.46-.79-21.8,3.88-43.12,3.07-64.03-.59-15.19-3.45-30.71-4.08-45.89-1.91-46.07,1.01-93.41,3-138.99,1.28-29.36,3.52-58.69,5.03-87.91,1.32-25.6-7.81-47.5-9.03-72.9-3.05-63.75,8.74-128.56,9.09-191.94.19-34.08-1.3-70.91.94-104.91.13-2-.79-2.89,2-2.47Z"/>
        <path class="cls-1" d="M558.35,545.65l.04,4.26-13.02,14.51c-4.35,4.66-19.92,48.49-18.8,50.98.11.24,3.9,3.26,4.27,3.18,4.53-4.76,14.83-6.9,21.32-7.69,6.41-.78,12.78.85,18.22.32,7.62-.73,24.91-12.17,30.31-10.47,4.38,1.38.43,4.5-1.97,5.74-6.31,3.27-23.12,9.81-29.81,10.15-10.93.56-17.91-1.38-29.54,2.45-3.9,1.28-6.16,5.61-10.96,2.52-2.02,14.4-.41,29.02-.97,43.51-.42,10.73-2.62,22.43-3.08,32.89-2.16,49.24,15.54,103.04,3.76,151.65-4.29,17.69-12.27,47.06-31.77,53.26-.8.25-15.45,2.36-16.5,2.39-16.12.54-35.13-15.35-50.65-12.66-2.75.48-13.55,3.67-16.28,4.71-27.18,10.37-55.33,21.17-82.38,32.54-5.72,2.4-17.3,10.76-23,7.98-1.25-.61-2.9-3.37-2.77-4.83.29-3.3,8.35-15.32,11.27-17.65.95-.76,9.23-5.74,10.01-5.98,1.58-.5,1.57.08,1.4,1.42-.16,1.26-.35,5.36-.47,5.61-.44.96-8.11,5.36-10.42,8.46-6.98,9.38,6.85.24,9.98-1.01,25.44-10.19,50.88-19.94,76.65-29.28,7.77-2.82,17.09-8.55,26.02-9.96,17.45-2.76,33.76,12.4,51.75,11.8,9.16-.31,9.51-4.7,15.64-6.36,2.67-.72,5.62-.28,7.8-1.2.45-.19,6.43-6.45,6.86-7.09,2.99-4.51,9.12-26.95,10.65-33.37,11.31-47.53-8.12-101.48-5.47-149.37.46-8.37,2.64-18.16,3.02-26.96.96-21.9-2.21-45.32,3.69-66.26,2.87-10.2,9.65-32.7,15.06-40.9,1.25-1.89,15.38-17.53,16.64-18.34s2-1.27,3.54-.95Z"/>
        <path class="cls-1" d="M871.17,14.01l12.44,1.08,1.09-3.13c12.96-.25,26.02.56,38.97.11,10.22-.36,23.74-.67,33.66-2.31,6.59-1.09,12.68-4.2,19.23-4.76,11.97-1.01,23.49,3,35.02,4.02,8.24.73,25.25-5.13,31.45-.46,9.35,7.05-10.54,5.2-13.45,5.48-12.8,1.24-14.05,1.52-27.1.09-18-1.96-20.8-1.8-38.17,1.6-23.33,4.57-48.03,2.42-71.69,3.26-3.86.14-8.34,1.98-11.96,2.03-3,.05-7-1.91-10.49-.99,2.18,14.09,5.12,28.11,4.04,42.51-.71,9.53-4.93,19.14-5.93,28.05-1.24,11.11.94,23.61-2.12,34.86l60.51.47c28.81,4.8,57.89,3.31,86.89,5.05,8.96.54,18.12,3.27,27.49,1.98-1.52-8.1-1.22-17.17-1.04-25.52.55-24.53,1.31-47.4.84-71.91-.06-3.22-2.46-15.96-1.36-17.54,1.35-1.93,5.04-1.01,6.05,1.06,3.76,7.7-.1,21.41.47,29.51,1.92,27.65-.7,48.9-1.04,75.9-.06,5.11,3.21,10.24,1.63,15.54-.82,1.17-1.61.84-2.75.74-8.4-.73-17.09-2.14-25.3-2.78-31.05-2.43-62.08-1.41-92.89-6.04-10.38,1.55-26.4-1.95-36.03.02-2.69.55-2.77,6.83-6.4,3.9-.59-.48,1.01-3.99-2.07-2.88-.97,3.44-.63,7.56-1.66,10.84-.66,2.11-5.85,10.81-7.86,11.18-10.15,1.88-11.53-15.12-10.48-22.01-2.38-.08-3.17,2.19-5.42,3.07-3.25,1.28-7.01,1.12-10.42.78-2.22-1.4,1.58-32.63,1.85-37.83,5.12.03,1.51,8.03,1.45,9.51-.03.7,1.33,2.27,1.32,4.21-.02,2.87-1.78,18.28-.78,19.26,4.26,1.57,6.09-1.74,7.95-2.44,1.48-.55,3.75,1.49,4.85-1.02-1.67-5.52.8-12.31,1.18-18.04s-.43-11.46.02-16.96c.78-9.33,5.27-18.54,6.02-27.96,1.32-16.75-1.81-32.54-3.81-48.18-.17-1.33,3.95-8.4.76-12.32-1.89-1.41-7.22,15.61-7.94,16.58-1.24,1.67-2.35.65-4.03.4-.53,12.4,1.36,25.52-2.07,37.42.03.55,1.65.51,1.8.78.87,1.55-.59,5.84-2.76,6.3l.02,2.48,2.01-.5c-2.29,3.64.11,6.91-.06,9.95-.06,1.16-1.37,2.12-1.44,3.66-.25,6.16,2.41,11.17-3.51,15.85.76-14.59,2.2-28.79,2.03-43.51-.03-2.36-1.05-4.55-1.08-6.91-.09-7.52-1.2-24.5.26-30.8,1.34-5.8,5.7-3.32,6.78-4.15,2.47-1.91,2.71-12.22,9.59-12.57,8.13-.42,4.5,13.13,5.41,14ZM876.04,131.05l-10.87-.11c-.54,7.56-1.6,14.27,4.49,19.96,4.77-5.86,7.45-12.02,6.38-19.85Z"/>
        <path class="cls-1" d="M711.26,582.62c.84-7.46-3.57-14.5,2-20.97-4.8-.78-10.01.69-14.49.79-8.99.21-18.9.1-27.75-2.02-1.55-.37-1.89-2.4-4.01-2.51-6.66-.32-9.98,2.9-15.3,3.64-4.96.69-11.23-.74-15.86.13-2.91.55-6.6,4.61-10.54,3.97v2.98c4.12-.89,30.13,4.77,31.53,6.95,2.23,3.49-2.85,2.42-.54,5.03-5.25,1.9-8.9-1.47-13.94-2.54-4.64-.99-9.76-.96-14.42-2.4l-.64-3.04c-3.13-3.12-6.22,8.66-6.74,10.74-2.75,10.99-1.42,10.52-7.27,20.71-4,6.97-4.8,12.3-7.49,19.49-1.55,4.16-6.87,12.49-6.47,16.41l5.98,14.58,18.03-45.96,5.96,1.49c-2.99,5.79-4.3,12.16-6.81,18.17-6.27,14.97-11.97,23.13-15.38,39.58-1.28,6.19-6.07,14.48-7.97,21.92-1.87,7.31-7.06,12.12-14.77,9.78-7.75,25.38-14.86,51.73-23.74,76.72-3.73,10.49-7.89,19.35-14.77,28.21l-1.51-.47c-1.51-4.12-5.17-3.84-8.87-4.62l-.1-4.89,10.33,2.06c3.76-.89,19.37-51.69,21.88-59.29,2.1-6.36,4.25-12.21,6.27-18.72s4.36-13.61,6.56-20.4c-8.06-3.58-13.94-13-15.07-21.58l-3.84,1.17-.15,3.84c-2.61.35-3.94-1.93-6.48-2.1-7.31-.5-13.26,10.26-19.48,13.09-4.24-3.35,6.94-12.89,9.66-14.81,4.67-3.29,8.62-4.57,14.31-2.17l.06-2.91,4.94-.11c-2.89-6.16,1.95-12.65,1.99-18.97-1.69-1.67-16.84,6.42-19.49,7.98-3.96,2.32-14.58,11.26-17.03,11.96-2,.58-2.23-3.16-1.91-4,1.46-3.93,33.34-21.17,37.97-20.88,1.4.09,2.42,1.69,2.98,1.71.91.04,6.95-8.81,13.81-6.62,6.19,1.98-4.77,5.9-5.87,6.82-8.24,7.01-8,23.41-3.29,32.33,3.61,6.84,17.31,18.82,19.82,5.68-9.81.07-5.88-9.21,1.94-6.04l7.04-17.37-6.44-18.3-4.54.74c-1.59-1.61,7.68-21.74,9.01-25.46,4.42-12.39,9.06-24,13.72-36.25,2.45-6.43,3.68-13.32,6.27-19.72-3.87-1.81-7.05,2.17-9.74,3.25-1.35.54-3.38.08-5.22.77-2.65.99-5.41,4.55-7.54,6.45l-2.05-2.95c-8.23,2.66-17.2,2.84-25.8,4.07-1.36.2-21.91,5.7-16.16-2.17,2.2-3.01,30.1-5.26,35.58-6.39,7.31-1.51,13.81-5.27,21.11-6.88,5.85-1.29,11.88-.94,16.88-2.1,2.62-.61,4.48-2.87,6.63-3.36,7.85-1.78,17.29,2.28,24.86-3.25l1.86,1.91c8.76-3.91,15.27,2.09,23.05,2.22,4.04.06,10.94-.11,14.98-.28,3.58-.15,13.67-.52,16.23-1.55,5.79-2.34,7.84-11.13,8.29-16.7,1.08-13.63-3.98-25.42-7.12-38.41-4.49-1.12-6.43,3.48-9.42,5.89-5.63-1.3.02-6.77,2.56-8.44,13.08-8.63,13.43,12.12,15.67,20.22.71,2.57,4.01,8.74,4.1,9.88s-1.71,2.65-1.88,4.78c-.85,10.94,2.45,15.37-6.54,24.43-1.2,1.21-6.33,3.95-6.32,4.59,0,.32,1.52,1.23,1.64,2.14.21,1.65-.9,4.42-.78,6.86.26,5.38,3.68,15.04-4.65,16.33-3.4.53-5.7-3.98-10.71-3.88-1.7.03-17.22,4.44-18.82,5.26-1.94.99-3.02,4.51-4.23,4.77-4.76,1.01-1.29-7.61,2.56-9.44,1.55-.74,15.87-5.05,17.69-5.31,7.22-1.06,8.39,2.19,14.24,3.76Z"/>
        <path class="cls-1" d="M445.43,425.73c1.31-.78,1.7-1.46,2.15-2.88h1.12c10.17,6.81,20.89,8.28,31.95,12.13,12.15,4.22,27.44,11.23,39.41,16.56,7.56,3.37,35.1,15.06,39.34,19.62,3.36,3.61,6.84,15.56,1.33,16.47-4.73.79-.55-10.7-8.67-15.14-4.45-2.43-29.31-14.67-32.66-15.34-1.72-.34-3.33.77-4.41.49-1.63-.42-1.12-2.94-2.3-3.99-2.19-1.95-6.68-1.51-9.23-2.51-5.83-2.3-11.71-6.6-17.15-8.83-8.88-3.64-19.33-4.41-27.88-8.09-4.15-1.79-8.21-5.44-12.87-6.65-.39-.49-.13-1.24-.14-1.83-4.91,2.93-7.43-2.9-10.98-5-.65,3.56-1.33,7.57-2.53,10.97-6.69,18.97-17.2,41.54-26.64,59.3-9.27,17.46-26.37,26.65-25.8,49.13.62,24.49,11.08,45.6,9.97,68.95-.17,3.6-1.71,8.36-1.79,12-.16,7.61,2.4,15.94,1.78,23.97-.98,12.69-5.28,27.61-6.01,40.95-1.15,20.94,3.17,43.51-2.24,63.71-5.77,21.53-9.44,38.91-12.95,61-1.43,8.99-10.05,15.9-10.38,24.39-1.11,28.7,1.74,36.53-12.82,63.33-1.31,2.4-2.4,5.84-5.54,4.95,1.6-2.96-1.14-5.74-.6-8,1.07-4.45,6.6-10.96,8.46-15.61,3.19-8,2.18-14.81,3.21-22.77.96-7.47,1.73-8.68,1.88-17.03.32-17.73,6.9-16.34,9.81-28.25,1.02-4.17.58-10.39,1.31-14.68s3.59-8.06,2.91-12.57l-44.56,18.99c-4.86,1.16-8.04-7.51-12.07-7.86-5.65,3.58-10,11.42-17.81,11.94-8.48.56-6.41-8.47-11.2-8.88-5.93-.5-15.33,7.51-22.78,4.8l-.5-2.5,22.47-7.52c8.64-.05,8,7.83,9.64,8.86,5.86,3.68,11.19-7.04,13.92-9.26,6.47-5.27,13.01-1.02,16.9,5.01l1.33.29c4.02-4.06,9.7-3.66,14.37-5.68,3.42-1.49,6.6-4.93,10.59-6.39,6.98-2.57,11.47-1.19,17.73-7.25,7.3-7.06,5.09-12.23,7.43-20.56,1.06-3.8,3.33-7.38,4.25-10.74,5.11-18.62-.33-40.18,1.29-59.66,1.12-13.5,6.89-33.64,7.06-45.99.08-6.18-2.18-14.85-2.17-20.98.02-11.19,1.82-14.61.19-27.08-2.58-19.68-9.29-38.62-9.09-58.85.17-17.08,19.46-32.44,26.8-46.15,9.49-17.72,19.7-40.37,26.66-59.29,1.25-3.39,2.81-16.05,6.18-16.89,5.18.82,7.76,7.66,12.83,9.87.56.88-.54,2.21-.52,3.03Z"/>
        <path class="cls-1" d="M65.02,756.16c-4.38-4.51-5.38-25.87-7.62-33.86-3-10.7-7.71-21.46-10.99-31.98-2.39-7.64-2.94-16.19-5.44-23.54-3.86-11.37-16.24-19.68-13.28-34.19l-3.7,9.77c-3.72,26.1-16.23,51.4-18.26,77.68-2.16,28.1,12.03,69.64,20.67,97.22,6.14,19.59,18.44,24.49,29.12,39.83,1.95,2.8,2.9,7.34,5.14,9.85s7.19,4.48,10.02,6.97c3.2,2.8,12.77,15.03,13.67,15.56,2.14,1.27,6.41.63,8.07,2.18,1.35,1.26,4.51,7.96.75,8.49-2.36-.14-2.64-2.73-4.17-3.55-2.42-1.29-5.75-.88-8.32-2.71-2.78-1.98-8.8-11.22-12.48-14.5-3.4-3.02-8.15-5.12-11.07-7.92-3.64-3.49-4.61-8.56-7.45-12.54-12.1-16.94-22.76-19.48-29.51-42.44-5.04-17.14-10.2-34.73-14.95-52-11.75-42.69-1.52-64.37,9.42-104.5,5.42-19.9,9.06-38.91,19.5-57.44.95-1.68,2.94-4.96,5.05-4.98l2.38,1.7c1.27,4.06-3.1,9.61-4.19,13.51-2.34,8.35-4.87,20.58-3.44,29.06,1.28,7.58,7.94,12.71,10.94,19.04,3.64,7.68,3.87,17.43,6.32,25.66,3.58,12.04,8.66,23.83,11.99,35.97,1.76,6.4,3,27.7,6.49,30.48,2.68,2.13,7.71,1.47,9.26,4.73,1.36,2.86.31,6.09.94,9.05.39,1.8,1.97,3.5,2.51,5.48.89,3.25,2.27,12.09,3.82,14.17,4,5.37,28.46,5.05,25.36,15.41l-2.41,1.62c-4.04-7.41-14.76-6.35-22.05-9.94-9.42-4.64-10.14-23.71-13.95-33.02-2.49-1.68-5.99-2.12-8.15-4.34Z"/>
        <path class="cls-1" d="M676.28,702.04c.89,10.75,4.34,17.31,8.89,26.3,2.34,4.62,3.24,10.89,8.86,12.91,10.72,3.85,23.88,2.81,34.49-.96,3.8-1.35,14.53-8.32,17.71-6.29,1.17.74,1.42,3.94,3.48,3.52,2.39-2.32,1.05-5.28,2.64-8.36,1.12-2.18,4.86-3.71,4.95-4.27.29-1.85-1.89-4.7-2.01-6.91-.17-3.23,1.74-13.59,5.82-7.85-3.66,20.8,5.55,8.02,7.51,8.44,3.66,4.6,8.16,8.25,13.61,10.46l-.58,2.51c-5.9.83-7.23-2.9-10.92-3.1-1.5-.08-11.79,1.44-12.8,2.03-2.71,1.59-1.39,7.37-5.69,6.06-.23,1.68,2.87,1.29,2.97,2.48.26,2.95-5.05,3.45-6.52,4.46-1.07.74-7.66,7.25-8.13,8.23-1.02,2.13-1.16,7.91-3.29,10.31l9.79,4.08c-1.46,9.13-1.92,18.91,2.22,27.34,2.58,1.76,7.8-6.39,10.63-6.81l3.25,2.49c-18.45,24.92-24.22-3.04-21.92-20.61-18.27.28-3.29-21.5,3-27.97-4.86.45-8.6,3.75-13.21,5.27-12.93,4.26-38.01,6.9-46.58-5.94-6.53-9.79-12.46-27.06-13.2-38.76-1-15.7-1.55-45.81,11.01-57.14,1.31-1.18,2.58-.49,2.8-.68,2.12-1.87,3.44-6.9,8.24-6.18l1.75,1.99c-.72,2.03-2.53,3.5-3.28,5.5-7.8,20.84-14.22,37.8.07,57.9,12.97,18.25,29.33,22.42,50.94,21.08,2.72-.17,10.6-3.42,11.45-.52.89,3.05-3.71,4.53-5.77,5.2s-15.77,2.4-16.65,2.16c-1.19-.32-1.2-2.29-1.71-2.66-.61-.45-12.38.11-15.21-.35-15.74-2.58-30.55-20.67-36.08-34.86l-2.52-7.98c.34,5.7-.46,11.85,0,17.49Z"/>
        <path class="cls-1" d="M838.89,20.8c-.63.47-2.15-.27-2.77.88-4.23,7.77.74,46.47.11,57.84-.27,4.94-1.89,10.15-2.09,14.9-.45,10.94.47,22-.03,32.95.16.59,5,.24,4.01,4.98-.18.88-4.98,1.5-6.68,5.35-1.24,2.83-2.1,12.12-2.31,15.68-1.21,20.42.32,40.67.08,61.04-.11,9.75-2.7,22.45-2.07,31.98.66,9.94,3.15,22.1,3.68,32.08.39,7.32-3.87,17.82-3.72,24.84.09,4.57,2.61,9.39,3.07,14,.75,7.66.08,21.09-1.26,28.74-.22,1.27-.41,3.19-2.22,2.74-.64-.16-1.05-3.93-4.5-2.01-.26-2.17,1.85-3.4,1.97-5.53.48-8.41-.28-18.32-.93-26.99-.1-1.39.91-4.55.8-4.95-.15-.56-1.56-.47-2.13-1.74-3.52-7.75,2.48-19.55,2.32-28.18-.06-3.1-1.83-6.8-2.01-10.06-1.64-29.32.61-59.52,1.02-88.88.17-12.13-1.44-33.05,2.98-43.99,1.07-2.64,3.8-4.04,3.98-6.03.15-1.6-1.02-3.86-1.06-5.94-.26-15.04,1.26-27.56,2.08-41.98.87-15.27-1.62-30.66-1.08-46.05.21-6.06,2.03-12.54,1.17-18.77l.85-1.2c7.4.46,4.26-9.92,10.98-12.02,9.06-2.83,11.15,8.56,6.56,7.56l-4.01-3.97c-3.93,1.36-5.2,11.58-6.78,12.75Z"/>
        <path class="cls-1" d="M569.73,493.32c1.46,1.71,3.18,1.41,3.61,4.97.26,2.16-.94,10.9-1.43,13.44-1.93,9.98-6.09,19.02-13.55,25.92,2.26-.64,5.49,1.3,7.3.85,1.63-.4,3.29-3.76,5.67-4.45s4.01.82,6.27.46c3.69-.59,14.23-6.45,17.31-6.85,2.65-.35,11.05,1.11,14.89,1.07,2.16-.02,4.38-1.22,6.01-1.07,2.29.21,3.29,3.33,4.88,2.95,1.46-.35,3.68-3.82,8.26-3.88,2.51-.03,4.47,2.06,5.72,1.8,1.07-.22,1.92-2.23,3.34-2.66.61-.19,12.12-1.25,12.75-1.18,1.7.19,2.75,2.19,4.95,2.02,1.48-.11,3.09-1.89,4.76-2.35,7.16-1.99,15.64-3.32,21.79,1.82-3.68,5.06-8.57.16-14.18.71-4.55.45-10.21,4.67-13.29,4.66-3.94-.02-7.94-3.01-13.97-1.85-2.87.55-3.59,3.83-6.07,4.03-2.05.17-3.26-1.73-5.01-2.04-5.67-1.02-5.91,3.74-8.97,4.04s-3.73-2.8-5.94-3.65c-1.5-.57-11.45,1.38-14.02,1.45-1.83.04-3.49-1.48-4.98-1.45-1.8.04-14.05,5.52-17.19,6.39-2.09.57-4.5-.17-6.58.42-2.23.63-3.7,4.78-6.17,4.79-1.34,0-2.68-1.32-4.17-1.66-2.42-.55-4.75,2.47-4.35-4.33-21.2,13.16-42.96-3.73-40.95-27.47.27-3.19,2.11-12.61,4.97-14.01,2.37-1.16,5.35-1.13,6.03,1.98.87,3.95-2.2,1.64-3.07,3.16-3.08,5.42-.19,21.78.08,28.3,4.74-.36,8.02,3.13,11.94,5.03-.69-4.63,1.54-12.13,7.01-9.98l-1.01,1.98,6.01-.56c2.97,1.78.69,8.37,3.47,7.55,8.71-4.77,13.52-17.12,14.38-26.59.94-10.25-2.34-15.32-13.25-14.27-2.06.2-14.82,5.54-13.6.41,7.35-5.48,16.05-4.08,24.51-5.04,2.93.91,4.11,3.12,5.85,5.16Z"/>
        <path class="cls-1" d="M397.46,916.4c-1.42,11.33-9.18,20.35-11.98,30.97,8.2-1.38,33.69,3.59,38,10.47,1.81,2.9,3.04,11.08-.69,12.35-12.67,4.34-24.49-7.35-36.29.66,6.9,3.82,12.85,8.23,16.51,15.45,1.7,3.35,7.1,20.38,2.95,22.01-2.59,1.02-2.82-2.1-4.72-3.23-5.64-3.34-14.13-6.25-20.42-9.58-5.38-2.85-10.68-7.46-16.09-9.89-8.16-3.67-16.64-4.11-25.28-5.75-4.07-7.77,1.53-13.13,2.62-20.45,1.48-9.92-5.23-18.7-10.53-26.54,7.12-3.77,13.26,10.86,14.69,16.29,2.99,11.31-1.86,16.62-3.71,27.18,22.81-1.94,38.84,16.24,58.96,22.98-1.67-10.79-9.13-20.29-19.25-24.21-2.75-1.06-5.69-.01-7.71-2.28-.53-3.11,2.32-.17,2.86-.63.28-.24.32-1.59,1.23-2.25,5.87-4.22,9.31-7.01,17.53-7.51s15.59,5.41,24.34,3.9c.83-8.47-5.86-7.37-10.77-9.68-4.55-2.14-.85-1.64-7.43-2.56-5.68-.8-11.45-.34-14.28-5.74l-.99,3.99-7.43-4.59,12.04-28.76,5.87-2.61Z"/>
        <path class="cls-1" d="M673.69,597.24c.1.22,1.18.19,1.53,1.13,3.42,9.3-4.03,41.54-8.17,51.47-5.57,13.34-33.83,44.89-46.83,51.11-1.34.64-13.28,5.01-13.87,4.58-2.77-6.37,8.7-9.98,13.43-14,5.75-4.89,20.99-29.17,22.84-36.12,3.92-14.77.43-29.17-5.31-42.79,6.64-.87,8.49,6.22,9.88,11.59,4.24,16.34,2.21,30.54-7.28,44.47l-5.11,13.88c2.72-4.42,7.06-6.55,10.48-10.51,14.23-16.49,22.21-35.29,24.92-57.02,1.47-11.78-4.47-19.07-10.9-27.89l5.48-3.51c3.84,4.39,6.54,8.29,8.91,13.62Z"/>
        <path class="cls-1" d="M469.43,763.5c5.69-4.87,5.42-.3,7.69,1.05,2.53,1.5,6.99,1.77,8.59,5.23,1.04,2.25-.6,4.05-.31,6.13.24,1.71,2.1,2.71,2.02,4.95-.07,1.75-1.71,3.7-1.58,5.1.16,1.75,1.98,2.67,1.51,6.92-.76,6.86-3.12,7.09-6.63,10.88-3.3,3.56-2.08,8.1-9.8,1.87-5.08,3.86-7.18,11-14.44,6.28s.42-13.46-1.48-16.44c-12-4.07-17.7-27.44-16.29-38.21.98-7.5,10.68-30.72,18.43-32.52,5.04-1.17,13.94-2.51,15.84,3.73,1,3.29,1.81,15.71,1.24,19.28-.43,2.67-5.72,14.54-4.78,15.75ZM468.43,765.51l-2.99-.51c-2.91-1.95,3.4-15.23,3.87-19.1.38-3.12.67-17.25-3.41-17.46-1.98-.1-2.94,1.55-4.15,1.77-1.09.2-2.45-.78-3.62-.51-2.18.51-2.75,3.27-4.06,4.54-.46.45-2.1.06-2.42.45-.61.73-6.17,15.77-6.73,17.8-2.95,10.65.42,35.65,13.5,37.99l10.01-24.97ZM477.44,769.49l-1.53,3-2.5-4c-.44-.42-1.49,1.02-1.86,1.63-2.62,4.29-9.55,21.58-11.16,26.82-1.16,3.75-2.32,7.52-1.96,11.53,4.58,1.15,4.74-2.97,7.97-5.51,4.79-3.76,5.16-2.39,10,.51-.83-6.3,7.09-5.08,6.08-11.35-.16-.97-2.13-.93-2.61-1.62-1.96-2.86,8.1-17.49-2.44-21.01Z"/>
        <path class="cls-1" d="M469.42,498.68c-3,1.69-4.25-1.79-6.98-.55-.81.37-5.27,6.1-5.85,7.21-3.51,6.64-4.42,24.28,3.29,28.36,2.58,1.37,16.67,3.79,14.54.98-6.69-2.09-2.17-12.1,2.5-14.99,2.88,3.82,5.92,4,9.48.98.15,2.48-.17,5.03,0,7.51.11,1.49-.78,2.89,1.49,2.47,10.97-8.74,19.73-28.07,10.51-40.47,1.86-.82,2.36-1.23,2-3.49,1.33-1.44,5.34,4.55,5.84,5.65,8.54,18.9-10.05,47.7-30.41,50.22-22.8,2.82-32.24-13.41-27.18-34.16,1.99-8.17,17.66-26.53,20.76-9.72Z"/>
        <path class="cls-1" d="M837.17,599.62l-3.98,18.98c2.38-2.09,5.16-3.85,7.51-5.97,3.01-2.71,4.61-8.45,9.03-5.06-.79,4.67.2,9.7,3.37,13.38.99,1.15,3.59.02,3.87,3.16l-8.73,8.83c2.48,3.35,6.38,5.93,8.9,9.15,2.45,3.13,14.8,26.25,14.99,29.02.08,1.21-.4,3.43-1.48,3.42-1.58-.03-13.19-23.61-15.68-27.27-3.13-4.59-7.55-7.99-9.82-12.68-8.11,5.59-13.98,11.19-24.49,11.06-5.39-.07-25.78-5.19-29.51-8.51-1.27-1.13-1.89-2.76-2.93-4.06,3.68-2.52,9.04,1.7,10.42,5.28,7.97-2.67,16.14,3.03,24.22,2.85,10.2-.23,18.78-12.43,27.3-16.64l-5.01-9.97c-6.71,7.86-15.29,10.67-23.46,16.07-11.99-.87-28.1,2.9-26.48-15.07,4.81-.88,3.5,3.56,5.1,6.38,3.35,5.91,23.72,6.6,28.42.6-.59-5.19.78-10.4,2.69-15.24.34-.85,4-9.81,5.75-7.73Z"/>
        <path class="cls-1" d="M624.31,883.41l-.06,3.93c-6.58.6-13.05,1.72-17.96,6.53-7.27,7.12-4.09,14.72-5.41,23.57-.58,3.9-.84,5.67-4.6,6.31-3.03,3.49,1.32,14.44,4.32,16.34,1.8,1.14,6.79.7,9.14,2.35,1.33.94,4.01,6.34,7.1,8.89,16.64,13.76,15.25-4.39,20.48-7.54.92-.55,2.17.5,2.77.25.17-.07.26-1.42.99-1.6,8.28-2.06,21.32,4.44,19.11-11.48-.52-3.72-8.74-12.42-4.38-13.58s9.09,9.18,9.5,12.46c2.39,19.16-10.02,17.82-24.85,17.68-5.33,16.03-17.43,18.28-29.17,6.37-2.03-2.06-3.63-6.19-5.57-7.42-2.24-1.43-5.01-1.03-7.9-3.1-6.66-4.77-13.35-23.92-.49-23-5.26-20.98,4.09-37.98,26.97-36.97Z"/>
        <path class="cls-1" d="M653.57,891.73c-.34.15-.72,2.52-3.75,2.18-10.14-1.14-.87-16.83-5.98-22.3-7.17.48-8.93,8.16-15.63,7.47-.58-.06-2.9,1.05-1.89-1.14,2.68-5.83,18.1-16.46,22.88-8.91l3.08,10.39,12.98-26.55,2.06-.04c3.16,3.47,5.18,1.41,9,2.07l.4,6.47-13.28,26.74c4.87,7.13,8.95,12.56,7.86,21.82-1.02,8.6-12.1,9.16-13,4.96-.66-3.08,6.17-2.23,7.5-4.46,2.94-4.94-3.98-22.33-12.23-18.68ZM672.29,860.45c-2.49-.05-3.15-1.72-3.01-4.02-.96-1.12-11.84,19.04-12.71,20.75-.99,1.93-1.67,7.53-3.88,8.02l-2.38-.79v3s9.88-1.11,9.88-1.11l12.1-25.85Z"/>
        <path class="cls-1" d="M476.42,934.39c1.28,2.07,4.66,2.04,6.94,3.53,2.46,1.61,9.36,10.73,10.56,13.44.79,1.79.25,1.86-1.04,3-3.82.97-9.5-9.8-12.96-12-2.19-1.39-5.73-1.55-6.99-3.01-1.92-2.21-.47-8.38,2.2-9.75,10.09-5.17,17.77,6.55,26.26-.73.38-1.6-1.36-2.02-2.31-2.67l-23.18-15.8c-1.41-1.32,3.92-1.91,4.16-1.93,1.5-.08,2.93-.45,4.31.46,3.11,3.69,24.36,15.98,25.02,18.97.33,1.51-.83,1.65-1.74,2.23-6.4,4.09-7.95,7.6-16.68,6.18-4.65-.76-8.41-5.35-14.54-1.92Z"/>
        <path class="cls-1" d="M572.25,693.66c1.96,3.12-3.11,20.44-4.71,24.56-6.41,16.55-18.1,33.21-25.36,49.59l-6.8,17.66c.07-2.47-.19-5,0-7.48,1.66-20.89,25.95-51.34,31.52-75.41.94-4.06-.89-11.65,5.34-8.93Z"/>
        <path class="cls-1" d="M785.21,777.5c9.71,17.54-9.39,23.62-20.97,12.48-.06-3.83,15.21,1.87,17.53-1.43,3.04-4.32-4.76-7.68-3.43-12.36.79-2.78,10.32-3.87,12.39-11.67,1.93-7.25-1.09-9.36-3.51-15.54,16.82-.44,10.44,25.82-2.01,28.51Z"/>
        <path class="cls-1" d="M449.43,908.4l-1.99,3.5c5.54.8-2.04,12.54-1.01,13.48,6.74.55,16.64,8.07,17,15l2.49-1.94c2.47,6.18,12.26,9.02,15.47,12.45,1.17,1.25,1.23,1.76,1.02,3.47-15.1-.43-22.91-18.71-34.32-24.23-1.75-.85-3.95.56-5.2-1.74-.59-1.37.98-3.41,2.54-3.03l-3.05-3.47,3.08-13.5h3.97Z"/>
        <path class="cls-1" d="M638.01,920.09c-8.58,9.12-22.05-1.67-14.53-14.04,2.67-4.39,10.45-4.22,15.36-3.67,6.21.69,6.7,4.22,4.55,9.59-.19.47-5.04,7.76-5.37,8.12ZM639.3,907.4l-10.92-.98c-1.37,3.57-2.91,6.83-1.92,10.82,6.68,3.7,12.43-3.46,12.84-9.84Z"/>
        <path class="cls-1" d="M798.2,608.6c-4.21.48-5.35-4.75-7.97-7.51-1.76-1.86-4.39-4.1-6.54-5.45-1.62-1.02-5.3-1.83-5.47-2.07-.46-.68.92-2.73.45-4-.62-1.69-9.09-8.38-9.81-10.22-1.29-3.28,8.47-15.6,11.83-14.71l1.51,2.48-7.53,8.55-.09,1.97c1.78,5.18,6.61,7.08,9.68,10.41,1.54,1.67,1.76,3.65,3,5,4.32,4.7,10.82,7.33,10.92,15.55Z"/>
        <path class="cls-1" d="M712.77,828.45c1.34-.32,2.43,1.12,2.47,2.42.14,5.52-10.33,24.7-13.14,30.89-2.43,5.34-4.17,11.09-6.53,16.46-2.23,5.09-4.73,3.61-4.1-1.04.77-5.68,15.45-38.45,18.93-45.09.68-1.29,1.17-2.69,2.38-3.62Z"/>
        <path class="cls-1" d="M774.22,688.54c2.24-17.09,17.34-29.7,18-47.32.88-1.87,3.53-.54,3.99,1.86,2.07,11.05-14.78,32.68-18.13,43.83l-3.86,1.63Z"/>
        <path class="cls-1" d="M701.27,798.47c3.5,4.4-23.33,36.26-26.12,42.33l-3.85,1.63c-.23-1.74.11-3.12.78-4.71,3.23-7.75,14.49-20.29,19.62-28.35,2.38-3.73,4.1-7.9,6.55-11.46l3.02.55Z"/>
        <path class="cls-1" d="M932.44,737.26c.71.45,1.83.27,2.67.26l-.02,1.47c-1.33,1.51-2.23,4.14-3.51,5.49-1.61,1.71-3.17,1.62-4.08,2.45-2.6,2.37-3.99,6.43-8.4,5.18-5.46-1.55-5.84-8.23-4.76-12.88.87-3.76,5.07-3.07,3.78-7.71l10.37-.93c1.82.56,2.37,5.67,3.94,6.67ZM930.12,736.53l-10.99-1.01c-3.97,24.15,12.03,1.85,10.99,1.01Z"/>
        <path class="cls-1" d="M843,651.77c5.09,7.13,12.62,13.27,15.76,21.79.55,1.5-.54,3.22-.07,4.05.33.59,2.05.75,2.52,1.64,1.47,2.75,4.98,12.28,5.54,15.26.3,1.6.78,3.13-1.11,4.01s-1.63-1.93-1.94-3.01c-1.02-3.48-1.86-8.45-4.52-8.98v-2s1.97-.47,1.97-.47c-4.91-1.02-4.59-6.26-6.81-10.19-4.25-7.52-10.65-13.27-16.16-19.82-.47-2.13,3.12-3.26,4.82-2.29Z"/>
        <path class="cls-1" d="M850.17,561.64c-1.69,3.73,2.05,5.17,2.11,6.46.12,2.5-7,21.37-8.52,22.61-1.18.96-2.11,1.09-3.58.91l7.98-24.98-6.48,5.03-2.5-1.55c-.91-3.43,7.43-8.97,10.99-8.48Z"/>
        <path class="cls-1" d="M853.17,606.6c-1.98-1.99,7.13-15.23,8.51-17.96,2.81-5.56,5.15-12.74,8.22-17.74,1.73-2.81,4.4-1.24,3.85,1.76-.61,3.36-5.27,12.47-7.08,15.97-1.32,2.55-8.8,15.79-10.03,16.95s-1.76,1.23-3.47,1.01Z"/>
        <path class="cls-1" d="M758.5,702.25c1.33,1.07,3.06.98,4.61,1.4l.11,3.88c-13.63.85-18.55-21.75-9.37-29.91l3.11,2.42c-4.56,5.92-4.37,17.44,1.54,22.21Z"/>
        <path class="cls-1" d="M702.03,497.92c1.68,1.67,1.19,6.43,1.23,8.76h-3.98s-.48-5.03-.48-5.03c-2.65-4.06-8.67,5.26-9.7,7.35-1.46,2.95-2.22,11.63-6.31,10.66-1.95-.46-.93-1.81-.78-2.73.86-5.06,6.8-18.49,11.96-20.05,1.91-.58,6.66-.35,8.05,1.03Z"/>
        <path class="cls-1" d="M770.94,761.22c-2.46,2.46-7.8,2.82-10.67.72s-.76-6.24-.93-9.32c6.97-3.85,19.14,1.03,11.59,8.6Z"/>
        <path class="cls-1" d="M824.18,724.52c1.14-4.43-4.04-5.08-1.96-8.95,5.03-1.24,3.84,2.6,6.95,4.68,2.14,10.53-15.07,13.6-13.03-3.26.57-4.68,4.47-4.24,4.93-1.87.37,1.88-3.15,8.71,3.11,9.41Z"/>
        <path class="cls-1" d="M823.17,690.51l-3.96,1.04c-.69-6.86-5.26-14.15-6.57-20.49-.77-3.74.74-12.1,4.06-4.5,1.1,2.52,7.35,23.06,6.48,23.95Z"/>
        <path class="cls-1" d="M783.21,700.04c.44-3.32,3.61-13.93,7.97-9-4.93,6.84-1.96,17.58-4.13,24.83-.67,2.24-2.61,2.07-3.84.16.47-5.06-.65-11.08,0-15.99Z"/>
        <path class="cls-1" d="M793.09,560.53l-5.64,3.57c1.13,5.37,3.7,8.56,7.74,12.05-1.12,5.07-6.65,1.06-8.45-1.56-1.54-2.25-3.19-7.45-3.31-10.2-.22-4.83,10.89-11.28,9.65-3.86Z"/>
        <path class="cls-1" d="M801.71,554.65c4.72-1.48,3.09,5.91,3.71,8.27.58,2.2,7.9,15.71,3.27,16.7-1.94.41-2.28-2.02-2.78-3.19-1.79-4.15-6.19-14.49-5.76-18.32.13-1.19.28-3.05,1.58-3.46Z"/>
        <path class="cls-1" d="M762.17,673.62c-.24,7.99,6.37,12.24,10.06,18.45l-2.48,2.48c-7.23-4.44-12.55-12.17-11.51-20.99l3.93.06Z"/>
        <path class="cls-1" d="M819.19,597.11c.18-.86,2.04-3.78,3.48-3.49,3.29.69.58,17.47-.02,20.57-.29,1.49-.83,3.72-1.24,5.21-.47,1.75.52,2.62-2.22,2.2,1.02-7.08-1.37-17.93,0-24.48Z"/>
        <path class="cls-1" d="M800.97,666.38c-.07.15-1.51.16-2.06,1.42-1.88,4.31-2.26,10.45-4.47,14.48-2.49,4.54-3.47-3.28-3.17-6.12.5-4.72,4.24-9.79,4.95-14.59,2.4.05,6.15,1.97,4.75,4.81Z"/>
        <path class="cls-1" d="M844.08,795.64l.59,1.85,1.08-2.08c3.35-.74,5.24,4.21,7.91.08,1.84.5.8,3.74.49,3.98-.47.37-4.42-1.19-5.33-.97-.77.19-.9,2.68-3.3,2.74-1.66.04-2.71-1.45-4.45-1.32-3.71.28-5.61,3.95-8.9,4.53,1.87-8.22,3.92-8.6,11.9-8.82Z"/>
        <path class="cls-1" d="M830.18,802.47c-1.09,2.64,2.29,2.86,1.92,4.31-.88,3.4-2.62,7.03-2.85,11.1-8.58,3.67-2.38-18.83.93-15.4Z"/>
        <path class="cls-1" d="M788.2,722.53c.98.73,2.29,12.56,2.09,14.5-.15,1.49-1.92,2.48-2.58,2.47-2.56-.07-4.19-20.44.49-16.96Z"/>
        <path class="cls-1" d="M792.2,616.6c.64,6.52-6.17,8.18-5,14.38-9.29,3.14,1.63-17.74,5-14.38Z"/>
        <path class="cls-1" d="M142.63,985.35l-.45,3.04c-4.45,6.05-25.12-9.42.45-3.04Z"/>
        <path class="cls-1" d="M806.15,594.65c1.92,4.8,3.98,8.46,3.04,13.95-2.89.56-1.59-.84-2.25-2.19-1.27-2.61-6.31-9.56-3.76-11.32l2.97-.43Z"/>
        <path class="cls-1" d="M857.28,566.53l-.11-3.88c3.84-.1,13.76.84,8.41,5.89l-8.3-2.01Z"/>
      </g>
    </g>
  </g>
</svg>