<?xml version="1.0" encoding="UTF-8"?>
<svg id="Calque_2" data-name="Calque 2" xmlns="http://www.w3.org/2000/svg" viewBox="0 0 1054.31 1485.61">
  <defs>
    <style>
      .cls-1 {
        fill: #fff;
      }
    </style>
  </defs>
  <g id="Illu_Vectorisée_WHITE_" data-name="Illu Vectorisée (WHITE)">
    <g id="Demon">
      <path class="cls-1" d="M500.72,248.12c-.31.54,1.22,9.4.92,12.37-1,10.03-14.83,21.25-21,28.96-7.52,9.38-15.4,20.56-18.01,32.45,6.4-1.2,14.96-3.38,21.44-3.01,5.52.31,14.13,3.14,20.13,3.92,12.16,1.57,22.02,1.75,34.43,4.54,15.46,3.47,32.53,4.37,47.96,9,4.1,1.23,6.98,4.48,10.95,6.04,14.74,5.78,19.73,5.69,30.94,19.03,8.7,10.36,6.68,14.87,10.73,26.25,2.46,6.92,9.37,27.29,13.39,31.58,1.97,2.1,5.85,3.99,7.88,6.11,5.29,5.51,10.7,15.41,16.02,21.95,42.46,52.21,80.67,114.66,110.76,175.07,13.57,27.25,27,54.47,39.94,81.99,10.44,22.21,21.3,44.22,33.35,65.59,3.04,5.39,6.89,9.17,9.66,15.33,11.96,26.69,23.12,53.06,37.29,78.64,7.87,14.21,13.79,33.73,18.54,49.42,2.16,7.11,2.1,15.28,5.37,22.14,28.83-4.35,42.89,6.96,39.88,36.56-.97,9.51-9.49,25.78,5.75,28.21,12.35,1.98,24.21,1.03,35.55,8.42,6.49,4.23,16.89,18.69,21.64,25.33,9.72,13.58,11.6,65.15,12.04,82.91-1.74,87.1-.59,174,2.92,260.93,1.15,28.61,4.8,57.27,5.11,85.89.25,22.98-16.69,15.3-32.54,16.52-21.44,1.65-44.99,6.8-66.96,4.96-5.43-.45-11.32-2.61-16.97-3.02-27.92-2.03-57.92,3.56-86.01.06-3.39-.42-5.18-2.51-8.03-2.96-12.3-1.95-28.04-.57-40.71-2.26-15.96-9.9-19.36-18.1-21.56-36.4-4.8-39.89-.67-82.47-1.08-122.84-.31-30.4-4.2-62.91-3.09-92.95.52-13.99,3.36-27.99,4.09-41.89.85-16.33-.89-32.92-1-48.97-.21-31.38-7.12-96.53,13.97-120.95,7.57-8.77,18.58-7.9,26.32-13.65,1.94-1.44,2.91-4.34,5.65-5.56-.44-5.06-.47-10.82-1.03-15.78-.88-7.81-7.12-27.06,1.73-31.26,2.25-1.07,4.52-.77,6.52-1.48,1.45-.51,2.15-2.12,3.46-2.54,3.28-1.04,9.65-.89,13.28-1.22,1.95-1.92-14.43-36.85-16.46-42-8.04-20.38-12.3-44.43-20.03-62.92-4.38-10.46-13.18-19.59-17.67-29.31-7.32-15.84-11.82-36.88-18.31-53.64-20.38-52.59-44.97-103.83-67.27-155.59-1.24-1.02-4.03-8.13-5.65-7.32-2.23,1.12-3.32,9.49-3.99,12-4.45,3.06-3.75-4.52-3.27-7.28,1.15-6.7,7.44-10.95.13-18.65-4.73-1.46-20.1,12.92-26.32,5.33,3.09-10.29,10.21-18.92,16.53-27.42-4.02-6.94-6.61-14.56-10.41-21.62-10.71-19.89-19.91-40.64-32.13-59.82-11.6-18.19-24.82-35.7-35.18-54.76-7.82-14.38-13.52-32.5-21.6-46.36-6.27-10.76-28.11-17.68-39.84-18.2-4.84-.22-8.72,2.12-13.84,1.98-29.22-.78-58.69-6.68-87.97-5.11-7.45.4-27.27,2.18-33.66,4.32-4.61,1.55-8.15,8.05-14.64,7.87l-.23,3.72c-6.3,1.61-13.02,2.07-19.16,4.34-4.06,1.5-10.96,7.56-13.16,7.63-1.52.05-7.93-.88-9.61-1.3-1.18-.3-10.25-3.45-10.71-3.78-.55-.39-1.04-3.02-2.19-4.31-2.26-2.54-8.27-4.64-10.08-7.91-1.39-2.5-.45-4.87-1.45-6.55-.82-1.38-3.49-1.24-4.28-4.72-1.27-5.58-.55-17.59,3.47-22.05,4.65-5.16,3.52,3.37,3.75,3.76.94,1.56,15.01,9.53,18.02,12.03,1.48,1.22,11.31,10.9,11.52,11.69.47,1.76,2,12.07-1.49,11.27-1.61-.37-4.77-16.85-10.99-16.98-1.56.34-3.77,14.3-3.05,15.94s5.93,5.65,7.8,6.27c8.66,2.85,11.15-1.3,17.55-5.81l-1.3-8.46-7.07-.92-.33-2.91c6.67-3.13,14.08-5.85,19.77-10.7,4.39-3.75,5.99-9.12,10.57-12.42,1.66-1.19,3.79-1.33,5.45-2.55,2.36-1.74,12.78-10.73,14.45-10.36,2.91,1.99,2.75,5.72,2.6,8.92h-7.99c3.33,5.15,10.3.47,13.54.05,2.92-.38,5.91.26,8.84-.15,3.41-.49,20.23-3.33,21.55-4.43,5.7-13.33,12.01-24.57,21.05-35.91,8.63-10.83,26.92-22.43,18.96-37.97l5.01-1.54c-.33-1.01-.71-1.74-.69-2.87.2-17.4,28.17-34.87,39.17-47.07,12.19-13.52,36.27-45.27,39.22-62.71,2.75-16.24-6.49-49.51-11.26-66.22-3.03-10.61-7.4-20.95-14.46-29.52-3.59-2-4.5,9.54-4.9,12.15-1.07,7.02-.74,36.9-14.04,28.77-5.79-3.54-6.73-16.09-8.79-22.19-3.18-9.46-20.79-36.32-28.35-42.61-1.72-1.43-8.63-6.04-10.43-6.57-1.35-.39-1.86.12-1.46,1.46,1.41,4.84,9.19,13.98,11.83,20.15,5.67,13.27,8.95,41.65,10.99,56.97,3.2,23.93,5.12,47.34-12.34,66.33-3.66,3.98-11.04,7.69-13.49,10.53-1.61,1.86.01,4.83-4.33,3.28-2.57-.92-11.26-16.66-13.84-20.14-4.39-5.91-9.85-10.83-14.21-16.77-3.59-4.88-23.61-37.1-26.29-37.71-16.42.21-29.41,10.96-43.91,17.69-6.08,2.82-33.38,14.93-37.94,15.03-3.25.08-7.7-.98-4.38-4.4,3.25-.79,6.52-1.11,9.68-2.31,18.8-7.13,38.01-19.78,56.31-27.64,8.95-3.84,14.76-3.48,24.3-4.43l51.66,71.82c2.48,1.67,12.01-8.38,13.77-10.63,11.49-14.63,11.33-29.78,10.15-47.79-.85-13.12-6.78-52.5-11.11-63.84-2.73-7.17-16.67-25.49-15.7-30.87,2.1-11.6,21.02.83,25.72,4.86,7.52,6.44,25.09,31.83,28.85,41.11,1.29,3.18,5.99,22.17,7.73,22.23,1.86-2.04,1.96-5.88,2.37-8.6,1.26-8.33.54-24.33,4.89-31.09,8.17-12.68,23.38,16.44,25.24,23.19,4.51,24.74,18.67,53.52,14.73,78.74-3,19.18-27.96,52.01-41.22,66.72-10.35,11.48-25.89,20.54-34.33,33.63-2.06,3.19-3.25,7.68-5.29,10.73-.8,1.19-2.58,1.5-2.74,1.77ZM922.32,936.56c.71-.73-2.75-16.72-3.46-19.04-2.9-9.47-6.24-19.18-9.28-28.7-5.23-16.38-14.8-26.26-21.1-40.86-3.09-7.15-4.76-14.88-7.96-22.02-12.82-28.63-29.59-54.6-43.69-82.23-8.82-17.29-15.49-35.81-23.58-53.37-6.33-13.74-15.54-26.14-22.37-39.6-11.31-22.3-20.22-43.03-32.63-65.31-30.71-55.13-64.26-114.17-108.28-159.55-9.61-9.91-8.38-14.31-12.69-26.29-1.71-4.74-4.59-8.7-6.07-13.92-2.33-8.21-.8-11.61-6.72-19.26-10.22-13.21-14.54-13.01-28.64-18.33-3.94-1.49-7.24-4.94-10.86-6.13-7.9-2.6-21.92-1.66-30.88-3.1-9.6-1.55-24.18-8.23-32.15-8.91-2.67-.23-4.71,1.03-6.77.87-13.74-1.03-27.71-7.31-40.97-5.8-3.63.41-7.51,2.25-11.2,2.79-17.06,2.48-31.68,5.37-48.87,7.09-3.56.36-6.69,2.61-10.48,2.01l.14,10.35c.33,1.3,1.22,1.43,2.36,1.64,4.11.76,13.3-.56,17.94-1.05,24.05-2.56,36.99-2.08,60.97-.9,9.98.49,19.87-1.88,30.01-1.03,4.86.41,11.05,2.82,16.15,2.92,5.2.1,10.97-1.35,16.87-.97,16.52,1.06,32.68,6.61,44.43,18.54,13.31,29.97,28.62,58.1,46.17,85.75,8.28,13.04,18.5,24.85,25.96,39,4.29,8.13,6.37,16.73,10.29,24.69,12.99,26.35,27.93,53.17,42.02,78.91,19.27,35.2,32.58,74.09,47.98,110.92,6.25,14.95,14.34,29.59,20.22,44.74,6.43,16.59,10.75,36.2,17.74,52.21,3.21,7.34,8.71,13.31,12.64,20.34,9.04,16.15,11.06,32.83,16.8,50.16,7.32,22.08,18.09,42.98,26.16,64.78l3.26,2.59,60.54-3.92ZM332.7,336.9c.46,3.83-2.31,8.44-.51,12.01.81,1.6,3.79,1.87,4.35,3.64.62,1.95-.46,4.5.64,6.36.87,1.48,5.59,2.37,7.02,3.96,1.44-.08,2.92-14.33,3.05-16.95l-14.54-9.01ZM390.67,359.89l5.87-2.64-1.89-14.35c-5.73,5.6-20.03,9.67-16.83,19.35.74,2.44,7.33,2.22,8.43.7,2.34-3.22-4.7-9.27-1.06-10.06,3.39-.73,5.66,4.17,5.49,7ZM679.47,577.75l15.57-5.92c1.25-1.59-2.43-9.32-4.1-11.06-2.84-.65-10.05,14.33-11.48,16.98ZM963.29,997.52c-2.8-15.25,8.47-34.34-.17-48.31-6.63-10.72-22.23-6.73-32.31-6.57-20.82.32-42.98.46-63.96,2.9-7.16.83-16.23,4.92-25,5.98-10,1.22-14.56-3.83-13.45,10.5.71,9.19,3.52,19.46,4.01,29.05.11,2.09-.07,3.59-1.03,5.44,2.14-.05,4.33.19,6.48,0,37.53-3.44,81.65-3.63,119.04.91,2.12.26,4.28.1,6.4.11ZM787.41,1129.44c20.55-5.26,39.43-14.57,58.97-22.47,13.1-5.29,26.92-8.7,39.27-15.7,18.43-10.45,34.3-16.07,53.02-24.93,18.41-8.72,36-19.76,54.25-28.7,8.05-3.94,17.04-5.68,24.69-11.29,4.12-3.02-2.01-5.07-4.34-7.35-8.59-8.39-12.44-9.38-24.61-11.36-11.59-1.89-21.39-2.53-32.9-3.09-42.69-2.07-103.69-6.78-143.34,6.48-7.33,2.45-10.49,2.24-15.21,9.78-8.72,13.94-10.18,36.86-10.84,53.12-.75,18.52,1.13,37.01,1.05,55.5ZM1042.24,1317.34c-3.88-42-3.16-84.27-3.04-126.47.12-44.47,3.91-90.67-4.23-134.61-1.2-6.5-4.41-20.32-10.74-23.25-4.23-1.96-12.76,4.7-17.29,6.67-23.05,10.06-44.47,22.99-67.27,33.67-11.73,5.5-26.3,9.97-37.72,15.25-7.28,3.36-14.78,10.48-22.92,14.06-17.66,7.77-41.26,16.4-59.67,23.27-10.65,3.98-21.95,6.2-32.5,10.48-1.6,2.38,1.01,19.97.98,24.53-.2,30.95-4.53,61.7-3.48,92.99.88,26.1,2.55,52.68,3.08,78.87.18,9.14.42,18.54-1.04,27.52,2.16.24,3.02-1.87,4.97-2.51s4.55-.95,6.65-1.34c37.43-6.95,79.11-6.78,115.26-17.65,17.62-5.3,43.85-10.21,62.75-13.2,17.49-2.77,33.26-3.73,50.99-6.97,4.96-.91,10.14-1.45,15.2-1.29ZM1042.1,1324.47c-8.64-3.32-18.25,2.34-26.43,3.78-9.54,1.68-20.74.94-30.76,2.22-12.29,1.58-24.27,5.24-36.39,7.58s-21.83,3.18-34.21,6.76c-22.27,6.44-52.07,9.14-75.57,12.37-15.14,2.08-30.57,3.04-45.73,5.05l-2.23,4.02-4.38-.95-.05,49.51c3.16,18.44-2.44,44.35,17.74,54.22,13.91,1.61,29.01.55,42.77,2.2s20.89,2.94,35.97,2.91c25.18-.04,49.97,1.89,74.92,3.13,21.19,1.05,38.61-1.44,59.01-3.02,5.44-.42,26.41,1.16,29.22-1.25,1.83-1.57,2.36-8.76,2.29-11.29-.78-27.58-4.11-55.29-5.09-82.88-.64-18.11,1.27-36.39-1.09-54.37Z"/>
      <path class="cls-1" d="M81.87,452.83c4.19,4.29,21.42-22.34,28.32-21.76,3.24.27,4.59,4.29,4.56,7.16-.08,8.19-17.64,43.21-15.88,45.59,5.35-.76,17.03-13.16,21.73-7.74,4.09,4.71-3.13,14.86-4.93,19.06-5,11.68-11.66,25.48-15.82,37.14-2.13,5.97-3.45,12.18-3.98,18.5,13.69,2.13,20.52-28.63,29.47-28.61,6.79.02,2.58,14.16,2.46,18.08-.22,7.41-.91,50.5,3.14,53.42,18.82-1.32,26.06-23.42,37.37-35.9,2.97-3.28,7.42-8.88,12.22-7.28,5.03,2.34,6.11,23.52,10.38,29.67,2.31,3.33,9.29-1.82,11.79-3.98,7.58-6.57,19.76-29.42,30.58-29.44,9.28-.02,20.29,22.32,27.84,21.12,6.64-10.41,16.97-17.77,22.1-29.17.52-1.03,3.39,0,3.49.14,3.67,4.85-19.43,29.61-23.66,33.73-14.12,4.2-21.91-20.65-30.72-19.78-5.99.59-16.68,17.3-21.03,22.01-3.81,4.12-14.19,13.81-19.94,13.01-7.16-1-10.92-25.88-13.04-32-14.18,10.5-21.18,35.01-38.21,41.74-4.64,1.83-10.24,3.83-13.74-.8-5.2-6.88-4.91-41.68-4.56-51.49.15-4.27,1.89-8.85,1.03-13.45l-9.57,14.9c-4.78,6.23-12.38,10.76-20.41,8.58-5.22-2.54.31-20.43,1.99-25,4.96-13.51,18.22-35.41,20.97-47.99.12-.57.31-1.62-.47-1.46-1.76,1.61-3.74,3.03-5.83,4.16-2.26,1.23-15.45,8.54-16.37,8.68-4.26.67-3.59-3.87-2.81-6.89,2.62-10.23,11.39-24.93,15.28-35.68,1.53-4.24,3.4-8.68,3.22-13.26-10.06,7.11-16.02,21.97-30.3,20.84-6.81-2.25.28-23.15,1.55-28.11.21-.81,1.78-2.55-.71-1.71-2.67.9-8.44,7.21-10.34,9.65-9.52,12.23-25.21,38.56-32.32,52.63-9.43,18.65-19.82,41.96-24.74,62.21-2.42,9.96-4.46,20.13-5.06,30.41.71.78,15.59-9.18,19.48-1,2.93,6.15-4.03,36.18-1.5,38.97,3.55-.57,8.91-5.54,12.05-1.3,3.39,4.57,2.59,22.17,2.94,28.29,6.84-2.51,8.61-12.79,15.07-16.41,14.53-8.13,13.52,8.8,15.75,17.06,1.89,7.01,4.45,17.76,6.86,24.13.87,2.29,2.09,4.41,3.79,6.18,7.95-6.46,7.75-18.98,17.79-23.17,15.11-6.3,11.36,4.73,12.95,14.43.65,4.01,2.66,7,3.75,10.75,2.34.52,1.6-.34,2.22-1.29,4.11-6.26,4.43-20.66,15.04-17.49,4.25,1.27,7.2,15.56,8.94,20.04,2.67,6.88,3.83,13.53,12.3,13.78,11.67.35,16.83-20.28,28.67-18.86,8.64,1.04,8.4,17.5,12.06,22.51.57.78,7.06,4.32,8.06,4.13.63-.12,8.86-7.39,9.66-8.31,6.91-8.01,13.68-26.98,22.61-32.35,14.95-8.99,10.89,17.97,15.85,24.81,4.32-3.6,8.68-19.94,13.03-20.98,7.56-1.81,2.74,6.68,2.51,8.56-6.08,49.09-23.05,76.83-40.04,120.86-6.21,16.09-8.41,32.98-14.21,48.75-6.9,18.76-14.96,34.96-21.49,54.47-2.05,6.14-16.62,46.78-14.83,49.24s7.59.07,10.08-.02c6.61-.25,20.29-1.53,25.86-.95,3.53.37,6.92,3.13,10.34,3.7,5.46.91,10.42.15,16.45,1.53,6.61,1.51,12.26,5.92,19.28,5.78,16.8-3.43,33.38-7.79,50.29-10.76,63.41-11.13,128.42-6.24,192.55-10.32,4.02-.26,16.75-4.42,18.38.66.52,1.62.29,3.63-1.52,4.2-5.78-.48-11.27,1.61-16.86,2.13-9.93.91-20.13,2.24-29.98,3-24,1.86-50.2-1.35-74.43.02,2.44,9.22,1.54,18.25,1.95,27.52,2.15,48.03,2.98,99.06-3.08,146.75-1.6,12.57-3.7,23.06-4.89,36.08-.89,9.75-5.89,14.28-11.54,4.62-10.29,2.6-20.89,1.81-31.41,1.9.52,1.46,3.86,2.55,5.31,3.17,13.78,5.87,35.66,16.49,50.28,16.79,2.32.05,3.27-1.79,4.92-1.99,4.16-.5,7.96,5.61,10.96,7.98,17.14,13.54,24.52,21.87,37.87,39.09,5.26,6.79,12.77,20.33,18.52,25.45,3.66,3.26,10.56,5.12,14.55,8.44.67-3.32-1.16-7.54-2.23-10.76-4.64-13.93-13.73-28.79-22.03-40.93-3.44-5.04-17.14-17.08-4.24-18.26.24,6.05,6.45,10.61,9.81,15.68,8.5,12.8,22.68,36.09,24.93,51.02.9,5.96.94,11.89-6.78,9.8-4.66-1.26-16.52-9.3-19.93-13.07-11.43-12.64-20.77-30.27-32.49-43.46-8.2-9.23-18.46-16.12-27.16-24.84-2.65-2.37-3.86.82-6.68.84-14.62.11-48.48-13-61.82-20.25-3.22-1.75-8.95-6.32-4.38-9.8,4.92-3.74,37.89-1.75,45.56-.9-.3-13.11,4.09-25.73,5.88-38.6,7.52-54.13,2.8-109.21,4.16-163.82-.15-1.68-.7-6.41-1.51-7.48-1.71-2.26-28.19-.36-32.99.03-24.11,1.94-51.7,6.29-75.28,11.67-4.94,1.13-14.16,2.84-18.43,4.56-4.41,1.77-5.49,15.34-7.25,19.74l-35.49,189.35c.92,6.84,17.62,7.87,22.85,9.21,9.88,2.53,16.51,3.78,26.41,5.57,20.79,3.78-3.42,11.68-8.58,14.93-6.62,4.18-12.76,11.79-19.61,15.37-11.43,5.96-26.59,3.37-33.54,16.43-3.62.24-2.06-5.55-2.49-6-3.1-.07-6.2.59-9.2,1.3-32.3,7.71-52.75,37.5-72.72,62.19-5.86,7.24-10.84,15.07-16.61,22.37l-2.93-.88c-1.44-10.89,5.39-19.65,9.41-28.63,8.47-18.92,18.55-36.54,27.1-55.34-14.72-.11-25.01,10.11-36.95,16.51-7.5,4.02-39.1,20.62-45.46,19.5-8.6-1.5,5.04-22.25,8.05-25.94,8.11-9.93,20.2-10.03,31.64-14.33,19.34-7.27,32.74-22.64,50.7-32.5,11.34-50.69,20.28-103.55,34.07-153.56,4.58-16.59,11.1-32.41,16.18-48.78,3.65-11.78,8.33-24.37,7.73-36.75-12.51-1.57-26.03,3.31-37.75-1.23-1.76-1.65,1.67-14.61,2.49-17.53,4.64-16.61,11.12-36.85,16.81-53.15,4.65-13.33,13.21-27.37,18.21-40.76,4.08-10.95,5.64-23.36,9.22-34.76,4.75-15.15,12.12-28.61,17.75-43.21,6.39-16.57,25.35-60.59,26.27-75.68.07-1.09.65-3.79-1.02-3.52-1.13,3.42-4.54,11.08-8.54,10.96-9.45-4.18-8.07-16.56-9.74-25.22-1.03-5.37-5.08-1.26-7.16,1.31-5.62,6.96-10.77,19.35-16.55,26.42-1.15,1.4-8.37,8.5-9.61,9.37-5.15,3.64-14.52-.42-17.85-4.9-2.61-3.51-4.55-18.87-8.16-19.91-4.56-1.32-14.6,15.49-21.3,17.48-4.03,1.19-12.9.77-16.4-1.67-4.81-3.35-10.95-24.47-12.63-30.85l-2.93.04c-1.33,4.27-6.63,19.76-10.76,20.81-8.04,2.04-14.08-22.9-12.29-28.84-11.92.76-11.71,15.92-19.05,22.41-6.25,5.52-11.92-.34-14.21-6.63l-11.19-40.73c-8.41,1.83-10.96,14.64-17.13,17.83-15.67,8.11-8.25-21.64-11.37-28.85-2-1.79-8.04,11.72-11.81,5.31-.88-1.5-2.16-13.33-2.18-15.81-.05-7.81,2.7-17.48,3.03-25.04.18-3.98-.99-5.32-5.08-4.01-1.09.35-7.83,3.87-9.31,4.7s-6.03,6.98-7.52,2.2c-.35-1.14,2.5-20.7,3.02-23.69,6.28-35.84,22.84-70.61,41.42-101.49,6.19-10.28,21.41-37.29,31.35-41.6,3.6-1.56,6.24-.6,7.11-.97.74-.32,4.9-8.24,5.93-3.97.75,3.1-10.39,26.06-6.99,32.46ZM265.74,1195.41c-2.92-.73-6.13-.69-9.02-1.48-8.6-2.32-22.6-4.95-29.93-8.04-17.62-7.43-10.63-12.1-8.3-26.27,5.2-31.61,10.63-62.78,15.44-94.49,4.97-32.77,13.52-66.35,22.79-98.11l-17.91-7.03-25.02-3.46c-.47,29.87-12.29,57.44-19.71,85.74-8.91,33.97-18.33,67.83-27.19,101.74-4.73,18.09-7.34,36.67-11.96,54.78-.7.93-3.01.55-4.62,1.57-16.97,10.81-29.94,25.39-49.2,32.77-7.09,2.72-18.75,4.64-24.57,8.41-5.33,3.46-9.19,12.12-11.66,17.82,1.39,1.15,29.35-12.47,33-14.46,20.65-11.25,22.84-14.79,47.17-20.78,2.94-.72,5.11-3.91,8.16-1.65,5.69,4.22-3.04,6.57-5.23,9.57-3.76,5.15-6.4,14.36-9.62,20.36-6.36,11.86-13.1,21.21-17.51,34.45-.32.97-1.89,2.83-.5,3.5,12.11-11.97,21.31-26.66,32.97-38.99,14.2-15.02,30.19-20.78,49.52-26.43,1.8-.53,3.59-2.84,5.86-3.09,1.59-.18,2.57,1.32,4.16,1.08,5.95-.88,16.67-6.59,23.6-7.34l29.3-20.16Z"/>
      <path class="cls-1" d="M265.74,135.01c.1,1.11.1,2.24-.12,3.34-.76,1.97-6.22,2.61-8.35,2.7-17.79.77-35.34-17.5-50.47-24.56-6.5-3.03-13.69-3.83-19.98-7.45l-38.54,89.9c-1.86,2.58-4.27.96-6.78,1.11-4.27.26-5.46,2.45-9.67-1.58-8.51-8.14-8.84-31.88-7.98-42.96,1.67-21.76,17.17-39.1,22.97-59.47-1.01-1.07-20.02,11.99-21.89,13.57-12.11,10.17-20.05,37.99-29.52,51.43-7.06,6.04-11.21,5.15-15.02-3.07-17.01-36.64-1.94-78.62,2.36-116.54.12-1.09.89-3.61-.87-3.36-9.84,14.07-19.16,29.5-24.51,45.96-14.17,43.58-22.26,90.47,1.34,132.6,11.51,20.54,24.21,23.37,43.83,33.12,2.56,1.27,4.8,4.08,7.61,5.38,11.31,5.21,26.32,5.83,37.67,11.82l-2,3.97c8.12-.68,7.48,7.69,9.8,12.69,9.06,19.55,33.12,35.88,48.15,50.79,5.13,5.09,9.08,12.24,14.98,17,8,6.45,17.78,10.02,26.47,17.51,11.6,10,23.27,19.17,34.98,28.98,16.26,13.63,31.78,28.25,47.94,42l7.11,1.88-6.55,49.04c2.57-2.07,6.35-2.75,8.94-4.54,4.19-2.9,24.29-27.28,26.09-31.88,1.61-4.13,1.97-15.55,9.47-8.6,7.25,6.72,8.66,20.58,17.45,26.02v-16.49c0-15.5,11.66-29.53,18.53-42.44,7.02-13.18,13.36-30.47,24.4-41.56,1.69-1.7,4.89-2.12,6.95-4.05,2.6-2.44,2.54-7.02,6.09-7.39,1.79,1.91-22.81,35.08-25.15,39.3-4.48,8.1-6.61,17.38-11.83,25.18-.5,2.9,7.04,2.43,9.06,2.92,2.96.73,7.13,1.72,9.68,3.29,1.23.76,2.08.56,1.25,2.75-1.15,3.03-4.51-.12-6.55-.43-5.48-.83-11.27-.93-16.76-1.97-7.53,8.49-10.41,23.36-9.7,34.43.38,5.86,6.95,20.43,4.12,24.03-3.39,4.32-9.25-2.75-11.59-5.57-2.82-3.4-7.93-10.83-10.32-14.67-2.83-4.55-3.32-12.01-9.15-13.33-1.55,8.39-9.02,13.54-13.97,19.52-9.53,11.52-8.39,10.8-20.53,19.45-2.35,1.68-10.89,13.34-13.28,5.3-2.98-10.03,8.84-47.47,5.58-53.06-1.61-.85-3.26-1.63-4.7-2.79-5.09-4.06-15.37-14.44-20.07-16.91-1.02-.53-1.88-.63-2.99-.49-4.9,12.4-14.85,22.87-23.5,32.96-2.91-2.28-2.19-4.77-.7-7.67l20.27-25.71v-5.14c-9.17-6.74-17.33-14.69-26.15-21.83-4.66-3.77-10.61-6.62-15.37-10.61-6.49-5.43-11.53-12.02-18.62-17.36s-16.94-9.08-23.36-14.62c-5.72-4.94-10.29-12.57-15.99-17.99-9.83-9.37-20.14-17.06-29.53-27.43-5.88-6.49-14.38-15.28-17.74-23.24-2.03-4.8-3.42-11.08-4.23-16.26l-2.38,1.92c-10.64-6.41-24.86-6.88-35.81-12.19-3.48-1.69-6.06-4.76-9.44-6.55-11.96-6.35-26.39-10.32-35.72-21.25-23.85-27.93-29.04-76.98-22.1-111.89,5.31-26.75,21.17-72.9,40.52-92.4,5.68-5.72,10.9-4.3,11.05,3.98-2.87,20.38-7.34,40.71-9.93,61.11-2.83,22.32-4.31,43.12,7.35,63.3,1.44-1.27,2.72-2.6,3.71-4.27,15.41-26.13,15.02-43.91,44.44-60.5,6.73-3.79,21.37-9.42,17.84,3.85-2.59,9.74-12.29,24.26-16.69,34.27-6.65,15.1-9.22,26.26-7.8,43.14.34,4.1,4.5,25.89,11.85,21.38,2.49-5.02,3.43-10.74,5.64-15.85,10.39-24.04,21.77-48.25,33.47-71.46.89-1.23,4.52-1.21,4.86-1.64.59-.73-.6-6.53,3.79-7.74,3.56-1,2.71,3.16,4.91,4.78,2.89,2.12,13.19,4.33,18.07,6.91,19.98,10.57,27.98,23.3,53.3,24.15-.92-10.46,1.86-17.1,5.51-26.97,6.98-18.86,13.35-31.94,28.45-45.5,1.63-1.46,12.25-10.63,13.03-10.99,4.25-1.98,5.85,1.71,6.93,5.05,4.4,13.6,4.37,29.61,7.51,43.46.74,3.28,6.47,17.11,6.07,17.97-.28.6-1.55,1.28-2.04,1.97-13.81-15.43-11.82-39.75-16.51-59.44-.21-.9.42-2.22-1.46-1.49-1.42.55-8.33,6.45-10.04,7.96-4.44,3.92-10.69,10.16-13.88,15.1-4.74,7.33-18.62,39.73-19.43,47.66-.25,2.42,2.09,3.49,1.86,4.7-1.8,2.89-3.93.6-6,.53Z"/>
      <path class="cls-1" d="M239.64,293.79l-3.87.14c-2.23-2.12,5.62-19.09,7.13-22.35,3.52-7.59,8.03-14.69,11.83-22.14-.07-1.43-24.86-5.4-18.04-15.83.98-1.5,10.42-3.33,11.07-2.65l-.13,3.86-4.86,1.14c-1.2,1.52,14.59,7,17,4.49,8.32-6.33,19.21-36.47,25.69-40.52,2.6-1.63,4.92-.99,6.15,1.75l-22.85,41.26c13.64.44,27.11,2.41,39.94,6.98.48-.33,1.9-9.84,2.02-11.49,1.93-26.18,1.55-59.89-31.51-62.41-1.79-.14-3.23.28-4.43-1.55,4.12-4.58,11.26-3,16.5-1.53,28.42,7.97,29.83,41.13,28.49,65.53-.25,4.55-2.89,13.52-2.6,16.99.27,3.18,5.33,4.89,4.55,7.94-.93,3.68-5.04-1.42-6.48.52-1.29,1.74-2.74,9.81-4.03,12.97-4.9,12.07-29.26,40.57-42.19,42.76-17.79,3-26.13-3.05-36.05-16.44-11.56-15.6-14.36-22.92-13.22-42.83,1.13-19.75,6.58-48.58,20.6-63.35,5.93-6.25,16.24-9.2,21.41-.59-2.33,3.37-4.87-.1-7.57-.47-6.59-.91-11.4,6.39-14.6,11.28-12.96,19.79-19.33,63.16-7.63,83.97,8.11,14.43,16.07,25.06,34.22,22.57,12.02-1.65,33.77-31.06,37.6-42.35s5.82-14.23-6.83-17.23c-4.13-.98-31.19-4.72-33.15-3.82-9.92,13.09-18.26,28.07-24.14,43.37Z"/>
      <path class="cls-1" d="M442.02,493.41c4.02,4.35,1.09,2.04,1.77,6.63.31,2.13,5.99,15.81,8.32,15.81,9.8-4.81,18.78-37.31,32.87-29.91,9.47,4.98,7.85,42.22,11.25,42.92,10.69.59,12.41-20.04,21.87-19.67,6.47.26,7.43,19.6,11.98,23.57,2.01,0,11.87-22.69,14.45-25.23,11.3-11.15,9.18,19.21,14.05,23.25,3.85,2.78,9.72-19.08,19.02-17.56,8.42,1.38,8.36,23.57,11.44,23.54,5.24-4.58,8.79-22.39,17.77-19.8,5.55,1.6,6.25,15.91,7.73,20.81,1.39,1.24,8.43-7.26,9.98-8.5,2.53-2.03,19.15-12.3,20.99-10.48-.28,5.14.26,30.16,3.97,32.52,1.15,1.18,1.69.1,2.56-.5,5.17-3.54,8.23-14.27,16.99-13.12,2.44.32,1.07,2.25,2.89,4.15,1.64,1.71,12.27,6.02,11.56,9.42-.29,1.39-1.83,1.46-3.07,1.11-1.96-.56-13.54-9.42-14.43-9.42-4.18,2.13-12.59,17.44-17.47,14.36-6.12-3.85-8.79-23.64-8.01-30.52-11,1.47-16.49,12.05-24.48,18.02-8.11-3.92-9.45-11.83-10.5-20.02-6.63,2.53-6.42,11.85-11.96,16.51-13.15,11.06-14.05-21.45-17.52-21.49-4.57,3.29-8.6,15.95-14.03,16.96-10.23,1.91-13.99-12.02-13.46-19.98-1.78-.39-1.98.52-2.83,1.65-3.42,4.54-8.87,19.31-14.13,20.93-8.5,2.61-12.46-16.89-14.02-22.59-5.1,4.18-7.05,11-12.49,14.98-23.72,17.39-14.87-39.05-24.11-40.83-5.46-1.05-15.56,19.63-18.94,23.76-4.45,5.44-8.17,8.58-15.37,4.55l-7.52-14.45c-2.08.99-6.75,13.83-9.02,15.97-1.25,1.17-1.78,1.22-3.48,1.01-2.37-2.4,10.25-19.94,9.98-24.4-.38-6.01-11.1-15.95-14.52-20.52-4.64-6.19,2.37-5.47,6.59-1.59,3.94,3.63,8.16,12.52,13.34,18.14Z"/>
      <path class="cls-1" d="M422.64,1150.43c8.05,1.49,15.33-3.19,23.05-1.55,4.4.93,11.74,6.32,16.57,8.4,20.45,8.83,35.63,17.18,57.71,20.24,10.16,1.41,16,10.41,23.66,16.31,4.74,3.65,10.08,2.99,8.69,10.86-1.25,7.11-12.17,2.21-16.36,1.81-8.17-.79-16.45-.69-24.6-2.38s-16.05-5.77-24.38-6.6c-5.97-.6-24.06,2.41-24.39-5.6-.13-3.19,4.47-.6,6.53-.52,25.65,1.02,46.32,7.96,71.97,10,1.07.09,2.74.61,2.47-.98-8.6-2.96-14.35-14.68-23.57-15.91-3.25-.43-6.7.28-9.89-.1-11.71-1.43-39.62-15.36-52.16-20.8-6.44-2.79-10.46-7.48-17.83-7.24-5.82.19-13.03,1.45-18.95,2.06-1.48-.13-3-1.31-3.38-2.72-.17-.64-.04-10.32.1-11.5.58-4.76,3.44-9.83,4.45-14.55,11.76-54.96,21.7-101.2,40.25-154.63,2.26-6.5,4.98-15.1,7.83-21.15,2.34-4.96,5.82-6.28,4.99-.07-1.01,7.49-7.52,20.89-10.07,28.97-15.96,50.57-25.12,95.69-37.18,146.72-1.67,7.07-5.67,13.49-5.53,20.95Z"/>
      <path class="cls-1" d="M378.87,230.73c.88.51,2.73.51,3.6,0,.76-.44,9.05-12.7,9.99-14.47s2.24-3.5,2.28-5.7c-.08-.48-7.46-3.82-8.79-4.38-2.46-1.03-9.39-1.02-6.81-5.26,5.37-6.6,17.05,4.46,20.52,2.59,5.39-2.89,11.72-27.04,17.94-29.12,2.55-.85,4.51-.9,5.08,2.1,1.03,5.44-2.21,4.55-3.88,7.11-4.56,6.99-7.28,17.87-12.99,24.88.28,3.19,36.19,15.13,35.81,22.97-.21,4.42-9.4-2.85-10.59-3.38-9.49-4.22-19.86-6.65-28.9-12.13l-16.37,21.36c18.75,17.88,39.26,33.61,60.86,9.1,19.2-21.78,16.53-51.7-2-72.9-10.53-12.05-23.57-12.57-38.44-9.52-2.47-3.54,4.4-5.2,7.22-5.77,20.69-4.18,33.41,4.45,44.05,21.44,16.28,26.02,10.78,57.45-12.79,76.78-18.74,15.36-33.5,8.77-50.89-4.1-10.34-7.65-22.98-19.3-27.24-31.72-3.88-11.32-3.39-43.09,10.44-47.88,3.05-1.06,5.93-1.63,5.69,2.69-14.28,4.54-14.78,29.58-11.5,41.55.66,2.39,6.19,12.82,7.74,13.72Z"/>
      <path class="cls-1" d="M515.58,683.7c.72,4.83-5,5.46-8.42,4.95-5.27-.77-7.82-6.05-7.58-10.95-2.19,1.37-1.58,6.1-3.46,8.01-2.28,2.32-13.09-.44-16.19-1.85-6.11-2.78-10.32-9.84-16.31-11.17-1.7,1.45,1.19,14.88,2.04,17.45.94,2.86,3.32,5.52,4.43,8.56,4.76,13.05,5.06,24.85,7.98,37.99,10.72,48.29,23.98,96.52,35.22,144.68,2.26,9.67,4.91,22.06,6.17,31.81.28,2.2,2.26,18.44-.39,18.38-4.27-.09-4.11-12.81-4.78-16.21-11.44-58.01-29.13-115.2-42.01-172.87-2.46-11.01-3.22-23.25-6.16-33.81-1.94-6.97-6.06-12.43-8.05-18.93-1.24-4.04-4.77-22.36-1.49-24.57,13.88-2.75,19.79,16.3,34.45,15.41,2.27-.58,2.68-13.09,7.58-15.37,8.25-3.84,5.47,12.99,7.47,16.51,1.34,2.36,7.05,2.06,9.51,1.99Z"/>
      <path class="cls-1" d="M641.54,628.76l-5.98,21.51c-9.88,2.43-3.16-10.87-8.04-14.54-3.37,17.02-19.19,42.02-22.01,8l-8.01,12.46c-11.32,13.02-15.74-9.43-17.46-9.45-4.41,5.16-8.85,24.84-14.5,27.45-7.72,3.56-10.28-6.3-12.48-11.47-3,7.83-7.46,26.1-18.91,14.91-1.86-1.82-1.81-5.53-4.56-4.92-1.86,5-4.49,13.24-11,12.98-.71-.7,5.26-12.42,6.01-14.47,1.13-3.1,4.56-17.19,5.94-18.06,8.33-5.25,2.73,23.14,11.49,21.59,4.62-4.78,3.88-22.02,7.97-25.1,7.89-5.95,8.9,20.05,13.04,19.06,5-4.91,10.04-27.98,16.22-29.8,7.64-2.25,7.22,8.87,10.01,13.56.47.79-.05,1.66,1.76,1.29,6.75-1.06,8.35-21.78,15.79-19.9,5.8,1.47,3.81,15.72,6.19,19.86,7.09-4.69,9.62-31,16.21-32.83,4.37-1.21,5.77,3.48,6.29,6.85l3.96-5.51c1.71-.96,3.27-.66,4.98.05,1.38.58,10.52,7.52,12.05,8.94,3.24,3,11.77,16.29,17.27,12.61,3-2,11.03-28.62,14.13-34.14,1.96-3.48,5.86-8.34,10.13-5.02,5.6,4.35-2.03,4.37-2.62,4.65-4.02,1.92-13.27,35.22-19.95,39.95-.59.29-7.19-.5-8.25-.8-10.14-2.84-14.48-19.04-25.68-19.71Z"/>
      <path class="cls-1" d="M308.73,907.56l16.01-25.45c1.43-1.23,8.01-9.47,9.96-7.52.45,2.04-.46,2.67-1.45,4.04-2.6,3.59-5.76,6.58-8.34,10.65-4.49,7.08-9.52,20.93-14.74,26.23-10.99,11.18-4.57-19.66-4.4-23.39.4-8.62-.96-18.27-.55-26.48.18-3.68,3.36-3.64,4.45.52,3.3,12.62-.4,28.53-.93,41.41Z"/>
      <path class="cls-1" d="M275.75,807.63c5.84-5.24,15.89-19.99,24.47-19l.53,2.51c-13.1,4.85-17.1,20.16-28.52,26.49-6.9.08-.28-17.26.8-21.21,2.79-10.17,6.35-23.28,10-32.98,1.98-5.27,6.49-8.65,5.5-1.53-1.57,11.24-8.5,25.92-11.29,37.72-.62,2.62-1.23,5.32-1.48,8Z"/>
      <path class="cls-1" d="M280.38,464.18c5.61,4.72,10.59,15.17,16.92,20.08.25,6.75-4.74,10.16-7.99,15.63-1.71,2.88-11.72,19.29-10.55,20.86,1.25.34,2.66.4,3.68,1.33,1.23,1.12,7.97,11.37,9.09,13.4.59,1.07,1.83,2.86-.33,3.3-4.49.91-9.4-10.35-12.03-12.93-1.38-1.35-4.25-1.81-4.48-2.72-1.32-5.25,3.98-14.6,6.52-19.35,3.12-5.84,7.04-12.78,12.51-16.48l-.47-1.52c-3.27-2.38-6.31-4.96-9.04-7.95-1.42-1.55-9.49-11.06-9.96-12.03-.63-1.31-.63-2.58-.51-3.97,2.63-.38,4.72.73,6.64,2.35Z"/>
      <path class="cls-1" d="M544.28,590.46c-1.6,1.77-5.67,1.91-5.72-1.15-.07-4.59,13.37-19.22,10.99-26.54-8.37-.52-14.15,7.44-20.67,11.81-3.16,2.12-21,13.95-22.8,14.19-5.24.72,3.1-7.21,4.02-7.99,4.78-4.06,22.77-16.81,28.13-19.84,16.69-9.42,19.57,1.11,13.5,15.5-.74,1.76-6.75,13.24-7.45,14.02Z"/>
      <path class="cls-1" d="M411.64,789.63c-7.41-.07-5.38-10.61-6-15.47-.45-3.51-1.56-6.93-2.06-10.42-5.48-4.58-20.73,18.19-23.09,22.22-1.54,2.63-1.91,5.75-3.78,8.21l-2.55-.52c-2.84-4.29,7.52-18.65,10.54-22.48,4.47-5.66,12.51-16.12,20.97-12.02,6.14,2.98,4.34,24.3,5.98,30.48Z"/>
      <path class="cls-1" d="M441.62,569.76l-30.99,23.47c-8.13,1.34-.11-6.09,2.55-8.45,5.19-4.6,18.04-14.89,23.71-18.26,14.66-8.7,10.16,7.88,6.91,15.9-.9,2.21-6.86,16.9-8.2,8.79-1.04-6.29,6.6-14.77,6.02-21.46Z"/>
      <path class="cls-1" d="M510.58,619.23c.15-.83,1.76-4.22,2.54-4.46,5.09-1.59,2.47,5.25,2.41,7.42-.13,4.77,1.1,19.56-1.44,22.53-4.43,5.18-15.86-6.69-19.77-9.23-5.26-3.41-15.63-7.8-19.5-11.43-1.37-1.29-2.14-2.46-.71-4.34,2.96-.36,17.92,8.36,21.39,10.59,5.17,3.31,9.39,8.15,15.07,10.41.8-6.48-1.09-15.35,0-21.49Z"/>
      <path class="cls-1" d="M411.65,666.71c-1.74-.25-2.2-.07-3.47,1.03-1.86,1.62-6.76,10.41-8.71,13.28-1.45,2.12-6.89,7.69-7.33,8.71-.6,1.4.89,2.96-.36,4.52-1.75,2.2-6.09,2.18-6.13-1-.05-4.32,17.62-24.17,20-30.03,1.9-2.26,4.66-2.69,7.5-2.61,4.57.43,3.76,16.92,3.53,20.63-.24,3.87-.25,13.97-5.04,12.45v-26.98Z"/>
      <path class="cls-1" d="M309.71,618.75c.42,6.66-4.83,2.39-8.6,2.09-3.46-.28-6.93-.05-10.38-.1-1.93,1.84,10.71,28.3,13.98,31.48,2.25,2.2,7.79,2.83,5.44,6.51-4.05,3.19-12.32-7.61-14.22-10.71-2.42-3.95-11.31-24.06-10.91-27.66.93-8.48,19.24-3.85,24.7-1.61Z"/>
      <path class="cls-1" d="M325.69,681.7c-3.19-2.12-9.51,9.98-10.86,12.61-2.99,5.84-5.47,15.79-9.25,20.73-1.28,1.67-1.61,1.94-3.86,1.63-.14-2.07-.1-4,.47-6.02,1.44-5.13,9.91-22.4,13.11-26.86,14.26-19.87,16.67,1.34,18.34,14.3l-2.43,1.6c-4.19-4.86-3.9-12.04-5.52-17.98Z"/>
      <path class="cls-1" d="M435.67,869.62l3.93,1.46c-5.5,11.09-9.4,24.35-24.49,22.51-10.2-1.24-12.67-16.29-18.9-22.06-1.95-1.81-7.05-2.17-6.55-4.43.19-.85,2.41-2.42,3.53-2.54,9-.96,13.93,24.33,24.01,24.98,8.82.56,15.99-12.79,18.47-19.92Z"/>
      <path class="cls-1" d="M405.65,528.79c-1.38-1.52-7.9,5.31-9.01,6.47-3.81,3.93-8.88,12.54-12.48,15.5-1.54,1.26-2.62,1.17-4.47,1.01-.25-1.68.32-2.95,1.13-4.36,2.44-4.27,17.61-21.88,21.81-23.16,3.16-.97,5.94-1.44,6.99,2.08,2.07,6.93-1.67,19.29-2.94,26.95-.94,5.68-4.12,4.12-4.09-1,.02-3.68,4.32-22.12,3.08-23.49Z"/>
      <path class="cls-1" d="M328.7,566.76c-6.7.37-4.69-8.03-4.99-12.51-.1-1.49.76-2.89-1.49-2.47-4.48,3.33-12.81,25.8-17.86,24.83-2.69-.52-3.17-4.13-1.56-6.28,1.22-1.63,3.08-1.18,3.98-2.25,1.04-1.23,2.51-5.94,3.76-7.99,2.09-3.44,14.86-26.65,17.94-13.6,1.48,6.28-1.84,13.58.22,20.26Z"/>
      <path class="cls-1" d="M625.5,584.76c-8.86,1.84-18.99,10.25-23.65,17.82-2.37,3.85-.39,7.32-7.32,6.16-2.16-2.12,6.22-12.58,7.96-14.51,4.33-4.8,18.46-17.2,25.02-13.97,4.38,2.16,1.16,20.28-2.5,23.47-3.95.07,2.37-16.97.49-18.97Z"/>
      <path class="cls-1" d="M345.59,268.04c2.82,4.69-9.97,28.32-10.9,34.38-.52,3.39,9.95-.54,9,3.98-.42,2.02-12.49,3.14-13.79-1.19-1.72-5.74,5.63-18.76,7.56-25.02,1.36-4.42-.11-14.97,8.14-12.15Z"/>
      <path class="cls-1" d="M94.86,626.73c.67.88,15.65-10.74,18.94-11.56,2.96-.74,4.45,1.94,1.81,3.88-3.39,2.49-17.73,13.09-20.5,13.51-1.75.26-4.48-.71-5.09-2.49-1.45-4.18,3.29-24.89,9.31-23.32l1.44,2.39c-2.46,1.6-6.72,16.53-5.91,17.6Z"/>
      <path class="cls-1" d="M234.81,628.69c-.84-.56-2.98-10.94-6.04-12.46-8.31-4.14-16.45,16.57-24.99,14.5-.9-6.36,2.4-5.09,5.04-7.42,6.48-5.74,11.48-15.4,22-12.11,5.87,1.84,5.68,11.33,7.79,16.07-.17,1.24-2.93,2-3.8,1.42Z"/>
      <path class="cls-1" d="M374.33,264.06c10.46-3.29,21.17,24.73,22.1,32.63.47,3.96-.87,7.77-4.58,3.54-2.78-9.05-5.95-23.29-13.13-29.85-2.31-2.11-8.89-3.37-4.39-6.33Z"/>
      <path class="cls-1" d="M74.89,571.76c-1.59-1.1-1.11-11.03-4-11.98l-5.01,19.99-3.04-.45c-.67-.55-.88-1.24-1-2.07-.57-4.08,6.44-27.5,11.55-27.51,5.27,1.99,3.13,9.7,3.57,14.46.32,3.54,4.71,7.76-2.06,7.57Z"/>
      <path class="cls-1" d="M433.62,435.84c3.79,2.38-6.92,27.54-9.9,31.36l-3.07.62c-.73-6.53,3.78-11.4,6.02-17.46,1.66-4.49,2.04-9.47,3.88-13.93l3.07-.59Z"/>
      <path class="cls-1" d="M352.68,287.93c-1.21,2.22-1.11,10.26-4.04,9.59-7.29-3.82-3.17-11.71,4.04-9.59Z"/>
      <path class="cls-1" d="M368.7,291.89c-.99-3.6,2.7-8.39,5.97-4.45l-2.97,5.02-3-.57Z"/>
      <path class="cls-1" d="M838.23,1150.56c2.43,8.72-5.82,16.11-13.43,18.82l-.31,1.36c5.33,13.88,15.28,28.06,20.36,41.67,2.3,6.16,5.48,13.3-1.78,17.17-8.35,4.45-19.9,3.01-28.68.79-.04-1.72-.55-2.15,1.42-1.93,7.1.78,11.18,4.9,18.83.7,4.55-2.5,4.16-5.17,3.28-9.81l-21.68-47.76c-7.95-.14-20.24-1.52-22.81-10.58,2.77-3.15,6.42-2.34,9.96-1.57-4.73,7.62,5.37,9.03,10.99,10.99-2.61-14.68,10.59-22.17,23.86-19.86ZM836.37,1151.43c-8.76-.88-13.22,8.31-12.98,15.98,7.08-1.55,13.68-8.47,12.98-15.98Z"/>
      <path class="cls-1" d="M900.33,1199.39c-8.98,1.74-10.53-2.88-15.98-7.99-1.11,13.18-5.49,18.56-18.96,13-1.58,6.5-6.32,10.9-13.34,8.78-3.06-.93-6.56-15.62-3.03-17.87,2.75-1.68,14.83-1.06,16.37.64,2.35,2.59-.09,6.37,6.24,8.64,5.73,2.05,7.09-2.56,8.76-7.65,3.77-11.47-.97-13.63-4.07-24.02-.89-2.99-3.99-13.45-2.54-15.57l7.03.02c4.2,15.46,8.17,30.03,19.51,42.01ZM861.35,1196.4l-4.1.59-.89,12.41c4.04-2.95,5.43-8.25,4.98-13Z"/>
      <path class="cls-1" d="M908.33,1293.34c4.24.61,7.53-2.64,11.47-3.02,2.04-.2,2.93-.45,2.51,2.01-5.46,3.75-15.04,2.45-19.97,4.53-6.19,2.61-7.49,18.35-20.72,11.69-9.95-5.01-.54-32.34,12.7-25.19.05,1.52-1.85,1.1-2.87,2.59-3.41,4.96-6.13,14.64-4.11,20.38,1.72.44,2-.71,3-1.49,1.46-1.13,8.31-7.77,9.07-9.01,1.45-2.37,2.58-19.2,4.52-20.59,2-.93,8.7-1.94,9.33.68l-4.94,17.41Z"/>
      <path class="cls-1" d="M820.38,1325.34c3.58-1.42,6.73-.84,9.5,1.97,9.22-7.15-4.93-33.79-11.43-38.53-2.24-1.63-4.94-1.06-6.07-3.42,8.71-.98,11.47.37,17.01,6.46,6.03,6.62,18.97,27.54,9.93,34.96-5.19,4.26-15.51,5.69-18.94-1.45Z"/>
      <path class="cls-1" d="M977.05,1219.63c1.36,1.59,2.63,12.29,3.24,12.75,4.93-3.4,8.12-9.92,14.97-9.98l-14,13.51c.47,3.47,3.87,13.17,7.52,13.47,2.11.18,4.74-1.7,7.48,0-2.9,4.97-9.4,4.58-13.99,2.49-10.25-4.67-10.93-24.19-14.99-33.48,2.36-.85,8.17-.63,9.76,1.23Z"/>
      <path class="cls-1" d="M917.32,1172.41c-7.5.34-10.57,2.08-10.99,10,4.37.35,25.78-5.19,26.6.47-.53,9.97-11.29,16.1-19.6,10.01.36-3.15,4.77-.37,7.56-2.41,1.2-.88,4.31-7.19,3.42-8.07-7.7-.59-29.38,8.22-25.5-6.03,2.59-9.5,12.88-12.35,18.51-3.98Z"/>
      <path class="cls-1" d="M831.38,1288.34c.1-1.79,3.04-.85,4.74-1.74,9.66-5.06,15.34-20.91,3.31-26.79l-17.04-1.43c10.16-2.41,33.35-2.14,33.06,12.48-.23,11.7-13.13,20.5-24.06,17.48Z"/>
      <path class="cls-1" d="M990.27,1170.41c-9.27.58-18.29-.49-27.39-2.06-2.1,11.78-17.82,11.44-20.14.13-1.56-7.63,1.38-10.14,8.89-9.96,1.19.03,7.9,1.05,8.66,1.41,1.89.89,2.28,4.13,3.53,5.47,2.1,2.26,11.58,3.75,14.96,4.02,3.84.31,9.61-1.91,11.48,1.01ZM956.19,1162.53h-3.27s-1.48,1.53-1.48,1.53l.86,10.35c2.72,1.94,6.68-9.41,3.89-11.88Z"/>
      <path class="cls-1" d="M937.1,1266.58c.42.24,1.08,2.44,2.13,3.33,2.86,2.44,6.2,4.46,8.57,7.45.72.9,2.35,1.48.51,2.51-3.98,2.23-7.76-1.38-9.51-4.49-2.65,7.96-5.08,10.41-13.74,7.72-9.52-2.96-7.79-20.03,5.24-15.73-1.84,4.93-5.37,10.46-.49,14.97,2.08-.02,5.48-13.99,1.5-15.96,1.67.23,4.44-.58,5.79.21Z"/>
      <path class="cls-1" d="M961.03,1251.64c3.42,7.98,6.39,16.12,12.26,22.71-9.26,3.34-14.2-5.1-16-12.98-2.31-2.25-2.82,6.44-6.5,7.04-4.03.66-4.22-2.16-6.45-4.55,1.9-2.99,3.44,1.01,5.97.5l3.25-12.75,7.48.02Z"/>
      <path class="cls-1" d="M864.11,1298.6c2.53,2.92-.27,13.88,3.35,19.16,1.18,1.73,3.56.84,2.88,3.57-15.6,2.55-14.58-11.62-14.84-22.83,2.06-1.25,7-1.75,8.6.1Z"/>
      <path class="cls-1" d="M1015.25,1221.4c1.2,4.75-10.11,8.91-7.54,13.01,2.88,4.59,14.68-.77,19.03-1.05,2.11-.13,1.93.77.52,1.53-5.46,2.96-25.47,5.26-28.53-1.54-2.12-4.72,10.91-16.78,16.52-11.95Z"/>
      <path class="cls-1" d="M821.38,1260.36c-11.14,1.77-25.6,11.52-22.96,24.48.69,3.37,2.92,2.23,3.97,4.51-6.21-.04-6.51-5.46-5.99-10.49,1.18-11.47,14.6-17.92,24.5-20.47l.48,1.97Z"/>
    </g>
  </g>
</svg>