<?xml version="1.0" encoding="UTF-8"?>
<svg id="Calque_2" data-name="Calque 2" xmlns="http://www.w3.org/2000/svg" viewBox="0 0 852.68 1035.69">
  <defs>
    <style>
      .cls-1 {
        fill: #fff;
      }
    </style>
  </defs>
  <g id="Illu_Vectorisée_WHITE_" data-name="Illu Vectorisée (WHITE)">
    <g id="Croco">
      <path class="cls-1" d="M725.8,17.6c-2.21-19.11-21.55-9-30-.02-3.84,4.08-15.62,20.12-18.04,24.93-1.18,2.34-.41,4.87-2.45,6.58l-7.31-2.17c-.25-3.51-1.52-6.88-4.11-9.36-12.42,1.25-11.57,17.27-14.03,26.5,2.15.35,4.78-2.19,6.49,0,3.12,3.98-1.84,5.73-1.33,9.27s3.16,3.03,4.77,4.29c4.93,3.86-2.95,4.68-6.89.89l-4.03-8.44c-1.7,9.87-2.21,19.27-10.51,25.98-11.9,9.62-31.93,25.91-44.55,33.4-8.72,5.17-18.71,7.21-27.23,11.75-7.05,3.76-12.9,10.22-19.33,14.65-12.73,8.75-26.85,19.48-39.39,27.56-18.6,11.99-43,14.08-63.83,7.04-12.39-4.19-23.12-21.04-28.54-32.45-2.47.01-4.78,4.77-6.46,6.53-20.76,21.76-50.46,49.85-82.31,30.29-2.32-1.42-4.32-5.42-6.96-4.73-.89.23-11.35,10.39-13.8,12.28-11.1,8.56-25.5,19.16-37.15,26.81-6.43,4.22-13.85,9.21-21.71,9.78-.84,3.55,1.38,2.77,3.01,4.44,4.93,5.04,11.02,10.29,15.5,15.53,1.57,1.83,4.01,4.62,4.48,7l-18.46-19.01c-7.07-8.7-17.27-5.93-25-12.98-.88-.81-5.96-8.74-7.5-6.98l-.8,29.27c7.27,7.89,16.16,14.31,16.82,26.15.53,9.48-4.2,15.37-5.02,24.04-1.17,12.4,1.11,26.38-.14,38.84-.86,8.55-5.3,16.44-5.91,25.07-.72,10.31,2.5,14.13,3.91,23.14,1.97,12.54,3,31.08,3.17,43.8.09,6.7-1.91,16.31-.99,21.98,1.27,7.8,11.04,7.77,14.49,14.49,2.36,4.61,5.34,20.11,6.17,25.81,3.59,24.77-5.57,49.3-2.62,74.57,1.41,12.05,8.12,27.58,10.65,39.32,3.88,18.04.14,34.11,7.75,52.21,2.4,5.71,6.72,9.77,7.48,16.5,4.51,39.85-9.17,77.3-47.61,93.3-34.51,14.36-61.03,15.67-87.81-12.84-27.03-28.76-30.66-46.55-46.6-80.32-6.95-14.73-15.52-23.33-18.53-40.43-5.68-32.26-1.77-67.37-.33-99.54.03-.57,1.7-.45,1.95-1.32,4.61-16.21,5.39-31.89,12.03-48.75,1.82-4.62,18.54-38.87,17.01-40.45-1.53-.37-2.17.62-3.29,1.2-18.63,9.77-42.22,46.72-50.85,66.08-13.5,30.27-31.54,69.72-35.68,102.24-1.19,9.35-1.04,19.43-2.13,28.85-4.26,36.79-8.81,55.55-.12,93.08,9.5,41.04,33.39,84.29,61.58,115.31,11.43,12.58,42.84,33.34,59.96,31.95,4-.33,7.85-2.19,11.96-2.02,6.3.26,13.59,5.13,20.04,5.11,4.62-.01,10.43-3.55,15.43-4.63,18.9-4.07,21.47-2.87,37.5-15.46,1.53-1.21,7.67-8.89,9.52-6.96.27,1.85-.01,2.95-.94,4.54-2.11,3.6-16.74,16.86-20.74,19.24-9.34,5.54-16.47,4.62-26.34,6.63-2.85.58-5.69,2.82-8.67,3.32-12.01,2.05-19.16-4.67-30.73-3.74s-15.36,3.25-27.7-2.31c-42.61-19.21-64.57-52.13-86.26-91.63-16.55-30.14-28.78-78.12-26.45-112.44,1.46-21.49,5.27-49.08,8.11-70.84,4.25-32.63,21.63-68.79,34.68-99.24,8.07-18.83,33.32-59.31,50.83-69.09,5.39-3.01,7.74-2.75,12.56-4.42,3.68-1.28,7.99-8.13,9.57,2.48-23.71,52.55-33.99,108.41-31.87,166.19.32,8.61.79,20.52,2.15,28.83,2.28,13.87,19.32,50.52,26.02,64.92,7.73,16.63,31.13,52.45,46.52,61.41,22.07,12.85,42.47,7.62,64.94-1.62,32.27-13.28,46.92-46.91,44.28-80.62-.95-12.19-8.92-21.65-11.49-34.48-1.85-9.2-.8-15.69-1.5-24.49-1.5-18.99-11.01-38.66-12.86-57.1-2.32-23.13,5.93-45.87,3.75-68.71-.39-4.08-5.07-26.66-6.82-28.89-2.59-3.31-11.88-3.68-13.84-12.41-1.38-6.15.91-18.44.84-25.82-.03-2.85-.99-5.23-1.09-7.91-.42-11.04-.2-24.07-2.06-34.92-.78-4.58-3.43-9.1-3.92-13.07-1.85-14.78,5.98-28.44,7.01-43.01.78-10.95-1.05-23.21.02-33.96.5-5.02,3.3-9.62,3.9-14.09,1.32-9.77-.57-14.77-6.92-21.89-6.16-6.9-9.48-4.83-10.02-16.95-.21-4.65.39-16.52,1.1-20.98.5-3.19,4.03-5.47,3.81-6.87-.59-3.81-9.56-11.02-9.94-20.16-.43-10.28,6.36-26.34,12.65-34.41s9.66-5.77,9.45-17.62c-.26-15.12,1.72-25.46,8.43-39.46,3.79-7.91,21.49-26.57,29.7-29.26,18.33-6,32.4,4.96,39.26,21.31,1.23,2.92,6.7,19.46,6.55,21.47-.27,3.65-5.45,2.44-7.99,2.45-3.71-18.16-8.4-43.19-32.44-39.83-9.13,1.28-25.61,19.2-29.58,27.38-5.23,10.77-9.18,24.5-8.98,36.49,3.47.2,5.51-3.14,8.46-5.02,12.39-7.87,31.31-16.17,46.04-12.02,3.68,1.04,7.6,3.12,7.43,7.49l-2.47,1.55c-3.32-5.33-12.31-4.63-18.01-4-24.95,2.75-64.65,38.61-60.39,65.41.61,3.83,9.98,18.02,12.94,21.03,4.5,4.56,8.95,5.35,15.24,4.27,9.54-1.64,44.51-30.04,54.16-37.78,2.85-2.29,15.06-12.1,15.51-14.48.51-2.74-.35-6.1.03-8.96.97-7.28,4.76-16.05,8.76-22.22,5.96-9.19,38.7-37.83,48.51-42.43,6.97-3.27,14.74-4.42,21.93-7.05,5.81-2.13,11.16-6.89,17.72-6.75l.06,3.47c-3.11.19-3.12,2.35-4.66,3.38-9.1,6.07-17.75,7.68-27.33,11.68-16.02,6.69-27.27,21.28-39.37,33.09-2.78,2.71-7.13,4.68-9.65,7.84-2.19,2.75-8.8,16.77-6.99,19.49l1.98-1.01c-.26,4.36,3.36,6.6,5.83,9.49-7.22,6.14-.67,10.96,6.15,13.02,10.14,3.06,21.28,2.36,30.66-2.35,21.56-10.81,50.89-47.07,56.42-70.5,1.9-8.06,5.6-15.92-6.15-15.09l-.97-3.52c10.53-.69,15.04.08,15.05,11.49,0,13.84-6.88,28.49-13.8,40.13-.97,5.89,17.58,29.56,23.03,32.52,8.15,4.43,28.84,5.97,37.94,4.55,24.92-3.9,57.42-36.03,78.78-50.14,9.77-6.45,21.81-8.24,31.8-14.17,11.41-6.77,23.48-18.51,34.14-26.82,3.29-2.56,8.07-4.49,10.94-7.05,12.96-11.55,5.37-55.8,25.54-58.4,8.52-1.1,8.36,2.64,11.9,8.88,10.58-14.77,24.24-42.08,45.97-39.95,4.22.41,11.49,5.36,11.49,9.49v23.99l-1.51,1.49-2.48-1.49c-.42-5.12.58-10.99,0-15.99Z"/>
      <path class="cls-1" d="M476.97,229.98c-.23,1.74,2.27.94,3.48.99,8.69.36,18.31.24,27.03.04,8.17-.19,21.52-.04,29.01-.95,1.9-.23,1.35-1.99,1.86-1.97,4.77.21,10.91,3.16,16.02,2.92,1-.17.04-3.37,1.97-5.11.42-.38,9.58-4.86,10.14-4.94,7.12-1.03,4.67,7.91,6.91,7.98,5.19-1.51,11.85-6.75,16.94-5.94,1.32.21,2.36,1.54,3.22,1.66,4.43.63,8.95-3.41,8.34,6.3,5,1.42,10.77-3.18,15.28-1.82,1.84.56,2.58,3.09,4.4,3.62,4,1.16,10.7.08,15.28,2.72,3.5,2.01-.38,1.53,6.42,3.52,3.06.9,4.35,2.49,8.33,1.66,3.42,1.39,3.77,9.17,9.2,10.83,4.87,1.49,11.48-.33,16.49.5,5.71.95,3.69,5.65,11.01-.08,9.53-7.46,13.89-13.93,26.48-18.4,1.33-.47,3.16.9,3.92.39.39-.26,2.49-6.65,2.56-7.79.3-4.75-2.18-9.58.75-15.46.74-1.48,2.62-1.41,2.83-2.37.23-1.08-1.23-3.58.05-5.21,4.91.59,9.67-1.02,14.35-1.13,10.04-.23,23.83,1.6,33,1.1,3.63-.2,8.72-2.53,13.04-3.04,11.88-1.39,24-1.71,36-1.97,6.97-.15,12.46-2.91,19.44,1.98.72,3.11-3.6,2.6-4.54,3.93l-.51,1.56c.68,6.66,2.42,13.33,3.06,19.98,1.71,18.03-.4,40.61-2.01,58.94-1.71,19.53-4.96,35.62-8.54,54.43-6.54,34.46-7.14,70.12-13.42,104.5-.43,2.34-3.45,3.64-5.53,4.52-2.89,0-1.6-3.48-3.68-4.38-3.81-1.64-11.81-1.64-16.79-3.15-3.98-1.21-7.62-4.05-11.47-4.52-16-1.96-42.54,1.45-58.85,4.16-1.01.17-5.32.78-5.51.99-.56.59.38,3.97-1.64,4.87-3.31.7-3.06-6.79-1.22-8.74,2.52-2.68,28.13-6.57,33.34-7.12,9.74-1.02,25.35-2.28,34.76-1.04,5.01.66,9.78,4.07,14.56,5.43,2.71.77,14.01,3.31,15.52,1.49,3.82-18.58,6-37.64,8.48-56.48,3.97-30.04,9.69-58.91,13.08-89.01l-1.97-1.86c3.66-21.76,4.86-47.03,2.89-69.04-.44-4.92-5.38-11.34.99-13.99l-1.66-2.38c-8.22,1.56-16.58.34-24.81.9-10.11.69-23.88,4.64-32.98,5.05-4.7.21-8.22-2.03-12-2.06-2.97-.02-6.93,1.77-10,1.77s-6.96-1.74-10-1.78c-4.12-.04-9.81,2.03-14.49.99l-2.01,54.97-3.98-3,.18,7.81c3.9-.36,8.39,2.62,11.36,3.12,3.42.57,10.72-1.35,12.43.56.9,1,.73,2.68,1.27,3.23.23.24,5.71,2.21,6.31,2.26,2.04.16,8.97-3.42,13.04-3.86,6.15-.67,12.7-.38,18.26,2.47,16.17,8.31,2.41,25.35-2.38,36.39-1.93,4.46-2.49,10.16-4.74,14.29-.79,1.44-2.62,1.66-3.14,2.96-1.32,3.28,1.95,12.06-4.88,14.97-13.39,5.7-42.2-8.35-55.71-12.23-.45.37,4.28,8.39,4.07,10.49-.23,2.32-2.54,1.88-3.05,3.25-.92,2.47-1.51,12.1-1,14.71.6,3.08,4.8,4.25,4.72,7.86l-.99,2.4-4.79,1.9-.96,51.8c.78,5.07-5.92,15.07-7.03,6.06s1.84-26.13,2.08-35.99c.15-6.04,1.01-20.86-.06-25.82-.06-.28-3.75-4.02-4-4.17-2.69-1.53-8.21-2.13-11.86-4.15-11.79-6.52-20.51-28.36-29.12-38.84-6.62-1.01-12.82-3.43-18.93-6.05-5.31-2.28-21.08-11.97-25.45-11.46-1.35.16-2.3,1.75-3.62,1.55-1.4-.21-4.03-2.46-5.97-3.02-19.29-5.64-37.06-8.46-57.43-7.51-8.36.39-21.21,3.61-29,3.09-2.39-.16-3.59-2.24-5.73-1.96-6.59.86-15.22,12.98-18.77,18.33-13.15,19.82-33.89,67.7-31.94,90.96.18,2.18,1.17,4.27,1,6.51,2.21-.97,4.49-2.01,5.94.61.69,3.83-4.87,6.25-4.7,9.71.1,1.97,2.04,5.05,2.49,7.43,1.52,7.93,2.79,16.8,4.48,24.5.51,2.3,2.51,4.99,2.91,7.58,6.18,1.53,11.19-2.83,16.59-4.62,7.9-2.63,19.97-5.2,26.95-9.03,5.88-3.21,9.84-15.25,17.59-13.23,1.14.3,1.18,2.74,2.24,3.01,1.44.37,4.11-3.47,7.77-1.06,3.22,2.12,1.19,8.79-.15,11.74-2,4.39-27,28.56-32.14,32.82-1.68,1.39-10.37,8.14-12,6.48-.39-4.71,5.9-6.45,8.98-9.5,3.34-3.3,6.26-8.89,9.49-12.5,2.17-2.42,21.48-18.81,19.49-20.97-2.31,1.15-4.62,5.1-7.53,5.01-3.4-.1-1.39-4.97-3.94-4.01l-7.21,10.01c-12.91.52-25.48,6.95-37.46,11.29-2.06.75-6.04.19-6.74,2.32-.68,5.2,3.3,8.78,4.64,13.14,1.99,6.5.81,17.94,4.23,23.5,3.04,4.95,19.41,9.6,25.37,12.86,1.65.9,2.69,2.69,4.3,3.69,3.89,2.41,13.65,3.9,3.3,8.69,1.98,4.41-.3,10.8,2.61,14.38,1.86,2.29,6.49,2.91,5.5,7.52-.67,4.32-8.37,3.84-11.47,3.44-4.12-.53-29.39-10.15-30.56-8.9-.31,7.45.41,15.03-.02,22.47-3.28,57.12-20.14,113.51-26.97,170.91-.23,1.91,1.09,10.35-2.49,9.48-.84-.2-1.56-2.24-1.85-3.15-1.49-4.74.74-20.27,1.46-26.2,6.33-52.01,20.45-100.28,23.85-153.04.45-7.01-1.82-16.45,2-21.98-2.7-2.86-16.9.44-15.98-3.98,1.31-1.64,2.71-2.64,4.74-3.26,12.45-3.81,32.47,8.22,45.22,9.74.86-.86-2.93-12.24-3.05-14.52-.1-1.9,1.19-5.91.96-6.31-.24-.43-7.2-4.83-8.22-5.33-7.38-3.58-14.7-7.52-21.95-11.03-2.59-1.26-6.11-.13-7.67-3.38-.4-2.44,3.91-3.1,3.99-3.98s-2.46-9.82-2.92-12.02c-1.13-5.51-.43-10.1-4.61-15.38l-10.5-47.97c-1.39-.06-1.91-.29-3.04.68-3.68,3.18-10.84,15.41-14.55,20.21-12.47,16.12-20.31,23.78-26.66,44.29-8.31,26.85-11.02,74.5-11.75,103.18-.72,28.1,8.02,79.42,22.25,103.75,6.9,11.8,20.63,9.01,26.75,14.23,1.49,1.27-.04,2.59-.96,3-.88.38-14.21-3.88-16.28-4.74-4.56-1.91-8.82-4.1-11.57-8.42-14.49-22.73-21.6-51.15-24.98-77.96-1.64-13-.67-22.17-.18-34.82,1.59-40.3,3.33-95.33,24.57-130.33,4.53-7.47,6.05-6.01,11.11-10.39,1.75-1.52,17.49-22.2,17.87-23.63-2.04-42.88,13.86-86.17,37.38-121.5l-1.99-1.95,3.02-5.51,2.48,1.86c6.14-6.76,16.71-14.89,26-15.84,24.85-2.53,61.39,2.23,85.64,8.27,6.5,1.62,12.53,6.38,19.78,3.71l-.06,3.48c11.57,4.55,22.24,13.23,35.04,13.51-1.24-13.86,3.17-26.19,8.98-38.45-7.74-4.65-16.77-4.25-25.19-6.81-22.92-6.98-46.21-19.15-69.96-25.98-4.39-1.26-20.94-5.71-24.42-5.68-2.47.02-3.48,2.08-5.75,1.99s-4.75-2.63-8.07-3.04c-13.91-1.73-29.03,1.49-42.95,2.06-12.92.53-25.83-.51-38.89,1.09-5.95.73-32.37,8.18-35.34,5.64-6.36-5.44,15.34-10.56,18.51-11.48,16.95-4.87,36.33-7,52.71-12.24,21.24-6.81,71.18-26.03,86.88-40.04,11.77-10.5,11.82-9.96,25.18-17.79,14.5-8.51,24.39-20.35,38.95-28.01,10.36-5.45,16.84-7.44,26.35-15.62,5.1-4.38,9.8-11,15.07-14.91,11.36-8.44,16.29-5.51,26.71-19.26,9.37-12.36,16.35-22.27,14.09-38.7-.48-3.49-4.33-7.25-1.39-9.58,8.3-2.08,6.69,23.29,5.2,28.2-1.78,5.87-15.13,25.72-19.68,30.29-6.95,6.98-14.78,7.89-21.93,13.05-9.65,6.96-16.77,18.13-28.74,25.22-7.29,4.32-16.33,6.54-23.24,11.74-3.61,2.71-6.51,7.01-10.14,9.84-10.75,8.39-23.5,12.71-33.22,19.74-4.97,3.59-8.91,9.37-13.75,13.24-14.64,11.7-26.93,14.46-43.15,20.81-18.63,7.29-36.81,17.61-56.7,20.76ZM567.9,232.97c-.07-2.49.79-5.31-1.49-6.97l-7.49,4.49c-.44,2.42,1.12,1.19,2.51,1.44,2.13.39,4.32.78,6.47,1.04ZM596.87,229.99c-3.18,1.12-6.9-2.35-9.23-1.85-1.2.26-3.28,2.38-5.01,3.07-2.8,1.12-6.5.2-7.73,3.75,13.79,5.23,28.19,9.28,41.96,14.51,16.59,6.31,23.98,10.7,42.23,14.73,3.87.86,11.79,5.08,14.74,3.25.39-.24,5.89-6.58,5.99-7.03,1.07-4.74-17.15-2.04-21.69-4.26-3.78-1.85-6.81-7.92-8.23-8.72-.93-.53-3.45,1.07-5.42.42-1.34-.45-1.24-2.66-2.33-2.92-8.63-2.02-3.83-1.74-8.33-4.44s-10.38-1.61-14.26-2.73c-1.82-.53-2.83-3.32-4.33-3.61-1.32-.26-3.48,1.3-5.11,1.57-6.46,1.06-14.44,3.75-13.26-5.74ZM717.81,256.46c.49-5.96-.36-12.47,0-18.49-5.5,4.38-11.52,6.86-17,11.48-18.95,15.95-34.56,41.25-32.02,67.02.62,6.26,18.02,32.59,23.34,35.63,1.82,1.04,12.75,4.79,13.69,3.81.16-5.3,2-10.93.79-16.29-.73-3.21-6.11-7.13-7.96-11.03-5.61-11.83-3.05-36.77,1.14-49.18,2.99-8.84,6.61-17.71,17.09-18.96.32-.2.88-3.38.93-4ZM709.82,282.94l29.56,7.96,8.4-8.48c.21-.94-7.82-6.01-8.69-6.27-2.92-.85-6.64.26-9.73-.27-5.15-.87-11.67-5.6-17.95-4.73l-1.1.73c-5.79,13.62-9.03,28.54-7.39,43.43.65,5.87,2.67,13.61,8.88,15.6-.04-3.66.93-4.22,4.4-3.96,6.38.48,21.86,8.64,29.56,10.48,6.5,1.56,13.26,1.75,19.91,1.36,1.59-3.4.42-8.11,1.3-11.18.59-2.08,3.99-3.31,4.6-5.4,1.05-3.64.11-8.25,1.73-13.26,3.27-10.14,20.73-27.79-1.02-30.01-5.66-.58-13.17.56-17.5,4.5-.74.67-7.77,8.45-8.07,8.97-1.05,1.79.93,4.67-3.59,5.31l-34.31-8.79,1.01-5.99Z"/>
      <path class="cls-1" d="M550.42,950.53c5.47.81,9,4.54,7.29,10.29-1.14,3.83-22.21,14.29-27.1,17.87-5.53,4.04-10.46,9.74-16.34,13.65s-24.79,12.07-28.28,15.69c-2.38,2.46-2.29,6.16-7.09,9.9-14.2,11.08-40.36,19.57-58.28,17.45-22.57-2.68-24.11-31.8-36.56-46.39-10.34-12.11-21.6-16.71-33.48-25.48-14.63-10.81-20.35-20.77-39.95-27.01-4.58-1.46-10.82-1.05-13.93-2.09-1.36-.45-1.27-2.62-2.31-2.88-12.05-2.98-18.57.84-31.98-6.77-32.75-18.59-35.56-45.47-19.17-77.52,4.77-9.34,14.81-18.83,25.85-18.61l-2.06,2.55,1.06,3.44c-7.97-4.04-17.98,10.13-20.99,16.48-13.93,29.33-12.64,49.88,16.1,67.88,7.83,4.9,12.59,5.88,21.56,7.42,3.52.61,11.44.54,13.71,1.31,1.35.45,1.27,2.61,2.31,2.88,2.3.59,6.07-.26,9.36.42,20.61,4.22,30.91,19.58,46,29.95,12.94,8.89,24,14.63,34.4,27.56s12.41,41.06,32.01,42.03c20.49,1.02,33.19-5.17,48.9-17.07,14.55-11.02,26.98-17.1,41.03-26.93,5.41-3.78,9.82-8.98,15.13-12.85,3.61-2.63,23.1-12.96,23.85-14.13.66-1.03.52-1.91.46-3.03-.98-.98-21.4.47-24.22,2-1.19.65-1.31,2.65-2.34,2.96-1.66.5-2.81-1.46-4.48-1.5-5.23-.1-12.58,4.3-17.85.94-2.49-1.59-1.61-1.88-1.06-4.42,5.6,2.05,15.87.3,20.91-2.57,2.47-1.4,5.07-5.44,7.6-7.39,6.18-4.78,15.21-9.39,20.47-14.51,1.07-1.04,2.34-1.74,1.98-3.51l-62.44,15c-1.99,1.12-8.2,4.82-10.03,4.69-.35-.03-3.69-3.02-5.92-3.77-5.21-1.76-11.12-1.85-16.55-4.44-8.87-4.22-31.29-21.6-39.45-28.51-12.82-10.86-36.05-42.32-22.53-58.45,6.56-7.83,6.94-8.17,15.35-13.63,3.48-2.26,17.18-12.63,19.59-13.39,3.88-1.23,9.01,0,13.31-.68,8.39-1.33,29.85-6.47,37.94-9.03,10.8-3.42,12.91-8.91,27.22-9.76,19.37-1.15,39.43,8.84,58.02,7.05,4.96-.48,7.88-2.93,13.93-1.94,3.26.53,5.83,3.64,9.56,2.94.09,7.19-11.34,4.49-16.41,5.07-2.14.25-4.02,1.64-6.16,1.84-21.36,1.98-48.55-12.22-68.41-6.45-4.95,1.44-9.58,5.86-15.31,7.67-5.8,1.83-12.41,1.82-17.89,3.09-5.89,1.37-13.32,4.85-19.28,5.7-4.06.58-8.28-.52-12.51.49-2.98.71-17.52,11.27-21.2,13.77-1.66,1.13-4.58,1.32-5.45,2.05-.74.61-1.91,4.51-3.26,6.23s-4.35,3.19-4.72,3.77c-.51.79-2.38,9.89-2.26,11.13.41,4.14,10.89,23.16,14,27.05,6.86,8.57,36.7,31.66,46.62,37.32,7.27,4.15,15.83,4.3,23.41,7.68l71.64-19.28c14.86-.12,3.16,12.38-2.31,16.75-5.25,4.2-12.51,6.34-16.46,12.02,4.84.5,10.83-.69,15.49,0Z"/>
      <path class="cls-1" d="M609.88,695.68l24.18-30.76c2.33-.68,5.58-.68,5.8,2.28l-7.95,96.89,1.54,1.43,2.4-.89c2.04,2.54-8.21,23.13-9.48,27-1.91,5.83-.42,14.11-7.66,16.32-3.91,1.19-22.62,4.08-26.34,3.68-4.02-.44-6.1-1.63-5.48-6.01,10.55.78,20.46-4.19,30.94-4.05.53-3.98,1.09-8.35,2.32-12.17,2.6-8.15,3.99-13.74,5.43-22.56,3.14-19.36,2.92-36.39,4.3-55.66.87-12.17,2.71-24.36,3.98-36.49-8.86,7.58-14,15.86-19.75,25.72-3.38,5.81-7.43,11.42-9.7,18.28-1.84,5.56-2.26,13.79-4.44,18.54-1.82,3.99-5.31,2.8-4.97-1.9.87-11.87,8.85-23.1,9.89-32.15.65-5.66-.31-20.67-1.97-26.03-.44-1.41.59-1.76-2.01-1.46-7.21,15.92-13.43,33.79-21.14,49.32-2.71,5.46-5.99,12.55-13.26,11.61-2.84-.37-5.02-3.15-8.01-2.97s-7.32,5.22-11.75,6.31c-2.36.58-13.47,2.07-14.82,1.17-.69-.46-.63-2.24-1.69-2.5-17.85-4.44-45.66-1.58-62.29,6.48-.82.4-8.77,6.78-7.97,2.03.72-4.31,17.23-11.09,21.56-12.42,6.21-1.9,15.43-3.68,21.88-4.1,15.58-1.01,29.25,5.24,44-.97.59,6.11,3.91,1.13,6.83-.15,8.86-3.89,10.04,2.48,14.96,1.01,2.97-1.85,4.33-6.02,5.88-9.16,8.52-17.33,14.92-36.24,23.23-53.71l4.07-2.03c3.85-.03,5.21,3.99,6.06,7.04.24.87,1.44,7.13,1.44,7.56v15.49Z"/>
      <path class="cls-1" d="M721.58,111.84l-7.63,1.35c-1.75,7.85.77,16.27-10.12,10.85.86,7.64-7.25,6.76-9.52,8.98-1.44,1.4-1.22,5.32-3.94,7.12-2.1,1.39-3.22.11-4.65.44-6.17,1.44-2.79,15.83-14.32,8.38-2.02,7.51-9.73,3.61-12.59,5.52-2,1.33-1.51,9.71-7.03,12.96-1.58.93-13.28,5.87-14.89,6.19-1.88.38-3.63-.64-4.43-.44-1.47.36-2.39,5.29-6.55,3.85,2.11,13.26-12.49,15.13-22.01,10.96-1.14,8.11-8.75,14.64-16.93,12.06-.71,3.09-1.09,4.86-3.72,6.78-7.35,5.36-7.96-2.13-10.66-1.71-8.71,3.79-5.14,14.16-15.45,16.59-7.29,1.72-16.17-5.82-10.56-7.6,4.53-1.44,6.82,4.44,11.71-.25,2.22-2.13,2.57-5.58,4.62-8.36,3.81-5.14,12.12-11.22,16.48-3.53,3.52-9.71,8.15-5.13,13.47-7.5s5.05-11.5,8-12.98c4.83-2.42,7.23,2.25,11.52,2.57,11.37.86,5.84-9.35,10.49-15.55,2.47.32,5.96-2.37,7.46-2.44,1.79-.09,3.53,1.69,5.65,1.45.65-.08,11.32-4.31,12.14-4.73,4.62-2.35,3.04-14,11.27-14.71,1.65-.14,3.11,1.09,5.16.31,1.85-.71,3.27-5.83,6.93-6.16,2.01-.19,3.24,2.18,5.33,1.8-1.06-9.23,6.17-8.11,10.95-11.54,1.77-1.27,2.1-3.27,4.31-4.68,1.6-1.03,4.79-1.38,5.49-2,2.54-2.22,1.02-12.1,10.23-7.76-.66-6.87.95-12.34,9.01-10.99,1.54-1.49-5.86-16.48.52-15.75,2.48.28,7.22,18.4,4.25,20.54Z"/>
      <path class="cls-1" d="M407.9,88.96l-6.88,2.1c-1.15-9.21-3.45-19.82-9.17-27.31-2.19-2.87-4.21-5.89-8.17-5.63-19.78,1.3-40.93,33.38-49.79,49.26-1.77,3.16-7.21,16.58-8.29,17.69-1.6,1.64-4.44.86-6.53.96,8.38-23.65,20.41-48.11,40.5-63.92,30.78-24.23,44.28-5.32,48.33,26.85Z"/>
      <path class="cls-1" d="M749.79,148.02c-.21-18.03,28.78-24.03,35.48-6.02,10.02-12.52,29.77-12.98,37.95,1.88,5.47-2.84,14.35-4.69,19.43-.29,3.27,2.83,9.69,18.63,10.01,23.05.53,7.49-6.42,20.83-11.91,25.86-2.39,2.19-5.53,2.08-4.19-1.17,1.1-2.68,3.89-5.58,5.36-8.65,4.97-10.38,6.27-13.45,2.29-24.66s-5.72-13.69-18.48-11.01c-1.66,4.91,7.15,15.49-.98,14.99-1.64-6.92-7.67-21.6-14.98-23.51-8.2-2.15-20.52,1.31-22.61,10.47-.84,3.7.76,6.74.67,10.56-.09,3.64-1.49,7.75-1.57,11.49-1.74.21-2.64.07-3.28-1.72-3.1-8.72,1.72-26.71-8.84-32.14-4.97-2.55-14.12.1-17.87,3.86-2.3,2.31-2.64,6.92-6.49,7,1.34.99,8.33,11.65,6.99,12.99-7.16-.27-8.64-8.8-15.54-9.94-19.45-3.21-25.32,8.76-23.33,26.33,1.6,14.08,6.57,17.55,20.89,16.6l.04,3.47c-9.15,3.08-19.24,2.11-23.51-7.49-5.42-12.2-5.78-31.5,4.98-40.95,6.2-5.45,23.15-5.7,29.47-1.01Z"/>
      <path class="cls-1" d="M266.09,195c-.2.19,2.47,4.11-.58,4.95-1.5.41-4.71-1.06-5.24-2.62-.83-2.45-.33-16.27.32-19.34,2.6-12.09,22.94-32.02,25.26-10.2,1.42,13.37-6.75,20.64-16.89,26.61-1.05.62-2.77.5-2.88.6Z"/>
      <path class="cls-1" d="M385.02,136.04c2.28,6.85.76,13.05-2.14,19.34-2.49,5.41-11.32,21.16-16.35,9.65-3.91-8.95-3.14-22.54,5-28.99,4.49-3.56,15.33-8.02,19.47-2.5-1.49,2.16-3.41,2.76-5.98,2.51ZM375.02,154.02l3-12.99c-1.33.04-2.2,2.69-2.69,3.79-1.09,2.41-3.92,7.94-.3,9.2Z"/>
      <path class="cls-1" d="M459.97,499.81c.85,4.21-3.19,3.58-5.56,5.92-10.62,10.49-2.42,37.05,10.56,43.55.35,1.39-1.25,2.43-2.5,2.54-6.11.57-14.34-14.06-15.96-19.07-3.82-11.77-2.5-32.74,13.46-32.95Z"/>
      <path class="cls-1" d="M702.79,41.11l.13,4.28c-4.45,1.68-8.3,6.46-9.11,11.18-.51,2.99,2.36-.07,4,.51.66,8.12-9.69,9.77-9.82.51-.1-7.09,7.83-16.26,14.8-16.48Z"/>
      <path class="cls-1" d="M559.9,787.62c-1.44,1.72-4.41-5.57-6.3-5.18-6.46-4.11-16.55-4.72-23.93-3.57-4.92.77-10.62,4.87-14.27,5.73-2.71.64-.57-2.65-2-3.04l-26.44.57c1.14-1.66,2.73-1.44,4.44-1.56,5.44-.38,17-.69,22.11-.03,1.92.25,1.42,2.12,1.88,2.07,2.33-.27,8.68-3.84,12.34-4.68,9.44-2.17,23.51-1.63,30.18,6.2.61.72,2.92,2.39,1.99,3.49Z"/>
      <path class="cls-1" d="M65.22,761.65c.61.57,5.83,12.17,7.6,14.9,3.71,5.74,8.76,12.58,13.01,17.97,1.49,1.89,10.53,13.19,11.38,13.66,4.24,2.32,13.58-10.37,14.01-14.55l1.97,1.49c-2.92,3.99-10.03,17.02-15.66,14.77-2.06-.82-8.4-8.54-10.27-10.8-9.22-11.13-17.4-24.14-24-36.96l1.97-.49Z"/>
      <path class="cls-1" d="M260.09,551.78c.29.27,2.2,5.68,3.21,7.3.78,1.25,9.46,14.38,10.79,12.69l-.98-9.99c3.6,3.03,1.23,9.61,4.1,14.38s13,7.92,13.87,14.61l-11.49-9.99,1.5,5.98h-1.98c-3.29-13.64-16.74-21.13-20.99-34.48l1.97-.48Z"/>
      <path class="cls-1" d="M265.1,446.83c-6.43-.87-8.89-7.33-13.98-9.98,1.15,8.82,7.2,15.5,11.93,22.54-1.02,4.57-2.32-.74-3.1-1.87-2.53-3.66-5.8-7.37-7.72-11.31-3.15-6.5-3.82-14.29-8.12-20.35,1.9-1.81,7.37,7.76,8.48,9,3.84,4.29,8.36,8,12.5,11.97Z"/>
      <path class="cls-1" d="M117.2,783.62c-1.14-3.52-2.53-7.93-2.93-11.57-.22-1.98.19-1.43,1.92-1.41-1.88,7.22,6.24,13.06,7.01,18.5.32,2.25-1.82,1.87-3.31,1.3-3.04-1.16-11.04-11.67-13.12-14.86-2.25-3.44-5.26-7.83-5.56-11.92l12.01,17.46,3.97,2.52Z"/>
      <path class="cls-1" d="M207.13,861.58c.3-.34-.83-11.71,2-7.99l-.44,8.04c-3.5,5.12-14.83-9.26-17.63-11.46-5.66-4.45-11.95-6.59-17.93-10.09-.56-.33-3.82-.92-1.97-2.48.76-.64,14.5,6.95,16.31,8.17,7.28,4.9,11.79,12.43,19.66,15.81Z"/>
      <path class="cls-1" d="M328.05,355.89c2.88,6.34,10.55,37.25,14.42,40.06,2.08,1.51,5.2-.33,4.57,2.91-5.78,1.05-6.12-2.1-8.16-6.32-5.35-11.07-6.92-24.25-12.72-35.26l1.89-1.39Z"/>
      <path class="cls-1" d="M93.2,709.67c-12.34-12.31-18.79-30.6-23.96-46.97,3.4,4.1,4.64,10.57,6.81,15.67,2.34,5.51,5.07,10.94,7.65,16.33l9.5,14.97Z"/>
      <path class="cls-1" d="M328.06,303.92l-3.4-2.08c-9.66-11.77-20.47-23.17-25.57-37.88,4.86,5.91,7.74,13.05,12.17,19.3,5.14,7.26,11.91,13.23,16.8,20.66Z"/>
      <path class="cls-1" d="M87.21,745.65l-23.45-17.01-11.52-5.96c1.68-.2,3.22.22,4.81.68,7.27,2.1,20.7,14.02,27.85,19.12,1.25.9,2.78,1.04,2.31,3.18Z"/>
      <path class="cls-1" d="M86.21,812.61c.23,3.31-1.55,5.95-4.67,6.85-3.46.29-19.2-23.91-20.3-28.83,4.37,4.22,7.11,10.53,10.76,15.71,1.22,1.73,7.3,10.34,8.19,10.83,2.94,1.63,3.71-3.86,6.01-4.56Z"/>
      <path class="cls-1" d="M282.09,895.55c-4.54-.11-10.94-.07-15.27-1.21-2.49-.66-3.25-2.52-4.71-3.14-1.22-.52-4.91.65-5-1.63,3.27.44,5.12-1.08,7-3.5l3.98-10.5c2.18,4.36-4.87,12.48-3.54,14.98,3.12,5.87,14.07.26,17.54,4.99Z"/>
      <path class="cls-1" d="M332.05,786.63c-2.68,9.35-9.38,20.9-6.33,30.81,1.17,3.79,5.37,4.72,4.84,8.15-12.24-8.16-5.87-25.8-.77-36.78.65-1.41-.6-2.73,2.26-2.18Z"/>
      <path class="cls-1" d="M277.08,598.74c2.52,11.76,11.02,23.77,5.49,35.97-2.32.68-1.73-3.57-1.56-4.55.32-1.89,1.86-1.32,2.06-2.12,1.61-6.73-5.75-21.13-7.82-27.97l1.83-1.33Z"/>
      <path class="cls-1" d="M153.17,834.61c-2.57,3.11-10.25,3.66-13.74,2.23l-15.23-18.23c10.25,8.16,12.66,21.63,28.97,16Z"/>
      <path class="cls-1" d="M305.07,604.75l-3.99,8.98,18.66-4.84,1.33,1.83c-7.79,1.2-14.86,5.86-22.98,5l.97-3.52,6.02-7.46Z"/>
      <path class="cls-1" d="M339.05,542.78c.11,3.22-3.96,4.3-6.35,3.91-3.63-1.21-3.6-25.18-4.63-29.9,1.54-.14,1.69,2.52,1.88,3.59.85,4.72.91,20.81,2.58,23.41,1.88,2.92,4.27-1.22,6.51-1.02Z"/>
      <path class="cls-1" d="M257.11,366.89c-1.69-2.25-3.98-8.09-4.99-10.99l6.47,9.01,1.51.97c-.21-1.96-.05-2.31,1.99-1.99.91,3.33,4.56,6.14,2.52,9.98-1.58-2.45-6.05-5.06-7.5-6.99-.38,8.42-.21,21.42-11.99,18.98-.65-3.76,2.13-.75,4.28-1.17,4.24-.84,4.99-5.82,5.6-9.43.45-2.66-1.43-9.14,2.11-8.39Z"/>
      <path class="cls-1" d="M296.07,533.78l-1.03-10.52c.78-8.78,3.34-16.5,11.02-21.45-.17,2.97-3.28,4.26-4.82,6.66-4.72,7.35-4.72,16.84-5.17,25.31Z"/>
      <path class="cls-1" d="M368.02,717.67c.65.62,3.7,15.52.51,16.98l-.5-9.99-4,6.49c.49-3.7.67-8.67,1.89-12.1.38-1.07.56-2.84,2.1-1.38Z"/>
      <path class="cls-1" d="M115.21,860.58c4.68-.48,4.42-7.08,5.01-10.49.29-1.67-.61-1.71,1.96-1.5-1.22,19.46-9.69,16.86-12.98,0l6,11.98Z"/>
      <path class="cls-1" d="M412,345.9c-1.77-.28-1.12-5.22-1.03-6.53.76-10.64,5.55-18.25,14.02-24.45-.68,3.86-5.27,5.97-7.42,9.06-4.27,6.11-5.18,14.61-5.57,21.92Z"/>
      <path class="cls-1" d="M365.03,840.61c-.45,2.35-5.78.05-6.99-.51-6.36-2.89-9.69-12.64-10.96-19.06-.3-1.5-1.81-1.88.48-3.43,2.91,9.9,4.97,21.98,17.48,22.99Z"/>
      <path class="cls-1" d="M258.1,473.82c.84,10.2,13.59,12.98,15.99,21.99-5.5-5.44-15.81-13.04-17.89-20.59-.52-1.88.49-1.47,1.9-1.4Z"/>
      <path class="cls-1" d="M390.01,762.65c-.89,2.28.96,20.81,4.99,17.98,1.38-1.8-.46-7.72,3-6.98-.36,3.15-.63,7.1-3.61,8.94-4.66.78-6.73-15.22-6.42-18.42.15-1.51.89-3.01,2.03-1.51Z"/>
      <path class="cls-1" d="M261.09,356.89l-14.98-25.97c1.86-1.75,6.35,6.99,7.17,8.31,3.16,5.09,7.35,11.75,7.81,17.66Z"/>
      <path class="cls-1" d="M157.16,815.61c-7.62-6.73-14.24-14.55-15.97-24.98,3.72,2.59,3.89,8.67,6.13,12.35,2.55,4.18,8.89,7.16,9.84,12.64Z"/>
      <path class="cls-1" d="M323.06,565.76c-2.98.52-1.58-.79-2.1-2.34-2.69-7.98-4.5-17.29-5.88-25.63,1.57.92,2.19,4.95,2.71,6.77,1.97,6.99,3.5,14.17,5.27,21.2Z"/>
      <path class="cls-1" d="M202.97,823.39c.42-.28-.49-2.7,2.16-1.78v3.99s-4.74-.75-4.74-.75l-16.24-13.23c4.09,0,16.6,13.26,18.82,11.77Z"/>
      <path class="cls-1" d="M395,964.52c1.18,5.26,5.41,8.89,8.99,12.51l9.01,4.47c-4.15.02-8.36-1.23-11.48-4-1.02-.9-8.11-10.51-8.49-11.5-.68-1.76.9-1.71,1.97-1.48Z"/>
      <path class="cls-1" d="M360.04,729.66l2.51,15.98,7.5,11.49c-1.26.61-3.26-2.17-3.98-3.02-1.51-1.77-6.03-8.06-6.03-9.96v-14.49Z"/>
      <path class="cls-1" d="M287.08,763.64c-2.97.45-1.71-.64-1.97-2.51-1.35-9.73-4.46-14.46-7.01-23.47l7.31,14.16,1.67,11.81Z"/>
      <path class="cls-1" d="M291.07,478.82c-7.22-6.31-15.64-16.09-9.48-25.98,1.11,4.22-1.38,7.59-.05,12.03,1.38,4.59,8.31,8.93,9.52,13.94Z"/>
      <path class="cls-1" d="M278.08,658.7l-5.9-12.57c-.36-3.85-.38-8.39,2.41-11.4.26,4.14-1.12,8.2-.44,12.43.64,3.96,4.7,7.12,3.92,11.55Z"/>
      <path class="cls-1" d="M413,431.85l-5.54,17.93-1.44,11.04c-.74-9.33.76-18.3,4.72-26.79.65-1.4-.6-2.73,2.26-2.18Z"/>
      <path class="cls-1" d="M158.15,794.63c2.09,4.61,5.28,9.2,8.18,13.36,1.25,1.79,6.08,3.34,2.32,6.61l-12.48-18.5,1.97-1.48Z"/>
      <path class="cls-1" d="M43.24,697.69c-3.13,4.73,6.76,22.05,6,22.98-1.55,1.87-2.15-1.41-2.48-1.97-4.87-8.25-3.58-12.01-5.49-20.53l1.98-.48Z"/>
      <path class="cls-1" d="M257.1,398.87c4.86,17.47-8.38,6.58-16.97,3.99-.2-1.88,2.03-.83,3.01-.51,4.67,1.51,8.84,5.15,13.97,4.51,1.88-1.85-4.9-8.81,0-7.99Z"/>
      <path class="cls-1" d="M330.06,748.66l-2.68,2.81-16.3,10.17c-.38-2.09,1.35-2.77,2.66-3.82,4.26-3.42,11.25-6.86,16.32-9.15Z"/>
      <path class="cls-1" d="M266.1,778.64l6.99,2.98c1.23-1.37-2.63-7.94,0-8.98l2.97,10.44c-.76,3.92-9.28-2.43-9.95-4.44Z"/>
      <path class="cls-1" d="M295.08,711.67c-1.57,1.87-2.15-1.42-2.48-1.97-3.32-5.57-8.3-11.33-7.5-18.01l9.98,19.98Z"/>
      <path class="cls-1" d="M314.07,668.2c.14.5,2.55,2,2,2.49-3.05.18-4.34-2.95-4.06-5.43l2.06-17.55c.96,5.51-1.3,15.66,0,20.49Z"/>
      <path class="cls-1" d="M253.11,273.95c-.97,3.5-1.1,7.4-2.79,10.69-1.48,2.87-4.82,4.51-6.07,6.92-1.04,1.99-.44,4.9-2.11,5.37-1.68-6.54,4.6-8.58,6.85-12.62,1.38-2.48,1.44-5.26,2.11-7.93.42-1.67-1.01-2.92,2.02-2.43Z"/>
      <path class="cls-1" d="M221.12,815.61c-1.01,5.11-9.01,5.37-13.04,4.56-1.81-.36-8.81-2.7-6.44-4.55,5.67,3.82,14.1,4.72,19.49,0Z"/>
      <path class="cls-1" d="M274.09,535.78l-9.8-15.74,1.32-4.24c-.94,5.3,4.41,8.55,6.67,13.31.97,2.04,1.88,4.37,1.81,6.67Z"/>
      <path class="cls-1" d="M568.89,778.63c-5.17-4.7-4.11-15.22-6.98-21.98,1.67.7,2.79,4.57,3.27,6.21,1.55,5.28,1.61,10.65,3.71,15.77Z"/>
      <path class="cls-1" d="M365.03,931.55c-1.65,2.84-8.4,2.37-11.04,1.54l-7.93-7.54c3.98.85,5.78,5.58,9.99,6.57,2.87.68,5.94-1.25,8.98-.57Z"/>
      <path class="cls-1" d="M255.1,794.63c.48,2.85-.6,1.66-2.31,2.13-6.78,1.86-14.85,1.51-19.67-4.12,3.82.44,6.51,3.77,10.51,4.05,4.02.28,7.55-1.93,11.47-2.06Z"/>
      <path class="cls-1" d="M506.94,764.65c.1,1.88.48,2.05-1.51,2.03-3.79-.04-11.68-1.49-15.27-2.78-1.59-.57-2.68.54-2.19-2.25,6.06,2.16,12.53,3.38,18.97,3Z"/>
      <path class="cls-1" d="M456.98,793.6l-14.98,12.01c1.88-6.18,8.66-9.21,12.99-13.51l1.99,1.5Z"/>
      <path class="cls-1" d="M70.23,696.67c-3.42.92-16.1-11.81-14.99-12.97l14.99,12.97Z"/>
      <path class="cls-1" d="M39.25,643.73c-.87,5.24-10.75,8.71-12.87,3.36-.74-1.86-.27-2.84,1.87-2.37l.53,3.06c1.87.01,3.75.01,5.56-.49,2.66-.74,1.98-3.88,4.9-3.56Z"/>
      <path class="cls-1" d="M62.23,573.76c.35,6.32,1.22,12.35-7.29,9.78-.89-.27-4.39-3.58-4.69-4.3-.69-1.65,1.33-2.04,1.97-1.48,1.06.93,3.09,8.1,8.08,4.56,3.28-2.33-2.51-9.3,1.93-8.56Z"/>
      <path class="cls-1" d="M298.08,742.65c-.35,5.94,3.94,10.95,4,16.99-3.07.51-1.57-.83-2-2.44-1.05-3.86-3.34-8.83-3.76-12.28-.26-2.13-.88-2.55,1.77-2.27Z"/>
      <path class="cls-1" d="M420,793.63c.4,2.59-.39,2.08-2.47,1.99-3.17-.15-9.56-1.42-12.71-2.3-1.03-.29-3.03-.24-2.79-1.68,6.19.02,11.63,2.99,17.98,1.99Z"/>
      <path class="cls-1" d="M341.06,677.68c1.09-1.93,3.88-.43,6.54-1.93,2.88-1.64,2.89-5.49,5.43-7.05-.27,6.29-5.64,12.05-11.97,8.98Z"/>
      <path class="cls-1" d="M293.09,390.87l4.98-1.99c.44,3.26-4.8,5.56-6.54,3.05-1.65-2.38.82-7.21.56-10.04l.99,8.98Z"/>
      <path class="cls-1" d="M322.06,901.56c.5,2.15-1.19,2.22-2.28,3.21-.97.88-10.25,8.27-10.7,7.78l2.07-3.42,10.91-7.57Z"/>
      <path class="cls-1" d="M42.24,590.75c-.78,3.54-.77,7.32-1.7,10.83-.47,1.78.28,2.58-2.28,2.15-.15-3.61,1.22-7.02,2.04-10.47.39-1.63-1.19-3.02,1.94-2.52Z"/>
    </g>
  </g>
</svg>