<?xml version="1.0" encoding="UTF-8"?>
<svg id="Calque_2" data-name="Calque 2" xmlns="http://www.w3.org/2000/svg" viewBox="0 0 1018.17 432.45">
  <defs>
    <style>
      .cls-1 {
        fill: #fff;
      }
    </style>
  </defs>
  <g id="Illu_Vectorisée_WHITE_" data-name="Illu Vectorisée (WHITE)">
    <g id="Batterie">
      <path class="cls-1" d="M567.28,10.84c.18.1,1.77,3.22,1.86,3.6,1.19,5.4-4.91,32.03-3.72,33.22,18.77-2.2,37.53-3.92,56.51-3.04,25.76,1.2,67.52,11.64,89.32,25.61,25.05,16.06,39.9,30.13,54.57,56.35,17.73,31.7,2.59,89.7-9.76,122.17-9.7,25.5-24.48,49.62-39.89,72.03-2.33,3.38-6.97,6.07-6.82,10.65,6.36,1.23,10.87,7.56,16.07,11.42,20.78,15.39,20.57,17.16,35.92,37.03,5.65,7.31,13.92,12.62,15.72,23.25,1.68,9.92.36,22.32-12.26,15.26-2.5-4.25,1.59-7.59,1.5-10.39-.28-9.02-10.87-18.29-15.8-25.28-4.27-6.06-8.24-14.56-13.18-19.79-4.89-5.16-13.59-9.69-19.45-14.52-5.06-4.17-7.39-9.35-14.14-11.86l-1.35-.1c-8.63,13.7-23.29,21.87-35.9,31.57-8.59,6.61-14.2,13.72-24.42,18.55-18.05,8.54-48.26,19.74-67.62,24.32-49.93,11.81-77.22,4.07-123.93-11-39.98-12.89-71.83-22.71-96.35-59.54-2.46-3.7-5.48-11.19-8.14-13.85-.83-.83-.91-1.42-2.43-1.05-6.37,18.91-17.91,35.05-29.18,51.27-7.47,10.76-17.4,25.53-25.82,35.13-3.73,4.25-7.99,8.1-12.52,11.51l-.34,2.31,2.87,3.19c-3.04,4.57-8.17,5.02-10.83-.13-5.12-9.91,8.02-16.69,13.27-23.44,5.23-6.73,9.55-15.93,14.76-23.21,13.18-18.42,29.72-36.77,40.22-56.71,1.44-2.73-.12-5.45,4.51-7.51-9.35-17.57-2.57-37.28-2.9-55.91-.2-11.64-4.31-24.9-4.1-35.96.38-19.42,14.52-50.18,26.63-65.33,3.15-3.93,8.97-7.47,11.27-10.72,2.42-3.44,3.37-9.5,5.42-13.56,4.04-8.02,12.32-15.1,19.23-20.74,29.47-24.05,73.55-50.2,110.58-59.3,16.85-4.14,33.48-6.11,50.73-7.72.57-6.51-.7-13.78.29-20.19.92-5.97,7.55-8.8,6.23-16.76.68-1.12,2.39-1.38,3.39-.83ZM380.79,157.85c-1.09.7-5.67,9.38-7.26,11.23-2.59,3.02-5.57,3.67-7.86,6.13-7.14,7.71-17.53,33.55-18.87,44.08-1.5,11.81,2.11,23.04,2.78,34.67.92,16.01-2.71,33.63-1.05,49.01.89,8.27,20.14,37.66,26.48,44.47,23.76,25.54,73.65,40.62,107.02,49.87,33.96,9.41,59.31,9.04,93.37.59,14.45-3.59,52.08-17.22,64.61-24.33,6.24-3.54,10.48-9.01,15.85-13.13,8.43-6.45,19.41-13.02,26.98-19.99,17.13-15.78,40.93-51.62,51.3-72.61,15.9-32.19,39.26-104.12,19.95-136.57-15.67-26.34-40.75-50.32-70.26-60.65-52.31-18.31-97.84-14.93-151.8-6.86-45.48,6.8-97.67,34.65-132.01,64.86-4.52,3.98-13.8,12.78-14.06,18.89-.08,1.97,3.18,4.52,1.05,8.08-1.24,2.08-4.89,1.37-6.24,2.24Z"/>
      <path class="cls-1" d="M353.55,116.61c-16.24-3.95-31.51-10.21-47.95-13.5-12.37-2.48-31.41-6.45-43.51-7.48-7.7-.65-4.84.25-11.98-1.99-4.93-1.55-10.52-1.34-15.47-3.01-.04,1.39.23,2.96-.21,4.29-.69,2.06-27.77,20.6-31.86,23.11-9.22,5.66-19.88,9.54-28.62,15.35-10.39,6.89-17.87,17.54-27.78,25.18-6.5,5.01-35.02,19.79-36.9,24.96-.92,2.53,2.96,6.5-2.42,8.6,7.85,52.78,2.08,105.99-2.98,158.63,7.17,6.49,11.92,14.67,17.87,22.15,3.17,3.98,7.97,8.12,10.94,12.04,5.19,6.83,9.29,17.69,14.57,23.4,3.45,3.72,11.84,3.61,6.45,10.56-10.58,6.42-22.79-22.92-27.57-29.4-2.84-3.85-7.35-7.8-10.38-11.6-3.85-4.84-9.56-14.9-13.57-18.39-1.16-1.01-2.47-1.52-3.97-1.71-1.79.2-18.87,24.94-21.94,28.64-5.18,6.25-15.58,18.04-21.78,22.68-3.59,2.69-11.72,3.31-10.75-3.16.49-3.26,8.38-6.13,11.5-8.57,5.56-4.34,13.77-13.86,18.48-19.49,3.63-4.35,23.86-30.3,24.59-33.37,2.94-12.48,1.95-37.55,2.42-51.54.74-22.21,1.82-44.77,2.05-66.9.12-12-.81-23.61-2.05-35.51l-11.9,7.58c-21.44,21.75-47.51,37.44-70.52,57.39-6.15,5.33-11.34,10.18-16.02,16.94-4.97-4.37-.71-8.6,2.48-12.49,15.28-18.65,39.37-35.73,57.46-51.46,16.14-14.04,33.65-30.46,51.58-42.35,8.01-5.31,17.24-8.44,25.21-13.77,12.13-8.11,21.27-20.6,33.99-27.96,7.28-4.21,15.03-6.88,22.57-11.4,11.44-6.85,21.95-15.51,33.04-22.9-.87-1.49-2.14-1.19-3.41-1.56-32.19-9.41-75.62-17.72-109-20.91-12.98-1.24-26.52-.07-39-2.97v-3.08c1.12-1.55,13.22-1.09,16.08-1.01,54.06,1.63,105.26,14.89,157.34,26.54,30.77,6.88,72.23,11.55,100.33,24.58,3.17,1.47,3.92,1.49,2.61,4.88Z"/>
      <path class="cls-1" d="M954.15,84.64c7.15.22,14.38-.3,21.53-.05,10.02.36,23.15.63,32.92,2.05,3.18.46,10.3.28,9.5,4.47-1.13,3.56-14.13-.37-17.44-.52-10.33-.49-24.48,1.33-35.03,2.02-3.03.2-12.47-1.15-13.34,1.65-1.55,24.59-6.51,48.62-10.01,72.93-4.3,29.88-6.76,60.4-14.63,89.29-1.12,4.12-2.17,12.38-1.42,16.45.39,2.11,2.4,3.63,2.48,6.03.08,2.78-2.25,6-2.03,8.63.27,3.19,2.82,9.1,3.37,13.5.7,5.59.43,12.29,1.13,17.86,1.96,15.5,5.51,30.91,5.99,46.47l-3.37.04c-3.88-.94-11.25-54.46-10.62-61.99-1.5.57-5.57.02-6.47.95-1.6,1.66-6.07,11.69-8.1,14.95-7.37,11.82-14.97,23.63-23.01,35l-2.92-1.98c-2.1-3.76,11.82-21.75,10.52-22.95-6.87-.72-16.06,7.05-22.25,3.77-1.5-.8-2.31-1.42-1.72-3.26.4-1.27,20.69-4.75,23.96-7.02,3.81-2.65,11.42-16.71,14.59-21.38,2.47-3.64,7.36-7.62,8.91-11.08,4.06-9.09,1.81-21.31,3.75-31.23.97-4.95,3.96-9.63,4.66-14.33,3.88-26.09,6.46-52.52,10.21-78.72,3.44-24.06,8.24-47.89,10.59-72.12-.54-3.02-6.32-.51-8.24-.46-18.67.47-45.03.32-62.92,4.03-2.4.5-2.69,2.59-5.96,3.03-2.91.39-6.52-.37-9.56-.06l-.04-3.37c.23-.93,4.64-2.05,5.82-2.35,26.27-6.68,55.13-9.16,82.18-10.26l.74-12.54c-.39-2.24-12.55-1.59-15.28-1.5-14.18.5-30.8,1.6-44.92,3.04-6.71.69-13.77,1.28-19.97,4l-1.56-2.52c0-3.94,17.15-6.58,20.81-7.19,19.69-3.24,40.34-4.03,60.23-5.72,1.86-1.29,1.46-21.94,2.16-25.81.55-3.02,3.42-9.97,6.69-5.1-.25,4.43-3.39,29.24-.99,30.91l49.52,1.45,7.5,2.5-.96,3.03-55.35.6c-3.18,1.04-1.02,11.81-1.64,14.85Z"/>
      <path class="cls-1" d="M831.74,234.52c-.54.09-1.48,1.25-2.5,1.02.55,2.19,1.02,4.1,1.05,6.42.21,13.15-3.28,35.6-1.04,47,.41,2.08,2.28,2.73,2.73,4.27,3.93,13.38,9.55,34.47,12.01,47.95.26,1.42.35,2.82.24,4.25l-3.8-1.69c-4.95-15.81-11.65-30.89-14.68-47.26-6.86,6.57-11.11,15.92-17.52,23.45-3.49,4.1-7.94,7.45-11.48,11.5-2.5,2.86-13.87,19.04-15.96,19.04l-2.51-1.56c-.7-3.34,23.33-29.26,26.96-33.98,6.3-8.18,10.73-17.61,17.81-25.16.12-17.96,1.2-35.89,3.22-53.74-10.56.49-22.66,3.86-32.76,7.21-2.97.99-6.02,1.88-8.91,3.08-4.07,1.69-13.98,9.85-16.82,4.18l10.42-86.28c1.24-2.04,3.81-.43,5.32-.9,15.89-5.01,33.98-4.24,50.92-7.06,22.45-3.74,44.91-12.25,67.53-10.45,2.93,4.9.21,10.2.2,15.21-.03,26.77,1.18,53.15-.97,79.97-.39,4.82-1.26,13.99-7.99,12.1-7.89-4.48-16.38-9.74-24.61-13.44-2.2-.99-11.38-5.14-12.85-5.14-6.78,0-17.89-.99-23.98,0ZM894.2,154.59c-20.9.28-40.75,9.29-61.59,11.85-13.61,1.67-28.9,1.86-42.33.13v4s-6-2.01-6-2.01c.47,23.82-3.9,47.42-7,70.94,25.37-8.25,50.33-15.36,77.48-13.02,13.76,1.18,24.72,11.07,37.43,15.02l2-86.92Z"/>
      <path class="cls-1" d="M202.64,286.48c12.96.86,25.14-5.92,37.49-6.98,6.47-.55,13.57.52,20.01.03,18.7-1.45,37.27-4.48,55.43-9.04-1.41-5.98-2.78-13.34-3.05-19.43-.26-6.05,1.06-11.62,1.08-16.99.08-14.84-.79-29.8.96-44.5-19.05,2.23-38.21,3.21-57.15,6.31-7.45,1.22-24.16,3.66-30.4,6.5-1.97.9-1.96,2.78-3.02,3.08-1.83.53-11.05-.79-11.02-4.41.04-5.61,19.79-9.59,24.8-10.81,19.26-4.66,35.93-5.57,55.28-7.68,8.06-.88,17.18-3.58,25.04-4,5.53-.3,6.06,1.36,6.5,6.47,2.01,23.01-2.24,47.97-1.09,71.03.76,15.13,8.64,20.37-9.74,26.15-23.92,7.53-45.38,6.38-69.54,8.41-10.27.86-26.09,4.94-36.88,7.09-2.08.41-3.77,2.32-6.28,2.72-10.15,1.6-11.45-5.91-10.19-14.19,2.3-15.17,9.72-40.38,14.26-55.69.64-2.16,3.36-11.61,5-11.99,2.65.11,2.59,2.44,2.52,4.44-.32,9.1-2.84,23.34-4.32,32.73-1.62,10.27-4.91,20.35-5.71,30.77Z"/>
      <path class="cls-1" d="M585.19,0l84.69.66c27.21,5.14,69.98-1.33,95.2,8.73,3.42,1.37,4.83,3.9.71,4.33-2.58.27-14.87-3.34-19.15-3.89-28.94-3.71-66.04-3.68-95.75-4.18-61.18-1.04-121.15,3.96-181.91,9.04-19.67,1.64-40.51,2.7-59.96,5-14.55,1.72-31.11,6.84-45,7.97-2.12.17-10.78.76-11.47-1.49-1.73-5.62,9.79-4.15,12.38-4.59C437.97,9.42,511.51,6.85,585.19,0Z"/>
      <path class="cls-1" d="M243.62,300.97c.26-.96,2.47-2.89,4.02-2.06,4.32,2.31,2.85,20.09,2.94,25.08.04,2.41,1.12,4.61,1.12,6.95,0,4.37-2.43,13.99-1.8,17.84.31,1.92,8.79,25.07,10.23,28.6,1.22,3,9.81,16.61,8.47,18-1.2,1.25-2.97-.79-3.84-1.65-5.13-5.07-10.99-14.76-13.43-21.54-1.38-3.85-2.2-10.97-3.92-14.07-.72-1.3-1.08-2.04-2.78-1.7-7.68,18.28-18.92,36.69-31.16,52.29-2.52,3.21-5.97,9.5-8.85,3.21-.03-3.6,18.06-28.44,21.17-33.85,3.71-6.46,14.02-25.69,16.05-31.91.71-2.17,1.76-12.01,1.76-14.22,0-6.59-1.3-26.24,0-30.98Z"/>
      <path class="cls-1" d="M520.25,227.73c.24.11,3.11,3.71,3.19,4.28.41,2.84-2.69.56-3.07,2.05.7,6.99-.77,15.05.16,21.88.34,2.53.72,3.04,2.92,4.06l-2.03,1.14.03,23.34c2.35-.17,4.19-1.5,6.58-1.92,1-.17,3.68-.79,3.41.91l-9.77,2.23c-2.05,15.77-10.84,27.86-22.69,9.96-.51-.04-5.97,3.53-6.57,4.29-1.93,2.43.59,4.57-5.93,3.52-1.08-.89,2.69-4.3,3.47-5.01,5.62-5.15,9.14-2.67,5.53-11.96l3.54,6.02,17.39-6.07c-1.01-7.06,2.78-18.93-2.97-23.44-.15-.92,1.45-.19,1.76-.68,1.52-2.39-.61-20.46.24-24.8-4.53,3.68-9.92,13.31-16.29,13.67-7.22.41-1.79-6.45.33-9.15,2.66-3.39,16.98-16.11,20.78-14.3ZM501.45,247.5c2.1,1.98,13.87-11.41,12.98-14.98-2.3.62-13.8,14.2-12.98,14.98ZM506.75,302.15c6.1,5.26,9.42-10.42,8.69-14.67l-14.96,7.49c2.51,1.47,4.55,5.69,6.28,7.18Z"/>
      <path class="cls-1" d="M677.33,198.54l-6.64-7.84c-7.98-6.83-29.21,2.96-24.58,13.59,2.95,6.77,20.15,14.94,26.12,20.84,19.43,19.22,8.15,51.75-17.88,57.34,2.65-3.65,7.62-4.73,10.9-7.58,13.51-11.75,15.34-35.59,3.09-48.86-7.27-7.87-40.1-20.54-22.92-32.91,9.92-7.14,28.82-9.98,31.91,5.43Z"/>
      <path class="cls-1" d="M533.44,232.52l6.05-13.42c7.62-6.25,9.63,7.97,10.64,13.22,1.42,7.42.67,15.8,4.29,22.18-3.21,1.09-5.54,1.15-7.09-2.39-1.26-3.55-2.37-32.56-5.4-32.55-7.18,7.59-7.36,19.49-7.63,29.33-.93,2.24-1.96,1.19-3.69.42l-9.65-50.73c1.65-.26,2.68-.17,3.98.98,2.92,2.58,6.37,27.75,8.5,32.98Z"/>
      <path class="cls-1" d="M425.5,257c1.08,3.83,8.94,6.69,12.97,4.97,8.67-3.69,4.66-17.76,3.24-24.19-.22-1-1-3.51.76-3.26,3.19,10.51,7.17,30.15-9.47,28.96-6.77-.48-10.3-2.83-13-8.96-3.87,6.19-21.17,31.02-27.54,16.53-5.91-13.45,7.8-36.86,10.59-51.48.66-3.46,3.78-17.99-.98-18.03l-10.94,7.1-8.61,10.38c3.76-12.74,28.93-31.67,26.97-6-1.38,18.08-16.43,39.75-12.89,56.89.37,1.79.85,3.38,2.4,4.53,10.62-7.02,22.98-19.34,22.5-32.93h3.99c.74,4.18-1.02,11.88,0,15.49Z"/>
      <path class="cls-1" d="M561.77,204.28c1.82,7.25.37,18.98,1.7,27.68,1.02,6.67,7.04,14.53,4.93,22.55-11.45,1.51-9.47-18.7-10.05-26.44-.11-1.46-1.4-2.74-1.47-4.01-.27-4.64,1.24-10.99.6-15.98l-3.06-.56,1.98-4.98-2.49,2.97c-2.34.13-1.31-10.2-1.54-12.3,7.65-5.05,8.14,6.04,9.4,11.06Z"/>
      <path class="cls-1" d="M582.27,194.7c1.52,16.59,1.59,33.63,1.17,50.36-.11,4.18-1.73,8.4-1.13,13.03.29,2.22,2.53.66,2.07,2.9l-6.99,1.52c-.55-22.67,3.16-45.46-1-67.94l5.87.14Z"/>
      <path class="cls-1" d="M625.37,200.54l-5.32-.91-2.24,3.94c9.92,5.6,24.77,7.93,23.56,22.46-.66,7.97-10.85,24.96-19.51,25.33-2.65.11-4.2-1.12-3.48-3.84,6.81,1.96,7.24-.74,10.8-5.69,8-11.08,11.43-24.23-2.76-31.85-2.25-1.21-13.59-4.59-13.98-6.03-1.1-4.08,10.96-7.92,12.92-3.41Z"/>
      <path class="cls-1" d="M537.43,133.6c1.28,1.28-4.47,31.37-2,35.99l4.97.49c-17.4,8.67-9.37-18.85-8.9-27.97.32-6.24-4.12-9.3,5.93-8.51Z"/>
      <path class="cls-1" d="M552.42,139.59v11s3.99-.01,3.99-.01l-4.04,1.67-.95,21.33h-5.01s.07-19.44.07-19.44l-3.06-1.54c3.97.93,3.52-2.85,3.99-6l-2.97-.03c-.42-5.92,2.19-7.85,7.97-6.97Z"/>
      <path class="cls-1" d="M576.4,133.61v3.98s-3.99-.99-3.99-.99l-3.06,14.43,2.05,1.54c-3.97-.85-4.1,10.14-2.88,10.9,6.05.91,10.41-3.12,13.39-7.88,4.31.52-1.28,5.52-2.58,6.42-4.14,2.85-10.76,4.46-15.25,1.65-3.94-2.47,2.79-21.75,3.31-26.33l9.01-3.72Z"/>
      <path class="cls-1" d="M473.47,223.54c-4.84,5.56-9.22,12.33-8.98,19.97l5.99-3.99c-.3,2.29-6.8,5.92-7.01,6.69-1.28,4.65,1.5,9.04,5.01,11.79-19.2-.2-8.53-32.9,5-34.47Z"/>
      <path class="cls-1" d="M510.45,149.59v16.49c0,1.26.94,6.83,1.2,8.79.15,1.13,1.11,2.28,1.78,3.2-.1,2.02-5.14,1.13-6.06-.15-2.39-3.3-2.33-20.19-1.96-24.89s.55-5.01,5.04-3.45Z"/>
      <path class="cls-1" d="M611.38,221.54c.75.66-1.82,5.38-2.48.99-1.37.37-9.95,8.28-10.5,9.51-.2.44-.25,1.64.49,1.48l4.5-2.5c-2.39,3.2-8.66,6-6.48,10.51,3.33-.73,6.91-2.25,10.24-2.76,1.07-.16,3.47-1.07,3.24.74-6.01.8-11.79,4.46-18.05,2.57-4.65-10.44,9.75-20.75,19.05-20.54Z"/>
      <path class="cls-1" d="M491.73,242.27c.12.22,1.4.13,1.66.98.76,2.52.79,6.51,1.07,9.24h4.98c1.47,4.46-6.41,5.82-8.74,3.76-1.92-1.7-.21-6.9-2.75-8.75-.65-.28-2.64,7.13-4.49,4.99-.66-.77,9.18-15.25,9.5-17.97,1.93-2.13,1.84-.57,1.08,1.08-.83,1.79-3.42,4.63-2.32,6.66Z"/>
      <path class="cls-1" d="M451.48,179.57c-12.29,12.66-18.05,16.95-16.27,35.75.1,1.1,1.18,3.4-.7,3.2-3.95-15.58,1.83-27.15,13.48-36.97,1.12-.94,1.63-2.42,3.5-1.99Z"/>
    </g>
  </g>
</svg>