<?xml version="1.0" encoding="UTF-8"?>
<svg id="Calque_2" data-name="Calque 2" xmlns="http://www.w3.org/2000/svg" viewBox="0 0 1101.99 1755.35">
  <defs>
    <style>
      .cls-1 {
        fill: #fff;
      }
    </style>
  </defs>
  <g id="Illu_Vectorisée_WHITE_" data-name="Illu Vectorisée (WHITE)">
    <g id="Fleur">
      <path class="cls-1" d="M528.32,306.16c-7.61,1.13-20.42,16.75-26.47,22.5-29.6,28.14-58.57,63.02-70.68,103.22-9.92,32.95,6.6,83.33,24.51,111.85,7.76,12.37,33.07,27.04,47.68,28.28,54.13,4.59,117.19-38.36,134.43-89.41,15.42-45.67-7.37-123.8-42.99-155.97-12.41-11.2-27.36-22.98-44.99-22.48v-3h15.5c11.39,0,40.85,25.85,47.88,35.07,19.15,25.11,35.04,74.91,36.6,106.32,3.48,69.85-63.48,130.3-130.42,135.51-39.63,3.09-65.06-18.82-79.66-53.34-22.27-52.66-25.83-78.39.65-130.63,9.11-17.96,14.67-23.31,27.02-37.95,5.63-6.67,10.63-15.12,16.95-21.03,5.58-5.22,12.88-9.16,18.52-14.46,3.83-3.6,15.63-18.5,20.47-18.5h19.99l1.49,1.51-1.49,2.48c-4.69.48-10.48-.67-14.99,0Z"/>
      <path class="cls-1" d="M446.87,1735.44c-2.89-11.78-12.71-19.07-19.4-28.06-4.74-6.38-7.77-14.31-12.6-20.38-33.63-42.33-80.38-59.26-119.37-93.5-33.78-29.66-47.2-64.19-36.22-109.14,4.21-17.22,19.22-43.57,30.72-57.23,4.42-5.26,10.35-8.46,14.98-13,6.3-6.17,11.85-13.98,18.45-19.53,22.75-19.13,54.62-32.1,80.15-46.78,16.41-9.44,30.39-17.65,47.32-26.64,13.16-6.98,20.99-14.17,32.63-22.34,53.95-37.9,115.6-81.89,147.4-141.43,16.77-31.39,25.35-72.08,42.28-103.64,13.73-25.58,51.29-50.52,80.1-54.82,40.43-6.03,68.17-6.58,100.77,19.88,23.53,19.1,46.82,59.7,56.53,88.39,13.34,39.43,7,78.24-3.02,117.47l5.41-6.07c56.99-81.31,75.69-180.53,8.99-262.7-10.33-12.73-44.99-27.76-61.13-29.81-30.93-3.93-57.38,8.42-84.86,20.56-29.62,13.09-54.92,38.47-89.94,18.34-7.16-4.11-28.23-20.66-31.33-27.63-15.49-34.84,10.85-86.47,13.06-123.92,2.23-37.77-15.31-63.15-28.51-96.51-2.5-6.32-3.52-13.49-6.34-19.65-2.47-5.39-6.23-8.41-8.71-13.28-1.89-3.71-4.33-15.01-7.46-16.52-2.67-1.29-6.83.62-5.99-4.5,13.93-4.33,15.69,9.86,20.79,18.68,8.76,15.17,10.39,21.35,16.72,37.25,11.12,27.92,29.05,57.57,27.49,88.53-1.39,27.61-10.1,50.96-15.73,77.22-2.72,12.67-4.96,44.26,4.16,54.22,2.44,2.67,14.04,11.67,17.62,14.36,34.67,26.13,57.88,2.01,88.5-12.27,7.56-3.52,15.67-5.56,23.32-8.66,7.57-3.07,14.72-7.77,22.79-10.19,32.49-9.78,71.52-.59,99.07,18.29,13.16,9.02,32.29,37.86,39.24,52.71,31.82,67.98,15.89,140.38-18.99,203.25-13.13,23.66-32.25,42.99-45.12,66.81-2.93,1.26-6.47.78-6.02-2.93,21.06-44.34,34.94-98.85,20.25-147.27-12.32-40.62-46.77-96.22-90.2-107.69-25.91-6.84-72.61.19-96.07,13.86-11.86,6.91-31.87,24.63-38.36,36.59-11.99,22.08-20.19,50.45-29.98,73.97-22.04,52.96-52.39,94.62-97.95,129.92-29.87,23.15-65.59,52.89-98.73,70.17-36.15,18.86-72.56,37.7-106.69,60.21-12.45,8.21-16.73,10.32-27.93,21.04-33.22,31.81-60.17,64.06-55.81,113.84,1.99,22.74,18.38,46.08,34.83,61.11,39.5,36.11,85.47,51.53,121.45,95.43,7.75,9.46,16.59,23.05,24.45,33.52,6.64,8.85,9.68,18.65,15.21,27.77,2.15,3.55,9.15,8.76,5.36,11.78-2.62,2.2-5.09-.52-7.28-1.87-15.76-9.69-26.68-22.7-40.34-33.62-20.26-16.21-50.98-28.27-74.23-39.71-10.57-5.2-20.91-11.76-31.24-16.73-15.36-7.38-33.66-11.63-48.37-19.59-17.92-9.69-46.53-30.53-61.47-44.47-32.31-30.15-59.65-96.29-54.43-140.45,7.81-66.09,65.87-143.27,113.02-187.81,24.91-23.53,56.87-33.83,85.86-49.06,9.37-4.92,17.58-11.94,26.65-17.32,13.22-7.85,26.31-12.71,38.75-22.21,32.28-24.64,48.51-41.85,72.66-74.25,43.34-58.15,77.48-132.37,89.47-204.37,6.95-41.75,14.23-93.75,8.16-135.51-3.23-22.19-13.6-43.17-24.36-62.58-8.73,11.83-16.07,26.28-25.51,37.43-26.39,31.14-68.27,59.15-106.38,73.51-44.47,16.76-95.94,33.17-143.97,31.01-2.18-.1-12.35-1.06-13.43-1.56-8.8-4.06,11.56-7.45,13.76-8.2,41.57-14.21,83.04-47.64,116.13-75.76,29.14-24.77,63.4-52.08,54.71-95.66-3.65-18.27-35.71-46.3-52.01-54.93-51.91-27.49-126.62,5.68-169.47,37.77-49.96,37.41-96.84,109.97-98.08,173.77-1.16,59.85,13.97,86.31,64.08,116.9,26.6,16.24,60.95,29.59,85.18,46.74,4.42,3.13,24.56,17.89,7.34,16.73-9.84-.66-24.73-5.83-35.42-7.63-34.16-5.75-65-8.1-96.82-24.11-11.66-5.86-22.34-13.95-33.63-20.33-12.38-7-21.22-9.4-33.12-18.85-27.89-22.13-53.84-53.11-56.53-90.39-3.13-43.39,3.19-85.29,16.76-126.25,13.99-42.25,35.34-77.18,65.74-109.16,26.6-27.98,57.86-54.43,92.55-72.36,12.72-6.57,27.05-10.3,39.15-16.82,39.53-21.27,66.31-58.4,86.82-97.08,5.04-9.5,8.08-19.24,6.83-30.16-1.37-11.94-11.2-16.86-17.96-25.01-6.15-7.43-9.86-16.54-16.05-23.93-20.24-24.19-56.88-48.55-85.95-60.97-28.14-12.03-96.66-12.53-124.56.29-39.72,18.25-75.73,47.66-89.54,90.35-1.53,4.72-.34,14.13-7.12,11.87-1.24-.96-.62-4.88-.47-6.47,3.24-32.95,16.9-98.43,33.68-126.22,6.46-10.7,30.98-35.3,41.41-42.54,30.74-21.35,91.01-36.54,128.13-34.74,25.8,1.25,42.72,8.79,66.47,15.48,22.08,6.22,46.21,11.05,67.72,18.23,26.68,8.91,36.62,21.64,68.73,19.3,14.97-1.09,46.1-16.07,48.34-32.61.73-5.39-.46-10.82,1.58-16.42.99-2.72,3.66-4.46,4.46-1.39.42,1.61-1.64,5.75-1.84,8.01-1.04,11.9.52,16.81-8.56,26.42-14.35,15.19-40.54,22.86-60.99,20.94-19.8-1.86-32.62-12.53-49.69-18.27-17.5-5.88-38.86-8.99-57.17-13.79-24.12-6.33-49.06-16.58-73.99-17.95-56.99-3.13-128.89,21.39-165.41,66.53-14.95,18.47-28.5,72.34-31.52,96.42-.13,1.06-1.4,3.22.51,3,5.16-10.31,13.66-21.51,21.48-29.99,12.05-13.07,52.33-38.56,69.2-44.74,25.92-9.49,82.4-8.65,109.21-1.74,16.39,4.23,47.02,23,62.62,32.32,11.31,6.76,26.65,22.23,35.83,32.13,7.61,8.21,11.6,19.67,19.04,27.94,6.36,7.06,12.92,9.99,16.61,20.37,7.91,22.26-6.56,39.86-16.72,57.61-21.43,37.42-47.13,67.98-87.41,86.49-42.05,19.32-70.58,39.1-104.93,69.97-62.81,56.44-100.73,158.79-94.92,242.88,2.65,38.39,25.41,65.91,54.48,88.44,9.94,7.7,18.76,10.01,29.12,15.85,11.34,6.39,22.01,14.42,33.63,20.33,37.03,18.83,79.13,22.54,119.59,28.8-13.22-11.82-31.54-17.05-46.99-25.46-27.53-14.99-72.9-40.76-90.15-66.76-20.29-30.58-20.84-81.91-13.45-116.86,9.29-43.98,49.61-106.39,85.32-133.56,68.95-52.46,167.51-88.2,231.68-8.19,33.7,42.02,1.11,82.83-30.48,112.47-37.49,35.17-78.78,63.9-125.55,85.33-1.4.64-2.81,1.14-4.38,1.13-.24,1.74,2.27.94,3.48.99,45.81,1.78,98.57-15.75,140.67-33.23,34.27-14.23,73.63-40.96,98.2-68.7,4.67-5.27,22.63-29.74,24.7-35.27s-1.61-8.2,6.26-9.73c10.55-11.86,20.47-31.84,33.8-40.16,28.78-17.95,67.59-17.31,96.3.02,10.59,6.4,40.14,34.65,47.11,44.84,34.26,50.1,51.17,123.54,37.49,183.04-1.52,6.63-5.07,13.61-4.83,20.16,11.51-12.9,25.6-23,37.51-35.45,51.15-53.47,91.87-141.74,86.96-216.96-2.6-39.81-23.07-65.02-55.7-85.22-23.09-14.3-33.76-20.56-51.79-42.16-28.65-34.32-9.73-87.64,6.33-123.62,37.28-83.51,102.35-139.34,177.75-187.04,35.57-22.5,78.72-29.05,118.23-41.67,1.97-.63,8.51-2.28,8.93-4.1-1.62-5.12-7.24-9.51-11.94-11.88-43.64-21.94-113.52-16.21-157.09,3.77-42.39,19.43-78.24,45.91-114.82,74.07-32.46,24.99-62.98,52.58-107.38,50.62-37.05-1.63-43.61-27.45-53.68-57.25-13.31-39.38-17.7-74.37-38.19-111.73-36.79-67.06-88.23-102.39-165.92-106.92-32.7-1.9-65.38,5.69-97.42,11-.25,1.37,1.79,1.51,2.75,1.72,3.85.82,8.49.83,12.44,1.56,40.59,7.47,102.82,32.27,138.37,53.51,7.21,4.31,25.24,22.64,30.3,29.66s5.89,15.69.53,22.51c-2.95,3.75-15.73,13.59-20.18,16.8-13.52,9.75-29.14,16.53-42.79,26.15l-1.38-3.87c4.62-2.76,8.23-6.73,12.73-9.75,14.42-9.7,33.36-18.58,45.6-31.35,4.93-5.15,4.36-11.04.74-16.73-2.51-3.95-5.72-5-8.23-7.76-6.3-6.93-11.17-14.66-19.32-19.65-35.44-21.73-115.13-53.48-156.03-55.85-3.8-.22-19.97,1.1-21.27-.2-2.09-2.84-.8-4.43,1.84-6.16,11.21-7.36,67.6-15.47,83.51-17.42,40.62-4.97,98.68,2.43,133.56,25.01,33.58,21.74,59,51.85,77.81,87.1,19.18,35.93,23.06,70.59,35.54,108.38,11.04,33.44,16.74,57.85,58.72,55.2,47.46-3.01,78.1-43.04,113.52-69.37,8.43-6.27,18.13-10.5,26.63-16.35,6.87-4.72,12.59-10.61,19.74-15.24,46.47-30.1,101.2-45.54,156.96-42,14.09.89,55.65,11.88,64.94,22.01,18.1,19.73-17.66,21.8-30.27,25.74-29.74,9.31-67.89,23.03-93.51,40.41-50.57,34.32-94.95,67.09-132,116.86-29.33,39.4-82.54,122.27-56.74,171.51,3.85,7.34,23.83,28.75,30.69,34.27,10.21,8.22,24.22,13.57,35.35,21.62,71.29,51.59,55.21,136.02,25.58,207.27-24.05,57.82-57.8,91.66-103.4,132.46-3.64,3.26-9.31,6.06-12.54,9.45-8.34,8.74-17.91,32.75-32.81,31.69-2.36-.17-5.27-1.8-5.47-4.34-.22-2.67,10.34-8.46,12.86-10.79,4.09-3.79,8.09-9.33,12.44-13.54,3.38-3.27,8.62-5.77,11.35-9.64,5.66-8,11.4-34.75,12.15-44.82,5.49-74.1-18.81-154.65-78.46-201.36-26.25-20.56-65.13-22.16-94.08-6.19-15.5,8.55-26.15,29.05-37.3,42.65,8.01,16.58,17.79,33.17,23.01,50.94,15.19,51.75-.76,168.85-18.01,220.94-19.25,58.12-48.28,110.29-85.55,158.32-6.55,8.44-24.11,28.03-31.93,35.04-8.1,7.26-22.57,16.86-31.98,23.99-12.29,9.31-24.09,13.4-37.12,20.85-9.96,5.69-19.28,13.28-29.29,18.68-29.25,15.77-59.59,25.86-83.99,50.93-40.92,42.05-98.4,114.05-110.41,172.43-8.09,39.34,11.4,89.95,33.68,122.26,14.53,21.06,53.69,49.11,76.45,61.47,12.99,7.06,29.25,10.84,42.95,17.01,33.54,15.09,77.94,37.25,107.98,57.92,10.9,7.5,18.28,19.53,30.25,25.21Z"/>
      <path class="cls-1" d="M524.74,408.2c1.66,1.12.93,11.4,1.1,13.9,3.39-2.34,3.88-5.78,8.25-7.22,7.84-2.59,15.17.55,16.5,8.97,1.15,7.29-3.54,7.24-4.61,10.98-.55,1.92,1.05,11.05.87,14.8-.48,10.26-6.78,34.36-15.7,40.27-6.31,4.18-6.8-.06-8.71.24s-3.42,7.26-9.04,6.92c-9.5-.58-4.12-16.19-4.77-21.25-.49-3.79-4.76-11.9-5.6-15.42-1.18-4.99,1.28-9.03,3.26-13.32,3.07-6.63,2.96-8.24,5.04-14.95,1.33-4.28,6.43-21.92,9.48-23.5.95-.49,3.13-.93,3.91-.4ZM532.83,448.08c-3.02-8.1,12.56-16.15,12.97-22.56.44-6.76-7.91-8.58-12.41-4.36-2.46,2.31-7.26,15.29-11.34,7.2l-2.21-8.26c-.96,6.16-5.07,12.66-5.81,18.77-.28,2.27.95,4.03.43,6.27-.47,2.05-9.16,8.57-6.5,13.81l3.96,1.75c-3.15,5.87,1.87,11.26,1.95,15.83.04,2.29-2.3,13.24-1.03,14.52,6.34,1.7,6.88-16.87,12.89-12.89l2.58,7.89c3.45-3.46,10.7-16.19,10.44-20.51-.09-1.44-1.7-2.54-1.94-4.05-.85-5.19,4.34-6.56,4.99-9.94.59-3.09-.35-7.21.01-10.47-2.87,2.29-4.43,7.47-8.98,6.99Z"/>
      <path class="cls-1" d="M531.84,358.13c-2.63-1.7-.56-10.5,4.46-9.99,3.22.65-1.07,12.19-4.46,9.99Z"/>
      <path class="cls-1" d="M557.8,545.03l-8.3-.18c-2.98-.97-1.65-4.14.33-5.35,2.45-.81,9.96,2.46,7.97,5.53Z"/>
      <path class="cls-1" d="M467.29,421.72c.77,1.31,4.16,2.59-.72,4.23-7.46-2-10.1-5.55-1.23-7.85.96.24,1.34,2.58,1.96,3.61Z"/>
      <path class="cls-1" d="M598.78,494.07l-.97,4.53c-13.9,4.61-9.87-6.16.97-4.53Z"/>
      <path class="cls-1" d="M471.86,496.06c-1.52,1.19-11.71-4.78-6.47-8,2.77.1,9.3,5.79,6.47,8Z"/>
      <path class="cls-1" d="M511.14,531.79c.88.57,2.55.12,2.69.26,3.81,3.98-12.29,7.53-5.48-3,1.97-.39,1.84,2.12,2.79,2.74Z"/>
      <path class="cls-1" d="M601.77,439.1c.49,2.59-.57,9.04-4.48,7.98s1.27-9.68,4.48-7.98Z"/>
      <path class="cls-1" d="M502.84,378.13c.54,4.48-4.38,6.38-7.98,5.99-.54-4.48,4.38-6.38,7.98-5.99Z"/>
      <path class="cls-1" d="M586.46,388.27c.59-.15,1.19-.32,1.81-.16l1.51,2.48-5.48,4.51c-3.32-1.79-.17-6.23,2.16-6.83Z"/>
      <path class="cls-1" d="M561.81,353.14l4.56.93c3.41,4.82-6.25,8.68-4.56-.93Z"/>
      <path class="cls-1" d="M458.54,467.23c.59-.16,1.2-.31,1.81-.15l1.51,2.48-4.51,3.25-2.47-2.24c1.09-.9,2.34-3,3.65-3.35Z"/>
    </g>
  </g>
</svg>