<?xml version="1.0" encoding="UTF-8"?>
<svg id="Calque_2" data-name="Calque 2" xmlns="http://www.w3.org/2000/svg" viewBox="0 0 1234.04 1381.15">
  <g id="Illu_Vectorisée_BLACK_" data-name="Illu Vectorisée (BLACK)">
    <g id="Island">
      <g id="island">
        <path d="M378.04,557.55c.09.17,1.53.17,1.69.9,1.06,4.86-2.75,8.73-2.99,13.32l5.97-.55c6.29,4.77-1.41,11.41-1.82,14.23-.2,1.37,2.8,3.06,1.37,8.35-3.87,14.32-30.79,25.33-43.18,30.77-3.8,1.67-7.48,4.57-11.02,5.97-5.31,2.1-11.66,2.42-16.96,5.03-5.36,2.64-9.75,8.47-15,11.99-6.82,4.57-12.76,7.28-21.3,6.19l9.99,40.97c1.17,1.31,7.2-5.97,8.51-6.97,9.28-7.03,52.68-25.77,63.93-27.01,14.44-1.6,25.73,4.62,38.17,10.81,18.16,9.02,22.07,13.08,35.77,27.19,15.53,15.99,30.31,29.37,34.22,52.73.99,5.91.47,12.44,1.32,17.67.38,2.33,5.36,9.88-3.33,7.35-5.96-1.73-4.86-19.83-6.17-25.84-3.96-18.21-25.04-40.52-37.97-53.97-9.11-9.48-30.82-21.6-43.29-26.67-13.87-5.64-28.04.01-41.17,5.26-38.77,15.49-64.23,32.69-76.25,74.66-3.04,10.63-6.43,24.19-1.47,34.48,3.33,2.72,13.51-1.21,17.3-1.65,3.28-.38,6.63.23,9.9-.1,52.18-5.21,102.98-15.41,155.96-12.02,3.75.24,13.06,1.24,15.82,3.16,5.84,4.06-1.11,6.49-1.39,7.59-.37,1.48-.19,12.34.47,13.32,14.38,6.22,33.19,5.73,38.66,23.3,1.97,6.34,2.8,14.04,3.86,20.63,1.29,1.58,14.17-13.03,14.84-15.73.88-3.56-5.5-5.5-7.32-8.29-8.08-12.37,12.54-20.57,22.51-18.51,2.66.55,12.54,4.69,14.7,6.28,6.52,4.83,12.85,17.52,5.75,24.28-5.98,5.7-15.47,3.36-21.26,5.73-2.97,1.21-7.71,7.83-10.77,10.22-4.43,3.47-10.65,5.39-14.32,9.67-5.91,6.9-3.35,11.76-4.41,19.58-.89,6.6-5.3,22.87-8.25,28.72s-5.77,8.16-12.52,9.68c-.48,1.06-.23,15.34.06,16.81.5,2.5,3.94,3.95,3.03,7.46,21.19-2.59,12.03,10.8,10.96,23.55-2.58,30.85-1.5,62.01-4.02,92.92-1.52,18.65-4.69,37.27-7.16,55.81-4.45,5.84-9.65,4.65-15.24,5.75-9.69,1.89-19.49,4.69-29.56,3.93l-.99-7.99c3.09-.23,6.41.33,9.47-.02,6.79-.77,18.48-2.47,24.95-4.03,1.03-.25,6.43-3.11,6.57-3.64l10.97-158.21-216.86,11.98c-1.23,6.52,1.35,12.65,1.88,18.62,2.09,23.6,2.75,43.42,7.01,66.94,3.64,20.09,8.12,41.43,9.14,61.82.18,3.64.53,19.33-.54,21.53-.7,1.44-2.4,2.17-3.97,2.07-3.03-.28-4.13-6.2-4.41-8.67-.32-2.76.07-21.2-2.6-21.35-17.34,8.1-33.27,18.63-49.81,28.13-40.77,23.41-75.47,47.33-111.61,77.27-6.08,5.04-11.41,12.27-17.5,17.48-7.4,6.33-16.03,11.17-23.47,17.5-24.62,20.97-67.82,62.91-63.95,97.96,1.54,13.94,17.15,26.83,28.66,33.3,15.81,8.88,49.47,6.24,66.07-.54,4.58-1.87,8.01-5.61,12.52-7.47,6.47-2.67,14.2-2.85,20.67-6.82-2.53-1.53-4.84-9.01-1.49-9.97s3.11,3.02,4.05,3.06c1,.04,15.05-6.46,18.65-7.35,21.32-5.28,60.17.58,83.24,1.27,11.76.35,22.43-2.39,33.93-3.03,14.64-.81,29.18.88,43.9-1.07,14.01-1.86,26.59-4.28,41.08-5.89,70.79-7.84,143.64-10.95,214.91-12.94,57.96-1.62,112.12.59,169.84,5.97,14.45,1.34,28.64,5.5,43,6.97,52.23,5.36,104.73-1.38,156.92-.02,40.13,1.04,79.68.59,119.84,0,35.76-.52,68.76,4.7,101.85-12.07,17.32-8.77,24.8-23.87,22.61-43.36-1-8.91-23.71-38.2-30.97-44.99-29.85-27.91-58.09-42.83-91.87-64.03-11.69-7.33-21.58-17.54-32.73-25.24-7.7-5.32-16.34-8.82-24.24-13.74-11.54-7.19-23.3-16.24-34.98-23.99-7.3-4.84-14.36-10.61-22.07-14.43l5.02-8.98c12.02,9.52,25.6,16.65,38.29,25.15,6.37,4.27,11.88,9.94,18.74,14.24,7.86,4.93,16.51,8.41,24.24,13.74,11.15,7.7,21.04,17.9,32.73,25.24,43.82,27.5,97.55,56.17,122.65,104.21,10.79,20.66,1.38,48.83-17.88,60.69-35.32,21.76-71.01,15.95-110.39,16.53-40.83.6-81.03,1.12-121.84,0-45.78-1.26-91.51,3.14-137.99,1.08-20.78-.92-39.67-6.05-59.92-8.03-106.06-10.35-208.73-6.28-314.8-.02-28.13,1.66-58.04,2.48-85.92,6.02-11.75,1.49-23.05,5.31-34.95,6.02-27.65,1.65-57.37,1.49-84.95.92-16.09-.34-32.01.76-47.97-1.96-8.72,5.99-13.44,15.31-25.14,16.88-10.09,1.36-22.77,3.9-32.36,7.62-4.11,1.59-7.76,5.59-12.47,7.51-18.79,7.69-55.42,10.21-73.4.39-75.43-41.21-7.9-111.15,33.89-146.85,16.98-14.5,35.1-28.5,52.46-42.48,8.25-6.64,15.01-15.22,23.59-21.38,32.01-22.95,65.89-43.38,100.17-62.73,10.05-5.67,20.95-10.34,30.49-16.48,2.29-9.69-2.77-17.51-4.54-26.12-5.96-28.93-6.54-55.61-9.3-84.64-.82-8.66-4.18-14.19-1.74-23.75,1.99-7.8,7.01-5.48,13.75-5.74,1.3-5.22-2.54-8.48-3.74-12.76-.97-3.47-.5-14.63-3.99-15.22-2.35-.4-4.4.95-6.66.9-2.11-.05-18.12-9.17-20.11-10.87-6.21-5.32-15.87-35.93-16.5-44.47-1-13.69,3.28-29.44,11.62-40.43,8.34-10.99,20.7-12.76,32.36-18.64l-3.42-11.48c-.99-1.36-8.77-.55-11.78-7.21-7.33-16.28,7.2-58.56,18.25-72.16,2.3-2.83,11.71-10.5,11.97-13.04-3.01-13.44-9.12-25.13-12.31-38.64-5.25-22.22-6.04-45.55-12.39-67.56-1.04-3.6-5.9-13.29-5.34-15.56,4.27-1.22,5.06-4.98,8.35-6.85,3.52-2.01,9.07-2.47,12.96-4.02,5.62-2.24,11.08-5.5,16.47-7.52,17.62-6.57,37.24-7.63,55.21-15.74,9.24-4.17,15.74-13.02,26.61-14.37,22.14-2.75,22.7,9.36,10.78,23.77-1.26,1.52-4.66,1.97-3.09,4.87ZM332.9,569.62l3.87-9.35-2.5-2.48-5.51,7.57c-7.36-2.26-11.04,1.76-17,3.92-2.48.9-5.2.84-7.99,2-5.18,2.16-11.31,10.64-13.72,11.33-2.96.85-6.99-2.04-9.32-.4-1.83,1.29-1.36,5.57,1.31,5.36l7.6-.66c1.33,12.48,7.85,19.18,20.92,18.07,4.72,4.73,2.8,12.13,10.65,11.81,6.61-.27,9.8-3.98,14.5-5.57,3.45-1.17,9.2.19,10.64-4.43.98-3.15-6.01-13.68-8.55-16.52,3.84-6.54,13.44.05,19.45,1.2l2.47-2.2c-1.29-4.48-16.01-5.54-16.86-6.61-.38-.48.17-3.28-1.05-5.45-1.11-1.97-6.58-6.41-8.91-7.59ZM297.38,604.84c-2.56.83-.69,3.77-1.34,5.63-.41,1.18-6.02,7.36-1.73,8.28,3.38.73,12.34-16.93,3.08-13.91ZM451.68,792.64c-2.76-10.88,1.59-13.98-11.45-15.02-24.88-1.98-58.05-.73-82.86,2.16-14.62,1.7-32.2,6.81-46.11,7.85-9.67.72-17.18-.19-27.98,1.01-4.65.52-9.04-.26-13.96,1.04-1.38.36-1.55-.88-1.55,1.48,0,2.54,1.24,10.49,3.7,11.33,4.53,1.54,17.15-2.39,22.84-2.82,14.73-1.1,26.88-.82,41.84-3.13,31.54-4.88,62.24-11.61,94.93-7.75,6.99.83,13.66,2.98,20.61,3.86ZM285.79,913.58c4.1-.65,7.53,2.07,11.49,2.08,10.56.03,26.08-1.28,36.96-2.09,26.76-1.99,52.21-8.95,78.92-10.02,11.97-.48,24.09.58,36.06.08,4.77-.2,11.5-2.22,15.97-2.15,3.16.05,4.41,1.96,6.95,2.2,9.83.93,11.93-7.46,14.04-15.04,3.92-14.09,4.65-33.86,3.45-48.49-.32-3.88-3.05-18.37-4.53-21.45-.9-1.88-5.43-5.44-7.45-6.54-6.64-3.62-39.66-12.92-47.43-13.53-33.85-2.67-66.92,3.35-99.89,8.11-16.2,2.34-30.83,3.03-47.06,4.91-14.88,1.72-34.98,4.02-44.29,17.67-13.2,19.34-8.67,43.41-.21,63.84,3.88,9.38,11.7,9.89,18.76,16.3,9.48-1.28,18.63.13,28.25.14v4.01ZM519.37,799.89c-2.23.37-5.8,2-7.66,3.32-9.68,6.87-1.71,10.42,3.96,15.9,1.41,1.36,2.12,3.29,3.48,4.52,6.36,5.77,16.56,5.98,23.75,1.78,5.62-3.29,5.81-7.07,3.23-12.77-3.74-8.29-18.14-14.19-26.76-12.74ZM497.66,849.61c3.19.78,4.06-2.23,6.05-3.44,7.3-4.42,14.38-8.18,18.94-16.03l-8.01-4.1c-4.1,9.32-17.51,12.98-16.97,23.57ZM469.67,910.58c-2.91-.36-5.6.94-8.45,1.04-11.07.4-22-1.11-32.97-1.09-33.59.06-63.87,8.34-96.94,10.08-8.66.46-29.56,1.86-37.05.98-3.66-.43-6.82-2.92-10.85-2.92-2.4,0-5.71,1.7-8.61.89-1.17,6.59,1.66,11.25,3.36,17.14.74,2.57-.18,7.8,3.07,7.84,2.19.03,8.48-2.64,12.07-2.97,8.38-.76,17.58,1.42,24.93,1.04,7.15-.37,17.16-4.05,25.99-4.1,25.77-.16,48.46-1.61,73.99-2.94,17.79-.92,35.7-.52,53.45-2.01l-2-22.98ZM168.86,1343.34c-6.67-.32-13.85,2.04-19.94,4.53-1.19.49-4,1.03-4.03,2.45,6.75.61,12.26-.31,18.36-3.11,1.56-.72,4.83-2.33,5.61-3.87Z"/>
        <path d="M685.54,323.93c-.27,1.58,1.41,1.05,2.52,1.03,12.65-.2,27.22-4.18,38.47,4.43,5.76,4.41,10.25,15.79,17.56,16.5,6.06.58,13.94-5.1,19.98-5.89,11.68-1.53,20.71-1.62,18.4,12.91,17.49-2.2,34.29-7.6,51.02,1.44,1.83.99,13.54,9.34,7.42,10.55-.62.12-8.8-4.82-11.23-5.74-8.78-3.35-17.32-4.02-26.71-3.24-5.44.45-21.42,5.59-25.26,1.75l-1.23-11.76c-14.6-3.38-27.55,12.35-41,2.53-7.08-5.17-8.77-13.95-18.14-16.84-13.3-4.1-47.38.51-60.47,6.12-4.28,1.84-15.94,9.96-19.63,9.91-2.97-.04-3.71-3.28-2.45-5.52.37-.66,9.7-5.12,11.73-6.75,1.3-1.04,1.8-1.75-.45-1.46-14.01,1.77-31.74,13.29-44.8,19.17-23.97,10.8-37.41,16.89-59.72,31.22-6.55,4.21-14.82,7.45-20.82,12.16-4.78,3.77-9.39,7.3-1.32,10.14,21.5,7.58,56.38-.93,79.64-1.78,14.52-.53,61.27,2.31,72.85,9.18,3.26,1.93,5.18,6.4,8.92,7.63,10.08.14,17.81-17.67,27.06-20.62,6.63,1.24-1.39,11.46-3.81,13.89-5.82,5.85-22.93,12.5-1.09,13.99,20.58,1.4,42.89-2.63,63.99-1.03,11.06.84,41.73,9.05,50.41,15.54,3.57,2.67,14.22,15.57,17.04,16.94,2.28,1.11,5.07.1,7.42.57,6.06,1.21,16.68,9.08,21.88,13.09,3.55,2.74,11.58,8.83,13.78,12.31.59.93.35,3.12-.1,3.5-1.58,1.3-29.52-20.91-33.72-22.74-6.49-1.75-6.98,2.49-9.72,2.72l-5.97-3.49c-9.38-.85-25.34,5.57-33.06-.46-3.16-2.46-3.89-8.69-6.96-9.05-4.47-.53-18.81,6.29-25.1,6.92-6.69.66-14.4-1.46-21.86-.87-13.11,1.04-39.38,11.34-52.46,16.49s-26.52,12.22-39.98,17.52c3,7.27-4.71,15.09-10.09,19.36s-19.1,13.29-21.39,2.59c-6.98,5.33-15.68,9.93-22.04,15.94-25.73,24.32-47.15,54.21-62.79,86.12-7.36,15.01-11.91,34.59-17.34,50.62-3.26,9.62-8.54,19.22-10.78,29.2-.74,3.31-3.42,16.36,3.51,14.6,7.75-1.97,22.35-14.78,28.51-20.56,20.11-18.84,40.55-37.38,60.95-55.97,8.51-7.76,16.9-21.5,25.41-27.55,3.28-2.33,6.53-2.27,10.06-4.93,2.53-1.91,13.67-16.89,11.97-18.51l-4.04-.45c-3.12-2.09,3.49-11.98,5.5-13.57,2.26-1.79,5.67-1.58,8.22-2.78,12.9-6.07,30.78-19.36,43.19-27.77,3.23-2.19,11.68-11.5,15.15-8.98,3.76,2.74-3.49,11.36-5.11,14.02-.47.77-1.98,1.76-.46,2.54,16.37-5.93,35.02-13.03,52.27-15.69,9.12-1.41,18.34-1.12,27.41-2.57,8.1-1.29,16.21-5.49,23.52-6.46,3.91-.52,8.28.34,11.69-.3,2.22-.42,3.44-2.47,6.09-2.91,8.3-1.37,25.05.07,33.21,2.67,5.26,1.68,9.42,5.41,13.92,7.07,6.26,2.31,11.4.89,17.3,5.68,2.55,2.07,7.81,9.04,1.65,7.36-1.32-.36-3.47-3.51-6.37-4.64-4.17-1.63-9.01-1.36-13.28-2.71-4.53-1.44-8.67-5.28-13.01-6.98-9.48-3.71-16.43-3.02-25.56-1.59-8.43,1.32-16.88,1.16-25.4,1.09l.58,4c-10.06,6.31-19.69,13.64-29.02,21.02-6.32,4.99-13.57,13.27-19.59,17.38-7.27,4.96-19.02,9.35-27.23,14.75-13.51,8.89-20.78,18.75-31.67,30.3l7.05-.07c1.65,1.17.86,3.94.5,5.62-3.12,14.45-16.44,33.26-22.72,47.24-5.36,11.92-8.29,24.11-12.8,36.17-12.71,33.96-26.84,67.69-33.99,103.42.84,1.09,20.26-14.84,21.99-16.48,14.33-13.57,33.85-33.99,44.79-50.15,5.25-7.76,8.64-16.49,13.74-24.24,4.06-6.16,9.5-11.25,13.63-17.35,3.19-4.7,5.09-10.29,7.76-14.22,5.97-8.8,19.88-13.73,23.99-24.47l-5.1-.61c-.86-1.14-.12-8.28.32-9.68s11.84-12.66,14.19-15.79c1.35-1.8,9.59-13.83,8.58-14.89-13.2-2.62,6.1-10.58,10.71-13.78,21.9-15.22,38.85-28.08,64.99-36.95,3.22-1.09,10.72-4.97,11.23.73l-15.82,6.18.34,4.84c3.91.41,28.67-6.1,31.47-8.55,1.08-.95.7-2.84,1.64-3.55,1.66-1.25,20.36-1.45,24.73-2.03,9.1-1.21,14.87-7.03,22.11,3.1,5.79-2.97,1.02-15.1,8.15-15.76,5.79-.53,5.86,10.78,7.84,10.76,7.88-4.47,5.5-17.52,14.25-19.74,2.68-.68,7.78,1.61,10.75,1.77,13.99.75,24.99-1.1,38.15,5.82,9.87,5.18,21.22,16.89,30.76,22.21,5.49,3.06,12.19,4.08,17.44,8.54,2.43,2.06,5.08,7.33,6.08,7.91,1.61.93,4.09.28,6.04.96,8.82,3.06,13.21,14.39,19.05,19.92,3.59,3.41,8.22,3.89,11.41,7.58,3.92,4.54,7.08,13.94,12.4,17.58,6.39,4.37,10.77.39,17.24,10.74,2.24,3.57,3.89,11.95,5.33,13.66,1.03,1.22,3.59,1.32,5.49,3.5,6.51,7.47,9.65,24.21,13.48,33.49,1.97,4.76,5.45,9.27,7.26,13.73,2.81,6.88,3.28,14.59,6.68,21.3,3.36,6.62,10.31,12.52,13.05,19.93.97,1.2.98,1.26,1.98.02,1.19-1.47,5.33-16.87,6.03-19.96,7.68-33.93,11.95-71.79,1.72-105.73-2.37-7.86-6.82-13.95-9.74-21.25-2.55-6.36-3.62-13.49-6.34-19.65-2.87-6.5-16.76-27.03-21.65-32.31-5.7-6.15-34.69-25.77-42.81-30.14-12.42-6.69-28.97-11.51-42.32-17.64-8.06-3.71-15.45-8.91-23.63-12.34-15.56-6.52-49.5-12.84-66.17-11.86-4.24.25-19.57,2.53-22.17,5.3-1.34,1.43-.19,7.1-4.31,4.23-.66-.46-.63-2.47-1.55-2.56-6.11-.56-14.05,10-18.49,13.47-8.16,6.38-18.01,10.32-23.66,19.28-1.78,2.83-4.37,1.25-3.84-1.75,1.66-9.36,16.96-16.4,24.07-21.97,3.93-3.08,6.95-7.99,11.37-10.62,26.5-15.73,63.41-10.69,91.91-3.68,15.79,3.88,25.4,11.07,39.47,17.49,14.12,6.44,31.96,11.59,44.95,19.01,27.31,15.59,49.09,32.81,63.51,61.41,4.91,9.74,11.33,27.45,15.62,38.35,14.25,36.2,8.15,98.43-5.21,134.68-1.52,4.12-3.19,11.15-8.73,10.28-3.08-.48-8.62-14.07-10.69-17.38-2.47-3.95-6.82-7.5-9.01-11.98-2.95-6.03-3.49-13.6-6.06-19.93-2.38-5.86-6.02-11.09-8.5-17.48-2.16-5.58-3.8-11.45-5.26-17.24-9.98,3.92-8.87-6.47-10.93-12.54-1.83-5.38-7.15-21.65-12.74-23.24-2.65-.75-4.86.55-7.85-1.14-6.5-3.68-10.78-15.93-15.43-20.55-2.17-2.16-5.7-3.19-8.52-5.47-6.43-5.19-11.28-17.14-18.42-19.55-2.43-.82-4.86-.13-7.43-1.57-4.31-2.41-6.13-9.65-15.88-14.1-9.49-4.33-16.94-9.14-25.63-15.34-8.58-6.11-12.02-11.6-23.8-14.18-5-1.09-23.54-4-27.92-4-1.42,0-3.19,2.04-5.33,1.24l-.93,1.11c-.35,1.47.86,3.2.41,4.45-.25.7-8.9,10.82-9.53,11.36-4.09,3.46-9,3.71-11.41-1.4-1.32,2.56-5.6,6.86-5.5,9.36.09,2.14,1.8,4.88,2.04,8.07.99,12.97-2.41,25.97.97,38.53l2.98-1.01c-.01,4.95.34,10.49,1.13,15.37,3.02,18.59,4.57,39.93,4.92,59.05.33,18.3-4.63,34.66-4.03,52,.47,13.54,2.95,28.31,3.03,41.93.43,76.65-4.24,153.08-4.08,229.96.05,23.39,2.69,47.34-4.68,70.19-5.63,17.42-15.31,35.99-26.79,50.19-7.86-2.83,3.8-14.13,6.33-18.68,29.52-52.92,18.1-107.2,19.23-165.67,1.23-63.73,5.62-124.74,1.92-188.89-.28-4.94.44-9.96-.09-14.9-.49-1.44-8.83-4.08-10.36-6.63-1.16-1.94-.09-4.34-.52-6.32-.18-.85-2.14-.31-2.09-2.13.07-2.76,3.09-6.64,6.1-5.08,5.13,2.66-1.58,8.75.13,11.42l5.86,2.12c-.99-6.12,1.05-12.7,1.06-18.45,0-3.98-1.1-7.34-1.11-10.98-.03-17.05,3.6-63.91-3.52-77.43-.73-1.39-2.57-2.27-3.31-3.69-2.3-4.39-.75-12.57-1.13-17.86-.92-12.84-2.66-25.69-3.42-38.56-1.06-1.47-4.55-.56-6.55-1.44-2.47-1.09-3.91-6.28-9.01-4.49v4c-5.69-2.56-12.11-4.19-18.47-2.98-2.06.39-3.83,2.82-6.14,3.86-4.23,1.9-9.4,3.88-13.86,5.13-3.7,1.04-21.04,3.51-21.5,4.71-1.76,9.48-2.29,20.16-4.27,29.48-2.15,10.12-7.2,19.74-7.8,30.16l3.93,2.24c3.34,14.26,5.34,28.94,8.82,43.15,5.66,23.12,13.75,45.71,16.3,69.65,1.9,17.89.36,36.04,2.02,53.95,1.26,13.68,5.21,27.26,6.03,40.94,1.91,31.9-2.14,70.99-13,101.02-2.84,7.86-7.33,14.02-10.51,21.47-11.09,25.91-14.83,53.86-34.47,75.47-9.02,9.93-19.76,16.97-28.52,27.44-4.21,5.03-8.28,10.06-11.1,15.94l-5.24-1.07.81-5.42c5.79-5.3,9.76-12.2,15.02-17.96,7.63-8.36,17.02-14.98,24.52-23.45,17.97-20.26,21.89-48.47,31.98-72.96,11.33-27.48,20.75-47.39,22.51-78.43,1.88-33.08-5.02-59.4-7.03-91-.48-7.62.47-15.4.03-23.02-2.19-38.45-12.4-74.79-22.08-111.84-3.4-13-9.2-19.49-6.48-33.57,1.45-7.5,4.74-15.08,6.24-22.75,2.14-10.99,2.96-23.02,4.29-34.19-20.24,1.11-35.11,18.02-50.64,28.81-1.2.83-5,2.07-5.16,2.33-.56.94.06,3.93-.62,5.88-3.93,11.28-15.21,24.03-23.51,32.46-1.13,2.71,5.01.48,6.34,3.74,1.86,4.58-4.24,11.86-7.32,15.26-5.23,5.76-14.26,10.65-18.45,16.53-3.69,5.18-6.65,12.42-10.72,18.26-25.1,35.95-51.63,80.67-89.46,105.42-5.56,3.64-14.98,11.01-16.37-.27,9.21-37.5,23.29-73.21,36.8-109.22,4.77-12.7,7.64-24.94,13.37-37.6,3.74-8.26,9.29-16.31,12.7-24.27.88-2.05,2.84-5.45,1.65-7.34-2.98,2.54-9.56,7.98-13.04,4.06-5.19-10.4,5.92-17.82,12.06-24.02,8.3-8.38,17.24-19.8,25.99-26.98,11.52-9.46,25.69-13.71,36.96-21,4.3-2.78,10.94-10.84,15.47-14.52,7.25-5.88,15.63-10.73,22-17.47-13.73,3.42-27.97,2.84-41.79,5.67-9.18,1.88-20.73,5.32-29.68,8.29-5.79,1.92-21.34,9.86-25.93,9.05-4.22-.74-3.26-5.28-1.53-8.02-17.2,6.89-29.29,22.75-47.48,27.97-1.12,1.55,2.18,1.28,3.04,2.99.72,1.42.62,2.79.3,4.29-.53,2.46-10.13,17.16-12.3,19.73-6.97,8.26-15.01,9.2-23.01,17.96-6.69,7.33-12,14.42-19.46,21.52-20.48,19.47-41.61,38.38-62.45,57.48-5.77,5.29-21.48,18.69-29.03,19.03-13.97.63-9.96-18.75-7.74-26.82,9.27-33.68,26.39-77.71,44.43-107.48,39.24-64.76,107.36-105.43,178.67-127.14,16.94-5.16,26.19-.83,40.4-2.57,8.14-1,23.95-11.47,31.26-4.6,2.32,2.18,2.81,8.31,6.21,9.26,3.58.99,23.31,1.21,24.94-1.69l-.34-2.9c-6.28-4.22-9.14-9.42-16.16-12.82-27.41-13.29-57.16-11.48-86.84-11.18-8.98.09-21.96,3.06-30.71-1.18-2.87-1.39-3.8-5.13-5.4-5.66-2.4-.79-4.48,1.25-8.01.15-4.13-1.29-4.78-5-7.8-7.27-11.14-8.35-66.71-8.79-82-8.03-22.88,1.14-48.15,8.25-70.63.76-10.47-3.49-11.49-10.82-3.79-18.22,11.83-11.36,37.3-20.83,50.62-32.33,28.22-11.16,53.72-25.73,82.54-35.39,7.85-2.63,32.75-11.53,39.29-11.76,7.45-.26,5.13,7.89-.54,9.04Z"/>
        <path d="M1234.04,380.01l-1.45,4.79c-34.36,14.04-66.71,32.24-100.57,47.41-1.66.74-4.22.69-5.53-.6-2.34-2.29,1.39-6.31-1.75-5.76-9.52,1.68-19.77,9.35-30.77,6.8-2.69-.62-4.13-3.64-6.15-3.74-2.54-.13-8.27,3.37-11.31,3.77-2.34.31-4.19-.75-5.59-.54s-7.55,5.56-9.97,6.88c-6.09,3.33-18.07,8.15-19.75-2.06-1.71-1.51-24.7,10.76-29.25,11.03l-42.1,22.91c-3.55-.73-2.2-2.34-.51-4.56,8.62-11.32,42.7-24.85,56.63-30.32,5.8-2.28,10.56-7.11,17.62-4.97,3.45,1.04,2.48,5.82,5.08,5.78,8.67-.13,14.54-9.51,20.3-10.76,2.76-.6,5.69.11,8.55-.44,4.94-.97,10.41-5.78,15.13-2.66,1.4.93,1.83,3.28,3.27,3.77,3.53,1.22,21.7-4.85,25.98-6.71,6.15-2.66,11.43-7,17.84-9.14l3.52,3.53-2.05,5.43,80.92-38.47c-12.35-8.6-20.2-18.24-36.42-19.52-79.57-6.29-175.86,9.98-239.28,60.6-4.11,3.28-12.33,9.8-15.1,13.88-2.26,3.34-3.24,8.47-5.47,12.52-7.31,13.28-8.61,16.05-13.25,30.72-3.24,10.24-7.68,20.25-8.26,31.22l-3.05-.45-.78-1.21c-.37-1.93-.27-3.88-.14-5.83.58-9.15,7.84-31.42,11.2-40.76,17.58-48.85,76.31-75.58,122.7-90.17,34.43-10.83,62.1-15.31,98.38-16.54,16.36-.55,47.46-1.9,62.36,1.69,15.83,3.82,23.9,17.14,38.99,22.46Z"/>
        <path d="M1134.97,211.24c.84.86,1.41,2.84,1.11,4.03-.64,2.56-12.1,13.66-14.82,16.22-25.37,23.85-49.61,53.02-71.36,80.55-7.17,9.08-4.96,9.19-15.14,15.84-5.36,3.5-15.63,12.34-20.71,14.27-2.78,1.05-5.32.48-8.1,1.89s-6.37,6.62-9.15,8.84c-5.09,4.08-11.87,7.41-16.47,11.51-7.13,6.37-13.49,18.03-20.44,25.54-3.51,3.79-8.72,7.03-12.5,11.48-6.74,7.94-11.93,18.26-18.53,26.45l-2.37-1.66c-1.49-4.79,9.76-20.27,13.06-24.64,6.05-8.01,11.98-11.79,18.32-18.66,7.14-7.73,13.45-19.11,20.44-26.53,2.25-2.38,8.05-3.18,11.93-6.06,4.12-3.05,9.29-10.69,13.5-12.49,3-1.28,5.38-.61,8.3-1.69,14.56-5.39,28.71-23.41,38.27-34.68,17.84-21.02,35.45-43.79,53.91-64.01,5.95-6.52,17.69-13.16,22.06-19.91.79-1.23,1.23-1.99.95-3.54-7.09-1.84-9.42,2.01-14.46,4.02-21.83,8.69-46.68,13.47-67.84,23.1-7.57,3.45-14.28,8.55-21.61,12.37-61.12,31.93-152.24,89.57-167.67,162.12-.51,2.39-.18,4.85-.24,7.25-3.77.77-4.8-2.77-4.55-6.03.97-12.62,14.69-42.08,22.14-52.84,35.77-51.65,114.36-104.03,171.62-129.19,18.47-8.12,39.26-12.73,58.15-19.8,4.81-1.8,13.61-7.11,17.45-7.61,3.53-.46,12.39,1.45,14.74,3.85Z"/>
        <path d="M836.44,1012.55l-2.5,9.96c-10.18-4.59-20.5-9.11-30.97-13-49.09-18.23-95.41-32.97-148.96-30.01-54.74,6.89-108.52,19.6-162.84,29.04l-.58-9.43c25.72-4.97,51.26-11.13,76.99-16.09,47.79-9.21,86.91-17.43,136.31-11.35,46.26,5.7,89.41,24.72,132.54,40.88Z"/>
        <path d="M321.78,1054.5c6.93-6.13,13.47-11.19,23.39-9.9,2.82.36,7.75,3.3,9.87,2.76,1.21-.31,6.68-6.13,10.41-7.64,8.67-3.52,31.26-4.74,29.23,9.22-.38,2.62-3.21,4.74-.47,7.56,3.21-3.76,3.44-9.47,9.49-10-.66-1.93-4.11-1.27-5.94-2.53-4.41-3.03-2.35-15.87,4.31-14.47.67.14.55,1.84,1.31,2.01,2.35.54,5.23-.21,8.36.5,3.56.81,4.75,4.5,6.45,4.52,4.74-7.9,8.63-13.72,18.79-10.79,8.55,2.46.48,23.36-9.27,25.38-2.82.59-4.91-1.69-6.99,1.89-.03,1.3,15.39,2.97,12.76,14.78-1.87,8.36-17.11,6.52-19.79-.28h-1.47s-7.5,6.99-7.5,6.99c-.94-3.83,2.72-3.94,4.02-5.73,3.42-4.72,7.27-19.52-1.62-20.3-1.88-.16-1.21,2.01-2.01,2.04-.74.03-1.84-.92-2.78-.78-3.93.59-7.18,16.04-7.61,19.77l10.98-2.99c-.12,4.61-6.81,2.37-8.97,5.49,4.22,4.16,8.66,3.39,7.93,10.87-.4,4.05-5.26,13.77-9.46,14.58-7.19,1.4-13.51-.91-13.48-8.97-5.1,1.62-10.37.47-15.38,1.11s-10.56,3.81-15.14,3.92c-5.26.13-12.81-2.97-18.07-2.94-1.29,0-12.84,4.22-9.24-1.97.43-.73,7.31-2.24,5.41-5.14l-6.52-6.97.75,7.37c-1.88,3.58-4.67,3.52-6.53-.11-2.8-5.47-.79-25.2-1.18-32.79s-4.51-26.12-2.83-31.73c.36-1.2,1.45-1.91,2.3-2.7l2.32,1.66,4.17,36.31ZM432.5,1027.77c-5.65.5-9.41,4.05-12,9.04-4,7.7,0,14.07,8.49,11.49,5.16-1.57,15.83-21.62,3.51-20.53ZM402.43,1033.73c-1.56.35-4.13,1.9-4.58,3.49l.34,3.3c16.08,9.64,23.57-11.13,4.24-6.79ZM377.74,1054.5c5.47,2.97,15.65-1.01,14.59-8.04-1.78-11.75-31.17-6.97-34.14,1.97-.91,2.74-1.34,10.06,2.25,10.9l14.29-3.83c.37,3.18-3.4,1.69-5.96,3.53-1.17.84-2.35,1.77-2.03,3.45l12.98-3.01-1.99-4.98ZM414.72,1052.5l4.96-2.5c-2.32-2.03-4.09-4.24-3.99-7.49l-7.98,3.01c.4,1.84,3.22,1.04,4.97,2.51,1.26,1.06,1.83,2.89,2.03,4.48ZM353.49,1049.75c-2.73-2.4-13.37-2.77-17-2.02-4.34.89-17.89,9.33-8.19,12.74,7.8-1.44,27.66,6.15,26.39-7.37-.09-.95-.5-2.74-1.19-3.35ZM418.94,1056.19c-.54-.35.13-2.03-.73-1.69-3.92,4.53-5.32,14.05,2.2,15.77,12.55,2.86,15.18-8.31,4.03-13.02-1.89-.8-4.44-.36-5.5-1.06ZM391.67,1056.53c-3.17-1.28-4.81,2.62-5.69,2.91-3.46,1.12-5.34,1.83-8.7,3.1-9.41,3.57-10.75.14-9.4,13.81,5.79,1.99,12.31,2.3,16.89-2.32.8-.81,7.59-9.63,7.77-10.24.75-2.53-.2-4.89-.86-7.25ZM350.74,1071.49c.28-4.02,4.14-6.64,6-9.5.85-1.31.7-2.54-.5-2.47-8.54,7.04-24.59,4.46-34.47.98.37,2.66-1.17,10.8,1.5,11.98,5.87-11.69,19.24-8.01,27.46-1ZM363.25,1061.52c-8.65.88-15.56,20.14-6.79,22.75,10.43,3.1,5.98-8.64,6.23-13.25.18-3.4,3.74-7.04.56-9.5ZM331.5,1067.74c-7.12,1.84-7.71,9.19-1.69,13.19,4.08,2.71,5.56,1.71,9.44,2.08.88.08,1.71,1.34,2.81,1.27,3.03-.21,7.87-4.23,7.29-7.83-1.09-6.79-12.07-10.2-17.85-8.71ZM393.18,1071.02c-1.42-1.54-1.49-3.69-3.46-1.01l1.99,6.47-3.48-.06c-3.87,6.57-7.5,19.03,4,18.88,5.49-.07,9.58-8.71,9.58-13.32,0-5.83-3.03-3.84-5.66-6.44-1.08-1.07-1.33-2.74-2.97-4.52ZM381.23,1079.48c-5.14.25-10.35-.18-15.49,0v2.99c6.41.37,11.93.11,17.99-2.01l-.52-2.01c-.92.1-1.68,1.01-1.98,1.02Z"/>
        <path d="M725.51,1126.45c-.47-2.89,2.05-4.93,4.06-6.43,29.71-22.18,83.06-16.05,110.87,6.92,15.92,13.14,19.15,26.57,43.48,29.48,33.4,3.99,68.79-5.3,101.79-9.64,7.05.5,8.08,9.86-.11,11.42-27.91,5.32-89.14,14.61-114.72,6.26-22.69-7.41-32.05-31.46-53.77-43.17-16.41-8.86-47.72-14.47-65.32-8.02-3.62,1.33-25.14,14.32-26.29,13.18Z"/>
        <path d="M1025.31,1257.39l-3.87-.13c-3.12-8.21,4.86-23.34-1.1-30.37-11.77-13.87-42.43-15.9-59.44-16.51-29.47-1.06-38.24,3.35-64.71,11.32-40.95,12.33-94.53,21.35-137.18,16.69-5.6-.61-22.07-.89-17.36-8.85,2.15-1.35,17.4,1.73,21.3,1.91,33.46,1.55,73.64-4.47,106.48-11.53,17.75-3.82,35.43-12.26,52.75-15.21,23.29-3.96,78.17.2,97.06,15.28,14.02,11.2,5.2,22.37,6.08,37.4Z"/>
        <path d="M256.52,308.13c4.05-1.22,7.99,1.05,8.27,5.37s-13.09,16.27-16.49,20.4c-23.59,28.65-40.83,65.99-63.47,92.43-5.84,6.83-16.02,18.28-25.77,15.84-10.54-2.64-38.48-33.57-40.73-44.24-.58-2.76-1-4.7,1.55-6.57l2.53.5c.63,2.45.77,4.9,1.7,7.29,3.43,8.73,18.2,25.39,25.74,31.23,4.08,3.16,8.02,5.72,12.93,2.88,3.12-1.8,14.78-14.99,17.49-18.48,17.98-23.23,32.33-52.93,50.72-77.2,2.83-3.74,23.52-28.85,25.53-29.45Z"/>
        <path d="M348.55,1148.74c23.5-1.84,63.07,19.18,85.62,27.71,37.39,14.15,71.95-.54,108.24-9.84,5.33-.27,7.16,7.01,1.8,8.91-34.71,8.04-66.74,23.75-102.77,11.65-12.37-4.15-22.24-11.77-34.07-16.9-13.75-5.96-43.9-17.66-58-16.69-26.69,1.83-52.57,24.6-67.58,45.35-1.91,2.64-3.08,9.43-6.49,8.48-3.75-1.04,1.91-9.33,3.08-10.9,16.83-22.63,40.49-45.44,70.17-47.76Z"/>
        <path d="M812.45,136.02l3.38.12,1.44,1.55,5.4,45.57c4.02,19.49,23.05-5.24,30.27-11.23,17.28-14.34,44.76-38.49,64.39-47.54,4.03-1.86,10.96-4.03,10.96,3.04,0,4.67-14.5,10.32-18.83,13.07-16.44,10.46-34.73,27.18-50.06,39.89-9.3,7.71-24.57,27.82-37.9,17.94-8.86-6.57-5.36-24.98-6.07-34.91-.26-3.7-3.98-26.54-2.98-27.5Z"/>
        <path d="M448.69,993.53c-.93,25.45.09,55.54.96,81.49.06,1.75,2.43,9.27-.45,9.43-3.37.19-4.31-10.96-4.49-13.48-1.09-15.65-1.31-32.15-2.05-47.92-.28-6.03.98-14.56.04-20.03-.2-1.17-.5-1.79-1.49-2.47-5.76,3.96-11.78.68-18.02.93-7.42.3-16.02,3.02-24.13,2.67-3.97-.17-8.02-2.17-11.64-2.25-6.97-.15-14.61,3.77-21.28,4.52-15.87,1.79-29.42,2.59-45.43,5.54-3.04.56-6.11,3.94-7.87.98-.69-7.52,7.62-5.62,12.18-6.67,15.23-3.51,22.86-4.15,38.13-5.85,10.08-1.12,17.63-6,29.01-4.81,15.29,1.6,34.8.16,50.14-2,1.77-.25,4.66-.32,6.41-.08.28-7.76-.3-12.63,3.61-19.87,2.22-4.1,8.22-12.07,12.18-5.41,3.07,5.16-4.46,26.24-10.52,27.13-2.54.37-3.81-1.64-5.27-1.85ZM462.68,969.54c-4.25-1.15-6.45,1.72-8.21,5.3-1.29,2.64-5.91,16.59-2.26,17.68,3.9.27,6.41-6.17,7.64-9.31,1.71-4.34,3.13-8.96,2.82-13.68Z"/>
        <path d="M532.64,1119.45c17.61,2.35,15.31,9.77,1.01,15.51-1.51.61-4.05.22-5.06.94-1.23.88-.9,4.38-1.72,6.27-5.95,13.59-28.85,17.08-20.22-3.72-6.39,6.1-19.57,18-25.99,6h-1.46c-4.77,5.15-10.18,8.81-17.56,6.54-10.28-3.16-4.12-26.2,8.05-21.54-.16-14.64,20.15-15.38,30.98-13,.12-1.58-2.06-1.2-3.03-2.45-2.91-3.74-5.42-12.44-2.43-16.51,4.09-5.59,28.58-9.64,29.42,2.61.18,2.64-2.44,6.04-.97,6.88,13.01-1.11,16.24.44,9.01,12.47ZM505.88,1110.16c3.84,2.39,21.18-5.65,14.35-13.77-3.68-4.37-17.69-.94-22.6,1.56-2.8,2.75-1.06,17.7,6.02,15.51l-.52-4,2.4-.83c.13.44.09,1.38.35,1.54ZM521.64,1115.46l-.5-5.99c-18.73,21.41,10.57,16.64,12.49,0-2.54.02-5.37-.4-7.76.73-3.83,1.81-.43,5.72-4.23,5.26ZM514.64,1112.47l-9.44.92-.69,2.9-2.86,1.16c3.9,1.95,7.06.13,10.51-1.96,1.33-.8,2.94-.77,2.46-3.02ZM488.49,1117.71c-6.49.32-13.87,2.75-16.77,9.13,1.05,1.97,2.32,2.38,4.4,2.67,6.55.89,22.81.83,26.04-6.05,2.36-5.04-10.27-5.92-13.67-5.75ZM512.64,1118.47c-6.46.2-4.02,4.85-5.48,8-1.1,2.37-5.55,2.27-6.5,4.98,6.76,1.71,10.75,4.96,16.66-1.31.38-.4,1.46-2.5,1.33-2.66-6.23-1.04-7.97-2.81-6-9.01ZM534.65,1125.45c-.9-8.42-13.57,4.76-12.01,6.99,4.07,3.94,23.03-3.43,19.98-7.97l-5.37-1.07-.71,1.94-1.89.11ZM471.67,1131.46c-13.51-4.35-19.15,19.98-3.98,17.59,6.11-.96,13.1-9.5,13.97-15.59l-10.99.99,1-2.98ZM502.65,1135.46c-5.47-1.22-10.56-2.95-16.33-1.85-13.72,18.18,13.45,15.81,16.33,1.85ZM525.64,1136.46l-9-1.01v4.01s-5.02-2.56-5.02-2.56c-14.09,21.11,12.52,15.29,14.02-.43Z"/>
        <path d="M480.38.28c3.33-.99,6.4.69,6.38,4.33s-10.61,12.06-13.61,15.47c-12.66,14.41-42.88,56.41-57.77,63.15-20.43,9.24-34.89-11.37-35.7-29.63-.25-5.67,3.38-9.82,4.88-4.86.66,2.18-.13,5.25.26,7.73,1.93,12.11,9.67,25.36,23.92,21.14,10.73-3.18,46.9-52.09,57.41-63.52,1.88-2.04,12.89-13.41,14.22-13.8Z"/>
        <path d="M416.7,1098.48l-.69,3c-10.53,4.35-10.21,20.79.69,25.49,15.42,6.65,16.03-9.81,9.42-19.42-.43-.62-7.47-7.24-2.91-7.06.69.03,6.67,7.38,7.33,8.64,6.98,13.2-.5,28.59-16.54,19.54-3.81-2.15-7.27-8.91-9.83-9.24-4.23.3-8.79,1.68-12.95,2.02-24.58,2.01-50.17.06-73.93,2.03-8.5.7-17.12,4.62-26,2.98-2.67-.49-3.46-2.96-1.92-5.1,37.77-7.22,76.64-3.01,114.65-9.08,4.72-4.52,3.45-13.37,12.68-13.8Z"/>
        <path d="M618.48,1085.39c-6.16,2.2-12.96.58-19.38,1.1-15.77,1.28-28.6,5.26-44.47-.52-15.75-5.74-19.89-15.66-39.47-14.47-8.41.51-17.68,1.35-21.01,9.98l-2.48-2.44c-.19-12.02,27.46-12.46,35.47-11.55,8.33.94,17.26,8.65,25.12,11.85,21.35,8.7,44.08-1.61,65.88,2.07l.33,3.98Z"/>
        <path d="M402.72,744.18c-.63.99-1.39,1.29-2.5,1.5-15.52,2.95-21.81-22.52-31.47-29.98.2,3.69-.45,7.61.22,11.26,1.06,5.69,7.04,12.52,7.74,18.26.21,1.75.1,1.49-1.5,1.5-9.92.04-13.62-18.75-18.45-25.53,2.13-2.63,5.96-1.19,8.97-1.5-1.18-1.86-.6-5.07,1.67-5.84,11.66-3.95,21.46,20.75,27.33,27.31,1.1,1.23,2.04,2.85,3.96,2.52.42-4.31,1.72-9.27,2-13.5.47-7.23-1.54-16.28,1.52-22.47,3.06-.26.48,1.08.48,1.49v34.98Z"/>
        <path d="M308.78,752.67c-2.62,11.12-6.48,14.92-17.8,11.29-16.69-5.34-10.92-26.17-8.06-39.14l9.86-.13c-3.13,9.67-8.02,31.72,2.63,37.83,1.05.6,2.55,1.41,3.73,1.22,2-.33,8.02-14.97,4.64-18.06,5.73-1.34,5.47,2.46,8.44,5.04,1.96,1.7,7.57,6.52,9.88,5.86,11.22-12.77-20.65-26.75-1.35-37.89.12,2.63-2.77,3.54-3.54,5.94-3.15,9.77,14.23,21.25,9.66,30.64-2.84,5.84-13.42,1.63-16.61-2.6h-1.48Z"/>
        <path d="M912.38,927.57c2.72,2.73-9.17,27.83-9.52,32.95-.88,1.47-2.12,1.42-3,.06-1.32-2.04.81-6.19-1.46-7.02-1.27,4.06-2.48,13.34-8,12.98-1.05-1.09,7.7-22.35,9.17-25.3,1.16-2.33,9.13-17.36,12.81-13.67Z"/>
        <path d="M356.74,746.67c-11.35,4.82-16.18-13.17-19-21.46-.59-1.74-2.83-5.95-1.03-7.04,11.42-2.67,8.57,2.6,11.29,9.78,2.46,6.47,5.6,12.59,8.73,18.73Z"/>
        <path d="M442.44,1080.74c.84.8,1.32,3.29,2.09,4.43l-1.44,2.26c-12.13-1.53-24.08-3.82-36.38-2.94v-7.01c1.27-1.28,33.22.89,35.73,3.26Z"/>
        <path d="M892.39,687.71c.35,2.2-.07,3.59-.92,5.57-3.12,7.22-12.82,16.72-17.48,23.5-.98,1.43-1.53,6.45-4.07,5.91-5.57-5.66,4.3-11.37,5.75-15.26.57-1.55-.54-3.08.2-4.66.39-.84,11.17-13.64,11.97-14.1,1.59-.93,2.68-1.23,4.54-.95Z"/>
        <path d="M921.33,742.64c-1.57.24-3.25.23-3.83-1.62-1.72-5.52,5-9.31,7.85-12.86,2.1-2.63,12.05-16.99,14.5-16.46,1.16.25,1.65,2.18,1.52,3.44-.2,2.01-9.04,13.59-11.03,16.02-3.08,3.77-8.11,6.41-9.01,11.49Z"/>
        <path d="M912.38,825.64c-.72,10.59-10.03,20.12,2.68,26.8,1.46.77,12.32,3.55,10.31,6.17-5.31,1.47-18.98-4.85-20.53-9.93-2.33-7.64,1.79-15.69,3.68-22.9l3.87-.13Z"/>
        <path d="M922.38,619.75l-.59,3.08c-4.66,1.58-8.8,1.48-13.11-.88-5.43-2.98-5.19-7.62-12.33-.75-.65.63-7.92,12.3-8.96,7.02-.82-4.15,9.4-14.72,13.76-15.29,6.03-.8,6.99,5.09,11.17,6.37,3.19.98,6.77.24,10.05.45Z"/>
        <path d="M925.29,982.47l-2.91.07c-.74-.71,1.52-10.24-1.49-8.99-3.94,3.25-6.71,7.76-7.63,12.85l-3.87.13c.05-14.44,22.7-30.11,15.9-4.06Z"/>
        <path d="M431.19,1151.8c.84-.2,7.79-.41,8.89-.3,16.47,1.68,1.57,29.51-8.21,14.27-1.88-2.93-4.04-13.19-.68-13.97ZM432.01,1156.7c-2.44,7.86,8.01,16.06,11.91,6.48,4.74-11.62-10.82-9.99-11.91-6.48Z"/>
        <path d="M887.9,667.74c1.29,1.04,1.83,1.54,1.35,3.31-.37,1.37-18.93,19.95-20.32,19.65-1.29-1.04-1.85-1.55-1.36-3.32.75-2.76,17.91-15.34,20.33-19.64Z"/>
        <path d="M420.47,805.83c3.89-.54,22.96,2.14,26.79,3.73,2.3.96,9.01,7.6,10.18,9.8,1.59,2.98,9.47,29.27,9.94,33.03,1.68,13.22,1.04,29.63-8.71,39.69-5.38,5.55-8.66,1.97-14.5,1.51-7.14-.56-21.48-.49-26.48-6.5-2.48-2.98-5.43-12.17-5.88-16.11-1.49-13-.8-40.22-5.68-51.29-.52-1.19-4.69-3.86-.84-5.02,4.92-1.49,6.96,5.39,7.91,8.94,3.83,14.17,2.94,31.89,4.6,46.37,2.65,23.07,18.73,13.59,35.2,18.5,8.75-9.02,9.27-25.32,7.42-37.14-.41-2.6-8.21-26.69-9.33-28.65-5.74-10.12-26.18-9.1-36.37-8.53l-1.59-3.53c1.96-2.23,4.23-4.39,7.32-4.82Z"/>
        <path d="M351.48,809.87c11.37-2.34,31.05,4.91,38.76,13.75,12.5,14.34,6.72,20.72,5.5,36.5-.49,6.3,1.52,11.77.87,17.87-.82,7.7-3.75,13.9-10.9,17.08-7.91,3.52-27.81,5.78-36.4,4.45-15.91-2.46-12.72-24.74-13.51-35.46-.58-7.84-1.16-16.04-2.16-23.82-.54-4.18-6.64-22.38-1.35-23.6,4-.93,3.31,7.27,3.72,9.24,1.11,5.33,2.92,10.96,3.63,16.36,1.72,13.07-.32,28.46,2.18,40.8.65,3.21,4.03,9.92,7.46,10.53,9.32,1.68,21.39.31,30.43-2.51,15.53-4.84,9.13-21.42,9.99-33.99.64-9.34,4.63-15.1-1.11-24.81-5.85-9.9-25.12-17.95-36.13-15.42-3.35.77-8.82,8.04-12.73,5.33-4.42-3.07,9.07-11.75,11.75-12.3Z"/>
        <path d="M267.81,824.64c3.19-.7,4.54,1.89,4.93,4.56,2.51,17.11.24,38.93,5.34,55.62,1.1,3.58,5,10.5,8.61,11.33,18.13,4.15,28.92-.48,30.12-20,.54-8.75-2.5-31.73-6.83-39.22-1.99-3.44-5.1-4.56-7.74-7.25-3.37-3.44-2.78-6.79-9.43-8.57-7.17-1.91-11.9,4.01-14.31,3.43-7.53-1.82,2.02-8.83,6.02-9.66,12.72-2.66,16.07,3.77,23.21,11.31,1.55,1.64,3.68,2.47,5.04,3.96,6.97,7.61,10.77,35.63,9.98,45.95-1.73,22.67-15.53,29.96-37.02,25.06-8.65-1.97-12.66-14.29-13.81-22.17-.9-6.15-1.49-13.57-2.11-19.87-1.14-11.44-2.01-22.99-2-34.47Z"/>
        <path d="M304.85,862.56l2.93,1.04-4.01.64-2.41,19.42-8.61.48c-1.2-.8-.83-1.6-.74-2.73.47-5.55,1.6-11.35,2.78-16.79-.68-.53-7.26,2.9-7.99,0l7.76-2.25,3.23-12.75c-5.04.67-12.97,1.81-16.99-2,3.21-.47,6.21,1.36,9.4.98,4.05-.48,5.44-4.57,8.53-5.54,15.82-4.96,4.7,11.51,6.12,19.49Z"/>
        <path d="M441.19,836.62c.49.08,2.38,1.06,2.53,1.68l-1.04,14.31c3.22-.02,8.13-.29,10,2.98l-9.99-1.98-1,22.99c-1.88-.3-9.3,1.04-9.74-1.46l1.74-21.53c-1.27-1.25-10.9,3.72-11-1.49l10.99-.52,1.01-12.99c-3.44-.15-6.96.29-10.41-.09-.98-.11-3.76-.43-3.59-1.91,6.27.72,14.5-.98,20.49,0Z"/>
        <path d="M374.74,857.61c.25.33,7.07-3.02,7.98-.01l-9.08,2.65-2.9,17.36-9.05-.45c-2.85-1.92,2.76-14.01,1.99-17.48l-4.35-1.1c-3.17,7.14-10.83-.09-3.14-1,2.74-.32,5.99-.13,8.53,1.05l4-14.99c-1.15-1-15.02,2.04-16.98-2.99,4.52-1.3,7.22,1.35,12.53,1.03,3.57-.21,9.86-3.46,12.52-1.61,3.14,2.19-2.83,13.87-2.05,17.55Z"/>
        <path d="M315.77,602.76c-4.67-6.73-2.11-2.75-7.05-2.5-12.02.6-18.28-11.18-9.84-19.88,4.91-5.06,8.76-4.52,14.44-6.55,5.15-1.84,7.98-5.86,13.8-2.91,1.67.85,11.29,9.15,11.39,10.34-1.2,3.57-5.79,5.43-5.25,9.65.44,3.45,7.08,9.93,7.51,14.34-5.55,3.67-9.43-7.54-13.48-6.48-4.58,2.71,4.46,7.03,4.46,8.49-1.24,1.94-3.31,1.81-4.98,2.5,2.91-4.2-.43-3.47-1.29-5.24-5.79-11.95,2.93-7.09,6.32-9.22v-3.06c-6.95-2.24-17.15,2.44-16.02,10.52ZM325.76,584.75c.72-4.02-3.51-5.38-6.88-4.88-3.07,6.68,1.57,6.76,6.88,4.88ZM306.91,590.62l3.41-.82c1.86-4.88-3.11-7.9-7.53-7.03-.66,3.64,3.37,4.61,4.12,7.85Z"/>
        <path d="M326.77,609.76c-2.25.93-4.31,2.26-6.93,1.96-.63-3.5-2.07-6.1-4.06-8.96l3.98-1.99c.39,4.18,2.99,7.65,7.01,8.99Z"/>
      </g>
    </g>
  </g>
</svg>