<?xml version="1.0" encoding="UTF-8"?>
<svg id="Calque_2" data-name="Calque 2" xmlns="http://www.w3.org/2000/svg" viewBox="0 0 1238.08 1304.66">
  <g id="Illu_Vectorisée_BLACK_" data-name="Illu Vectorisée (BLACK)">
    <g id="Oiseau">
      <path d="M1003.59,433.26c-1.3,4.64-15.87,1.96-19.54.55-1.7-.66-8.54-6.05-9.44-5.04l1.09,11.88c6.8-.29,11.61-2.06,13.41,6.12,7.24-2.6,13.47-16.11,22.49-11.53,2.59,1.31.86,5.56,5.45,5.59,10.27.07,15.12-23.02,26.49-8.58l-3.99,5.49-3.46-2.98c-6.64,8.23-22.1,21.34-29.01,6.98l-16.49,13.98c17.93.5,32.72-8.97,49.94-11.01.85-10.92,7.68-23.71,20.56-22.03,2.05.27,3.95,2.1,4.81,1.96,1.29-.21,2.96-3.74,6.11-3.79,3.88-.06,7.95,4.55,11.51,5.89-.2-6.12,4.83-21.41,12.97-14.45,2.06,1.76,2.25,6.88,4.55,6.49,2.47-.43,4.84-6.95,10.23-7.86,6.69-1.12,13.04,10.78,17.22,14.82-.32-13.4,10.11-43.02,27.92-30.41,7.67,5.43,3.67,10.94,4.05,17.88.06,1.17,1.66,10.13,2.06,10.49.54.5,7.05-1.14,7.76,2.67-.12,3.56-3.22,6.66-3.74,9.92-3.65,23.13,3.02,46.75,6.83,69.01,1.37,7.98.43,16.43,2.11,24.38,1.56,1.45,11.24-11.01,14.98-7.99.82.98-12.55,16.52-13.73,19.74-3.87,10.63-1.04,30.48-3.34,42.63-3.77,19.92-20.92,17.29-22.89-1.93-1.61-15.68,4.26-17.17,11.15-28.8,4.53-7.64,7.56-11.76,6.7-21.04-2.1-22.58-7.64-44.51-8.91-67.04-.36-6.46.36-13.07.03-19.53-5.12,3.39-7.49,9.48-11.47,14-2.1,2.38-10.88,9.27-11.3,10.69-.64,2.2-.29,6.3-.19,8.78.38,9.38,4.24,23.36-.24,31.76-3.43,6.42-12,1.15-15.2-3.34-5.24-7.38-4.46-18.45-7.77-25.21-.49-.99-.96-2-2.26-1.7l-10.36,7.64-2.16,29.82c-1.08,6.7-2.01,12.19-10.28,10.29-9.47-2.17-12.41-27.52-13.71-35.77l-6,1.49c-2.83,9.87-4.6,20.33-7.95,30.03-14.58,42.21-30.86,73.46-40.26,118.66-3.93,18.89-15.93,34.57-21.9,53.05l-27.85,34.15c7.59,14.24,21.6,21.06,33.03,30.97,14.19,12.31,26.63,26.96,39.45,40.5,17.7,18.71,50.78,37.46,72.38,52.55,8.18,5.71,13.7,13.95,21.16,19.81,7.64,6.01,17.32,9.4,24.91,16.06,16.66,14.63,32.5,33.65,48.94,48,7.16,6.25,15.78,10.62,22.03,17.95,6.27,7.37,9.8,15.15-3.37,16.44-38.34-8.58-81.14-14.81-117.55-29.44-9.98-4.01-19.71-9.66-29.49-13.48-12.4-4.86-25.66-6.76-38.26-10.71-13.45-4.22-25.93-10.87-39.69-15.28-10.39-3.33-21.15-5.3-31.5-8.48-59.35-18.21-116.1-43.33-172.66-68.27-12.43,3.18-25.59,3.54-38.03,6.48-5.38,1.27-23.07,6.44-27.07,8.91-1.42.88-5.68,4.31-3.12,5.94,3.63,2.14,10.56-1.15,13.31-.4s2.26,4.14,2.91,4.66c1.79,1.44,6.14-.99,5.85,6.67-.04,1.06-1.16,8.77-1.39,9.88-1.3,6.25-9.87,28.38-8.51,32.92.8,2.68,4.01,2.2,5.32,3.74,2.46,2.88,3.37,11.94,5.84,14.66,1.03,1.13,3.69,1.95,5.17,3.33,10.91,10.17,21.83,22.79,25.21,37.75,14.92,66.13,12.75,126.96-13.21,190.09-6.3,15.32-13.42,21.67-21.28,34.69-3.58,5.94-5.98,13.6-9.75,19.23-12.47,18.61-27.44,35.19-45.5,48.45-2.53,1.86-6.04,2.59-8.42,4.57-2.93,2.44-3.75,5.49-7.78,8.21-10.36,7.01-22.88,11.47-34.63,15.34-5.76,1.89-13.58,2.86-18.95,6.03-4.38,2.59-13.19,15.46-15.77,16.21-5.55,1.62-19.42-.58-25.3-2.27-1.95-.56-3.9-2.29-6-3-6.37-2.16-13.63-.73-13.05-10.03.19-2.98,2.61-4.21,2.94-6.21.73-4.43-6.22-9.42-8.25-13.38-2.25-4.39-2.62-9.67-4.72-14.27-3.85-8.4-11.94-17.74-16.38-26.59-3-5.96-4.67-12.94-7.65-18.33-2.2-3.99-5.88-6.88-8-10.99-15.16-29.38-16.53-78.79-9.15-110.46,5.36-23,30.65-87.32,46.76-103.16,3.51-3.45,8.98-6.07,12.58-9.41,4.46-4.14,8.36-10.16,13.48-14.5,8.61-7.3,23.6-16.41,33.53-22.44,19.09-11.58,35.19-19.03,57.49-22.46,3.38-.52,14.59.73,16.37-2.62.96-1.81-8.72-3.6-9.48-5.49-23.31-23.35-18.07-62.79-8.52-91.47,1.66-4.97,5.7-20.24,12.98-16.99.94.42,12.55,13.42,13.85,15.18,7.48,10.18,12.2,25.12,15.17,37.3,3.01,2.24,5.67-10.97,6.94-12.53.78-.96,5.89-3.9,7.36-4.63,5.73-2.85,23.96-8.42,30.41-9.56,5.49-.97,13.68-.23,18.85-2.14,1.05-.39,2.85-.52,1.38-2.09-.71-.76-15.87-6.82-19-8.49-16.1-8.58-32.79-17.39-48.62-26.34-9.9-5.59-18.27-13.95-28-19.97-15.74-9.73-37.56-21.04-54.25-29.7-16.07-8.34-34.19-13.11-50.34-20.61-10.84-5.04-23.18-13.09-33.54-19.43-16.53-10.12-43.31-25.55-57.52-37.43-8.14-6.81-15.16-16.84-23.04-23.94-4.48-4.03-11.31-8.16-15.97-12.01-5.32-4.41-9.5-12.12-16.96-13.02-3.89-.47-9.89-.11-14,.04-23.7.85-47.97,0-71.93-.06-33.28-.08-96.41,10.33-122.93,31.05-25.37,19.83-45.8,45.74-70.01,64.91-15.17,12-37.91,23.31-50.41,37.54-11.76,13.39-22.54,29.08-34.5,42.46-9.24,5.92-11.85,1.48-10.26-8.27,8.35-25.46,24.4-47.6,36.72-71.22.42-1.21-.24-2.01-1.47-1.47-2.65,1.16-9.19,8.67-12.04,10.96-2.69,2.17-8.45,7.56-11.55,3.62-1.23-1.49-1.06-3.09-.72-4.84,1.01-5.12,17.56-24.57,21.6-31.43,1.28-2.17,10.97-20.42,10.18-21.29-15.33,7.5-26.82,21.26-40.65,30.8-6.8,4.69-14.2,7.76-20.77,13.21-3.11,2.58-15.39,16.37-17.23,16.82-4.09.99-5.32-2.4-3.76-5.83.86-1.89,12.36-16.95,14.49-19.49,2.29-2.73,27.71-27.87,24.96-30.5-16.4,3.93-26.29,24.98-45.03,21.55-7.77-5.44,16.38-23.67,20.74-26.35,6.3-3.86,13.09-6.03,19.21-10.78,5.71-4.43,11.37-11.45,17.16-15.82,5.9-4.46,12.86-7.17,18.82-11.16,9.66-6.48,17.45-15.34,26.6-22.38,14.19-10.91,28.06-15.51,38.5-31.46.8-1.22,1.23-2.01.94-3.54-6.22,3.25-12.27,2.14-18.36,3.11-35.64,5.68-63.98,12.92-97.23,26.69-5.26,2.18-19.17,10.74-24.07,8.49-2.08-.96-1.69-4.69-.73-6.32.43-.73,6.18-4.15,8.01-5.97,1.54-1.54,11.65-14.9,10.46-16.01-6.31,1-37.91,12.06-32.79-4.31,1.41-4.52,24.38-13.57,29.53-17.45,1.47-1.11,3.6-1.92,3.26-4.22-8.52-.22-16.95,1.75-25.51,1.03-4.73-.4-13.27-2.19-7.98-8.06l23.5-12.95c-9.99.87-29.73-2.54-26.96-16.48.76-3.83,14.57-8.85,18.72-10.26,30.57-10.37,82.1-13.48,114.58-14.33,6.7-.17,17.13-5.45,24.58-4.92.18-4.32-3.52-7.76-5.18-11.31-11.18-24.02-20.81-42.61-24.68-69.27-5.11-35.2-11.2-81.75-4.87-116.56,1.13-6.2,5.95-24.53,13.99-15.5,2.35,11.11,3.43,22.9,6.04,33.94,5.46,23.09,29.39,78.81,43.7,97.22,17.1,21.99,41.32,42.22,63.86,58.07,3.52,2.48,8.05,7.43,11.79,9.19,8.29,3.91,25.85,2.61,34.7.19,20.47-5.6,41.73-13.47,62.74-19.21,26.66-7.29,54.21-8.71,81.7-10.74,1.12-11.44,7.47-25.85,14.58-34.89,21.01-26.72,46.7-50.21,68.89-76.03,12.04-14.01,22.73-29.29,34.49-43.46,62.76-75.63,125.27-132.42,208.75-185.02,45.96-28.95,90.28-53.87,140.32-75.55,22.78-9.87,42.14-11.78,65.64-17.31,11.8-2.77,23.09-7.08,34.97-9.5l-2.77,3.47c5.48,6.47-5.29,7.82-9.89,10.35-20.48,11.26-41.31,28.51-57.32,45.62-5.56,5.94-10.31,13.81-16.44,19.54-4.69,4.38-10.94,7.7-15.54,12.44-15.17,15.63-29.94,36.74-44.89,52.05-4.09,4.18-10.15,7.37-14.01,11.97-5.02,5.99-8.53,14.93-13.6,21.38-3.62,4.61-8.46,7.94-11.82,13.16-3.83,5.96-5.84,13.31-9.41,19.57-8.53,14.96-17.6,29.38-28.13,42.83-6.31,8.06-11.95,20.86-16.72,30.25-16.56,32.59-31.96,66.14-44.29,100.63-.95,2.67-5.99,18.52-4.96,19.51,1.41.23,2.66-.12,4-.48,26.57-7.23,45.38-17.81,66.86-34.08,8.98-6.8,9.4-13.23,15.08-20.9,4.51-6.09,12.6-11,17.5-16.48,4.63-5.19,6.85-11.32,13.01-15.98,5.8-4.38,25.92-12.72,32.45-9.52,5.81,2.84-1.27,7.64-2.83,10.16-2.89,4.67-5.68,10.76-5.15,16.32l5.96-7.52c3.86-4.68,15.42-13.43,21.48-12.51,6.78,1.03-1.65,8.92-3.27,11.74-1.49,2.58-7.77,13.9-8.15,15.84-.64,3.28-1.67,16.03-.85,18.76.9,3,6.49,4.47,9.25,4.74,14.36,1.38,25.46-5.52,39.32-7.75,9.8-1.58,19.73-1.21,29.56-2.42,51.19-6.3,100.65-18.98,152.99-21.9,7.94-.44,19.32,1.57,26.42-1.56,8.95-3.95,12.57-20.15,24.38-19.23,2.29.69,3.31,4.25,3.61,6.43.53,3.78,1.61,22.68,1.16,25.97-.24,1.78-1.81,1.32-2,2.18-1.37,6.45-2.4,15.1-3.06,21.74-.37,3.7,1.23,14.08-1.99,16l-3.43.41c-1.77-.64-1.02-3.09-2.23-4.02-.53-.41-10.67-5.14-12.06-5.69-1.69-.66-3.4-1.35-5.27-1.21-.04,11.81-1.18,22.17-13.49,26.65-9.15-6.14-14.41-15.62-26-18.65.1,7.15-1.98,16.19-10.23,17.79-5.45,1.06-13.5-6.59-17.24-10.31l-2,1.01v19.99l-11.46,5.4-19.52-7.89c1.92,12.41,6.87,23.2-11.05,19.54-6.42-1.31-11.66-6.71-17.93-7.56v15.49ZM987.6,11.99c-5.43.94-10.21,4.22-15.45,6.02-17.26,5.93-34.36,9.11-51.47,16.49-50.09,21.6-98.71,49.35-145.02,77.84-75.8,46.64-150.18,109.12-208.75,176.02-12.79,14.61-24.7,31.68-37.49,46.46-21.42,24.76-45.48,47.4-66.44,72.48-7.74,9.26-14.18,21.7-17.02,33.45,22.37-2.58,43.53,6.65,65.46,7.99,13.54.83,27.49,1.38,40.93,2.04,27.25,1.34,39.53-1.65,64.49-9.53,12.22-3.86,28.9-5.97,41.34-6.54,11.75-.54,40.98-17.88,50.13-25.92,3.3-2.9,7.35-22.42,9.44-28.54,11.58-33.92,27.85-68.93,44.14-100.77,3.86-7.54,8.4-17.32,12.68-24.3,4.06-6.62,9.87-10.65,13.97-17.02,9.72-15.13,17.59-32.17,26-47.96,4.22-7.92,11.31-13.24,16.56-20.42,4.26-5.84,7.16-12.9,11.62-18.36,5.13-6.27,12.87-11.16,18.48-17.5,13.23-14.96,27.79-33.72,41.81-47.64,4.93-4.9,12.2-8.6,17.19-13.3s9.63-12.45,14.42-17.56c9.91-10.59,23.63-19.32,32.99-30.97l19.99-12.47ZM778.2,389.22c-3.6,4.07-3.96,1.6-7.51,3.02-16.37,6.53-34.93,12.57-50.6,19.36-16.93,7.34-29.19,21.22-48.33,27.62-8.2,2.74-16.56,3.19-24.76,5.22-35.49,8.78-61.17,15.71-98.61,13.3-16.76-1.08-34.1-.6-50.86-3.11-9.49-1.42-19.55-5.1-29.12-5.86-21.69-1.73-53.87,1.4-75.81,4.11-33.57,4.14-65.51,20.47-97.8,27.12-11.52,2.37-25.25,5.32-36.44-.06-13.15-6.31-31.46-22.36-42.74-32.22-29.53-25.79-43.64-44.31-59.66-80.26-4.7-10.54-10.42-23.74-14.56-34.41-3.67-9.46-5.14-19.45-8.1-28.88-.42-1.33-.35-3.04-2.14-3.35-.9,15.11-1.86,31.31-1,46.47,1.1,19.37,6.68,69.74,13.79,86.16,6.45,14.89,21.75,49.15,31.66,60.29,4.18,4.7,30.14,27.59,34.7,29.26,3.18,1.17,9.02,2.28,12.41,2.58,5.27.46,16.65-1.58,19.65-.67,2.53.76,2.98,3.42,2.71,5.8-11.9-1-22.31,6.35-32.96,10.52-5.75,2.25-14.15,2.98-19.98,7.01-3.01,2.08-4.1,6.05-6.49,8.5-18.98,19.48-29.95,29.98-52.45,45.5-12.2,8.41-21.94,19.03-33.72,27.24-11.86,8.27-25.09,13.51-34.29,25.68l13.49-6.6,4.59,1.51c4.61,5.61-9.95,16.1-13.06,20.11l-12.02,17.46c1.03,1,6.66-3.69,7.89-4.6,8.15-6.04,15.43-13.37,23.77-19.2,6.07-4.24,23.82-17.96,25.14-3.94l-18.82,36.73c5.05-3.71,10.24-7.37,14.99-11.48,4.37-3.78,14.18-18.65,17.98-9.02,0,1.09-7.24,11.6-8.58,13.43-16.29,22.21-30.67,46.13-42.91,71.02-1.87,3.8-4.29,7.65-4.47,12.01l32.48-38.97c37.54-21.24,65.1-53.06,96.42-81.48,7.79-7.07,23.76-21,32.64-25.33,36.17-17.66,87.79-26.68,127.76-24.12,16.83,1.08,34.04,2.92,50.98,3.08,12.19.12,23.24-4.83,34.39,3.49,17.5,13.06,32.77,31.45,49.16,44.79,13.8,11.23,38.16,25.26,53.95,35,43.98,27.12,93.15,42.91,138.12,69.75,10.71,6.39,19.66,14.99,30.01,20.96,14.29,8.24,31.22,17.03,45.97,24.99,19.67,10.61,39.59,14.47,59.6,23.35,12.31,5.46,23.49,12.61,36.04,17.93,79.93,33.82,164.89,52.53,244.14,85.66,20.06,8.39,33.63,11.33,54.27,16.69,22.65,5.88,44.81,12.84,68.33,15.11-6.67-8.92-16.91-14.04-25-21.46-15.85-14.55-30.43-31.1-46.48-45.46-7.43-6.64-17.06-9.96-24.94-16.04-6.62-5.11-11.27-12.46-17.6-17.38-20.77-16.16-48.42-30.44-68.88-48.05-15.55-13.39-29.51-32.7-45.43-46.51-9.98-8.65-19.23-14.06-29.02-23.95-8.53-8.61-19.88-18.71-27.49-27.47-4.2-4.83-7.64-11.82-11.93-16.06-6.45-6.37-16.77-10.66-23.56-17.42-18.2-18.12-27.87-41.39-52.11-55.83-20.39-12.15-37.9-23.76-53.27-42.67-3.99-4.91-6.27-11.64-11.5-15.48-1.84-1.35-4.43-1.3-5.99-3.01-1.99-2.19-1.79-6.46-3.09-8.9-2.44-4.59-12.12-8.24-2.34-14.47,3.07-1.95,17.49-7.85,21.63-9.35,13.58-4.92,39.77-10.31,55-13.96,29.23-7.01,51.65-5.78,80.63-7.23,14-.7,29.49-7.1,43.14-8.91,15.43-2.05,31.02-3.48,46.39-6.58,15.19-3.06,29.77-8.85,44.48-13.53l1.94,1.99c2.36-1.09.64-9.55.24-12.21-1.05-7.02-3.28-18.02-5.17-24.81-.29-1.06-.78-3.51-2-3.73l-24.88,4.95c-39.58,20.11-86.76,12.97-130.05,16.82-5.23.47-12.73,4.67-16.45,1.35-3.65-4.88,13.25-12.34,16.84-14.95,25.14-18.32,39.47-31.56,69.82-42.11,15.84-5.5,32.34-11.39,47.55-18.41,9.35-4.32,19.89-11.59,29.08-14.89,18.08-6.48,40.7-8,59.5-13.46,5.78-1.68,32.12-13.33,36.34-16.62,6.22-4.86,3.42-23.46,2.62-30.85-6.22.92-8.4,8.01-12.44,12.04-1.15,1.15-6.9,5.78-8.1,5.97-3,.48-9.1-.37-12.92,0-55.76,5.37-110.6,15.96-166.03,22.85-9.86,1.23-19.92.77-29.73,2.25-14.46,2.18-25.36,9.94-40.09,9.96-17.61.02-34.85-25.93-32.24-42.33.66-4.15,4.27-9.71,4.77-13.23.3-2.12-.86-1.66-2.43-1.43-14.98,2.22-18.75,11.42-27.05,20.93-4.91,5.62-11.94,9.68-16.48,15.5-5.1,6.54-7.62,14.85-13.97,21.01-4.12,3.99-19.74,10.83-19.96,14.89-.16,3,1.8,1.25-.61,3.99ZM870.68,353.8v-14.49c0-2.09,10.26-17.18,8.99-18.49-5.77,1.62-9.45,7.11-12.96,11.51-.82,1.02-.93,2.8-1.56,3.47-1.19,1.28-3.4.62-3.52,1.55-.27,2.21,6.7,19.22,9.05,16.45ZM1152.5,371.79v-14.49c0-.5,2.75-4.15-.51-3.51l-17.49,8.52,1.04,2.97c6.52.56,10.45,6.86,16.97,6.52ZM1125.51,366.8l-25.97,7.49c3.16,2.88,6.94,3.81,10.46,6.53,3.85,2.97,7.2,7.77,11.02,10.95,5.28-6.95,4.49-16.67,4.49-24.96ZM1070.54,379.8c-2.61,2.67,8.08,9.85,10.05,10.53,5.81,2.01,6.39-12.88,3.48-13.38l-13.53,2.84ZM1057.56,384.79c-1.43-.25-2.47.3-3.73.77-3.57,1.35-15.55,7.83-18.95,10.03-1.06.68-2.55,1.08-2.31,2.68,4.36-.5,21.71,11.95,23.86,8.36-.48-1.72,1.13-4.5,1.13-5.35v-16.49ZM1025.57,400.78c-.79-.87-11.88,3.95-13.66,4.82-1.26.61-5.97,2.03-5.31,3.66,2.33,3.1,18.35,11.93,20.97,9.5l-2-17.99ZM1148.15,401c-6.01.56-10.88,19.23-10.73,24.28.04,1.39.15,2.9,1.72,3.41,2.87-.86,14.59-2.26,15.28-4.55.17-2.51-1.6-4.54-1.85-6.95-.46-4.61,2.17-16.8-4.43-16.19ZM996.59,411.78c-5.49,1.32-10.62,3.71-15.95,5.53-2.27.77-4.94.49-7.59,1.41-9.33,3.26-18.52,11.99-27.41,16.55-.06,2.31,19.33,3.85,21.97,3.5-.4-10.52-1.76-22.13,12.37-15.87,5.83,2.59,10,6.56,17.6,5.87l-1-16.99ZM1111.23,416.88c-4.57,1.18-9.87,15.64-5.12,16.79,1.17.28,16.28-3.94,16.39-5.39-1.28-2.95-8.07-12.22-11.27-11.39ZM1083.31,433.96c-.33-.57-9.8-7.95-10.45-8.05-4.85-.74-5.57,9.96-.7,11.64l11.39-.78c-.08-.92.26-1.95-.23-2.8ZM1060.43,428.89c-7.93-1.17-12.09,7.56-13.86,13.86l16.56-3.96-2.71-9.91ZM1161.49,429.77l-23.54,6.93-1.43,20.05c1.73.45,2-.72,3-1.49,2.88-2.21,6.83-6.7,9.5-9.49,1.6-1.67,13.75-14.78,12.47-16ZM1128.51,439.76c-5.33,1.27-32.45,2.05-34.56,4.93-.55,7.48,3.57,13.12,4.45,20.68.31,2.68-.81,12.84,1.64,13.36,3.43-1.07,5.15-5.11,8.13-6.84,4.05-2.35,8.98-1.86,13.04-3.95,10.9-5.59,4.16-18.27,7.29-28.18ZM962.61,445.76c-9.09.26-17.63-2.6-26.26-4.83l-22.7,18.81c5.47-.14,11,.23,16.48,0,4.85-.2,18.35-.86,21.6-3.41,1.05-.83,1.44-2.62,2.68-3.58,1.08-.84,9.82-5.64,8.21-6.99ZM1090.54,482.74c1.34-1.35-3.2-34.67-4.75-37.73-2.34-4.62-7.95-.04-12.24-1.25l7.48,38,9.52.98ZM960.62,457.75h22.49c3.34,0-1.43-4.62-1.74-5.25-.67-1.37-.52-4.75-1.27-4.76-6.56,2.35-14.9,4.59-19.47,10.01ZM1127.51,474.74c-3.02,0-6.11.89-5.97,4.37.23,5.66,4.15,19.14,7.96,23.62l-1.99-27.99ZM1090.53,520.72l1.87-29.35c-.75-2.29-7.27-2.1-9.2-1.48-2.62.83-.61,8.58-.21,10.89,1.04,5.92,3.1,16.04,7.54,19.94ZM206.11,532.7c-4.3-4.16-9.49-7.51-14-11.47-6.33-5.55-15.49-12.56-21.01-17.97-2.59-2.53-6.96-11.14-9.48-11.58-4.71-.82-20.66,4.34-26.98,5.04-32.14,3.55-64.48,4.92-96.62,10.28-11.18,1.86-20.23,6.13-30.77,9.71.8,8.38,14.14,8.16,20.53,8.02,3.65-.08,18.27-3.95,16.03,3.99-1.65,5.85-22.03,12.79-27.56,15.98.29,1.75,5.21,1.11,6.54,1.03,4.38-.26,20.46-2.71,22.28,2.62,3.83,11.22-23.16,20.49-29.82,25.82,7.08,1.17,28.69-9.26,34-4.02,4.57,4.51-10.25,15.06-11.02,20.5,13.57-3.21,25.7-10.43,39.15-14.31,23.98-6.92,51.64-11.17,76.4-15.55,2.84-.5,5.8.35,8.64-.36,9.38-2.35,14.08-9,19.75-15.23,6.35-6.97,14.92-10.38,23.96-12.53ZM1061.55,496.73c-1.17-1.33-7.39,4.67-8.48,4.66-.61,0-1.77-1.48-3.04-1.61-9.56-1.03-13.84,3.88-22.21,5.69-14.03,3.04-32.15,3.72-46.6,6.37-12.91,2.37-27.27,7.53-40.21,8.76-31.81,3.02-55.89.59-88.33,8.61-14.21,3.51-32.99,7.56-46.41,11.56-4.99,1.49-12.94,5.56-18.14,7.86-.93.41-1.79-.59-1.36,1.53,2.79,1.75,3.22,9.3,4.21,10.3,2.39,2.41,7.82,4.94,11.26,9.22,13.15,16.35,24.16,30.6,42.13,42.82,9.2,6.25,18.29,8.98,27.31,16.67,16.22,13.82,25.38,30.05,38.94,45.01,8.71,9.61,20.55,14.23,28.98,23.99,8.16,9.46,13.72,20.9,25.53,27.4,5.57-6.45,10.79-13.15,16.09-19.82,12.74-16.01,12.5-18.24,20.66-36.31,6.07-13.44,9.08-15.42,12.58-31.39,9.39-42.87,25.73-74.52,40.11-114.8,1.15-3.22,7.88-25.46,6.97-26.5ZM1167.48,559.7c-1.91-.47-1.92.7-2.81,1.68-6.97,7.65-10.9,13.81-6.91,24.54,2.01,5.41,5.05,7.34,7.2.75,2.56-7.84,1.56-18.61,2.52-26.97ZM718.56,900.31c1.65-2.86-1.11-33.71-2.46-38.59-.74-2.68-2.56-4.98-3.36-7.63-4.87-16.08-9.69-35.56-24.42-45.52-3.56.83-11.9,34.43-12.39,39.6-1.68,17.65-.7,50.21,18.61,58.11,11.35,4.64,14.9.15,24.02-5.97ZM739.76,856.54h-13.99l.51,10c1.48-.04,7.09-5.58,9.13-6.87s5.04-.22,4.35-3.13ZM744.76,861.54l-18.54,10.93-1.44,6.05c8.56-1.57,17.47-8.37,19.98-16.98ZM724.78,890.52c9.58-.78,16.45-9.82,19.97-17.99-4.81,8.39-20.99,6.78-19.97,17.99ZM740.76,889.53c-.61-.67-14.96,6.36-15.98,7.98l14.04,1.59,1.94-9.57ZM616.19,1286.66c11.35-10.67,25.55-10.12,38.9-15.57,3.91-1.59,17.89-8.69,21.09-10.89,2.17-1.49,3.08-4.93,5.13-6.87,2.97-2.82,7.21-3.34,10.42-5.57,15.93-11.04,32.54-30.51,43.47-46.48,4.76-6.96,7.41-15.36,11.74-22.24,7.54-12,13.44-17.21,19.29-31.68,25.64-63.35,26.24-115.93,13.24-182.12-2.56-13.04-11.09-25.3-20.32-34.65-2.71-2.74-7.88-4.91-9.85-8.14s-1.39-8.13-3.48-10.51c-.39-.44-9.46-5.89-10.02-6.05-.46-.13-8.61-.48-9.48-.44-5.73.26-17,10.56-23.48,13.58-16.23,7.58-35.07,4.59-51.99,11.97-31.04,13.53-57.38,35.53-81.98,57.94-15.95,14.53-40.64,74.81-46.09,96.83-7.99,32.3-7.14,78.57,7.1,109.1,2.2,4.72,6.13,7.79,8.56,12.43,3.06,5.84,4.72,12.71,7.93,19.05,4.34,8.6,12.18,17.79,15.69,26.29,1.85,4.49,2.17,9.62,4.26,13.73,1.65,3.25,6.11,6.55,7.1,9.89,1.35,4.54-.41,9.54.89,14.11,10.45,3.53,20.7,7.92,32.06,6.93,2.28-.44,7.62-8.57,9.83-10.65Z"/>
      <path d="M848.83,413.63c-2-10.6-1.04-21.71-7.27-31.21-1.14-1.74-3.25-1.54-3.89-4.14-1.01-4.1,2.54-2.16,3.78-2.85,4.41-2.46,6.3-4.86,12.84-5.53,7.76-.79,32.59,6.27,38.87,10.88,2.18,1.6,12.07,11.65,12.36,13.72.82,5.74-14.46,3.92-18.9,4.73-9.43,1.72-22.48,11.36-31.9,14.06-1.92.55-3.92.83-5.89.33ZM894.66,392.78c2.39-2.32-6.31-7.72-7.95-8.53-7.04-3.45-25.82-8.27-33.4-7.34-1.4.17-6.32,1.03-6.6,2.42,3.99,8.26,7.63,16.97,6.99,26.44l15.96-6.49c-3.02-3.17-7.19-1.05-6.65-6.86.41-4.31,6.2-10.14,10.63-8.14,7.07,3.19-.55,12.79.04,13.5,6.52-3.31,13.5-5.82,20.97-5Z"/>
      <path d="M669.42,1143.47c1.21-.28,4.73,1.74,4.38,3.39l-5.47,3.53c-2.82-1.2-.79-6.49,1.08-6.92Z"/>
      <path d="M762.74,1005.47c.9,2.99-4.58,9.69-6.54,5-1.01-2.4,4.04-6.29,6.54-5Z"/>
      <path d="M680.32,1073.43l3.56,1.42c1.47,1.23,1.24,5.19-.59,5.57-2.03.42-6.37-5.51-2.97-6.99Z"/>
      <polygon points="725.71 1002.4 721.21 1001.49 721.84 996.53 726.34 997.44 725.71 1002.4"/>
      <path d="M676.8,1219.35l-.09,5.88-2.91.65c-3.19-1.3-.94-7.76,3.01-6.52Z"/>
      <path d="M690.78,853.55l1.03,3.99c1.72,1.2,8.98-6.01,9.97-1.48.54,2.46-5.22,3.83-5.87,6.19-.59,2.12,1.02,4.2.89,6.29,4.57.41,5.94-5.83,10.98-4.99,2.58,2.57-9.69,8-7.82,14.27.41,1.38,6.57,5.58,2.31,6.71-3.92,1.03-4.5-6.81-9.48-5-.36-3.41,2.78-7.25-.5-9.99l-2,2.99c-5.75-1.57-.3-7.26-.49-10.41-.22-3.53-6.81-8.54.99-8.57Z"/>
    </g>
  </g>
</svg>