<?xml version="1.0" encoding="UTF-8"?>
<svg id="Calque_2" data-name="Calque 2" xmlns="http://www.w3.org/2000/svg" viewBox="0 0 828.58 1191.19">
  <g id="Illu_Vectorisée_BLACK_" data-name="Illu Vectorisée (BLACK)">
    <g id="TNT">
      <path d="M675.6,790.77c-2.14-.39-2.32.99-3.06,2.44-3.64,7.17-4.12,21.41-7.49,27.48-1.92,3.45-5,2.83-5.49-1.39-1.45-12.58,2.05-25.94,2.04-38.52-1.32.04-2.21,2.7-2.7,3.78-1.68,3.79-3.4,14.82-7.83,15.25l-3.05-.95c-5.37-4.41-.58-35.4-1.88-43.08l-1.5-.98c-.56,2.45-2.55,10.16-5.52,9.74l-1.97-1.76.47-19.97-6.98,12.5c-8.2,2.5-7.42-5.07-6.88-10.88.95-10.24,5.26-20.2,3.79-31.01-1.58-11.64-3.6-18.12-2.96-31.11.4-8.04,3.41-18.68,3.09-25.96-.63-14.56-2.99-33.47-4.93-48.06-1.52-11.47-4.15-22.38-4.21-33.86-.04-7.58,4.37-15.08,4.99-22.1.28-3.18-.87-5.88-.7-7.88.85-10.21,5.45-20.22,4.3-30.48-3.83,4.81-8.21,9.25-11.52,14.46-3.27,5.15-5.25,11.55-8.53,16.46-5.89,8.81-14.13,11.85-19.85,21.13-5.27,8.54-13.97,22.11-15.33,31.64-.5,3.5-.7,10.16-.01,13.52.9,4.36,6.24,8.73,7.53,13.45.47,1.73,0,3.83.48,5.51,2.72,9.33,5.76,17.75,5.76,27.73l2.98-1c.22,3.46-.3,7.02.02,10.48,2.71,29.35,12.17,83.91-8.49,107.45-9.78,11.14-19.54,18.45-35.03,17.02-20.68-1.91-41.61-1.84-61.93-4.03-3.22-.35-11.36-4.63-12.34-1.36-.53,1.78-.01,4.39-.42,6.57-1.88,10.11-4.38,18.85-16.94,17.52-15.6-1.65-16.65-13.76-13.77-26.74-8.65-1.93-16.07,2.67-23.74,3.73-7.04.97-22.98-1.61-30.49-2.97-10.38-1.88-14.19-13.39-15.6-22.38-.68-4.36-.26-13.32-1.27-16.71-.27-.89-1.13-1.92-2.17-1.51-13.7,5.45-23.16,16.85-35.13,24.87-7.68,5.14-17.32,8.97-24.42,14.55-25.98,20.43-51.88,41.4-77.05,62.86-12.29,10.48-22.97,22.87-37.65,30.37-5.4-4.61-13.68-5.6-19.24-9.44-4.45-3.07-9.35-10.99-12.02-15.83-1.98-2.79-7.68,7.77-10.05,8.16-5.2,17.71-27.21,20.07-29,39.67-.77,8.4,1.5,14.36,2.08,21.99,1.7,22.62-18.69,51.77-24.95,73.79-8.13,1.27-6.65,13.3-15.93,11.56-1.55-.97-.05-9.64-3.61-8.86-3.09,3.15-4.71,6.91-7.96,10.05-1.63,1.58-3.75,1.63-4.62,2.62-.67.77-9.9,20.6-12.77,11.65-.7-2.17-.44-14.82-.15-17.82,1.47-15.2,13.17-29.72,15.97-44.48-2.6,3.93-11.22,1.79-11.82,2.13s-3.73,6.76-6.19,8.33c-2.6,1.66-4.76,1.06-6.92,2.07-3.06,1.43-5.23,8.52-10.6,4.51l-.45-4.06-1.98,1.02v-3.02c-8.96,1.97-17.67,3.28-25.57,7.99-2.28.21-6.47-2.07-6.46-4.48s19.75-19.95,22.02-23.99c-1.03-1.31-2.91.67-4.43.53s-2.57-1.93-4.05-2c-2.32-.1-5.84,4.38-8.5.45l4-6.46h-5c.01-1.41-.23-2.94.22-4.29.94-2.83,3.88-2.6,4.78-4.7l-5.04-.46c-4.46-5.93,5.39-6.29,6.58-8.49.23-.43-.17-7.4,1.36-9.57,1.04-1.47,3.06-1.95,4.04-3.04,2.26-2.51,2.62-6.66,8.05-6.44.27-1.64-1.34-.94-2.47-.99-3.86-.18-9.4,1.49-10.54-3.49,3.21-7.85,12.3-4.05,19.24-4.78,9.07-.95,21.53-7.4,29.24-7.52,5.25-.08,11.52,4.04,17.11,4.7,10.68,1.25,17.92-1.69,27.62-5.14,3.78-1.35,12.01-6.05,14.49-6.62,2.17-.5,3.08,1.96,4.25,1.45,1.34-.59,6.07-6.47,7.98-8.08,3.3-2.77,7.23-4.37,10-7.99,5.65-7.39,9.01-18.38,17.49-24.5-1.21-21.9-3.1-37.05,14.45-52.48,23.98-21.09,63.55-40.25,91.31-57.6,8.22-5.13,16.27-13.33,24.34-18.63,9.18-6.04,21.01-11.6,30.61-17.36,13.3-7.98,25.37-18.27,40.49-22.95.71-1.14-.07-7.97-.78-9.19-.68-1.15-2.46-.33-2.87-.75-4.54-4.71,3.2-39.46,1.58-48.12-1.63-8.7-9.07-19.42-15.74-25.23-1.3-1.13-6.64-5.64-8-4.49-4.58,21.98-12.03,43.16-17.5,64.95-1.49,5.93-3.91,25.09-7.54,28.47-2.81,2.61-5.13-.39-7.93-1.48-2.41,6.86-4.58,14.15-7.82,20.67-1.36,2.74-4.9,9.93-7.74,10.34-4.82.62-5.7-3.34-6.94-7.02-3.29,1.55-5.61,18.71-11.99,6.99-9.74,11.88-6.06-4.09-8.99-9.99-4.64,7.85-12.9,26.49-21.72,11.71l-1.76-10.71c-1.93,4.71-6.58,23.38-9.5,25.98-6.9,6.15-4.18-7.56-7.49-9-2.04,4.89-6.12,20.98-9.49,23.99-3,2.67-5.28.92-5.46-2.62-.13-2.54,2.36-7.09-.04-8.38-.43,3.76-5.95,17.23-8.43,19.05-3.53,2.6-5.77.65-5.61-3.51.29-7.23,3.98-15.17,4.02-22.54l-6.77,20.7c-7.44,7.09-4.28-4.17-4.16-8.16.28-9.6-1.26-18.96-1.05-28.52-2.71-.41-3.46,3.76-6.36,2.93-4.76-1.37-1.96-18.18-1.34-22.13,1.91-12.16,6.15-25.06,8.74-37.18-5.93-2.4-3.39-6.19-4.08-11.02-.26-1.84-1.76-3.24-1.83-4.99-.54-14.43,9.83-28.3,11.61-42.28,1.26-9.95.65-21,2.38-31.6,4.34-26.55,13.8-50.2,21.36-75.58,11.63-39.05,18.22-74.46,34.31-112.6,2.06-4.89,6.73-11.41,7.73-16.26.92-4.46-.21-8.84.91-13.08,2.45-9.3,12.89-18.41,18.35-25.62,8.68-11.47,16.31-26.94,24.93-39.03,5.68-7.97,12.03-14.09,17.63-21.34,1.58-2.05,8.04-11.63,8.56-13.43.61-2.06-1.08-1.62-2.29-1.29-4.67,1.28-9.49,6.42-14.71,8.28-4.93,1.75-23.44,7.41-19.21-3.16,4.16-10.42,18.81-16.76,26.13-24.89,12.91-14.34,17.9-18.21,32.56-30.4,7.75-6.45,15.13-16.08,22.47-22.5,2.77-2.42,7.02-3.61,9.58-6.41,3.49-3.85,6.11-13.53,9.28-18.7,5.24-8.54,12.97-13.06,19.67-20.3,5.58-6.03,9.8-13.48,15.95-19.02,5.52-4.97,12.87-9.12,18.52-14.45,4.77-4.5,8.48-10.53,13.5-14.48,9.15-7.2,40.3-22.11,51.68-25.27,4.65-1.29,8.79-1.52,13.32-2.67l4.43-23.06c-16.72-.69-31.99,8.74-48.49,9.99-6.77.51-22.64.95-28.91-.04-9.39-1.49-15.65-18.54-.8-22.67,12.7-3.53,25.96-1.68,38.72-1.27,13.6.44,27.31.49,40.87,1.84,3.76-.84,1.14-12.82,8.15-7.89l-.56,7.05c5.12-.04,9.71-2.84,14.74-3.73,17.87-3.16,47.52-9.93,64.74-8.29,14.5,1.38,17.3,18.42,5.73,25.8-28.83,11.43-56.83-.73-86.17-1.72l-3.05,21.94c12.46-1.86,25.1,2.28,37.49,3.98,4.35.6,8.78-.38,13.52.47,24.64,4.41,47.88,24.04,62.91,43.02,5.6,7.07,18.96,36.67,22.02,45.93,2.52,7.62,2.39,15.8,4.47,23.51,25.25,14.64,54.68,48.72,63.16,76.75,7.13,23.58,11.5,57.81,14.26,82.68,1.47,13.24.56,26.58,2.14,39.83,1.33,11.17,5.92,22.66,6.85,33.12,1.08,12.05-1.81,25.39-1.03,38,.43,6.9,2.63,14.1,3.08,20.91.98,14.77-1.2,30.89-1.09,46.06.27,35.86-2.23,71.99-1.91,107.84.37,41.35-3.1,79.18-5.08,119.92-.71,14.63,2.21,29.58,1.03,44-1.14,13.88-8.08,28.08-6.12,42.85l-1.51,1.5-4.33.15c-1.44,6.94-6.04,47.26-9.42,50.04-2.13,1.75-4.2,1.15-4.58-1.59l.98-59.45-3.84,17.63-2.3,22.68c-.72,2.35-3.94,2.36-4.67,0-.6-16.22,2.09-32.63.89-48.86-.13-1.71.11-3.3-1.56-4.44-2.62,6.6-3.91,13.82-5.18,20.8-.94,5.2-3.67,32.08-6.27,33.7-.99.62-1.93.54-3.02.46l-.02-67.95c-5.02,4.05-6.36,12.99-8.25,19.22-1.55,5.1-3.15,10.39-4.44,15.55-1.09,4.4-3.66,26.32-6.91,27.07-2.74.41-4.37-3.22-4.37-5.38v-45.47ZM532.69,21.28c2.1.1,4.31-.26,6.4.11,15.24,2.66,42.3,8.11,57.05,6.88,4.2-.35,18.53-3.25,21.87-5.12,9.22-5.14,5.15-21.17-7.86-20.93-19.53.36-39.68,4.85-58.84,8.19-6,1.05-20.69,2.84-18.61,10.87ZM525.7,15.29c-22.13.77-45.48-3.61-67.45-1.99-3.33.25-12.52,1.5-15.24,2.75-7.82,3.59-3.1,14.97,3.71,16.75,8.38,2.19,30.29.16,39.2-1.82,12.1-2.69,25.22-9.36,37.83-8.12l1.94-7.57ZM558.37,57.55c-6.61-4.73-32.01-8.52-36.08-.25-8.86,33.99-17.77,68-22.57,102.88l70.45-1.98c1.16-1.63,2.41-16.31,2.54-19.46.66-17.04-2.43-33.32-4.05-50-1.16-11.06-5.52-21.25-10.29-31.19ZM519.7,54.25c-16.2.31-32.09,9.84-45.95,17.51-6.59,3.65-11.41,3.99-16.53,10.45-3.68,4.64-5.5,10.9-8.44,15.54-11.25,17.72-26.51,36.91-35.19,55.75-.87,1.88-4.89,11.58-3.81,12.67,29.07.19,58.11-2.09,86.85-6.09l23.09-105.83ZM563.33,56.41l-1.5,2.14c2.63,7.77,7.36,15.31,8.59,23.45,2.57,17.06,4.29,34.45,5.29,51.76l-2.61,24.47c1.32,1.82,10.19.78,13.06.98,17.63,1.23,35.6,2.14,52.98,2.89,5.42.24,21.1,4.58,21.33-3.36.37-12.82-8.24-26.14-13.33-37.54-1.77-3.96-2.5-8.7-4.32-12.67-6.36-13.8-24.94-32.21-38.04-39.91-9.38-5.52-30.85-15.45-41.45-12.21ZM406.63,166.04c1.5-3.75,2.3-7.84,3.96-11.53,6.47-14.43,17.22-29.65,25.74-43.21,4.37-6.96,10.79-12.94,12.4-21.07-6.8,8.03-17.95,13.4-25.02,20.44-4.27,4.25-8.2,10.93-12.43,15.55-7.75,8.47-15.87,13.01-21.67,23.3-1.21,2.14-5.49,10.59-5.66,12.35-.62,6.71,18.49,3.82,22.68,4.17ZM316.83,232.13c23.29-9.34,47.36-16.44,72.46-18.97,29.92-3.01,55.65-.85,84.7,6.23,7.97,1.94,18.12,7.12,25.45,8.52,14.27,2.72,37.79-16.23,50.22-23.27,17.88-10.12,35.54-14.87,53.64-26.3,3.55-2.24,8.06-3.81,11.31-6.66.03-1.26-13.51-3.31-15.49-3.48-64.6-5.77-124.04,4.31-187.82,6.02-5.94.16-23.24,1.94-27.03,1.46-1.64-.21-3.41-2.51-5.85-2.26-4.44.46-23.1,21.52-28.14,25.72-5.43,4.52-12.65,8.01-17.99,12.99-6.25,5.82-10.03,13.48-15.46,20ZM239.88,687.34c.85,3.01,0,14.76,0,18.99,0,.89,1.85,4.85,3.48,4.49,4.53-1,11.67-30.74,19.52-13.99l5.3-2.91,4.17,4.89c.86.01,4.13-11.84,9.38-4.36,1.5,2.14.92,6.98,4.1,6.37l14.16-35.32c2.13-3.84,4.89-3.14,7.83-.66,2.17-11.89,4.91-23.74,8.08-35.4,2.15-7.91,14.12-42.8,12.76-47.82-.32-1.18-2.92-3.5-3.9-6.16-8.98-24.35-11.09-63.22-8.02-89.07.25-2.07,2.44-.99,2.13-2.88-17.51-23.53-9.01-49.12,3.09-72.86,3.28-6.43,7.52-12.26,12.83-17.13l-9.47-8.49c-5.1,3.82-10.45,23.6-17.9,12.9-3.68-5.29-1.64-16.93,1.37-22.43,2.78-5.09,13.69-16.16,19.61-16.4,3.76-.16,7.94,4.21,11.5.54,2.88-23.08,17.83-46.72,35.35-61.58,9.7-8.23,19.11-12.36,29.45-18.52,3.97-2.36,6.49-6.4,9.7-8.29,19.07-11.22,47.88-13.23,68.31-21.63,3.05-1.26,6.36-4.55,9.71-5.28,17.8-3.87,28.76,2.34,44.28,7.24,9.98,3.15,20.63,4.03,30.98,6.99,10.07,2.88,25.11,8.89,32.35,16.62,3.31,3.54,19.46,24.66,21.46,28.51,9.26,17.82,14.57,53.4,17,73.94,2.31,19.52-2.06,35.81-2.92,54.81-.77,17.01,1.44,34,1.09,51.06-.47,22.47-5.73,45.22-7.43,67.73-.58,7.76-4.69,16.37-4.69,23.16,0,13.26,5.16,27.73,6.07,40.98.61,8.83-1.12,19.67-.07,28.04.24,1.91,1.9.95,2.15,2.86,1.29,9.77-3.83,31.38-4.12,42.99s4.23,20.57,4.13,30.03c-.1,9.27-4.58,19.91-4.07,29.48l9.63-18.87,3.43.31c2.44,4.48,2.03,8.82.93,13.56,3.01-.43,5.83-2.57,7.82.67,3.12,5.08.31,22.35.12,28.77-.04,1.45-.58,17.55,2.03,15.53.15-3.49,6.16-18.1,11-15.56.62.33,3,3.67,3,4.07v15.49l7.71-9.84c3.02-1.98,6.29,4.56,6.29,6.34v20.99c0,.19,1.61,1.78,1.99,1.5,3.02-8.13,7.25-33.8,14.45-38.02,3.41-2,7.55.79,7.55,3.55v28.48l8.48-24.99c2.34-3.22,7.51,1.42,7.51,3.5v14.49l4.91-18.32c1.56-2.49,5.08-.46,5.08.83v50.47l4.93-21.55c4.68-7.92,7.15-22.3,8.79-32.19,2.74-16.55-1.35-28.97-.77-44.74,1.6-43.33,5.5-83.86,5.08-127.92-.33-34.78,2.22-69.97,1.91-104.84-.14-15.28,2.02-31.03,1.09-46.06-.45-7.31-2.73-15.4-3.08-22.9-.55-11.95,2.18-24.26,1.03-36.01-.96-9.88-5.58-21.49-6.86-32.11-1.6-13.22-.67-26.6-2.14-39.83-.97-8.78-3.63-17.42-4.85-26.13-4.43-31.77-3.6-51.98-21.71-80.23-11.46-17.88-26.69-35.87-45.05-46.81-8.75,3.07-18.78,1.85-27.8,2.77-21.07,2.13-30.79,13.72-48.45,22.5-11.37,5.66-25.85,8.49-36.7,15.27-6.33,3.95-11.81,10.8-18.61,14.37s-27.96,11.16-35.46,11.6c-3,.17-7.97-1.52-11.22-2.25-12.01-2.7-27.65-7.85-39.53-9.44-9.05-1.21-18.4,1.82-26.91.92-22.18-2.35-38.01-6.3-60.89.05-4.28,1.19-30.1,11.03-32.08,12.89-4.09,3.83-8.68,14.97-12.61,20.37-3.22,4.41-8.17,8.56-11.24,12.75-11.5,15.69-20.69,33.68-31.73,49.21-8.67,12.19-8.5,12.92-14.33,26.64-7.83,18.43-17.43,37.26-23.73,56.21-7.41,22.28-11.66,46.29-18.01,68.93-7.58,27.02-19.95,56.03-24.43,83.5-1.31,8.02-2.73,16.44.25,23.25,2.16,4.93-9.14,35.65-11,42.94-1.13,4.41-1.97,8.99-2.5,13.51-.1.81-.36,3.6.99,1.96,1.98-4.72,2.51-15.85,8.99-14.48.04,1.46.12,2.94-.08,4.41-2.29,16.66-10.19,37.05-13.41,54.55-.94,5.08-2.09,9.7-1.48,14.99l10.52-29.94c3.36-.38,3.56,1.4,3.25,4.18-.56,5-3.29,10.8-3.78,16.28-.82,9.16-.63,15.56-1.98,25.04-.26,1.83-.34,6.7,1.96,7.41.99-5.16,3.43-12.66,9.88-10.85l2.11,14.85c.16-3.41,7.51-22.24,11.5-13.98,1.01,2.09-.49,5.49,1.49,5.98.87-3.93,3.6-14.52,8.48-14.05,1.24.04,1.8.72,2.45,1.65,1.52,2.18.1,5.56,2.06,6.41,2.29-4.47,6.83-25.1,11.64-25.9,1.04-.18,3.2,1.85,3.36,2.42ZM628.62,506.96c.2-7.61,1.75-15.93,2.04-23.44.65-16.7-1.98-33.39-1.08-50.05.68-12.63,3.94-26.14,4.08-38.89.15-14.84-4.13-40.77-7.5-55.55-1.81-7.94-5.75-14.82-7.32-21.75-.47-2.07.67-3.6-.13-6.69-2.28-8.83-9.1-12.73-14.05-19.01-4.27-5.41-6-10.7-11.54-15.45-15.02-12.86-39.95-14.62-58.2-19.75-9.46-2.66-12.7-5.75-22.49-7.49-15.59-2.77-14.68-.63-27.71,4.73-20.74,8.52-47.38,10.48-67.34,21.61-4.08,2.27-5.47,5.06-8.68,7.31-3.8,2.67-8.73,3.7-12.84,6.14-20.12,11.94-47.38,43.05-49.93,67-.42,3.94.31,8.07-.14,11.85-.73,6.19-3.26,12.15-2.98,18.5,8.04-2.84,14.34-9.99,22.93-11.53,5.91-1.06,12.12.03,18.04-1.46-1.33-5.2-3.11-9.61-1.01-14.98-4.62-1.69-8.56,4.47-11.99.48,1.02-3.75,6.07-5.96,9.58-6.39,3.13-.38,16.85.41,17.34,3.53-1.29,5.57-6.83,1.43-10.94,2.37l1,15c6.77.59,17.04,2.19,23.04,5.44,4.33,2.34,12.97,12.47,15.62,13.39.71.25,1.5.41,2.19,0,.94-4,7.13-5.84,6.19-10.19-.3-1.37-5.95-3.02-7.25-3.76-.77-.44-.9-1.42-1.6-1.82-2.21-1.26-8.43-1.81-2.2-6.57,6.48-4.95,23.22-2.67,29.91,2.05,6.12,4.33,13.94,19.61,9.14,26-2.81,3.74-4.77-.52-6.72-1.44-5.62-2.64-10.83-3.8-14.98-9.06-1.77-.31-9.33,8.8-9.22,10.25,3.95,5.99,8.55,9.44,12.02,16,20.79,39.3,12.57,78.71-27.84,99.41-11.44,5.86-22.58,2.62-34.52.93-16.34-2.31-43.01-5.6-54.71-18.25-.81-.87-4.56-8.13-6.02-6.47-.12,5.49.13,11.02.04,16.52-.23,14.79,1.14,22.87,3.71,37.18.83,4.61,4.87,30.09,7.19,31.72.45.32,1.96-.32,2.96.12,4.47,2.02,2.17,2.92,3.62,5.32.57.95,8.35,6.4,10.49,8.54,11.22,11.23,14.82,22.05,13.96,37.99-.3,5.59-3.16,15.26-2.99,19.91.02.54,1.63.3,2.09,2.03,1.75,6.52,1.79,14.78,2.91,21.55,3.21-.6,23.95-12.06,24.76-13.22.65-.93.19-3.45,1.31-5.18.89-1.38,3.48-1.96,3.75-3.17.21-.92-.89-2.55-.8-3.86.58-8.54,18.97-13.97,25.93-15.06,4.76-.74,10.72.07,15.42-.57,4.45-.61,7.89-3.99,11.31-4.68,2.07-.42,16.89-2.31,18.71-2.25,4.22.14,16.53,2.2,20.83,3.23,3.36.81,8.94,6.15,9.27,9.71.12,1.35-1.61,2.39-1.56,4.45.07,2.77,3.39,8.21,4.33,11.78,4.81,18.3,6.31,44.43,4.7,63.33-1.7,19.83-27.7,31.06-45.43,29.36-2.39-.23-4.46-1.91-7.06-1.93-3.71-.03-8.11,2.62-12,3.01-5.79.59-20.2-1.05-25.2-3.8-7.06-3.88-6.68-15.76-12.83-21.19l-26.45,20.48c1.1,11.37-.92,30.29,9.5,37.49,5,3.45,7.88,1.21,12.91,2.08,18.63,3.23,14.8,1.86,32.16-.98,9.32-1.52,26.01-1.15,35.71-.72,6.95.31,13.79,3.94,20.15,4.63,20.29,2.18,40.37,1.84,60.96,4,15.03,1.58,22.94-5.06,32-15.99,15.1-18.21,10.87-59.04,8.49-81.47-.67-6.31-.17-14.82-2.27-20.71-4.59-12.86-5.43-29.75-10.18-43.78-1.24-3.65-6.36-7.46-7.31-12.67-.7-3.85-.48-10.53.02-14.5,1.29-10.18,12.4-30.82,18.9-39.06,4.69-5.95,11.76-9.73,16.25-15.73,7.31-9.76,10.67-19.49,19.55-30.41,2.52-3.09,1.81-7.7,7.99-5.5ZM338.81,373.05c-1.14-1.25-7.02,5.54-7.92,6.63l4.44,6.35c2.26.44,1.27-.97,1.62-2.34.39-1.52,2.36-10.09,1.86-10.64ZM336.32,439c-4.96-.23-10.02,0-14.99,0-.35,0-1.16-1.4-2.49-.59-2.92,3.16-1.9,7.66-2,11.58.98,1.09,7.92-4.74,6.99,0l-6.86,2.65c.29,2.98-1.85,15.61,2.21,15.23,4.05-3.45,7.63-3.7,12.64-4.87.56,2.89-.84,1.6-2.19,2.25-2.24,1.09-8.74,3.62-8.8,6.19l6.12,11.42c2.71,1.59,5.57-4.02,7.87-4.88.27,3.42-4.89,4.38-4.96,7.46-.08,3.57,6.87,11.02,10.33,10.36,2.09-.4,5.87-7.56,9.64-6.82-1.82,3.56-7.69,4.16-6.99,8.97,4.5-.1,10.79,5.3,14.04,2.58,2.36-1.97,3.15-6.01,5.94-7.57l-3.99,9.99,11.43,1.06c1.61-5.11,2.67-10.24,3.59-15.54.29-1.67-.61-1.71,1.96-1.5l-2.07,9.44,1.86.71-2.79,6.82c6.43.03,11.41,4.25,17.99,3.01.99-.98-2.14-9.85,1.99-8.99l.25,9.74c2.32,2.69,17.02,1.14,19.73-2.25l-3.06-1.04.08-9.44c4.3-.77.77,4.84,1.15,6.43.28,1.15,3.32,1.52,2.89,3.53,7.2-4.87,16.7-5.54,5.95-13.95,3.24-.47,5.23,2.19,6.12,4.85l1.35.19,7.51-6.56c.34-2.12-.35-1.17-1.37-1.58-3.16-1.25-6.78-.69-7.62-4.89l10.4,3.82,5.56-8.36c.95-3.28-5.66.16-5.96-2.45,7.24-.33,9.27-4.87,9.99-11.5,3.1-28.35-10.65-51.95-30.97-69.97-5.65-5.01-10.75-10.21-19-9.47l.57,4.03-3.56,7.95c1.27-8.58,5.78-14.79-7.01-13.99-.79.78,1.62,8.9-1.49,8l-.52-8c-3.32,1.69-9.15-.35-10.79,2.69-1.54,2.86-.6,7.31-1.69,10.29l-.66-10.84-7.08-3.01-10.72,6.36,5.98,4.49c-4.83.12-7.82-5.6-11.99-.48l3,3-3,.49v4c-3.53,1.45-4.26-2.01-4.54-2.05-2.73-.38-7.08,4.13-6.45,7.04.45.45,5.71-.43,7.29-.02,1.04.27.95,2.4,2.31,2.87,1.71.6,5.22-.87,5.37,1.14l-18.31-1.87-5.64,9.42,4.96,3.45c-9.03-2.33-9.37,9.83-11.99,16,2.89-.57,6.34-1.71,9.3-.97.73.18.58,1.7,1.4,1.92,1.45.4,7.57.38,8.28,1.06.44,3.85-1.52,1.03-2.5.99ZM470.73,634.87v17.99l12-1.99c1.7-1.6-3.67-20.61,3.99-19-.28-1.12-1.65-2.48-2.7-2.78-2.61-.75-18.01-2.44-20.76-2.24-4.45.33-9.36.76-13.74,1.21-3.64.38-6.82,3.93-10.49,4.59-2.31.41-14.47.52-15.22,1.27-.63,3.19-1.33,17.97-3.54,18.94-.38.17-2.51.37-2.5-.5l1.01-17.48c-8.89.32-19.26,3.62-21.99,12.99,3.59-1.63,18.33,3.38,18.98,6.52,1.32,6.3-11.08-2.66-13.22-1.33-10.71,7.95-23.08,13.56-34.11,20.94-1.57,1.05-2.04,3.25-3.91,4.16-5.46,2.65-13.34,3.62-21.03,7.88-40,22.16-78.78,50.77-117.69,75.18-11.15,7-24.37,13.58-35.03,20.93-2.64,1.83-14.81,11.6-14.87,14.11,10.53.19,20.07,10.48,22.7,20.29,4.63,17.21,2.35,32.76-1.94,49.45-.21.82-1.78,2.53.71,1.71,6.67-2.21,25.3-21.17,32.02-26.94,32.11-27.59,62.52-51.8,97.94-74.95,8.71-5.69,15.36-12.89,23.55-18.42,9.87-6.66,37.1-19.82,42.99-29.05,1.28-2.01-.75-4.07.83-5.05,2.34-.98,4.95-.07,7.34-.67,5.54-1.4,20.88-11.96,25.71-16.26,6.54-5.82,18.75-25.56,25.71-27.27,1.03-.25,2.71.76,3.32.33.72-.5,3.23-7.17,5.92-8.07.82-3.65-8.56-2.99-10-3.95l-.98-3.51,13.98,2,1.95-20.55,3.05-.44ZM473.73,728.31v-15.49c-3.12.33-10.57-.95-12.76,1.24-3.01,3-3.75,21.35-5.75,21.74-1.54.3-2.27-1.18-2.5-2.52-.67-3.82,3.74-18.79,3.01-19.46l-18.99.99-2,23.99c5.39.69,10.21-2.65,15.51-2.47,3.23.11,6.08,2,9.05,2.38,11.88,1.52,31.56-6.63,36.96-17.84,6.29-13.08,1.26-57.09-3.28-71.8l-5.27-11.21c1.12,4.39-1.21,10.75-.98,14.44.18,2.9,2.72,4.07,3.69,6.32,3.35,7.78-.87,16.86.22,21.5.22.92,2.81,1.2,3.62,3.64.68,2.04,1.07,10.59-.5,11.63l-4.91.58-1.16,5.84h4.99c0,1.08.28,2.09-.43,3.06-.45.62-13.03,4.46-14.54,2.94,2.3,7.85-1.64,14.99.99,22.98-1.6.52-4.62-1.15-4.99-2.49ZM479.72,655.87l-9.99,2.48c2.82,4.53,8.81,1.6,9.99-2.48ZM430.75,738.8l1.59-23.04c-2.47-3.4-13.94.97-16.93.76-3.5-.25-5.52-4.73-9.21-.71l8.6,19.48c4.83,3.37,10.61,1.89,15.96,3.52ZM463.24,783.77c-5.38-.9-12.84.66-18.49,0-1.14,5.41-3.09,16.73,2.71,19.78,15.29,8.04,19.15-6.21,18.12-18.61-.78-.18-1.8-1.08-2.34-1.17ZM174.87,798.8c-.98-.7-5.19,3.62-5.91,4.73-6.24,9.65-3.86,22.35-4.03,33.2.98,1.11,7.92-6.65,11.67-5.23,2.69,1.01.11,3.59-1.29,5.13-4.92,5.42-11.92,5.81-7.22,14.44s11.79,13.11,21.22,16.57c6.69-8.72,7.12-21.76,6.64-32.44-.57-12.69-2.64-26.44-15.08-32.88-2.31-1.19-5.76.47-5.99-3.52ZM117.96,889.71c-15.4,5.51-26.34,11.71-43.45,9.98-6.4-.65-11.33-5.06-17.75-3.75l-8.74,3.75c2.7.44,5.83.55,8.47,1.04,1.63.3,1.73-.68,1.52,1.96-4.9-.5-8.85,2.34-12.97,3.53-5.94,1.71-21.49,3.34-24.01,8.97l3.86,3.13-1.87,4.35c8.99.27.31,7.76,1.43,10.01,1.82,2.59,4.73,2.06,7.57,2,1.08,2.3-2.04,5.05-1.83,6.29.18,1.03,1.92,1.85,1.86,4.11-.13,4.13-14.85,16.56-17.02,21.57l11.48-4-.49,5,6.69-1.3,14.95-19.74c10.01.33-.28,7.15,5.84,11.04,3.31-3.61,4.09-9.55,10.37-7.85l1.62,4.86c3.65-1.76,8.16-12.56,11.86-11.83,3.19.89,2.54,7.85,1.98,10.59-3.76,18.67-19.13,36.53-19.32,56.21l9.86-16.61,3.36-10.13,10.82.18c2.3,4.68-.86,10.31,3.43,14.57,3.42-1.6,4.48-14.11,5.97-16.01,1.46-1.86,4.61-.14,5.65-1.56,4.22-14,11.5-26.94,15.88-40.87,5.2-16.51-.45-21.25-.07-36.02.13-5.18,2.17-8.64,3.05-13.46Z"/>
      <path d="M548.85,1078.4c-3.56-5.65-6.13-11.9-8.18-18.29-1.69-5.29-6.13-12.91.72-16.3,6.55.53,13.43-2.57,19.74-2.22,15.36.85,33.7,14.29,44.52,24.49,4.31,4.07,19.54,16.27,9.71,20.73-1.63.74-12.66,3.9-14.13,3.75-8.09-.82-19.06-9.82-25.54-11.51-3.24-.85-6.12-.21-9.58-1.42-2.4-.84-5.01-3.91-7.02-4.08-4.14-.35-5.41,6.66-10.25,4.85ZM612.64,1082.57c1.8-1.83-8.16-10.76-9.99-12.5-15.43-14.7-38.24-29.86-59.93-19.91l6.96,21.42c2.74.34,3.5-3.15,5.7-3.8,5.71-1.71,8.94,3.35,13.03,4.55,3.32.98,6.91.48,10.94,2.05,6.26,2.45,14.81,9.77,22.24,10.77,3.94.53,7.03-3.23,11.04-2.58Z"/>
      <path d="M783.52,1076.58c-7.28-4.02-14.62-1.74-21.81-5.15-2.51-10.67,7.05-16.73,12.64-24.51,4.92-6.84,8.99-13.98,14.2-20.77,4.09-5.33,35.12-41.17,38.43-40.5,1.27.26,2.04,2.95,1.31,4.26-6.4,9.83-9.7,21.32-15.62,31.39-5.99,10.19-13.37,20.87-19.74,31.22-2.17,3.53-12.08,15.51-11.29,18.37.55,1.99,3.81,2.19,1.87,5.7ZM777.49,1069.56c1.14-6.34,6.2-10.8,9.45-16.05,4.5-7.25,8.32-14.93,12.77-22.21,5.4-8.82,13.8-16.64,15.79-27.67-.2-.24-3.75,2.48-4.38,3.1-11.27,10.96-21.5,27.48-30.77,40.19-2.87,3.93-13.17,14.81-14.26,17.72-.63,1.68-.72,3.19-.54,4.94,4.36-1.11,7.58-1.1,11.94-.02Z"/>
      <path d="M448.58,903.87c2.98,4.25,1.12,8.13,2.17,12.81l3.46-2.01c4.48,4.13,2.21,11.09-.42,15.55h-3.08s-4.97-15.54-4.97-15.54l-3,1.49c-7.93,14.81-19.09,27.64-25.84,43.12-2.9,6.65-5.63,12.89-3.71,20.41,4.91,1.99,14.63,3.51,18.6-.53,7.01-11.91,10.5-26.67,17.53-38.44,1.71-2.86,7.75-11.33,10.42-12.57,1.58-.74,3.94-.33,3.97,1,.02.75-7.69,9.44-9.14,11.83-6.5,10.7-9.98,24.95-15.94,36.02-1.9,3.52-3.98,7.86-8.43,8.56-4.8.75-18.84,1.13-21.49-3.37-7.83-13.26,17.31-48.7,24.86-60.22,1.96-2.99,4.4-9.48,6.28-11.72,1.91-2.27,4.92-1,5.02-6.45l3.72.05Z"/>
      <path d="M436.75,836.74c-2.36,8.97.94,18.03,2.01,26.98l5.99-1c-.14,19.63-7.77,35.31-21.97,48.48-6.33,5.87-16.13,13.81-24,5.99-1.52-1.51-8.37-11.33-8.76-13.23-1.57-7.73.43-19.83,3.29-27.24s15.94-27.18,21.43-32.53c7.14-6.96,13.31-4.87,22.02-7.45ZM439.62,868.88c-.17-.28-2.29-.8-3.34-2.18-4.19-5.55-3.39-12.98-4.79-19.22-.98-4.38-1.92-5.86-6.78-4.31-6.05,1.93-20.28,22.98-23.74,29.22-4.1,7.38-9.31,24.7-5.58,32.18,1.46,2.92,7.67,11.03,10.89,11.2,6.92.38,23.39-18.3,26.65-24.42,1.49-2.8,7.67-20.84,6.69-22.49Z"/>
      <path d="M576.67,950.66c1.41-6.89-4.01-6.93-7.5-9.99-9.31-8.16-16.83-19.25-30.06-20.91-4.09-.51-18.49-1.26-19.41,3.4l2.88,34.91c-5.47,6.65-7.56-13.22-7.86-16.92s-.6-20.01.5-22.45c.62-1.38,3.64-3.46,5.19-3.81,9.06-2.02,22.24-.88,30.81,2.75,5.8,2.46,14.37,13.43,19.95,18.03,4.53,3.74,11.97,4.64,11.28,13.25-.75,9.43-7.28,6.7-13.18,7.84-6.73,1.29-14.01,3.99-21.08,3.97-2.31,0-17.93-2.77-19.42-3.64-1.03-.6-2.14-1.48-2.01-2.81.95-5.76,17.6.27,21.32.28,2.18,0,8.75-.63,11.02-.98,5.66-.87,11.17-4.32,17.57-2.92Z"/>
      <path d="M505.7,1117.56c.45,2.04-.46,2.67-1.45,4.04-4.8,6.62-11.78,12.3-16.95,19.03-4.9,6.38-11.74,20.33-17.06,24.91-6.88,5.91-14.22-4.04-14.55-10.55-.6-11.54,12.73-43.34,18.18-54.78,4.01-8.42,9.28-15.14,13.82-23.16,3.67-2.37,2.91,5.49,3.26,6.79,2.43,8.87,6.82,17.54,7.7,27.16l-2.43,1.55c-3.13-.71-4.95-18.53-8.02-21.97-.95-1.06-1.09-1.46-2.5-.54-4.68,3.06-22.06,48.64-23.67,56.28-.79,3.76-2.03,7.39-.75,11.15.42,1.23,3.63,6.13,5.47,4.57,7.15-9.59,12.6-20.44,20.45-29.52,1.71-1.98,16.25-17.29,18.5-14.97Z"/>
      <path d="M548.86,1018.87l-.29,2.59-3.39.18-.5-3.03-4,.59c-1.76-1.04-4.73-21.54-4.97-25.08-.15-2.23-.62-7.79.97-9.06,1.73.69,4.92-1.19,5.51-1.13.94.09,1.82,2.26,4.01,2.69,8.15,1.61,19.66,1.19,28.73,3.25,3.7.84,19.22,9.55,21.75,12.23,2.85,3.02,5.94,14.26,3.79,17.8-1.16,1.92-9.71,5.41-12.29,5.73-11.98,1.49-19.43-4.43-30.25-6.77-1.6-.34-8.22-1.29-9.07,0ZM540.69,989.64c.38,3.62,2.35,25.55,4.51,25.98,2.06-.34,3.03-2.29,5.18-2.79,10.31-2.42,25.66,10.05,37.55,7.56,2.32-.48,5.72-2.98,8.29-3.72-.57-3.17-.45-8.08-2.53-10.59-.79-.95-15.82-10.22-17.29-10.69-3.74-1.2-14.87-3-19.35-3.64-5.63-.81-10.86.95-16.36-2.12Z"/>
      <path d="M460.49,972.9c.07,3.37,9.51,19.14,9.24,20.22-.33,1.32-1.72,1.5-3.07,1.11-5.11-1.46-8.57-18.88-11.9-16.58-6.65,13.24-16.07,26.29-19.51,40.95-1.97,8.42-.62,10.19,9,10.09,18.06-.19,21.84-32.29,32.18-33.89,1.79-.28,2.18-.12,3.28,1.33-10.23,8.7-13.73,29.97-26.25,35.69-6.78,3.1-24.43,2.52-24.54-7.69-.08-8.2,10.27-29.5,14.66-37.16,2.58-4.51,10.58-21.03,16.91-14.07Z"/>
      <path d="M493.62,866.83c-1.09,21.67,10.73,36.75-10.56,51.68-17.4,12.21-12.38.48-15.8-10.84-.94-3.12-3.65-6.02-4.28-9.71-1.09-6.44,1.34-12.83-1.09-18.6.5-2.95,18.3-12.29,21.79-14.21l3.02,2.12c.36,1.56-1.3,2.03-2.28,2.66-3.46,2.23-15.4,8.04-16.48,11.51-.63,2.02-1.31,9.35-1.13,11.64.43,5.64,4.5,9.78,5.47,14.57.49,2.39-.09,11.02,1.94,11.03,4.78-4.17,14.12-8.46,16.04-14.93,2.81-9.46-6.41-31.39-.08-37.13,1.24-1.12,1.91-.13,3.44.23Z"/>
      <path d="M478.5,1025.82l3.73,20.8-2.01,1.95c-6.1-4.03-1.25-16.37-8.48-17.97-7.34,22.36-21.45,42.36-24.99,65.95,4.74.66,8.71-3.65,11.5-6.98,7.6-9.08,10.7-21.92,18.06-31.91,1.59-2.15,12.3-15.15,14.4-13.07-1.59,6.65-8,11.5-11.79,17.68-6.6,10.77-13.79,33.62-26.46,38.49-20.03,7.7-2.55-31.24.1-37.86,4.74-11.86,10.55-23.56,15.71-35.26,1.45-1.94,8.99-3.44,10.22-1.83Z"/>
      <path d="M504.71,1036.11c1.06,3.39,11.65.5,14.01-1.2,4.13-9.76-3.29-39-.55-43.3.67-1.04,1.42-1.32,2.56-.5,4.01,2.9,5.54,43.12,1.72,47.25-1.43,1.54-11.84,4.41-14.23,4.3-10.81-.5-6.82-13.28-7.52-20.53-.27-2.79-3.42-21.47-4.24-22.26-.91-.89-3.77.05-3.79-2.75-.04-4.37,15.64-15.34,20.04-9.96-1.74,5.62-7.47,7.54-12.07,10.09l4.07,17.87v20.99Z"/>
      <path d="M497.82,852.61c-3.4-5.77,7.66-9.17,12.35-8.89,3.46.2,8.69,3.17,10.79,2.85s6.34-3.56,9.09-3.98l8.58-6.29c-.78-3.04-10.74-12.24-13.91-13.09-4.26-1.13-12.11,1-17.55.57-3.18-.25-5.48-1.42-8.25-1.83-1.64-.25-7.74,1.67-7.23-1.7.92-6.12,9.64-2.55,13.48-2.46,6.19.15,16.35-1.05,21.82.17s17.57,13.95,16.72,20.22c-.34,2.54-9.61,8.29-12.33,9.73-2.74,1.45-9.24,4.66-12.04,4.49-4.58-.27-8.57-4.67-14.59-2.14-.98.41-5.2,5.25-6.92,2.35Z"/>
      <path d="M498.71,923.69l-1.89,5.35c9.9,8.16,11.56,42.77-.12,48.08-8.38,3.81-7.77-5.3-10.5-8.44-1.18-1.35-3.51-1.74-4.97-3.02-8.34-7.31-4.56-15.52-3.5-24.99-1.49.91-3.1.61-3.03-1.51.13-4.17,21.27-18.04,24.02-15.47ZM494.7,931.68c-11.77,1.75-19,21.79-12.05,30.28,1.41,1.72,4.71,1.28,7.09,4.17,1.67,2.03,2.43,4.99,2.98,7.52,2.97,2.26,6.75-9.43,6.99-11.49,1.21-10.75-1.27-20.58-5.01-30.48Z"/>
      <path d="M579.66,1146.53l.6-3.08c6.79-2.74,22.8-7.66,26.63,1.35,2.55,6-5.77,28.54-12.01,31.51-6.45,3.07-8.37-3.74-11.73-6.79-5.13-4.66-12.21-5.65-18.43-8.05l9.74-25.63c1.33-3.61,5.55-4.79,5.02-.05-.44,3.89-8.2,20.79-7.77,22.14,3.36,2.35,7.34,2.7,10.89,5.16,2.8,1.94,7.86,9.98,11.07,7.97,2.29-1.44,10.36-20.75,8.51-24.52-2.82-5.69-20.94,1.6-22.51,0Z"/>
      <path d="M524.54,1052.78c.48.77-.21,2.48.39,3.55.29.52,1.94.78,2.6,1.88,5.49,9.13,6.2,17.24,5.14,27.85-.87,8.74-6.93,16.28-15.9,10.92-6.34-3.78-3.8-12.99-5.51-18.47-1.4-4.49-8.97-8.55-6.7-15.8-2.32-.38-4.47-.62-3.87-3.62.25-1.26,20.97-10.94,23.85-6.32ZM523.69,1057.59l-14.05,3.61c-2.2,8.49,5.65,11.07,6.81,18.12.9,5.46-2.04,17.01,7.54,14.06,4.59-1.41,4.08-16.05,3.59-20.19-.63-5.34-3.85-10.12-3.89-15.6Z"/>
      <path d="M649.6,1182.51c.46-5.96,7.23-15.32,4.51-20.99-2.24-4.66-16.04-3.05-20.53-4.44-4.04-1.25-4.03-4.26.54-4.63,1.81-.15,10.78.83,12.89,1.19,8.75,1.53,13.63,4.55,12.52,14.3-.16,1.37-5.52,17.89-6.09,18.9-1.97,3.46-6.23-.19-9.6-1.04-5.72-1.44-25.52-4.23-27.98-8.49-2.53-4.37,2.34-13.26,3.56-17.51.41-1.43-1.22-2.65.11-4.78.66-1.06,3.05-3.23,4.47-3.43,8.14,1.39-7.41,18.76-3.92,23.97l29.52,6.96Z"/>
      <path d="M701.57,1149.53c-1.44,1.91,8.79,14.55,3.51,14.97-3.09.25-3.8-7.22-6.1-7.77-4.19.51-19.83-.67-21.91,2.79-.67,1.11,1.5,22.1,2.42,23.42,14.05,2.72,16.2-19.43,30.09-17.41l-.13,3.87c-8.59,1.22-12.04,11.7-18.93,15.54-3.24,1.81-5.96,1.84-8.86,3.13-1.88.84-2.8,4.58-5.45,2.5-1.44-1.13-5.37-31.16-4.39-32.83.19-.33,5.4-3.85,6.3-4.18,3.81-1.42,7.33-.51,10.85-1.14,4.39-.79,8.27-2.5,12.61-2.88Z"/>
      <path d="M784.29,1090.8c2.51,1.98-2.86,9.39-4.35,11.67-4.06,6.22-9.47,10.3-13.41,15.56-1.21,1.62-1.4,4.53-2.23,5.27-4.01,3.56-7.93-3.35-12.35-3.75-2.52-.23-4.85,1.33-7.39.98-.24-1.74.11-3.12.78-4.71,3.11-7.49,12.78-17.14,16.41-25.05,5.03-.21,18.69-3.01,22.54.02ZM778.53,1094.57c-3.84.6-11.68-1.31-14.48,1-.62.51-8.2,12.95-8.38,13.73-.21.91,1.94,5.81,1.83,7.78.96.79,2.22.63,3.35.3,2.31-.67,19.28-21.38,17.68-22.81Z"/>
      <path d="M544.68,1120.54l1.65-3.9c22.23-1.55,12.05,35.23-.14,35.97-10.81.66-24.42-17.27-28.32-26.4.12-1.49,10.94-13.02,12.97-15.01,3.03-2.98,5.81-1.5,4.09,2.08-1.57,3.27-11.2,12.06-11.07,13.58,2.72,6.39,17.45,25.79,24.86,19.2,7.03-6.25,10.36-25.92-4.03-25.52Z"/>
      <path d="M511.71,890.7c3.44.38,6.16-1.7,9.48-2.01,7.01-.64,25.54-1.78,31.9-.91,3.85.53,9.01,3.56,12.3,5.67,1.12.72,2.23.47,1.27,2.73-1.84,4.36-9.51-1.95-12.54-2.43-6.1-.95-23.47-.7-29.96-.1-5.83.54-10.48,4.39-15.85,3.15-1.16-.89-2.25-18.99-2.85-22.33-.58-3.19-5.46-12.06-.21-11.5,5.04.54,7.2,23.29,6.47,27.73Z"/>
      <path d="M468.74,823.75l-.12,3.88-10.88,3.6c-3.66,9.75,2.75,19.97,5.02,29.48,8.47.17,13.59-19.36,11.78-25.28-1.18-3.85-7.79-2.27-5.31-6.7,1.56-2.36,7.98,2.59,8.98,4.03,6.55,9.43-7.13,40.93-18.43,31.42-2.11-1.77-7.33-18.73-7.78-22.2-.66-5.16-.66-11.03,1.68-15.76l15.05-2.46Z"/>
      <path d="M509.71,864.72l-.54-3.02c.79-1.1,1.72-1.71,3.07-1.95,15.47-2.82,37.79,1.12,50.77,10.13,8.96,6.23,10.37,19.76,9.66,29.82l-3.47.04c-1.25-.39-1.6-19.15-7.82-24.72-.73-.65-15.61-8.29-16.87-8.62-2.63-.68-11.83-1.68-14.31-1.68h-20.49Z"/>
      <path d="M723.57,1158.53c.46-7.96-8.7-9.55-5.79-19.29,1.01-3.36,11.78-10.06,15.34-10.63,2.75-.44,18.43.74,20,1.87,1.43,1.03,4.76,6.02,2.51,7.62-8.29,5.48-17.51,14.28-26.16,18.82-1.85.97-3.74,1.73-5.89,1.61ZM732.06,1133.54c-9.37,5-15.86,10.49-3.84,17.78,1.36.12,22.06-13.54,22.85-14.76,1.05-1.64.05-1.98-1.02-3.02h-17.99Z"/>
      <path d="M491.71,822.74c.51,8.42,6.58,16.35,4.98,24.96l-4.49-.95c-.43-6.23-5.18-14.96-5.44-20.64-.05-1.11-.17-2.2.91-2.92l4.04-.45Z"/>
      <path d="M561.67,360.06h-9.98s1.12,13.85,1.12,13.85c6.2,1.63,15.96,2.21,21.57,4.91,4.47,2.16,14,13.03,16.95,14.06.71.25,1.5.41,2.19,0,.48-3.45,6.87-5.93,6.03-9.17-.68-2.61-9.96-5.94-12.45-7.63-2.63-7.18,9.03-7.96,13.99-8.09,10.05-.27,20.8,4.43,25.05,14.02,1.72,3.88,5,18.87-1.98,18.05-3.61-3.1-8.08-3.95-11.87-6.2s-4.53-7.35-9.72-3.39c-.81.62-5.65,6.65-5.82,7.26-.74,2.77,5.15,6.54,6.86,8.81,22.16,29.47,22.85,75.04-8.65,98.23-16.98,12.5-24.19,14.25-45.55,10.94-12.86-1.99-30.74-4.42-42.69-9.28-13.14-5.34-15.61-9.58-22.82-21.15-8.76-14.07-12.39-23.32-10.1-40.7.87-6.58,11.05-29.91,14.74-36.23,2.78-4.75,6.34-8.96,10.09-12.96.26-1.49-7.1-8.78-9.35-8.43-.36.06-4.15,4.84-4.62,5.52-1.31,1.89-1.78,3.4-3.62,5.92-.51.7-.11,1.89-.98,2.67-1.92,1.73-5.06,2.07-6.82-.08-7.91-9.69-1.48-23.97,6.07-31.85,9.51-9.93,14.32-8.61,27.44-6.66,5.3,10.33-7.24,11.05-11.13,18.08-.24,3.54,6.5,9.54,9.41,9.27,1.31-.12,17.34-11.53,22.67-13.27,7.1-2.31,13.03-.64,19.88-2.61-.46-5.19-1.88-9.71.08-14.89-2.56-1-11.14,4.91-11.99,1.48-1.12-4.53,8.21-7.45,11.54-7.51,1.57-.03,10.56.89,11.74,1.24,2.56.74,4.01,3.43,2.7,5.8ZM500.21,440c-5.58-.41-11.38.3-16.99,0l-2.49,10.99,7.98-2v1.98s-7.88,2.12-7.88,2.12c.87,3.19-.36,16.1,3.24,15.76,4.14-3.53,7.33-3.58,12.64-3.87l-11.74,7.47c4.38,7.97,5.99,16.62,14.74,6.51l-5.71,7.48c1.53,4.12,4.27,8.69,8.7,10.11,4.73,1.51,6.86-6.82,12.01-6.58l-7.99,8.97c4.98-.05,11.23,5.74,15.05,2.58,2.33-1.92,3.14-6.04,5.92-7.56l-3.99,9.99,10.43,1.88,5.06-17.86c2.82,2.21-.25,6-.24,8.71,0,1.31,1.39,2.19,1.4,2.78,0,1.07-3.74,4.08-2.65,6.49l16.35,2.92c3.16-1.01.65-7.58,2.13-9.91,2.52,2.92-2.01,9.26,3.2,10.79,2.86.84,14.68.35,16.81-1.78s-1.37-1.9-1.52-2.67c-.54-2.7.37-6.45.01-9.34l.95,8.32c4.56,4.09,9.36-3.17,13.91-4.45,1.41-4.54-4.87-4.27-4.87-7.87,3.44-.21,4.62,2.96,6.61,4.94,2.23.95,9.39-6.95,8.37-7.93-2.07,1-11.01-2.7-8.98-5,1.41-1.61,2.22,1.81,3.23,2.29,8.19,3.94,10.91-.46,11.75-8.29l-4.51.98-.48-1.97,7.11-1.61c6.55-16.77,1.82-36.57-5.62-52.36-3.5-7.42-11-16.26-16.93-22.04-6.14-5.99-15.77-15-24.53-14.95.45,3.83-.18,6.42-1.74,9.8-.65,1.42.6,2.73-2.26,2.18,2.95-7.87,5.95-15.53-6.04-13.51l.04,7.52c-4.17.86-.36-5.72-2.97-7.55l-9.32,1.55c-1.08.44-1.38,3.44-1.58,4.62-.41,2.4,1.23,7.23-2.12,6.38l.96-10.95c-4.11,1.21-4.37-2.38-5.14-2.86-2.1-1.33-10.54,4.85-12.8,6.32l5.97,4.49-10.33-1.87-1.65,3.87,3,2-2.83.18-.27,2.69c-2.59.53-3.62.53-4.43-1.91l-1.79.19-5.65,5.35c1.75,3.83,7.51,1.38,7.86,1.63.33.23.28,2.21,1.73,2.73,1.78.64,4.43-.1,6.38.15-2.81,5.02-14.51-2.1-18.32-.91l-5.67,11.89,4,.99c-7.83-1.83-8.9,10.45-10.98,15.99,3.06-.12,6.14-1.72,9.28-.96.7.17.69,1.63,1.48,1.88,2.67.85,7.05.26,8.22,3.07-1.5.61-2.77-.94-3.5-.99Z"/>
      <path d="M464.03,527.26c3.22-2.69,8.54.66,9.95,3.93,2.25,5.19.76,23.9-3.23,28.26-2.03,2.22-9.88,3.73-11.54,1.49-.46-3.77-3.24-7.81-3.28-11.5-.05-5.45,3.81-18.6,8.09-22.18Z"/>
      <path d="M429.01,528.21c4.2-4.14,10.96,3.43,11.65,8.32,1.4,9.91-1.15,30.79-15.43,25.42-3.19-7.35-3.35-17.22-.78-24.83.34-1,4.21-8.56,4.56-8.91Z"/>
      <path d="M443.74,653.86l-.97,3.52c-6.45-.42-14.17,5.86-18.99-.03l12.55-3.42,7.41-.08Z"/>
      <path d="M445.76,637.88c1.34-.27,3.64.1,3.94,1.56.14.68-3.1,12.92-5.44,12.42-3.74-.8,1.24-11.72,1.5-13.98Z"/>
      <path d="M375.66,410.16c3.85,2.37-2.89,34.35-2.91,40.16.39,1.58,7.04,2.63,8.73,3.48,1.38.69,10.86,6.19,11.31,6.68,1.52,1.67,1.53,4.85-.62,5.46-2.73.78-11.45-5.89-14.38-7.45-3.41-1.81-10.08-1.97-11.55-6.43-1.98-6,1.72-15.41,2.43-21.67.73-6.41-2.79-22.45,6.99-20.23Z"/>
      <path d="M423.76,466.98c-3.49-2.64,8.43-1.96,9.39-2.1,3.37-.49,6.56-2.27,10.09-1.9l.48,1.99c-2.21-.46-1.81,2.02-1.98,2.02h-17.99Z"/>
      <path d="M423.77,423.01l-.5-3.99c-4.32,1.05-5.38,8.01-9.49,7.49l13.48-14.49c2.15,1.51.98,1.79.51,3.47-.62,2.19-1.94,6.29-3.99,7.52Z"/>
      <path d="M531.92,455.76c-4.07-4.05,1.09-21.29,1.75-27.27.46-4.14-1.21-13.78,1.49-16.49,1.68-1.69,4.24-1.61,5.31.72,3.52,7.63-2.95,29.34-3.26,38.33.45,1.02,16.2,7.89,19.42,10.47,3.14,2.52,2.75,5.71-1.37,5.46-3.15-.2-8.92-5.18-12.21-6.87-2.33-1.2-10.11-3.33-11.14-4.35Z"/>
      <path d="M589.64,424.01l-1.97-.48.49-3.51-9.5,7.98c2.7-6.16,9.02-9.33,13.5-13.98,1.72,3.41-2.53,6.41-2.52,9.99Z"/>
      <path d="M588.65,467.98c-.19-1.46,2.71-1.53,3.78-1.71,5.16-.88,10.98-1.33,16.21-1.27l-1.99,2.99h-17.99Z"/>
    </g>
  </g>
</svg>