<?xml version="1.0" encoding="UTF-8"?>
<svg id="Calque_2" data-name="Calque 2" xmlns="http://www.w3.org/2000/svg" viewBox="0 0 627.66 1556.51">
  <g id="Illu_Vectorisée_BLACK_" data-name="Illu Vectorisée (BLACK)">
    <g id="Fleur2">
      <path d="M355.4,399.36c2.48,4.38,1.36,8.72,2.46,13.02.67,2.62,4.51,6.07,4.5,6.46,0,.58-4.47,3.01-2.56,5.5,5.19,7.69,7.87,16.64,12.41,24.65,9.12,16.1,28.44,39.82,33.61,56.34,21.62,69.06,4.64,150.42-1.44,221.35-1.93,22.57-1.6,45.39-3.02,67.94-1.17,18.57-5.06,38.28-5.98,56.99-.89,18.15,1.55,38.79,4.09,56.86,2.49,17.78,6.47,46.08,11.17,62.79.92,3.28,1.39,4.65,4.79,5.33-.14,4.78,1.54,19.08,3.84,22.77,1.95,3.14,13.33,3.1,16.8,1.87,3.36-1.19,14.99-9.21,18.18-11.8,45.26-36.77,75.56-81.95,104.82-132.04,6.73-11.53,22.52-48.82,33.43-53.51,2.82-1.21,6.52-1.26,8.82.9,1.42,2.25,1.1,8.87.81,11.72-3.11,30.58-14.28,56.71-23.9,85.04-3.73,10.97-6,23.19-9.94,34.04-12.26,33.76-44.9,68.74-70,93.91-16.64,16.68-42.82,31.3-58.95,48.99-8.3,9.1-25.55,33.02-28.5,44.46-8.22,31.87-4.95,73.79-10.64,108.29-7.38,44.77-17.75,84.31-38.3,124.61-14.95,29.32-30.91,51.7-47.91,79.01-3.94,6.33-6.53,14.79-11.57,20.41-10.02,11.15-24.5,28.14-35.45,37.5-3.43,2.94-8.02,4.94-11.05,7.94-4.13,4.09-7.67,11.37-11.94,16.04-7.07,7.73-17.27,17.41-24.97,25-2.7,2.66-17.02,15.01-19.85,14.76-3-.26-5.65-3.61-4.17-6.78.77-1.65,11.92-10.02,14.5-13.51,2.35-3.17,3.38-7.2,5.56-10.43,11.14-16.49,23.59-26.95,33.59-46.36,24.89-48.3,45.29-96.76,64.02-147.86,14.74-40.22,28.72-69.64,26.79-114.21-1.6-36.89-9.03-74.48-11.02-110.91-2.12-38.57,10.19-73.24,13.98-110.93,3.79-37.73-2.97-106.77-30.99-134.9-6.77-6.79-24.42-2.15-32.65,1.29-5.1,2.13-9.02,6.5-13.78,9.21-9.77,5.57-30.19,14.18-37.01,21.95-3.58,4.08-5.89,9.38-9.51,13.47-4.81,5.43-9.03,7.11-13.13,13.85-6.6,10.83-12.21,23.7-13.7,36.27-4.29,36.14,5.22,83.49,12.16,119.52,1.34,6.95,4.26,13.4,4.51,20.06-9.17,10.36-10.07-2.2-12.58-7.99-1.48-3.41-5.39-6.97-7.38-10.61-18.09-33.22-43.19-83.47-44.84-121.06-1.85-41.98,7.05-75.92,33.6-108.4,9.2-11.26,14.74-9.32,25.72-15.25,4.22-2.28,7.98-6.31,12.14-8.85,23.28-14.22,54.72-13.33,80.74-19.19,1.96-.44,10.07-2.83,11.49-3.5s20.79-21.73,22.08-23.89c3.21-5.39,9.98-28.88,11.84-36.13,8-31.1,12.36-65.14,19.26-96.67-.25-32.22.09-64.83-1.99-96.92-1.46-22.56-9.59-39.14-17.44-59.52-.61-1.6-6.72-24-9.52-21.94-1.55,7.24-1.13,14.76-2.45,22.04-2.02,11.11-5.81,25.09-8.84,36.14-8.03,29.28-17.56,54.73-38.65,77.28-7.78,8.32-30.46,19.63-41.57,21.39-8.67,1.37-37.64-1.76-46.1-4.75-14.98-5.3-21.39-17.62-30.31-29.65-37.26-50.22-14.38-88.1,10.56-136.4,2.95-5.71,4.7-12.81,7.58-18.41,4.76-9.25,10.86-14.84,14.17-25.81,2.26-7.48,4.87-29.39,1.15-35.73-.93-1.59-15.48-11.12-17.9-12.08-31.04-12.33-54.47,11.57-81.24,21.77-18.11,6.9-32.29,7.54-51.76,6.29-24.61-1.58-43.14-19.8-45.41-44.53-3.72-40.47,8.9-86.56,31.94-119.94,13.45-19.48,22-17.5,42.24-25.72,10.05-4.08,24.07-11.47,33.76-14.22,7.26-2.06,35.87-.61,44.36.56,9.66,1.33,14.81,12.76,20.29-3.87,7.74-23.47-6.27-41.94-8.7-63.69-3.85-34.52.73-68.82,28.96-91.95,11.83-9.69,20.32-11.42,35.53-10.52,25.93,1.54,43.68,12.61,59.4,32.55,15.99,20.28,32.61,42.91,45.79,65.14,9.47,15.97,16.1,44.05,39.64,43.32,9.13-.28,30.99-18.74,36.92-26.11,12.4-15.4,19.54-30.96,27.39-48.57,10.41-23.36,21.15-49.06,44.13-62.8,46.51-27.81,101.55-25.78,132.72,22.21,15.01,23.11,17.44,40.78,3.01,65.56-12.34,21.18-21.77,30.61-38.29,47.65-5.47,5.64-9.92,12.68-15.95,18.03-5.2,4.61-11.44,7.26-16.53,11.46-5.15,4.25-8.15,9.9-12.47,14.52-13.32,14.26-22.38,23.64-31.04,41.92-14.54,30.67,4.06,53.47,26.05,72.98,12.03,10.67,26.93,19.51,37.86,31.1,4.63,4.91,13.05,20.62,13.62,27.35,2.9,33.75-6.75,79.09-23.47,108.53-4.53,7.97-11.74,9.12-17.53,13.45-6.86,5.13-6.79,6.83-16.75,9.23-35.98,8.68-62.61-15.88-88.88-35.54-3.33-2.49-7.27-3.91-10.64-6.35-19.89-14.4-30.2-38.92-48.3-55.64-7.37-6.81-10.67-6.08-20.32-5.15ZM163.33,194.67c-.34-.42-8.96-3.04-10.3-3.19-6.78-.76-32.48-1.57-38.72-.73-5.25.7-54.87,20.8-61.7,24.24-15.42,7.78-29.74,44.93-35.76,61.18-10,27.01-17.69,79.93,10.63,97.84,11.28,7.13,32.17,7.35,45.64,6.41,33.54-2.33,57.1-35.25,93.76-31.9,11.89,1.09,24.91,7.34,33.93,15.03,4,3.41,5.07,5.56,6.23,10.76,3.9,17.58-.64,36.47-9.04,52.05-19.01,35.25-48.85,83.13-43.4,124.33,1.72,13.04,23.4,46.29,33.96,53.99,6.72,4.9,17.23,6.64,25.44,7.54,20.82,2.29,26.2.87,44.46-7.48,1.79-.82,4.1-.43,6.37-1.62,8.48-4.42,16.85-19.1,22.17-26.8,12.74-18.46,11.54-18.72,18.15-39.82,5.04-16.12,10.93-32.19,14-48.97,4.07-22.28,4.51-45.82,11.23-67.72,5.13-16.7,9.97-29.85,29.53-31.43,9.09-.73,13.44.95,20.39,6.56,19.82,16.01,30.73,43,51.14,57.8,3.47,2.51,8.07,4.36,11.82,7.17,24.15,18.03,47.01,40.3,80.3,32.16,7.27-1.78,8.19-5.45,12.8-8.19,1.8-1.07,4.05-1.08,5.85-2.14,5.69-3.37,13.58-20.23,16.1-26.87,5.67-14.94,10.01-37.03,10.99-52.97,1.15-18.72,2.18-35.35-11.04-50.01-7.83-8.68-18.1-13.22-25.87-20.1-27.72-24.53-57.44-54-39.61-94.37,8.96-20.28,30.19-48.5,46.97-62.96,8.46-7.29,15.7-11.12,24.02-19.95,7.34-7.79,18.86-18.46,24.98-25.99,8.84-10.89,25.45-37.83,26.46-51.5,1.57-21.45-21.05-48.34-39.6-57.31-20.95-10.13-40.86-10.56-62.85-3.18-39.62,13.3-48.62,33.93-64.6,69.31-13.03,28.84-26.01,54.67-53.87,72.05-14.7,9.18-21.6,12.78-38.89,5.08-15.62-6.96-21.28-26.54-28.81-40.15-12.93-23.35-31.59-47.83-48.16-68.77-12.31-15.55-25.84-26.02-46.41-27.54-14.56-1.08-23.57-.66-34.54,9.51-24.65,22.84-25.91,54.36-21.71,85.71,1.2,8.94,7.48,19.33,8.65,28.33,1.87,14.25,1.8,34.87-8.92,45.88-1.2,1.23-6.87,5.62-8.33,5.34-3.57-.68-3.21-5.88-3.84-6.64ZM587.26,826.13c-6.34,12.13-11.93,24.81-18.83,36.64-30.1,51.66-59.7,94.71-105.63,133.22-12.92,10.83-31.15,22.11-48.14,13.23-8.87-4.64-8.69-23.44-10.54-32.43-6.79-32.96-14.65-65.57-17.72-99.21-2.69-29.48,3.1-67.61,5.03-97.89,2.55-40.07,5.13-79.88,7.97-119.96,3.49-49.25,9.78-100.05-4.71-148.23-3.6-11.98-8.01-14.04-13.71-23.27-2.8-4.52-4.12-9.62-6.78-14.21-8.48-14.65-19.29-27.77-25.56-44.4-2.16-5.73-2.16-11.37-3.24-17.26-9.18,12.4-9.68,30.37-11.75,45.36,9.19,8.19,10.87,19.92,15.27,30.58,8.03,19.46,15.51,34.79,17.46,56.5,3.8,42.35,5.66,89.82-2.46,131.43-6.01,30.8-13.13,72.68-24.73,101.2-2.29,5.63-23.4,29.96-28.48,32.48-2.09,1.04-9.39,3.22-12.06,3.93-23.82,6.38-52.83,6.03-74.84,17.11-5.25,2.65-9.7,7.48-14.62,10.36-6.37,3.73-15.54,4.99-20.58,9.4-4.73,4.14-21.84,31-24.57,37.4-11.69,27.42-12.6,71.31-5.02,99.93,3.68,13.88,10.72,25.52,16.67,38.3,4.76,10.23,8.22,21,14.32,30.67,2.35-.04-6.09-42.74-6.49-46.49-3.56-33.21-4.78-71.57,16.55-99.37,3.16-4.12,7.61-6.33,10.94-10.05,3.23-3.62,5.41-8.72,8.51-12.48,9.28-11.26,30.41-20.14,43.29-27.67,4.07-2.38,7.33-6.56,12.37-8.62,10.47-4.28,33.33-8.94,42.26-.71,31.33,28.88,38.58,100.56,35.96,140.91-2.44,37.51-15.98,73.94-13.97,111.94,1.22,23.1,6.02,47.7,7.97,70.98,2.1,25.04,6.6,67.17-.48,90.45-13.97,45.91-31.66,90.93-50.65,135.24-7.1,16.57-13.9,36.26-21.95,52-3.14,6.14-7.6,10.65-10.68,16.3-3.41,6.26-5.23,14.13-9.17,20.31,1,.95,7.4-3.87,8.54-4.94,9.08-8.56,16.96-19.64,25.04-28.92,2.59-2.97,7.21-5.47,9.83-9.16,3.53-4.98,6.21-12.74,9.73-18.25,21.3-33.34,42.7-66.36,59.33-102.57,9.99-21.75,19.11-70.02,23.16-94.77,5.41-33.02,3.67-66.06,8.4-98.54,4.31-29.66,27.07-55.68,48.83-75.1,15.06-13.45,33.26-25.46,47.01-39.94,22.37-23.56,48.92-50.83,61.7-81.22,5.86-13.95,9.23-31.08,14.21-45.76,7.2-21.24,15.34-37.76,17.89-61.07.12-1.1.89-3.61-.87-3.36Z"/>
      <path d="M303.43,246.44c-6.52-1.06-6.46-3.34-12.48,1.01s-23.33,26.75-26.25,33.71c-10.43,24.91-1.4,42.71,19.82,56.67,5.67,3.73,7.77,1.74,13.3,2.69,13.12,2.26,14.98,6.21,26.08-3.15,18.11-15.27,29.68-65.77,22.81-87.72-1.42-4.53-12.73-22.7-16.26-25.72-1.45-1.24-3.92-2.87-5.76-3.24-4.43-.88-12.02,2-11.26-4.22,17.6-5.27,28.75,6.91,36.78,20.68,17.01,29.14.44,89.4-26.31,109.22-10.45,7.74-13.6,2.75-24.07,1.13-3.19-.5-6.58.23-9.8-.19-9.79-1.3-27.15-17.55-31.44-26.52-13.01-27.21,3.25-51.15,21.35-70.35,5.83-6.19,19.68-17.71,23.49-3.99Z"/>
      <path d="M520.17,161.35c-.38.63-3.18,1.56-3.75-.48-.6-2.16-.21-5.02.63-7.11,1.12-2.76,11.42-10.71,12.23-4.76-.26,1.03-6.74,4.22-7.89,6.11-1.43,2.34-.65,5.31-1.22,6.25Z"/>
      <path d="M226.02,585.66c1.04.17,1.66,1.43,2.44,2.09-1.79,3.21-15.28,5.26-15.96,1.98-.5-2.39,12.19-4.29,13.53-4.07Z"/>
      <path d="M291.94,473.34c3.02,3.73-1.67,8.15,2.51,12.45l-2.52,1.56c-6.8-2.57-4.34-10.13,0-14.01Z"/>
      <path d="M275.46,89.54l3.05.44.78,1.22c3.56,17.79-6.02,12.55-3.83-1.66Z"/>
      <path d="M415.35,170.49c.91,4.19-2.71,3.66-4.7,5.29-1.44,1.18-1.51,4.69-5.28,3.69-.81-6.11,4.51-9.14,9.98-8.98Z"/>
      <path d="M531.8,384.37c3.16-.81,10.55,7.81,5.96,8.99-3.16.81-10.55-7.81-5.96-8.99Z"/>
      <path d="M514.44,360.24l-.14-3.85c12.96.1,15.73,11.57.14,3.85Z"/>
      <path d="M186.02,543.28c3.65-.86,3.26,11.5.97,11.98-3.46.73-4.39-10.4-.97-11.98Z"/>
      <path d="M456.33,124.52c1.4,1.36-4.03,6.31-5.16,7.33-4.09,3.67-4.9,1.27-2.9-2.91,1.55-3.25,4.39-4.86,8.06-4.42Z"/>
      <path d="M449.33,426.36l-.46,3.02-1.2.83c-3.73-2.08-6.11,4.41-7.79.17-1.95-4.94,6.04-6.07,9.45-4.02Z"/>
      <path d="M367.4,372.37c-3.56-3.67,8.78-9.59,9.98-4.48.54,2.29-9.37,5.11-9.98,4.48Z"/>
      <path d="M208.49,186.48c1.38,1.32-6.05,11.02-7.98,8.98-.99-4.83,3-9.65,7.98-8.98Z"/>
      <path d="M528.33,38.51l.11-3.78c4.32-2.67,6.89.4,8.58,4.35l-2.24,2.47c-1.74-2.3-3.5-3.27-6.45-3.04Z"/>
      <path d="M192.8,501.59c.45-.55,3.57-2.41,4.17-2.29l1.51,2.48c-2.36.91-4.13,7.98-6.47,7.51-2.67-.54-.14-6.57.79-7.7Z"/>
      <path d="M488.81,198.49c2.74-.06,1.2,11.63-1.98,10.97-3.23-.68-.78-9.81,1.98-10.97Z"/>
      <path d="M207.15,348.53c6.74-1.78-.49,9.21-2.14,8.85-3.31-1.92-.43-8.17,2.14-8.85Z"/>
      <path d="M87.57,234.46c1.91,2.65-4.81,4.05-3,7.34-9.68,1.93-.15-11.71,3-7.34Z"/>
      <path d="M219.51,431.31c-.51-.64.8-10.37,4.46-8.95,3.15,1.22-1.27,12.96-4.46,8.95Z"/>
      <path d="M241.47,53.57c.56.84-.14,3.58-1.57,3.87-18.72-2.41-.81-7.46,1.57-3.87Z"/>
      <path d="M475.32,228.46c-1.15,3.31.97,8.31-3.48,8.98-2.02-.41-2.52-8.09.11-8.87l3.37-.12Z"/>
      <path d="M339.4,379.37c2.03,2.19-1.68,4.23-2,4.7-1.04,1.52-.31,4.51-3.48,3.28-4.6-1.79,3.16-10.48,5.48-7.98Z"/>
      <path d="M346.4,184.48l-.55-3.02c10.08-9.27,11.68,1.3.55,3.02Z"/>
      <path d="M197.5,584.25l-8.97-4.49c4.19-5.59,8.59-.93,8.97,4.49Z"/>
      <path d="M252.11,573.38l2.34,1.39c1.2,4.56-10.17,7.74-7.51,2.47l5.17-3.86Z"/>
      <path d="M567.26,50.56c2.21-.54,9.72-.06,8.99,3.48-.5,2.4-10.88,1.03-8.99-3.48Z"/>
      <path d="M472.32,298.41c-3.6.39-8.52-1.51-7.98-5.99,1.33-1.29,9.59,2.52,7.98,5.99Z"/>
      <path d="M415.37,393.36l-8,2c-.53-5.57,8.3-9.38,8-2Z"/>
      <path d="M211,461.59l2.47,2.24c-1.69,1.44-3.87,5.17-6.46,4.5l-1.04-3.01,5.03-3.72Z"/>
      <path d="M484.31,75.54c-2.94-.3-6.77,1.16-8.97-1.49,2.33-3.66,9.88-4.06,8.97,1.49Z"/>
      <path d="M175.39,327.52l.12,3.87c-4.23,0-8.18.31-6.99-4.99l6.87,1.11Z"/>
      <path d="M312.95,149.5l5.47,3.51c.96,4.68-11.07,1.51-5.47-3.51Z"/>
      <polygon points="529.78 451.35 531.88 454.38 527.79 459.31 525.69 456.28 529.78 451.35"/>
      <path d="M128.54,339.4l-.44,3.05-1.21.79c-9.92,1.18-6.68-5.77,1.65-3.84Z"/>
      <path d="M231.47,384.37c2.21,2.41-3.04,6.73-5.99,5.99-2.04-3.5,4.65-7.45,5.99-5.99Z"/>
      <polygon points="572.9 103.7 577.15 106.14 575.73 109.52 570.28 106.02 572.9 103.7"/>
      <path d="M495.3,339.39c-1.5,1.43-7.63-2.11-6.98-4.98,2.53-2.22,8.95,3.1,6.98,4.98Z"/>
      <path d="M507.95,467.44c1.89-.16,2.73,1.67,2.3,3.33-6.66,6.07-8.95-2.76-2.3-3.33Z"/>
    </g>
  </g>
</svg>