<?xml version="1.0" encoding="UTF-8"?>
<svg id="Calque_2" data-name="Calque 2" xmlns="http://www.w3.org/2000/svg" viewBox="0 0 1178.48 1145.83">
  <g id="Illu_Vectorisée_BLACK_" data-name="Illu Vectorisée (BLACK)">
    <g id="TV">
      <path d="M137.53,67.74l-.28,10.7c1.17,1.23,15.14-9.31,17.68-10.79,17.77-10.38,41.66-24.36,59.91-33.03,3.69-1.75,20.05-8.89,22.97-9.11,1.18-.09,2.29-.18,3.36.46,2.37,1.65,2.66,3.71,1.07,6.08s-22.6,10.96-27.35,13.62c-7.05,3.95-13.02,9.14-19.77,13.2-15.49,9.32-42.24,22.33-54.36,34.58-1.71,1.73-2.2,1.67-2.57,4.43-.21,1.56-.83,9.23,1.53,8.53,15.53-10.57,30.28-22.59,45.77-33.18,14.02-9.58,59.96-40.19,74.28-41.64,1.71-.17,8.83-.4,9.4,1.39l-.67,2.49c-17.4,1.76-29.51,15.41-43,24.8-22.95,16-45.72,32.11-68.16,48.76-2.73,2.02-17.35,13.23-17.89,15.08-1.29,6.98,1.41,13.91,1.83,20.74,3.21,51.33,3.95,102.8,8.96,153.91,3.23,32.94,8.45,65.37,12.86,98.06,2,14.79,2.31,31.17,5.15,45.81.22,1.12.3,1.99,1.54,2.42,34.64-7.1,69.74-11.92,104.54-18.19,9.01-1.62,17.61-4.67,26.59-6.39,24.58-4.69,50.13-5.05,74.36-9.58,31.22-5.84,62.06-16.32,93.53-21.4,28.81-4.65,58.33-5.61,87.15-10.29,1.61-1.9-5.94-8.63-7.53-9.95-13.23-11.01-33.1-21.73-47.36-32.59-68.75-52.37-40.86-139.07-2.5-201.18,24.86-40.26,60.64-68.01,97.87-95.99,4.68-3.52,33.04-20.38,31.48-5.55-.15,1.42-10.45,12.06-12.43,14.61-22.41,28.8-49.38,73.66-48.46,111.23.17,6.97,9.96,14.36,16.41,14.66,4.76.22,26.76-10.28,31.77-13.25,16.54-9.79,30.13-27.06,46.99-36.95,16.41-9.62,31.82-18.32,50.45-22.5,8.56-1.92,17.29-3.55,26.03-4.45,3.57-9.32,1.07-18.34,5.63-27.85,17.87-37.27,94.15-65.56,131.41-51.43,9.57,3.63,23.08,9.91,32.68,14.29,14.55,6.64,38.93,32.18,46.81,46.13,4.14,7.34,6.91,18.85,12.43,24.54,2.63,2.71,14.26,9.5,17.76,10.22,6.6,1.37,18.73-4.01,21.51,2.49,2.72,6.34-5.37,12.3-9.93,15.53-18.58,13.14-32.66,19.99-55.9,22.04-24.02,2.12-23.59-3.42-41.02-13.68-5.11-3.01-10.88-5-15.98-8-16.4-9.65-30.49-24.09-51.61-12.98-9.8,5.16-12.23,22.8-6.12,31.73,2.98,4.34,20.28,17.66,25.51,21.46,17.39,12.64,36.24,16.04,57.39,17.56,22.66,1.63,50.22-10.8,72.19-14.71,5.22-.93,11.52-.59,16.5-1.49,3.92-.71,18.87-11.8,16.34.27-.59,2.84-7.78,18.95-9.61,21.45-4.19,5.69-28.13,23.35-34.96,27-14.49,7.73-31.16,9.25-46.52,14.43-23.92,8.08-63.08,32.04-75.82,54.09-3.14,5.43-3.98,8.79,1.36,13.45,6.45,5.63,22.73,4.11,31.85,6.12,10.1,2.23,32.59,7.48,40.81,12.15,5.95,3.38,26.51,24.8,30.13,30.82s4.97,13.08,6.06,19.93c5.61,35.32,1.55,69.07-16.7,99.97-5.36,9.08-12.68,15.51-18.16,24.3,11.55-2.11,25.16-5.43,36.29.19,6.58,3.32,16.24,10.53,23.43,12.55,10.55,2.97,23.36,1.45,34.22,3.25-6.83-17.38-10.07-41.71-25.65-53.78-7.28-5.64-18.22-11.21-27.2-13.26-.83-.96.37-7.78.87-9.44.34-1.16-.68-1.78,1.39-1.32,9.47,2.1,27,12.18,34.14,18.84,8.42,7.85,13.26,19.15,17.21,29.75,6.43,17.22,12.36,34.83,17.73,52.22,1.17,3.8,3.48,8.06,5.48,11.53,4.06,2.6,8.92-9.43,11.03-12.04,2.12-2.61,5.34-5.84,8.95-5.47-.67,2.49,3.05,4.33,3.09,4.63.29,1.86-1.12,3.86-1.01,5.78.14,2.59,3.89,9.6,4.69,13.32,1.07,5.02.64,10.04,1.39,14.6,2.55,15.38,7.08,27.41,1.07,43.27-2.83,7.46-13.24,15.86-13.26,22.79-.01,4.48,2.93,20.2,4.36,24.71,2.99,9.39,5.94,11.43,6.71,23.27,3.33,51.17-1.84,127.25-29.17,171.66s-83.43,50.13-132.09,54.78c-3.92,3.09-1.94,7.67-1.64,11.85-6.15,1.45-6.17-6.59-5.99-10.99l-56.18,5.29-90.66,18.77-1.56,4.9c-1.34-.81-3.01-2.12-4.48-2.51-7.03-1.88-26.35,3.39-33.55,6.51l-1.88-2.07c-5.96,1.72-12.92,1.63-18.77,3.37-2.54.76-6.64,3.74-7.27,3.73-1.37-.02-2.61-2-4.96-2.08-6.9-.24-15.83,3.45-22.49,4.62-1.72.3-3.43-.69-5.23-.33-15.49,3.04-29.63,8.93-45.04,12.01l-4.25,5.76-2.51-.72-1.56-3.19c-33.6,4.91-65.35,16.5-98.16,24.58-64.88,15.99-142.97,24.78-209.56,18.26-36.9-3.61-75.48-21.78-104.77-44.13-48.46-36.97-51.62-82.74-62.92-137.93-3.76-18.35-12.24-44.61-13.68-62.26-2.7-33.04,2.23-65.48,4.02-97.87,1.61-28.94-3.13-62.39-9.29-90.72-1.33-6.11-5.23-12.24-5.75-18.74-.75-.68-7.19,4.28-7.98.48-.28-1.32,2.13-2.91,2.75-4.23,1.53-3.24,2.24-8.1,3.46-10.53,12.46-24.62,73.01-28.72,97.53-34.38,17.52-4.04,36.44-12.18,53.93-15.03,36.69-5.98,73.55-6.33,110.63-9.29,19.18-1.53,36.62-2.96,56.02-3.94,44.07-2.22,93.36-16.4,137.18-23.71,8.3-1.38,17.73-1.43,25.17-4.04-.18-2.32.81-4.52.99-6.78.69-8.84-2.75-39.72-7.15-46.78-1.54-2.47-4.02-5.16-7.31-4.76-38.16,5.38-76.81,7.16-114.46,15.57-19.69,4.4-41.11,12.47-60.72,15.23-34.5,4.85-68.53,9.43-102.94,14.98-45.07,7.27-91.31,12.54-135.95,22.95-19.24,4.49-78.67,25.28-89.95,39.96-7.45,9.69-15.61,27.54-22.36,38.6-2.87,4.71-7.93,9.31-10,13.99-3.59,8.1-11.1,39.87-12.52,49.44-.9,6.09-.48,13.63-1.51,19.48-.79,4.5-4.29,5.27-4.81,9.18-.44,3.31.67,12.14,1.06,16.03,2.98,29.82,6.72,59.08,8.95,88.98,3.72,49.96,10.17,99.24,15.91,148.97,6.73,58.39,11.26,116.74,23.6,174.25,4.88,22.74,7.29,37.17,25.97,52.97,17.58,14.87,34.1,13.18,54.86,16.09,19.86,2.79,37.58,9.13,58.13,7.91,39.05-2.32,79.34-13.75,117.89-18.02,14.87-1.65,30.07-1.41,44.95-3.02,29.38-3.16,58.46-7.92,87.94-10.99,27.23-2.83,53.91-9.7,80.97-11.97,30.45-2.55,60.55-5.13,90.94-8,31.15-2.93,61.06-.81,91.97-1.96,45.94-1.72,92.09-4.62,137.88-8.02,24.05-1.79,46.97-1.54,70.98-1.97,18.68-.33,38.16-2.4,56.96-1.08,10.62.75,21.27,4.14,31.95,5.02,15.34,1.27,33.57,2.36,48.92,3.05,39.24,1.76,87.87-5.2,102.49-47.49,9.39-27.18,8.29-88.84,6.97-118.91-3.05-69.74-26.06-139.2-35.84-207.98-6.59-46.37-11.78-100.02-14.11-146.77-.98-19.58,1.41-40.56-.02-59.93-1.08-14.53-10.06-62.68-16.56-74.37-4.83-8.7-19.19-24.61-26.93-31.03-29.28-24.26-76.59-28.13-113-32.9-4.12-1.75-2.16-8.46-4.39-12.09,36.12,4.39,79.14,9.87,110.95,28.45,13.97,8.16,35.02,29,42.76,43.18,6.66,12.2,16.05,62.67,17.17,77.76,1.45,19.5-.54,39.91,1.02,59.93,3.52,45.17,8.9,93.85,15.12,138.76,5.58,40.29,15.75,77.76,22.57,117.33,10.92,63.37,15.73,131.35,9.26,195.57-6.73,66.87-58.79,82.99-118.46,80.49-50.75-2.13-100.73-12.37-151.9-7.08-81.64,7.67-163.78,11.24-245.76,14.07-41.54,1.43-83.41,5.69-124.95,8.96-23.64,1.86-46.55,7.41-69.97,9.97-15.53,1.7-31.42,1.35-46.95,3.01-16.72,1.79-33.28,6.09-49.98,7.98-19.18,2.16-38.78,1.74-57.94,4.02-35.88,4.26-71.2,12.64-107.95,14.97-23.33,1.47-50.46-4.75-73.93-7.99-37.37-5.16-64.73-19.14-74.97-57.94-14.74-55.85-18.59-116.06-25.48-173.37-5.48-45.63-12.69-90.98-15.97-136.92-1.32-18.46-.54-37.62-2.02-55.93-1.72-21.25-6.2-43.74-7.97-64.98-.69-8.27-2.03-26.32-.93-33.88.45-3.05,2.47-4.92,2.86-7.13,2.91-16.55,7.53-50.23,16.02-63.92,7.04-11.36,15.02-22.5,22.04-33.92,3.82-6.21,5.38-13.17,10.97-19.01,13.14-13.72,58.15-30.84,77.17-36.75,11.02-3.42,22.35-5.65,33.67-7.8.91-1.07-4.07-23.94-4.63-27.7-5.53-36.87-11.7-73.69-16.15-110.75-5.95-49.52-7.33-98.13-11.11-147.77-.7-9.16,1.06-18.55-2.02-27.47-2.53-1.84-27.21,21.22-30.5,23.95-4.39,3.65-27.48,20.46-28.33,23.73-.42,1.61,1.89,5.62-.65,6.27-2.85.74-5.16-3.22-5.46-5.58-.61-4.82,3.05-9.42,5.95-12.92,7.47-9.03,22.86-22.97,31.99-30.97,3.81-3.34,26.34-19.86,26.76-22.08l-.77-11.37c-1.16-1.19-6.88,3.23-8.31,4.18-15.26,10.14-34.5,26.06-49.12,37.82-9.16,7.36-23.6,18.51-31.52,26.44-2.41,2.41,4.95,2.55,1.05,5.04-3.94,2.51-10.69.17-8.25-6.24,1.77-4.67,25.89-28,31.19-32.77,12.84-11.58,28.89-24.6,42.51-35.43,4.66-3.7,18.43-11.71,21.03-14.94,3.16-3.91-.36-7.47.42-12.07-1.14-1.22-7.43,3.6-8.88,4.6-31.2,21.63-76.69,55.44-103.02,81.88-.82.82-2.63,1.27-2.87,1.66s1.13,7.7-5.45,3.61c-3.75-2.34-.64-5.74,1.34-8.28,23.08-29.67,70.22-64.7,100.99-87.88,2.64-1.99,12.98-7.64,13.98-9,3.43-4.66-6.21-20.74,4.33-20.55,7.39.13,3.78,13.56,7.98,12.9,16.09-13.68,35.46-21.2,53.24-31.73,8.58-5.07,16.17-11.55,24.64-16.33,3.08-1.74,22.14-12.36,18.56-1.49-.45,1.38-12.56,7.09-15.2,8.84-15.57,10.34-30.85,21.06-46.58,31.36-11.14,7.29-21.47,15.66-32.77,22.69ZM963.06,108.06c-6.84-6.84-9.35-18.89-14.18-27.29-5.27-9.17-28.94-34.83-37.84-40.1-4.99-2.95-42.59-19.33-47.03-19.93-27.83-3.77-84.37,12.91-103.2,34.19-12.55,14.18-14.91,25.64-17.02,43.94l1.98.99-.99,3.55c-4.69-2.52-5.88,3.49-7.55,3.97-1.95.56-3.15-1.9-4.7-1.79-1.28.1-4.68,2.54-6.87,3.13-7.54,2.03-15.53,2.61-23,4.98-8.66,2.75-33.5,16.93-41.48,22.47-24.88,17.27-38.88,38-71.01,46.9-13.38,3.7-32.66-7.45-33.12-22.34-1.01-32.47,15.41-64.37,31.1-91.58,4.2-7.29,10.05-13.75,14.8-20.67l-37.99,27.45c-52.21,44.92-109.71,134.99-91.63,206.56,7.22,28.56,38.59,49.3,61.33,65.58,7.02,5.02,15.26,8.42,21.79,14.19,4.18,3.7,9.61,13.19,12.18,14.89,1.83,1.21,3.45.07,5.34.07-.8,9.9,7.03,14.03,9.51,23.97,9.42,37.77,5.23,57.45-13.02,89.92-2.17,3.85-4.34,11.37-6.03,13.96-4.57,7.02-16.81,14.99-22.83,21.14-11.32,11.56-11.13,18.04-27.91,26.05-26.12,12.46-45.61,18.19-75.16,15.85-6.61-.52-12.77-3.6-19.45-3.02,2.43,7.17,10.78,9.11,16.9,13.57,14.41,10.49,26.58,29.17,44.84,33.11,8.94,1.93,23.06,6.16,31.44,5.02,5.77-.79,12.57-4.02,18.71-5.27,12.97-2.65,20.37-1.67,33.03-7.94,26.5-13.11,51.7-39.98,70.45-62.46,14.44-17.32,40.75-72.79,46.95-94.95,10.58-37.81,15.96-66.89,53.15-88.74,3.49-2.05,29.62-10.52,33.88-11.09,11.36-1.51,39.27,5.95,50.6,10.19,5.79,2.16,26.25,11.26,30.69,14.27,11.02,7.48,24.01,37.51,25.04,50.91,2.83,37-5.89,63.44-28.99,91.9-5.03,6.2-12.34,10.4-17.48,16.5-4.5,5.33-7.67,12.1-12.45,17.52-8.17,9.28-19.58,15.35-27.01,25.44,8.3-.64,18.75-.42,26.3-4.17,4.36-2.17,9.04-6.99,13.36-9.62,11.92-7.27,26.21-13.16,36.81-22.15,6.19-5.25,11.7-12.96,17.98-17.99,5.88-4.71,14.14-7.57,19.49-12.49,4.97-4.57,22.34-27.66,26.78-34.17,17.49-25.61,21.8-54.2,20.15-84.75-.67-12.45-1.4-25.57-9.47-35.5-7.45-9.17-20.38-23-31.48-26.48-16.9-5.29-32.04-7.61-49.35-9.61-11.93-1.38-26.64-10.3-22.32-24.08,5.81-18.53,34.16-37.63,49.96-47.97,22.25-14.56,42.67-16.31,66.46-24.47,12.1-4.15,33.66-18.2,42.73-27.23,2.95-2.94,5.63-7.81,5.45-12.03-5,1.47-10.17.55-15.21,1.27-9.17,1.32-17.61,5.36-26.55,7.42-30.98,7.17-51.3,10.5-83.21,3.85-15.46-3.22-27.54-14.28-39.42-23.54-9.63-7.51-20.91-11.75-22.48-26.47-3.5-32.73,28.12-44.25,53.98-31,8.85,4.53,20.7,12.04,29.63,17.34,14.37,8.52,19.38,17.03,37.85,16.21,21.71-.97,41.17-8.63,58.35-21.6,1.51-1.14,2.71-2.63,4.06-3.94-5.18.37-9.57,1.09-14.8-.18-4.43-1.07-17.57-8.41-20.81-11.66ZM745.85,408.69c-1.05,7.74.77,17.5,0,25.48,11.41-2.81,23.71-3.14,35.01-5.46,9.69-1.99,18.15-6.49,28.57-7.4,9.2-.81,18.63.45,27.84-.14,7.3-.47,17.63-1.89,25.02-2.98,1.64-.24,1.45.63,1.51-1.5.08-2.63-.53-5.24-1.31-7.72-1.52-4.83-14.57-27.28-18.2-29.76-3.95-2.69-22.06-10.79-27.23-12.75-7.77-2.95-29.92-9.39-37.75-10.22-3.16-.34-6.61.2-9.82-.06-1.71,6.26-4.28,2.86-6.51,4.2-.85.51-6.42,13.23-7.16,15.32-2.39,6.7-9.16,26.91-9.98,32.99ZM485.02,922.29c1.25-14.2-.93-30.08,0-44.47-4.82.83-10.01,7.22-13.51,10.98-5.06,5.45-12,13.66-16.29,19.68-16.74,23.52-19.1,55.21-19.18,83.26,30.17-3.66,59.82-11.58,89.16-19.27,10.72-2.81,21.35-6.92,32.34-9.63,13.93-3.43,28.11-5.26,41.95-9.01.87-1.25.59-13,.43-15.54-.56-8.71-2.8-17.59-3.91-26.07-1.58-11.98,1.05-20.6-8.87-30.11l-12.41-42.55c-2.55-4.4-2.53,1.91-6.77.28-1.4-3.73,3.5-5.85,3.6-8.47s-5.21-17.91-6.14-22.46c-7.67-37.42.36-68.82,25.49-97.48,6.1-6.96,12-7.69,18.02-12.96,5.44-4.75,9.02-12.46,14.51-17.47,10.23-9.34,25.67-13.03,36.99-22.96,6.6-5.79,13.91-11.59,20.45-17.52,5.98-5.42,9.62-12.64,14.98-17.99,10.55-10.52,16.37-10.67,23.84-26.13,10.88-22.53,22.77-66.95,24.12-91.8,1.84-34.01-10.43-71.95-1.49-105.41,3.23-12.08,7.72-24.94,12.5-36.46,0-1.9-12.1,1.59-13.68,2.31-11.25,5.16-32.88,27.48-36.6,39.35-4.68,14.91-.36,43.33-1.72,60.24-.62,7.75-3.48,16-4.02,23.96-1.09,16.17,1.08,38.28,2,55.03.13,2.36,1.83,4.04,1.79,5.79-.31,11.91-18.71,38.32-25.3,49.58-.71,1.22-2.64,2.26-3.01,3.06-.55,1.18,4.47,4.75-.97,5.95-9.13,2-14.78,8.43-23.12,12.86-5.28,2.8-19.91,10.72-24.6,12.38-6.98,2.47-14.09,1.54-21.68,4.3-41.4,15.07-88.19,63.32-116.42,96.43-5.39,6.32-12.58,11.14-16.36,18.62-6.24,12.35-12.17,35.09-6.32,47.99,7.46,16.44,21.21,32.77,24.04,50.9,3.9,25,7.28,59.57,1.44,84.14-1.65,6.93-8.43,25.04-12.46,30.51-1.81,2.45-3.49,2.04-3.9-.88-.64-4.59,7.12-24.14,8.55-30.44.79-3.5,2.2-9.18,2.49-12.5ZM694.88,544.08c.85-18.94-3.41-37.49-2.03-56.49.55-7.57,3.42-15.49,4.02-22.96,1.05-13.12.17-28.24.52-41.46-5.23,18.7-9.67,37.77-17.02,55.93l-24.54,46.51,39.06,18.47ZM865.77,448.66c.64-6.33-.47-13.54,0-19.98,0-1.86-5.98-1.62-7.54-1.54-7.15.36-15.1,2.57-21.96,3.02-9.06.6-18.87-.76-27.84.14-8.29.83-14.99,4.8-22.38,6.6-7,1.71-35,3.1-38.28,7.69-2.29,3.2.66,19.21,1.07,24.07.38,4.65-.98,9.87.92,14.07.53.69,12.16,5.65,13.86,6.13,14.05,3.96,21.61,3.7,35.88,11.09,9.36,4.85,16.44,13.99,24.79,20.23,14.73-8.72,20.4-23.92,30.02-37.1l.34-2.19c-4.45-8.78-4.14-14.74-12.83-21.25-5.59-4.19-9.51-3.5-15.56-5.42-10.6-3.37-20.98-5.86-31.61-9.36-2.89-.95-6.17-.69-9.08-1.66l-.73-5.02c3.78.7,7.73,1,11.44,2.05,11.2,3.18,22.01,6.2,32.98,9.99,10.62,3.68,21.19,5.44,25.85,18.12.72,1.96,1.24,11.43,3.92,6.54,2.14-3.91,6.28-21.45,6.76-26.21ZM570.76,462.39c-11.51.4-24.72,3.48-35.96,6.06-1.96.45-13.81,2.91-13.78,4.19l35.43,23.49c5.77-10.88,13.3-20.86,17.49-32.49-1.14-1.68-1.56-1.3-3.17-1.24ZM437.05,558.07h33.48c.71,0,8.42-2.46,10.03-2.96,11.85-3.71,24.08-10.6,35.83-14.94l.63-2.58c-.61-1.9-30.45-9.28-34.65-9.41-5.28-.16-7.5,3.02-12.38,2.51l-2.29-1.86.56-3.54c4.19.23,8.82-2.69,12.42-2.84,4.02-.17,9.23,2.62,13.76,1.73l28.93,8.7c1.88-.35,6.74-8.28,8.61-10.32,3.75-4.09,20.07-17.14,20.89-20.17.47-1.75-.34-2.23-1.36-3.31-3.86-4.1-16.59-10.15-22.4-14.57-4.63-3.52-9.74-7.2-12.54-12.17-7.96,2-16.11,3.25-24.21,4.61-3.98.67-13.58.6-15.8,3.19-3.72,10.72-3.39,22.42-7.99,32.98-2.12,4.86-5.81,8.25-8.33,12.66-5.98,10.45-10.54,24.08-22.56,29.21l-.63,3.07ZM469.03,481.13c-24.83,4.22-49.73,8.13-75.02,8.43-2.44,6.21-1.6,12.94-3.72,19.26-2.73,8.16-11.13,23.04-15.34,31.62-3.22,6.56-8.89,8,.16,12.11,7.74,3.51,17.13,3.69,24.82,7.64l-.29,3.94c-13.93,2.75-29.42-3.72-43.14,2.91-2.27,1.84-.45,11.78-1.92,14.99-1.12,2.44-7.65,9.5-9.89,13.09-4.86,7.77-7.16,16-15.24,21.73-3.7,2.62-7.96,3.89-11.83,6.19l-2.48-2.5c.36-1.7,11.44-7.79,13.63-9.86,5.83-5.5,11.58-18.57,16.52-25.95,3.37-5.05,6.49-5.43,4.82-13.66-7.62.85-13.35,6.67-20.72,9.76-17.42,7.3-59.24,23.05-76.72,24.21-16.27,1.08-29.71-.46-44.98-5.97-22.71-8.19-45.09-18.97-67.65-27.28-8.85-3.26-19.36-4.39-28.77-4.71l8.03,45.94c24.65-4.47,53.29-6.47,76.91,3.54,5.88,2.49,11.21,7.01,17.32,9.66,6.77,2.93,14.72,4.32,21.34,7.64,2.33,1.17,9.42,6.87,10.01,7.02,1.45.36,4.4-1.01,6.76-.9,8.89.42,15.13,7.38,17.22,15.55l-2.19,2.47c-5.14-6.42-4.34-10.37-14.02-10.98-9.03-.56-11.36,7.54-14.48,14.54.04,1.43,7.46,6.33,7.1,12.94-.44,8.07-16.15,5.4-14.09-3.5-3.09-3.07-10,10.59-10.76,12.72-3.31,9.23-3.31,25.51,1.31,34.21,1.23,2.32,4.57,2.86,3.51,7.39-.25,1.06-8.41,1.81-11.69,5-14.71,14.35-11.69,35.62,5.33,46.41,4.98,3.16,10.45,4.03,14.64,7.42,2.23,5.22-6.68,13.99-7.34,21.25-.73,8.05,4.95,12.35,12.58,13.4,12.54,1.73,41.64-10.28,54.37-15.41,3.12-1.26,5.33-3.61,8.53-4.46,5.84,1.58,1.64,7.15,2.71,12.25,2.37,11.32,13.02,13.37,22.75,10.21,4-1.3,24.98-16.79,27.84-20.13,1.88-2.2,8.44-15.81,7.14-17.33-11.07.68.26-4.84.85-6.65.76-2.33-.75-5.77,1.05-7.94.88-1.06,11.31-3.94,14.4-5.59,7.36-3.93,15.68-13.77,16.71-22.26,2.67-21.88-5-28.26-21.87-39.14-2.98-1.92-12.82-3.76-8.15-8.86.95-1.03,4.67-2.01,6.5-3.49,1.57-1.26,9.96-9.56,10.31-10.71,1.74-5.82-3.93-18.99-10.75-9.67-8.66-3.77,9.47-7.24-3.04-11.11-16.68-5.16-24.36-2.59-37.46,7.54-2.14,1.65-4.37,6.16-7.53,4.51-5.16-2.69,2.05-13.69,2.76-18.27,2.56-16.48-.68-23-17.97-20.97-12.73,1.5-22.59,8.76-32.68,15.85,3.32,6.92-6.28,5.63-5.92,1.53.53-5.98,21.39-18.04,27.05-19.94,27.28-9.13,41.55,1.43,33.77,30.26,5.47-2.25,8.92-6.49,14.93-7.55,5.55-.98,13.67.81,17.18.04.63-.14,9.01-6.24,9.78-7.06,6.06-6.48,10.36-19.21,15.23-26.74,3-4.63,7.67-8.39,10.63-13.35,5.22-8.74,6.95-19.56,17.26-24.85.14-.91-5.23-9.76-6.25-11.73s-1.24-4.74-2.38-6.61c-1.83-2.99-7.9-4.09-4.95-10.06,3.06-6.21,10.58,1.28,13.51,2.5,4.56,1.91,9.79,1.14,14.48,2.5,13.94-7.91,19.08-20.63,26.33-33.65,2.15-3.86,5.28-6.75,7.17-10.81s8.06-28.45,5.99-30.49ZM388.09,490.13c-11.97-1.71-24.43-.89-36.47,0-19.16,1.43-43.86,3.64-62.07,7.88-2.77.65-5.7.77-8.39,1.59,5.33,4.23,13.03,5.67,19.34,8.64,7.83,3.69,22.44,10.91,28.63,16.33,4.05,3.54,6.24,8.01,10.65,11.33,6.56,4.94,15.52,7.51,22.84,11.15,2.25-.04,6.45-7.11,7.65-9.29,4.26-7.76,15.03-28.73,16.55-36.42.69-3.5.52-7.64,1.26-11.23ZM579.97,743.93c14.45-5.85,29.33-10.99,44.78-13.67,10.48-1.82,24.33-3.33,34.89-3.07,1.29.03,1.99.86,2.77,1.72,3.27-4.99,4.95-10.77,8.07-15.88,10.13-16.56,23.09-30.87,35.37-45.57,5.27-6.32,9.09-14.4,14.51-20.47,7.68-8.6,33.39-30.41,43.5-34.44,6.73-2.68,15.34-6.77,19.02,2.04-1.05,3.96-3.79,5.68-4.99,10-2.5,8.97-2.14,25.35-.8,34.65.58,4.02,10.42,26.74,13.23,26.72,5.04-6.16,12.32-10.69,17.46-16.5,4.53-5.13,8-12.51,12.51-17.47,8.81-9.68,18.61-9.94,24.67-24.29,6.08-14.39,2.78-41.24-8.6-52.71-7.52-7.57-9.95-.7-16.52,2.61-9.95,5.01-42.11,9.03-53.61,8.55-3.91-.16-6.38,2.77-10.4-1.57-8.41-9.08,13.33-8.88,18.37-11.64,4.13-2.27,11.35-11.63,15.61-15.37,11.4-10.01,24.23-17.46,29.61-32.98-.13-3.25-15.85-16.21-19.28-18.29-14.37-8.7-22.52-8.59-37.31-12.65-4.44-1.22-8.16-4.44-12.97-4.51,1.25,4.36,1.22,8.98,1.04,13.52-.98,24.61-5.44,36.3-12.3,58.65-6.67,21.77-9.01,41.81-26.7,58.23-16.77,15.56-32.55,34.37-50.51,48.42-8.63,6.76-21.13,10.64-29.39,16.57-3.89,2.79-8.04,10.43-11.1,11.88-6.04,2.86-12.53,2.48-16.82,10.16-5.42,9.7-12.65,17.38-18.93,27.04-1.11,1.71-6.44,8.64-5.17,10.31ZM1019.55,518.22c-11.93,1.39-25.02,1.27-36.71-1.77-14.86-3.87-27.14-18.3-43.59-17.35-2.46.14-13.8,3.07-15.9,4.14-3.99,2.04-4.01,5.59-6.15,8.88l-4.46-1.58c-6.05,7.7-16.13,10.74-23.48,16.59-3.36,2.68-12.82,10.51-5.47,12.42l8.07,12.47,4.86-.93c1.48,9.31,2.85,19.61,9.59,26.81,3.78-1.38,6.74.32,10.76.08,16.39-.99,28.17-17.93,40.09-26.86,6.32.88,3.92,5.11,4.64,9.35,1.02,6.02,2.23,12.86,6.48,17.54l47.86-31.93c1.76-.16,1.6-.08,1.49,1.53-.43,6.51,3.85,9.3,4.76,16.23,1.22,9.33-2.42,22.61-13.22,23.23-3.08-.44,5.09-8.26,5.7-9.29,4.56-7.66,3.29-17.63-1.73-24.69l-41.38,28.06c-1.67,2.41,7,9.96,2.42,10.91-1.69.35-11.71-12.8-12.88-15.08-2.65-5.18-3.35-12.11-3.6-17.89-3.59-.89-2.96,1.82-4.92,3.55-12.19,10.77-24.36,22.23-42.04,20.44-1.94,1.89,10.59,16.51,12.97,18.49,2.89,2.41,15.99,8.06,15.98,8.98-.02,3.63-11.66-.92-13.33-1.64-12.35-5.36-26.53-28.2-31.35-40.6-2.01-5.16-1.54-5.1-4.3-9.95-2.28-4.01-4.28-11.36-9.96-11.26.44,12.45-.6,25.06-.04,37.51.68,15.21,2.85,35.35,6.91,50.05,8.08,29.29,32.11,42.48,61.62,40.38,26.09-1.86,57.14-7.37,78.74-22.2,12.95-8.89,37.25-38.7,38.64-54.3.88-9.88-2.56-30.16-4.24-40.7-.34-2.12-5.13-19.76-6.24-19.72-4.43,7.69-9.03,13.49-16.02,18.94-4.19,3.27-9.94,8.78-15.31,5.87l-.16-3.83c4.08.46,7.56-.96,9.71-4.49-6-11.73-11.9-23.26-14.82-36.36ZM326.77,529.45c-8.95-7.97-48.6-27.13-60.12-28.32-20.52-2.11-48.22,10.42-68.62,15.3-18.1,4.33-37.23,4.88-54.77,11.17,0,1.06,7.19,2.77,8.76,3.21,16.75,4.77,41.67,11.63,58.72,10.32.99-.08,8.68-.75,6.45-3.03-1.81-1.85-27.75-7.57-32.29-8.19l-1.68-3.81c3.82-.35,7.5.51,11.19,1.29,3.27.7,24.89,6.61,26.19,7.58,1.22.91.44,2.83.59,4.13l14.98-2.99-23.97-7.02,1.46-3.83c7.64,2.58,16.4,3.81,23.78,7.09,3.92,1.74,6.56,4.5,10.18,5.81,8.8,3.19,23.11,4.7,31.26,8.72,1.74.85,2.96,2.36,4.26,3.72l-2.47,2.31c-10.42-5.54-23.37-7.65-34.91-10.7l-2.23,4.95-21.33,1.94.06-2.92,16.93-3.08c-.68-1.78-5.94-1.13-7.53-1.03-11.95.76-23.94,4.83-36.44,3.03v4.01s-36.39,1.88-36.39,1.88l-1.58-3.89c9.06-1.21,18.45-.93,27.5-2,1.41-.17,2.93-.64,1.48-1.99-10.34-2.52-20.9-4.57-31.2-7.29-4.08-1.08-18.17-6.72-20.24-6.77-2.25-.06-13.56,3.88-15.86,5.22-2.96,1.72-14.56,12.27-14.63,15.3l4.92,13.09c11.96-3.23,26.19-.28,37.41,4.54,18.6,7.99,37.64,16.05,56.62,23.33,22.5,8.62,42.27,12.03,66.14,5.25,22.66-6.44,50.5-18.23,71.72-28.22,10.14-4.77,20.4-9.98,31.99-9.49l-32.28-15.18c-6.03-2.64-9.65-9.53-14.04-13.44ZM606.94,586.05h18.49c2.66,0,18.19,4.93,21.75,6.23,3.09,1.13,17.39,8.62,18.81,8.31,1.91-.41,4.51-3.62,5.73-5.22,4.96-6.51,15.74-23.58,19.02-30.95,1.35-3.02,5.52-11.72,3.69-14.39l-41.98-18.97c-4.23,11.82-14.3,18.97-22.04,28-4.75,5.54-9,12.74-13.95,18.02-2.96,3.16-7.32,4.98-9.52,8.97ZM872.76,545.09l-37.95,22.48c12.31,9.54,16.94,22.66,17.96,37.98,1.2,18.01-1.72,28.65-15.5,40.44-3.93,3.36-8.68,5.49-12.5,9.49-5.11,5.35-8.46,13.08-13.45,18.52-5.75,6.27-14,10.1-18.1,17.95,2.13,10.94,11.2,19.84,11.39,31.51l-1.79,33.47c7.65-3.48,14.2-9.05,21.77-12.7,5.38-2.59,19.08-6.01,22.26-8.72,4.09-3.48,5.18-14.54,7.16-19.82,6.61-17.63,18.59-23.15,28.73-36.22,3.82-4.92,7.93-15.64,6.87-21.72-.4-2.31-3.88-5.59-5.02-8.06-8.24-17.85-11.01-46.47-11.86-66.08-.55-12.78.5-25.72.04-38.51ZM603.09,592.9l-1.65-2.83c-14.5,12.36-33.11,26.12-52.22,29.7-4.48.84-10.03.63-14.48,1.51-6.63,1.31-14.08,4.9-20.35,5.63-10.31,1.21-40.11-4.62-49.03-9.72-17.23-9.83-28.17-28.52-46.66-35.98-9.64,6.44-11.19,18.11-16.83,27.12-2.98,4.76-6.81,7.65-9.82,12.16-6.74,10.11-10.53,24.97-22,31.04l.65,2.54,8.03,4.75c8.61-3.85,17.2-7.8,26.34-10.32,23.05-6.37,50.48-9.39,74.41-10.54,16.46-.79,32.85,2.71,50.06,2.09,9.94-.36,19.93-3.31,29.85-1.04,1.67.23.35,4.34-1.91,3.99-7.93-.47-16.16,1.67-23.95,2.04-45.81,2.16-82.22-4.32-128.45,8.46-7.61,2.1-14.69,5.56-21.92,8.57-1.55,2.13,8.37,13.16,2.93,21.41-1.43,2.18-13.29,11.74-11.99,13.47,7.78,3.31,14.31,10.46,21.54,15.06,3.31-.8,4.62-2.7,8.23-3.76,25.99-7.64,62.67-7.05,89.56-5.21,2.17.15,4.59,2.29,6.55,1.46,10.09-8.76,18.23-20.12,28-29.03,21.62-19.73,46.45-36.24,74.43-45.49,7.06-2.33,14.21-1.69,20.56-3.42,3.28-.9,7.89-5.12,11.28-6.71,8.95-4.2,18.12-7.68,26.66-12.83,1.64-2.11-10.76-7.49-12.32-8.15-13.37-5.7-31.41-10.35-45.49-5.97ZM241.14,642.06c-1.15-1.66-27.54-9.55-31.94-11.54-5.14-2.33-9.73-6.7-15-8.98-21.14-9.13-51.09-8.9-72.99-2.85l1.52,35.36,6.64.41c1,4.63,7.4,7.73,10.9,11.02,14,13.15,21.48,27.34,33.57,41.38,2.22,2.58,6.74,4.87,8.84,8.14s2.61,7.97,4.37,11.62c3.4,7.08,8.29,13.07,9.18,21.3l8.57-16.89c2.85-4.36,5.88-7.28,10.48-9.73-5.32-15.53-5.78-44.98,9.41-55.31,2.44-1.66,6.14-1.87,6.38-2.11.28-.27,1.07-5.52,1.94-7.55,1.17-2.74,2.75-5.16,4.34-7.65,1.46-2.29,4.49-3.46,3.79-6.61ZM770.83,617.03c-4.8.23-9.12,2.88-12.9,5.58-27.02,19.27-53.85,55.1-72.22,82.67-1.94,2.91-4.83,5.59-6.64,8.35-11.89,18.12-20.96,58.23-6.54,76.15,10.62,13.2,25.46,26.59,35.77,40.18,9.32,12.28,7.79,40.38,4.13,54.92-1.46,5.79-5.51,10.83-7.25,15.74-2.13,6-2.76,13.17-5.27,19.71-.79,2.06-6.78,12.75-6.01,13.46,5.01-.82,25.6-2.04,27.48-5.99,1.5-3.15.27-17.62.5-22.47.6-12.63,2.94-25.22,3.98-37.99,1.06-13-1.97-16.4,7.03-27.94,3.69-4.74,9.41-7.89,13.48-12.5,10.39-11.77,12.78-14.67,24.95-25.02,10.8-9.19,23.58-38.35,24.55-52.4.46-6.73.95-24.85-.27-30.79-.8-3.91-11.6-24.39-14.23-29.74-11.36-23.07-17.36-31.16-13.41-59.3.6-4.3,2.3-8.32,2.87-12.6ZM1049.65,644c-2.19-2.1-13.54,11.63-16.05,13.43-6.89,4.94-21.99,13.98-29.91,16.06-10.76,2.83-19.02-.88-25.19,10.78-2.1,3.97-5.94,20.67-5.86,25.2.05,3.22,5.84,28.59,7.08,29.46,1.11.17,1.98.04,2.98-.49,6.49-3.45,16.48-14.38,23.67-19.3,9.16-6.28,17.5-10.19,28.81-11.16,2.09-.18,13.4-.7,13.45,1.48.09,3.85-5.85,2.17-8.46,2.51-20.07,2.68-26.82,7.75-41.96,19.99-5.84,4.73-11.75,9.58-17,14.98-.35,10.01,1.5,20.33.38,30.35-2,17.98-10.81,26.97-18.4,41.56s-4.93,12.14-16.01,23.96c-5.81,6.2-7.05,13.84-11.26,20.72-6.2,10.12-15.97,19.02-21.07,30.89-.63,1.46-1.41,2.68-1.1,4.38,28.7-3.66,62.33-5.44,87.63-20.78,4.37-2.65,12.36-8.52,13.61-13.37s1.31-20.01.6-25.21-4.37-9.38-4.94-16.04c-.81-9.34.71-29.34,2.27-38.77,1.32-7.93,13.27-15.33,20.07-18.9,2.37-1.25,15.21-7.23,16.66-5.81.21,7.38-1.46,4.84-5.18,6.26-5.36,2.05-22.57,11.49-24.87,16.14-.96,1.94-1.56,5.02-1.8,7.19-1.07,9.48-2.13,25.64-1.13,34.85.58,5.31,4.24,9.18,4.91,14.07.48,3.51-.54,20.53.1,21.4,2.89-.82,4.56-3.82,6.21-6.27,28.62-42.49,32.95-119.12,29.74-169.08-.92-14.28-6.81-26.35-7.99-40.48ZM147.25,892.81c1.86.44,1.94-.63,2.83-1.66,4.53-5.22,14.33-19.8,17.96-26.01,14.81-25.36,21.3-65.81,21.14-94.68-.07-12.05,1.79-16.72-3.46-28.52-1.72-3.86-9.46-20.82-11.04-22.93-2.19-2.93-6.6-5.25-9.42-8.57-11.48-13.56-22.89-35.21-38.05-44.89-1.59-1.02-2.93-1.83-4.94-1.55-1.69,17.04-4.09,34.11-3.85,51.3,7.88,6.17,18.29,11.72,23.65,20.32,8.8,14.14,10.65,49.58,5.68,65.27-3.16,9.99-11.2,17.75-14.57,27.49,2.78,21.94,7.37,43.41,14.07,64.43ZM929.72,683c-6.67-2.09-15.76-4.48-21.87-7.62-2.25-1.16-14.11-12.47-15.09-11.39,1.88,11.33-5.99,18.84-12.95,26.52-1.88,2.08-4.58,3.19-6.57,5.42-9.24,10.38-15.61,23.09-17.46,36.99,24.11-5.25,47.92-14.64,72.94-13.99-4.7-12.26-2.82-23.74.99-35.94ZM975.69,678.98c-14.08,1.26-27.72,5.1-41.96,4l6.87,34.59c3.63,29.56-14.44,58.14-33.34,79.33-5.87,6.57-13.25,11.59-19.01,17.96-4.71,5.21-8.93,13.03-13.95,18.03-3.7,3.69-8.63,5.53-12.06,8.93-6.73,6.66-12.6,18.79-19.91,26.06-3.62,3.6-9.36,6.33-12.53,10.46-2.85,3.72-5.17,9.74-7.97,14.01-2.01,3.07-14.39,17.95-12.01,20.45,12.51-2.71,24.88-6.12,37.61-7.85,17.87-2.42,38.56-1.72,55.79-5.17,2.05-.41,2.8-1.51,3.97-3.03,5.33-6.93,9.3-17.98,14.73-25.24,2.56-3.42,6.33-5.93,8.66-9.33,3.22-4.73,5.16-11.71,8.34-16.64,4.14-6.44,13.26-11.41,15.71-17.37,1.62-3.94.98-3.09,3.16-6.99,6.04-10.83,16.77-33.87,17.93-45.77.33-3.39.68-18.25.03-20.78-.28-1.07-2.49-1-2.94-2.32-.84-2.44,2.04-5.26,1.87-8.72-.43-8.64-7.87-23.88-7.94-33.12s6.04-22.57,8.98-31.48ZM251.67,824.87c-6.67.79-14.65-.58-21.49,0,0,6.84,4.31,14.15,5,20.48,1.27,11.54.2,23.34-5.78,33.21-14.05,23.18-32.53,31.37-48.17,50.76-7.58,9.4-5.86,11.28,2.44,19.48,19.51,19.28,69.13,43.74,96.24,47.66l25.11,1.17c1.58-16.72,10.24-31.23,14.58-46.87,4.99-17.97,5.97-52.86-2.01-69.92-2.05-4.39-5.68-7.82-7.2-12.79-3.49-11.47.9-27.6,9.67-35.74,3.88-3.6,9.08-1.69,8.04,3.54-6.38-2.64-11.24,8.85-12.52,13.96-4.32,17.17,1.76,17.49,7.39,30.65,5.25,12.28,7.19,37.43,6.12,50.8-1.92,24.03-15.99,44.05-18.98,67.47,7.21,1.05,51.28,2.05,54.05-1.66,6.84-23.21,21.52-42.89,25.65-67.05,3.63-21.25-3.52-41.16.7-62.25,4.26-21.31,22.69-44.14,39.01-57.93,3.88-3.28,16.32-11.93,21.04-11.86s8.61,6.78,1.97,6.93c-.44-.08-.54-2.08-1.02-2.1-1.83-.07-12.41,6.86-14.48,8.54-7.92,6.41-24.89,24.32-30.16,32.79-19.94,32.04-4.61,59.57-12.09,92.83-3.59,15.94-9.86,26.25-16.55,40.4-1.57,3.31-7.78,16.38-8.15,18.85-.3,2.03.17,1.31,1.49,1.5,7.42-.21,57.7-2.94,60.07-5.95-2.82-30.91.9-64.38,20.43-89.45,6.21-7.97,15.54-18.15,22.94-25.02,2.15-2,7.55-4.46,8.04-6.99-1.14-9.86-.7-19.29-4.27-28.73-5.43-14.38-21.49-34.78-22.73-49.22-1.47-17.06,6.17-40.1,15.56-54.36,5.25-7.98,17.75-17.75,22.42-26.54.64-1.2,1.37-1.89.97-3.52-16.75.24-33.68-2.19-50.45-.99-7.44.53-36.09,4.6-41.89,7.08-1.1.47-4.28,2.26-4.35,3.39,5.02,14.09,4.49,30.68-5.73,42.49l-14.5,11.97c16.42-.31,34.11-7.94,50.44-8.06,6.42-.05,12.96,2.89,19.44,3.14l.07,3.92-22.48-1.98-54.82,10.12c-1.64,1-3.77,12.37-5.16,15.82-4.35,10.81-28.86,31.97-40.2,33.75-15.08,2.37-26.42-3.85-27.25-19.75l-18.93,6.08c1.84,3.94-1.36,5.8-.65,8.9,1.72,7.59,12.79,15.38,15.87,25.21,12.1,38.63-13.72,67.53-21.59,101.88-.51,2.24-2,7.46-1.73,9.3.44,3.02,4.39,2.35,4.04,5.51-14.19,2.57-7.65-16.74-5.01-24.5,9.74-28.67,29.67-59.84,19.5-91.4-3.53-10.95-19.05-19.25-15.48-31.98-.86-.81-18.9,6.56-22.48,6.99ZM118.26,722.95v37.47c0,6.12,4.25,16.05,5.53,22.45,2.19,10.99,3.55,22.17,6.47,33.01,13.57-13.07,14.03-30.59,13.03-48.51-.67-12.06-2.59-24.82-11.02-33.94l-14.01-10.47ZM741.85,926.79v-35.47c0-10.34,12.58-47.26,18.58-56.37,14.26-21.67,25.08-25.94,45.11-39.83,7.12-4.94,13.56-11.6,20.96-16.02,14.66-8.76,54.28-24.59,70.73-24.18,2.5.06,15.57,1.7,15.49,4.5-.11,3.81-9.07.42-11.48.42-19.03,0-53.85,13.79-70.47,23.54-6.87,4.03-12.22,9.82-18.64,14.34-11.61,8.17-23.08,12.04-33.34,22.63-17.35,17.9-23.08,36.73-28.28,60.65-3.24,14.89-2.31,28.77-1.67,43.79l47.98-9.48c1.77-1.08-1.8-3.81-2.02-6.11-.58-5.89,9.77-10.62,13.39-14.5,5.27-5.65,10.16-15.03,15.63-21.35,4.97-5.75,11.61-10.77,16.47-16.51,5.67-6.69,9.88-14.56,15.96-21.01,6.19-6.56,14.31-11.47,20.4-17.57,20.11-20.17,54.1-55.98,54.14-85.85,0-1.44-1.06-9.42-1.64-9.52-13.02.37-25.63,3.79-38.23,6.72-11.59,2.7-27.87,6.21-38.7,10.27-8.19,3.07-8.28,3.94-17.22,5.68-4.69.91-29.91,14.83-32.78,18.28-4.43,5.33-10.09,20.72-14.25,27.72-8.86,14.88-19.2,17.42-29.18,28.78-3.08,3.51-5.32,8.17-8.46,11.52-5.24,5.59-12.97,8.13-15.99,15.99-3.76,9.79-2.58,27.45-3.53,38.44-.5,5.85-2.55,12.04-2.97,18.01-.48,6.85.35,13.93-.05,20.8,4.06,3.39,9.2,3.26,14.03,1.67ZM661.9,730.94c-19.83,1.93-39.54,4.25-58.72,9.72-4.23,1.21-17.77,5.17-20.67,7.18-1.01.7,1.09,4.05-2.05,4.87l-4.49-1.8c-7.59,25.03-6.09,50.06,2.97,74.48,1.45,1.1,17.5-14.4,20.71-16.32,18.15-10.86,43.39-15.55,64.25-17.19-.67-2.9-2.68-4.74-3.72-7.77-5.43-15.92-.44-36.93,1.72-53.18ZM226.19,786.91c-10.7-2.33-18.6-10.28-24.43-19.05-1.43-2.16-1.34-6.18-4.55-5.94.9,13.81.72,27.7-2.12,41.34-1.98,9.48-5,20.95-7.36,30.61-6.32,25.82-22.09,44.06-36.5,65.46,4.02,12.93,8.85,26.55,19.52,35.44l7.97-11c21.94-23.65,55.67-39.71,51.48-77.43-.64-5.77-5.03-14.89-5.83-20.23-.39-2.61,1.91-4.06,1.9-5.68,0-.67-1.83-.86-2.45-1.63-9.78-12.23-1.29-19.9,2.38-31.9ZM664.72,797.14c-21.28.98-52.43,8.49-69.24,21.76-1.78,1.4-13.69,12.11-14.06,12.99-.82,1.95,1.62,5.85,2.03,7.98l2.86.94c20.94-4.09,44.42-3.51,63.3-14.75,3.25-1.94,23.81-18.08,24.8-20.2,2.26-4.87-5.28-8.92-9.68-8.72ZM600.95,901.8c14.92-4.35,25.95-15.12,38.44-23.01,12.51-7.89,26.81-14.22,37.97-23.98,2.75-2.4,20.77-22.51,20.45-24.32-2.92-3.99-6.77-7.4-9.91-11.15-2.4-2.87-6.14-11.79-10.01-9.99-9.42,8.84-20.11,19.61-32,24.98-19.38,8.74-40.25,8.62-60.71,12.73-3.11,5.76,2.1,10.2,3.49,14.54,3.83,11.92,1.48,12.12,8.68,24.29,2.59,4.37,3.58,10.83,3.59,15.89ZM702.73,835.04l-2.69.02c-9.55,16.55-22.92,27.55-38.83,37.58-12.91,8.13-25.93,17.25-38.97,24.98-3.48,2.06-16.89,7.59-18.37,9.61-1,1.38-1.04,2.39-.97,4.02.31,8.13,2.34,17.05,3.03,25.05.27,3.18-.93,14.63,1,16.03,9.71-1.21,18.68-5.55,27.99-8.06,6.81-1.84,18.34-2.63,24.03-4.95,2.76-1.13,3.41-4.11,4.56-4.4,1.76-.44,5.71,2.7,7.95,2.83,2.8.17,12.46-1.42,14.48-3.41,3.91-3.86,9.5-17.24,11.21-22.76,4.28-13.78,11.43-52.7,9.64-66.13-.22-1.69-3.11-9.81-4.06-10.39Z"/>
      <path d="M915.74,940.77c2.65-12.25,22.12-19.34,33.21-22.24,25.98-6.78,51.56-3.7,64.55,21.92,15.26,30.11-25.42,71.12-54.41,74.15-8.88.93-25.01.51-32.7-4.03-5.78-3.41-17.62-16.61-18.56-23.41-1.61-11.76,4.32-46.32,20.22-46.06,1.83.03,8.69,2.43,8.65,4.18-.08,3.25-7.26.79-9.96,2.02-8.88,4.04-13.58,30.86-11.58,39.52,1.56,6.73,15.02,19.11,22.05,19.92,13.94,1.59,26.9.8,39.15-5.83,24.87-13.46,50.21-48.96,20.34-71.64-14.56-11.05-49.16-5.18-64.95,3.05l-16.02,8.46Z"/>
      <path d="M100.23,1031.7c1.79-7.04,5.74-11.43,12.49-14.03,7.91-3.05,29.02-8.7,36.92-7.83,14.55,1.6,17.51,9.8,21.63,22.33,4.03,12.26,8.04,27.79-4.71,36.35-10.62,7.13-18.83,3.79-29.73,5.25-3.71.5-6.72,2.57-11.03,2.95-4.64.41-18.12-1.12-22.59-2.48-6.06-1.85-9.4-15.35-9.92-21.06-.35-3.76-1.13-21.38,2.64-22.37l4.3.9ZM104.47,1068.47c7.79.45,14.2,3.1,22.21,2.13,3.69-.45,7.85-2.52,12.09-2.9,8.45-.76,13.72,1.22,22.16-2.82,12.98-6.21,8.02-21.67,4.08-32.44-3.16-8.66-4.65-14.13-14.52-15.45-8.27-1.11-36.85,5.98-43.25,11.19-11.65,9.5-9.78,28.15-2.76,40.3Z"/>
      <path d="M1058.49,945.65c.28-.16.74-2.32,2.17-3.35,8.54-6.16,22.66-6.64,22.04,6.99-.69,15.18-16.51,23.93-30.55,22.46-18.64-1.94-8.61-26.46,1.06-26.95,1.72-.09,4.19,1.49,5.29.85ZM1075.52,944.89c-2.42-.48-4.56-1.41-7.12-.93-.82.15-14.45,6.21-15.29,6.78-3.01,2.03-6.14,10.03-4.01,13.1,12.66,4.33,28.9-4.18,26.43-18.94Z"/>
      <path d="M737.62,168.63c6.36-.93,20.85-1.18,26.17,2.29,2.48,1.62,11.83,13.35,13.68,16.29,12.15,19.28,14.15,55.29,4.89,76.13-18.69,42.07-51.4,52.64-95.02,50.96-13.05-.5-22.37-.74-34.11-6.86-26.66-13.89-27.39-29.35-20.82-57.14,7.33-30.97,47.24-74.73,80.04-78.84,5.19-.65,13.41,2.29,15.71,1.74,1.87-.45,4.32-3.82,9.45-4.57ZM724.87,176.36c-2.43-2.56-25.3,5.41-29.21,7.27-22.52,10.71-50.81,44.47-56.24,68.67-5.05,22.47-6.58,35.68,15.61,47.36,11.5,6.06,20.52,6.16,33.33,6.65,35.87,1.37,62.06-4.91,80.66-37.34,12.58-21.93,14.16-55.8.07-77.36-1.02-1.56-9.46-12.15-10.29-12.69-1.32-.85-3.9-1.56-5.48-1.6-2.63-.06-13.53.66-15.9,1.09-5.87,1.08-12.57,14.75-12.54-2.05Z"/>
      <path d="M288.91,698.23c7.46-1.08,30.79.31,38.04,2.42,16.63,4.83,17.37,31.82,10.99,44.6-4.64,9.3-24.05,21.67-34.31,22.65-22.45,2.14-35.39-4.75-48.96-21.95-9.93-12.59-5.3-28.95,7.57-37.42,3.41-2.24,22.69-9.72,26.68-10.3ZM273.14,709.96c-11.64,2.7-22.56,18.54-14.98,29.48,2.58,3.73,17.4,18.09,21.28,19.69,5.66,2.34,22.55,2.66,28.51,1.11,5.79-1.51,20.41-12.36,23.38-17.59,5.63-9.92,5.42-33.94-9.68-35.71-11.01-1.29-33.9-3.07-42.76,2.99-2.41,1.65-3.91,8.69-5.74.03Z"/>
      <path d="M998.71,639.05c9.52-1.9,13.47-10.79,19.44-17.04,4.41-4.62,17.9-15.62,17.61-21.47-.18-3.6-6.55-6.64-.63-8.49,14.04,12.26-3.61,22.04-11.5,30.44-4.45,4.74-7.81,10.89-13.05,14.93-2.98,2.29-12.94,8.99-11.88,1.62Z"/>
      <path d="M1005.56,605.93c-9.69,4.09-28.49,21.62-38.88,19.69-3.13-.58-5.98-2.69-7.96-5.11l1.52-2.48c4.4,2.77,7.13,3.92,12.5,2.53l30.55-18.43c2.07-.31,2.92,2.32,2.28,3.81Z"/>
      <path d="M733.86,725.94c2.68,2.76,13.32-13.76,15.98-10.99,1.01,8.06-15.65,13.67-15.85,20.43-.03,1.09,1.09,10.09,1.37,10.55.55.9,2.57,1.38,3.5,2.49,5.07,6.04,11.01,11.25,14.87,18.13l-2.37,2.35-16.49-16.98-1.08,15.38c13.69,6.4,14.45,25.39,15.06,38.59l-3.08-.59c-2.29-12.1-2.54-25.62-12.47-34.35-1.58-.34-2.02,1.3-2.63,2.26-3.41,5.33-12.42,24.98-16.77,27.2-1.76.9-1.91.17-3.01-1.04,6.33-11.87,18.42-26.58,19.88-40.08.93-8.63-1.41-17.55-1.58-24.98-.19-8.29,1.74-18.46.71-26.88-.49-4.04-4.87-8.73-3.95-11.84,1.88-6.32,7.92,8.87,7.92,9.87v20.48Z"/>
      <path d="M702.88,760.91c2.9-11.71,16.97-20.21,19.75-31.71.54-2.24-.88-7.31,2.74-7.24,3.62.07.54,11.73-.68,14.29s-15.83,21.64-17.74,23.23c-1.35,1.12-2.14,1.77-4.06,1.43Z"/>
      <path d="M711.75,779.77c-1.6.69-4.09-.27-3.79-2.25,6.07-8.61,14.71-16.24,16.9-26.95,7.83-2.42,1.36,9.03-.48,12.36-3.56,6.45-8.67,10.86-12.63,16.84Z"/>
    </g>
  </g>
</svg>