<?xml version="1.0" encoding="UTF-8"?>
<svg id="Calque_2" data-name="Calque 2" xmlns="http://www.w3.org/2000/svg" viewBox="0 0 981.43 1903.05">
  <g id="Illu_Vectorisée_BLACK_" data-name="Illu Vectorisée (BLACK)">
    <g id="Ballon">
      <path d="M401.17,3.86c2.26-3.8-5.1-5.84-7.59-1.13-2.27,4.3.19,11.18,2.23,15.31,4.44,9,18.21,15.81,25.51,24.49,25.4,30.22,10.75,61.26,20.1,94.9,3.83,13.77,16.74,26.3,27.4,35.6,7.59,6.62,19.81,11.35,21.65,21.85l3.74-.02c4.45-12.38-13.52-20.67-21.39-27.83-10.09-9.18-21-19.09-24.4-32.6-9.04-35.91,6.74-65.29-21.56-97.44-7.83-8.89-29.24-17.61-28.61-29.51.2-3.79,2.54-2.98,2.92-3.62ZM532.56,179.81c-1.43-.97-8.95-29.95-9.24-33.27-1.52-17.55-.15-52.44,6.86-68.21,6.23-14.01,10.4-12.83,20.65-21.35,6.98-5.8,13.13-13.94,20-20,9.69-8.55,23.13-19.32,35.53-22.47,3.52-6.47-5.18-4.47-9.23-3.23-16.28,4.99-34.18,24.25-46.76,35.24-9.93,8.67-19.13,11.93-25.5,24.5-9.32,18.38-10.56,56.85-8.5,77.48.51,5.12,8.1,29.21,10.8,33.2,3.98,5.87,10.85,2.9,10.18-.18-.39-1.78-3.94-1.14-4.79-1.71ZM770,66.14c-6.89,9.73-16.41,15.52-25.12,22.89-19.56,16.55-39.96,34.81-66.26,39.74-4.97.93-10.66-.34-15.68.32-10.48,1.37-28.39,17.58-33.12,26.88-6.91,13.58-2.35,34.21,3.34,47.74.96,2.29,2.3,4.2,4.18,5.82l2.53-.51c1.72-2.42-.92-4.41-1.41-6.61-2.63-11.84-7.25-28.45-2.89-39.7,3.32-8.57,20.96-23.78,30.29-24.7,6.94-.69,9.67,1.41,17.5-.51,26.45-6.48,58.51-25.95,75.99-47.01,5.27-6.35,8.28-14.92,13.86-21.16.74-2.11-1-3.88-3.19-3.19ZM414.35,254c1.37-4.04-3.02-5.3-3.79-7.71-.87-2.75-.76-7.73-1.7-11.3-4.98-18.87-14.18-22.93-33.05-22.04-19,.9-58.65,10.49-74.98,4.07-27.51-10.81-37.05-62.55-34.35-88.4.52-4.96,2.63-9.35,3.87-14.08l-2.47-1.54c-4.47.96-8.13,17.3-8.5,21.51-1.73,19.42-.52,43.06,8.46,60.5,25.24,49.02,60.94,28.78,105.03,25.99,15.55-.98,24.39-1.95,29.42,14.55,2.49,8.17.24,19.61,12.06,18.43ZM603.02,117.16c-.45.12-6.43,5.02-7.21,5.81-5.69,5.75-10.27,14.94-15.49,21.51-5.54,6.98-10.73,6.94-9.97,18.01.27,3.95,6.14,20.43,9.65,21.38,7.27,1.97-1.3-12.92-2.15-15.86-3.86-13.23,2.85-13.53,9.89-23.11,4.09-5.57,7.42-11.93,11.63-17.37,1.8-2.33,7.71-6.2,6.98-9-.31-1.17-1.99-1.74-3.33-1.37ZM427.53,183.82c-2.43-3.73.04-19.28-2.99-26.51-5.79-13.82-31.26-4.17-28.78,4.74,8.27,9.78,5.17-.27,6.02-2.05.95-1.98,8.98-3.9,11.19-3.92,12.62-.1,2.72,28.51,11.38,32.4,2.06.92,8.71,1.19,7.98-1.97-.69-1.68-4.37-2.01-4.81-2.7ZM716.36,238.01c-.36-11.38-.54-21.01,3.81-31.69,6.59-16.17,12.13-12.17,24.85-19.15,12.52-6.88,22.39-20.67,33.9-29.14-.11-6.47-4.52-2.51-7.48-.43-10.46,7.33-19.17,18.48-31.09,23.91-8.32,3.8-15.26,2.95-21.44,11.56-9.86,13.74-10.28,30.89-8.11,46.99,1.63,4.31,4.73,4.84,8.47,2.37,4.15-2.75.62-6.33-2.92-4.41ZM257.35,1409.51c.78-5.25-.57-12.05,0-17.5,2.14,1.01,4.56,1.78,6.6.1l2.89-7.08c1.7,2.24,3.12,2.25,5.49.98.3,4.46.9,10.47,3.16,14.35.45.78,7.96,9.2,8.49,9.55,5.97,3.91,7.65-5.33,8.24-9.52,1.25-8.88.63-18.5,1.62-27.39,2.3,4.46-.83,25.84,7.87,22.93,2.87-.96,4.74-18.29,4.64-21.92l2.47,14.01c1.56,5.03,3.22,7.57,9.03,7.07,8.47-.72,6.86-18.71,8.47-24.6l3.89-80.82-2.38-1.68-1.98,1.03c-7.45,23.99-4.93,49.75-6.53,74.47-.27,4.14-1.23,19.9-2.47,22.53-.18.39-.95,1.07-1.51.98-1.95-2.46-1.18-33.36-3.26-40.25-.89-2.95-2.67-5.48-6.05-4.61-4.77,1.37-4.5,21.05-4.71,25.86l-4.97-13.52c-1.35-.82-3.7-.82-5.05,0-3.93,2.4-4.19,22.22-3.99,27.01l-1.98,17.5c-.43-7.74-6.04-19.38-6.09-26.49-.08-11.17,6.17-29.19,7.94-41.15,5.28-35.77,2.21-80.86,3.1-117.9.1-4.34,3.54-12.45-1.98-14.94-6.59-2.97-7.52,4.21-7.96,9-1.88,20.63-1.45,41.34-1.98,62.02-.06,2.37-1.03,4.55-1.08,6.92l.03,66.54c-2.45-1.33-4.51-1.34-6.96,0-.77-3.48-2.2-7.6-6.52-7.04-6.43.83-4.13,20.09-4.51,25.04-8.87-1.53-6.86,7.91-9,13.5v25.5l-5.69-31.73c-1.17-2.57-4.16-2.44-6.3-1.26,0-1.89-.85-3.64-1-5.52-1.62-19.68-.01-50.65,1-70.98.68-13.67,3.14-27.49,5.08-41.02.64-2.85-3.53-4.34-3.86-6.1-.45-2.41,1.7-10.54,1.81-13.85.47-13.78.59-30.35-1.16-43.93-3.17-24.66-16.23-47.49-10.87-73.09-4.11-7.26-5.65,2.1-6,5.99-2.31,25.7,6.54,47.33,8.02,71.94,1.73,28.61-3.23,54.39-4.08,82-.86,27.65,2.7,55.52,4.08,83,.49,9.65-3.09,17.85-2.05,27.54l-6.28-40.21c-1.77-7.71-7.75-7.88-9.66-.24l-3.06,44.44-4.48-34.03c-.4-2.47-3.31-3.41-5.5-2.51-5.28,2.49-3.76,25.58-5.03,31.55-2.01-.7-2.11-4.21-4.7-4.85-3.6-.9-6.35,3.71-7,6.65l-3.29,17.21v-14.5c0-4.16-4.16-10.93-8.08-6.07-1.47,1.82-.6,5.76-2.91,6.56.6-6.88-5.38-8.13-6.06-15.45-3.2-34.31,3.03-75.9,6.92-110.17,1.62-14.25,2.14-29.6,4.42-43.58.35-2.15,1.74-9.93,2.62-11.15.67-.93,7.75-1.92,2.48-5.54-3.97-2.72-5.9.29-8.38,2.9-1.12-8.42-1.31-16.96-1-25.49.62-16.92,3.48-34.01,4.03-50.97.85-26.25-2.49-51.95-3.08-78-.09-3.85,1.41-18.3.9-19.88-1.04-3.23-4.31-1.55-5.64,1.06-1.99,3.94-2.99,14.02-3.27,18.73-2.33,39.92-1.14,90.01,1.09,130.01.24,4.37-.54,22.85,2.93,25.08,1.26.81,4.01-.02,4.04.98-.65,2.83-2.16,5.41-2.74,8.26-10.07,50.14-16.52,97.38-13.27,148.71.23,3.62,1.49,7.86,1.98,11.51-9.81-4.13-10.65,9.48-11.49,16.01-.8-12.45-.96-25.01-1.51-37.5-.42-9.61-.65-19.3-1-29-.18-4.89-2.18-12.33-2.04-16.98.19-6.33,5.67-19.25,6.78-27.31,5.15-37.56-5.54-81.09-2.76-120.76.34-4.9,2.81-9.36,2.04-14.47h-5.01c.61-10.46,1.61-20.96,1-31.49-1.11-18.96-10.84-49.33-8.94-65.96.36-3.11,4.39-5.71-1.53-7.55-.74.17-2.45,3.36-2.75,4.27-3.45,10.58,2.29,36.92,3.22,49.23,2.27,30.2,3.84,59.75-3,89.49-1.44-.12-1.57-1.47-2.02-2.47-13.44-29.15-22.21-55.77-8.45-87.52.81-1.87,4.59-6.94,4.48-7.5-1.01-5.01-7.77,1.26-9.2,3.78-7.06,12.48-9.44,41.9-7.54,55.94,2.17,16.07,13.18,30.98,15.62,47.38,2.42,16.22-.18,32.71,1.08,48.92.19,2.45,1.2,10.65,3.64,11.37,5.26,1.56,2.22-5.44,2.31-7.41.76-15.9,1.72-31.98,1.13-48.04-.11-3.13-1.96-7.95-1.1-10.85.29-.99,2.49-.56,3.56-1.58,1.91-1.84.44-5.32,2.5-6.02.4,10.11-.52,20.38.02,30.49,1.59,29.87,11.89,63.25.3,92.32-1.28,3.21-3.36,4.07-4.53,6.47-4.65,9.59-6.33,54.17-6.78,67.23-.04,1.21.74,3.72-.99,3.48-2.47-11.84-3.97-24.37-5-36.5-.79-9.31-.26-19.72-1.02-28.98-.32-3.94-1.19-13.2-7.06-9.08-1.96,1.38.31,5.31-1.92,5.56,1.35-11.82-8.62-20.52-11.02-5-5.1-3.5-2.52-13.56-1.71-19.22,4.5-31.45,13.21-51.4,10.71-85.26-.65-8.83-3.9-17.4-4.86-26.14-.56-5.11.55-10.34-.61-15.39-7.62-4.27-5.84,15.1-5.4,19.4,2.01,19.62,5.91,36.28,3.87,57.11-1.84,18.86-13.24,43.24-10.87,62.9.57,4.74,2.25,9.29,7.89,8.62l-3.02,35.99-2.67-6.07-6.31.09c-3.38-19.11,1.5-38.54,2.99-57.52,3.61-46.16,5.47-89.7,5.96-136.03.03-2.92,2.9-10.08-2.59-10.2-4.77-.11-5,5.71-5.35,9.26-1.86,18.89-.97,38.9-2.03,57.97-.97,17.62-3.36,35.34-4.03,52.97-.24,6.37,1.01,44.56-.97,46.55-1.73-.75-3.33-1.45-5.29-.86-2.46.74-1.77,3.55-3.69,3.85-.76-15.82-1.64-32.6-4.3-48.2-1.12-6.55-4.52-23.61-6.97-29.03-1.38-3.06-4.37-3.35-5.23-4.76-1.7-2.81.43-7.27.53-10.46.22-6.91-.49-14.18-.03-21.03.75-11.1,4.74-24.13,5.02-34.99.08-3.01-3.82.62-6.03-.51.32-32.23-5.67-64.15-4.04-96.55,1.82-36.31,19.17-90.32,46.52-114.48,11.31-9.99,45.37-21.97,60.46-24.54,16.05-2.73,32.66.26,48.52.51,28.52.44,77.49,5.09,97.05,28.03,4.27,5.01,8.2,9.61,12.53,14.47,11.46,12.85,30.2,53.96,31.83,71.17,3.77,39.81,1.75,83.7-5.87,122.89l-3.02,32.49-6.99-1.99c.04,7.17-.05,14.36-.05,21.54.02,23.12-.56,47.23.65,70.59.24,4.67,1.32,13.44,8.13,10.15,5.91-2.86,1.52-6.41,1.36-8.73-.09-1.29.95-3.2.96-5.02.02-14.69-.05-29.38-.13-44.07l3.13-3.93c-3.24-5.06-1.62-12.91-1.04-19.03,2.18-23.09,6.89-46.23,9.88-69.12,4.71-36.08,8.48-100.72-4.71-134.06-9.71-24.55-23.43-43.29-40.2-62.8-12.29-14.31-34.63-21.5-52.79-25.21-24.9-5.07-47.06-3.87-71.79-6.21-24.6-2.32-74.2,11.3-92.92,27.87-22.67,20.08-37.36,57.76-43.8,87.2-10.7,48.89,1.39,102.35,1.39,152.33,0,13.64-4.1,42.13,1.03,53.9,1.58,3.62,4.67,4.91,6.21,8.79,9.64,24.36,5.97,68.78,7.65,95.35.36,5.7.83,21.75,9.04,15.46v39.5c0,4.81,9.12,8.71,10.02,1.51,3.78-.53.33,4.12,5.49,4.09,6.65-.04,9.23-18.27,10.2-23.89,2.05-11.92,3.06-24.62,3.3-36.7l1.99-7.51v45.5c0,2.09,5.21,4.17,7.25-.76l2.74-17.74c2.09,9.36.34,22.51,7.47,30.04,4.29,4.53,9.38,3.91,10.49-2.6,1.8-10.5.92-23.17,2.06-33.94l1.98-12.5c.35,9.14-.42,18.4-.03,27.54.33,7.68,3.02,21.05,2.08,28.01-.42,3.11-3.05,6.57-3.98,10.02-9.25,34.34-17.21,62.1-29.61,95.39-2.17,5.82-6.04,10.9-7.47,17.04-12.94-7.62-25.53-4.29-38.2,2.29-10.02,5.21-16.05,14.18-19.8,24.71-5.75-7.29-9.48-1.52-13.53-1.36-1.14.04-2.18-1.72-3.48-1.18-3.16,1.3-7.97,13.97-8.53,17.5-.76,4.78-.13,15.54.61,20.49.23,1.55.78,3,1.92,4.12,7.89-.91,4.53,1.52,7.52,5.43,5.37,7.03,9.52-3.46,11.08-3.83,1.29-.3,3.83,1.47,6.69.65,6.16-1.77,13.44-34.25-1.27-21.81v-13c5.43,1.94,5.72-5.08,7.8-8.68,4.51-7.81,7.27-12.24,15.49-16.51,10.59-5.49,19.88-7.66,31.71-4.29-4.11,14.36-13.13,26.27-19.19,39.81-6.63,14.81-11.01,30.53-17.65,45.35-14.71,32.84-30.6,63.24-42.19,97.81-5.65,16.84-18.17,53.46-14.75,69.79.79,3.79,3.09,7.2,6.66,3.15-1.32-5.2-1.27-11.15-.44-16.47,5.4-34.65,28.63-91.79,43.67-124.33,25.18-54.48,49.2-109.11,73.07-163.93,6.34-14.56,8.86-33.4,13.82-48.69l5.73,25.75c.62,3.01-.75,10.97,2.92,12.14,3.26,1.04,4.99-1.32,5.38-4.35,1.72-13.18-.73-31.12-.09-45.09.2-4.32,1.84-8.83,1.05-13.45,1.74-.23.94,2.27.99,3.48.24,5.92.14,12.12.05,18.06-.08,5.12-3.53,22.52,3.66,24.34,5.6,1.42,6.2-9.65,6.97-12.72.26-1.03-.13-2.45,1.31-2.16-1.26,4.18,3.83,8.02,7.1,5.58,1.3-.98.03-3.78,1.9-3.58-1.35,11.31,7.78,18.78,10.74,4.22,2.66-13.08,2.38-27.91,4.28-41.22l3.2,20.28c2.36,4.65,7.18,3.28,7.72-1.85l1.08-26.43c1.01-.29,1.99,4.25,1.99,4.49v15c0,6.43,5.95,13.89,10.23,5.23l5.76-40.73c1.11,8.41,1.86,16.95,3.18,25.33,1.51,9.58,3.47,28.46,6.3,36.7,3.07,8.95,10.73,1.18,8.55-6.04.21-.31,1.19.51,1.5.99,2.06,3.17,3.75,15.87,5.22,20.78,22.21,73.82,50.93,152.1,86.74,220.26,10.41,19.81,21.6,39.11,32,59,5.01,9.58,12.28,18.79,16.52,28.97-15.15-.36-30.39.5-45.54.05-80.08-2.35-159.86-3.92-239.95.97-11.68.71-23.36,3.76-35.02,4.98-10.77,1.12-34.06.21-42.72,4.28-3.44,1.61-6.32,4.46-8.69,7.37l2.56,3.26c3.86-1.47,6.65-5.09,10.92-5.84,10.44-1.84,23.27-1.19,33.93-2.07,7.49-.62,15.07-1.94,22.51-2.98l-6.01,121.99c-13.07-3.24-25.69,7.91-38.56,9.93-4,.99-6.86,8.68-1,8.08l35.13-11.97c3.3-.39-.11,5.78,2.37,7.53,6.87,4.81,8.74-10.23,9.06-14.08,1.01-12.25.29-25.69,1.03-37.97,1.47-24.66,4.94-50.16,3.02-75.05-.26-3.4-1.38-6.21-2.03-9.46l121-5.01c2.08,16.8.48,33.73-2.15,50.36-1.99,12.55-5.75,24.32-6.85,37.15-.71,8.22.46,16.72-.99,24.95.37,2.58,2.8,4.23,5.32,3.43,4.71-5.29.91-9.96,10.28-10.85,10.1-.96,14.68,11.51,19.1,18.69,1.71,2.77,5.53,1.05,5.19-1.12-.2-1.26-12.17-20.53-13.4-21.63-4.84-4.31-11.67-3.91-17.51-2.99-1.63-21.31,6.7-41.41,7.99-62.51.46-7.52,1.03-23.04.07-30.05-.36-2.59-1.91-3.17-2.05-5.44,6.16.17,12.37-.24,18.54-.05,35.85,1.1,72.06,1.96,107.92,3.08,15.88.49,35.85-1.95,50.94,1.05,1.53.3,2.6,1.58,4.12,1.91l3.33-2.65c-6.78-14.05-15.46-27.23-22.71-41-3.18-6.02-4.91-12.97-7.96-19.04-14.26-28.3-32.02-55.55-46.04-84.96-11.64-24.43-20.45-50.24-29.07-75.89.17-3.77,9.91-10.94,12.95-13.95,6.38-6.29,10.63-14.92,21.94-13.49,2.69,20.09,15.43,12.77,22.54-.04l1.09,3.09c1.84.68,3.36,1.56,4.91-.08s6.61-13.04,7.99-16.03c2.7-5.88.52-8.66,9.36-10.13l.15-3.85h-5c-1.55-1.46,4.94-8.64,6.03-10.47,9.31-15.62,15.22-22.28,25.78-36.22,11.25-14.85,21.21-31.12,31.38-46.62,11.75-17.93,28.6-36.59,41.78-54.22,12.22-16.34,20.61-27.71,30.22-45.78,30.96-58.23,70.33-114.95,66.85-184.24-2.55-50.67-11.54-97.67-24.53-146.47-9.11-34.21-20.9-66.05-26.79-101.21-1.52-9.09-5.18-16.99-7.26-25.74-4.68-19.7-5.77-41.69-10.76-61.24-5.28-20.69-16.56-47.51-17.75-68.25-1.43-24.95,8.84-66.76,15.34-91.75,10.17-39.14,31.26-81.55,51.88-116.12,2.5-4.19,4.29-10.15,6.79-13.94,1.08-1.63,4.54-1.85,4.16-5.59,11.89-1.35,24.42-2.81,36.08-5.43,26.07-5.86,61.65-25.74,81.81-43.19,44.89-38.86,69.95-81.65,40.7-140.72-3.59-7.26-24.55-31.02-31.18-36.82-6.29-5.5-13.35-8.38-19.84-13.16-7.53-5.54-14.39-12.75-22.36-17.64-30.44-18.69-76.69-23.43-111.86-22.22-26.83.93-59.24,2.39-81.79,18.21-7.65,5.37-24.07,19.72-21.23,29.92,1.86,6.71,9.92,0,12.6-2.55,18.13-17.18,23.53-25.17,50.73-29.27,32.67-4.93,75.15-4.33,107.42,3.04,30.25,6.91,37.12,15.66,60.5,32.5,5.65,4.07,12.28,6.53,17.78,11.22,6.34,5.4,26.65,28.34,29.71,35.29,19.95,45.35,9.55,77.71-24.17,111.19s-81.29,57.57-131.47,60.53c-26.72,1.58-79.54-2.93-102.47-16.63-27.85-16.64-31.63-39.43-39.58-68.42-4.48-16.32-7.86-20.81-5.26-39.27,4.45-31.53,18-57.29,33.81-84.19,22.83-15.28,31.65-28.49,62.01-23.1,3.45.61,12.4,5.64,13.81-.15,1.53-6.26-13-8.88-17.38-9.28-26.78-2.47-33.57,4.44-52.57,19.4-3.4,2.68-8.6,4.71-11.46,7.54-4.72,4.68-27.21,46.49-29.95,54.05-14.15,39-8.73,65.72,4.47,103.51,18.79,53.79,61.05,63.16,113.53,66.47,9.69.61,19.76-.44,29.49.02-4.17,5.25-6.59,11.75-10.18,17.31-20.89,32.41-41.39,73.98-51.54,111.46-6.69,24.71-18.32,70.25-17.33,94.76.95,23.68,11.97,51.11,17.56,74.44,4.52,18.86,5.57,39.3,9.78,58.22,5.47,24.59,11.69,48.33,18.42,72.58,14.04,50.52,30.72,103.53,36.28,155.72,3.61,33.98,6.76,66.46-2.07,99.92-10.16,38.49-30.24,67.81-49.1,101.9-7.16,12.95-13.58,28.49-21.03,40.97-6.03,10.1-17.88,22.08-25.23,31.77-21.87,28.82-41.28,58.46-62.13,87.87-6.67,9.41-16.11,17.33-22.26,26.74-3.91,5.98-10.6,22.76-15.64,26.43-.99.72-7.58-.33-9.99,2.89-2.8-2.81-2.82-7.87-8-7.03-6.13.89-13.5,24.77-13.7,30.89-18.54-1.2-26.04,17.02-38.36,27.12-4.68-6.56-5.25-15.69-7.78-23.2-9.33-27.73-24.6-63.17-29.66-91.34-.37-2.05.05-4.35-.05-6.43,1.62.18,1.38,2.25,2.99,3.49,4.88,3.73,9.22.25,10-4.99ZM744.35,283.99c8.05-11.54,31.62-26.68,45.51-27.96,14.18-1.31,15.49,5.83,25.16,12.82,5.55,4.01,19.62,12.82,25.64,15.36,28.23,11.92,96.7-9.7,127.68-16.7,4.04-.91,13.5-.46,13.07-4.99-.36-3.78-8.36-2.67-11.44-2.38-16.68,1.54-38.77,6.23-55.81,9.19-20.29,3.53-54.08,15.13-73.13,6.5-4.97-2.26-16.88-9.35-21.42-12.58-13.27-9.45-12.65-16.25-32.76-14.22-11.74,1.18-37.55,16.81-44.93,26.07-2.34,2.95-10.97,15.06-3.88,16.79,2.96.72,14.84-6,6.3-7.89ZM395.35,273.01c-12.54-1.06-22.89,6.87-35.29,1.79s-9.52-31.67-29.41-20c-5.18,3.04-13.94,14.61-13.38,20.72.3,3.25,3.88,7.14,7.1,5,2.79-2.45-1.94-3.42-2-5.99-.07-3.12,9-13.52,12.1-14.92,8.83-3.99,8.08,4.53,11.35,10.44,11.07,20.02,30.2,8.95,47.86,6.77l1.68-3.81ZM367.36,346.01c4.82.67,5.97-1.66,4.55-6.06s-17.45-18.64-22.21-20.8c-40.63-18.41-63.11,32.58-103.86,34.84-29.88,1.66-54.16-3.6-80.85-16.13-2.31-1.08-12.76-8.47-13.64-4.34-.32,1.51,2.53,3.53,3.66,4.32,30.52,21.39,59.89,26.11,96.87,23.2,31.61-2.49,49.72-35.48,74.97-38.03,7.11-.72,16.93.09,23.2,3.78,1.31.77,15.78,13.71,16.37,14.64.91,1.45,1.06,2.91.94,4.57ZM751.27,339.92c.9-.64,2.38-11.26,9.45-8.8,1.25.43,4.68,11.19,6.81,14.22,3.67,5.21,10.54,10.83,17.28,10.71,2.42-.04,15.06-1.53,15.54-3.55.93-3.89-11.77-2.22-14.41-2.57-16.86-2.28-14.67-23.78-24.32-25.74-6.33-1.29-13.54,4.7-14.85,10.77-.81,3.74,1.44,7.16,4.51,4.97ZM721.67,416.33c2.99-3.22,26.42-17.47,31.17-19.34,8.5-3.35,36.84-9.38,46.03-9.96,17.62-1.12,15.32,10.04,23.07,21.89,13.79,21.07,32.18,29.96,56.66,21.83,21.27-7.06,43.34-18.36,64.49-26.51,4.24-1.63,15.79-2.82,15.31-7.68l-2.66-3.32c-4.05-.81-38.16,11.62-44.63,14.02-17.23,6.38-41.09,20.51-59.19,17.68-6.99-1.09-20.97-15.16-24.76-21.24-4.65-7.46-8.04-22.04-18.37-23.63s-35.12,3.91-46.26,6.61c-10.79,2.61-18.12,6.82-27.31,12.69-3.53,2.26-18.34,12.14-18.87,15.17-.22,1.3-.26,3.41.48,4.48,2.85,4.16,4.29-2.11,4.83-2.7ZM321.63,390.3c-.71.58-5.04,8.54-5.12,9.39l3.23,3.27c5.84-10.59,13.92-5.86,23.85-7.21,3.91-.53,7.74-2.62,11.5-3.5,2.66-.62,16.12-.33,15.19-5.61-.81-4.6-5.58-.87-7.52-.63-6.81.86-14.15,2.15-21.03,2.87-4.81.5-17.08-1.07-20.1,1.42ZM392.26,427.93c.74-10.67-12.44-1.56-17.39.1-15.52,5.21-39.97,9.77-52.44,19.56-27.95,21.94-33.95,50.43-55.57,75.43-9.6,11.1-40.58,23.3-55.25,28.75-6.49,2.41-14.57,5.2-21.26,6.74-3.41.78-19.07,4.24-20.86,1.35l.85-15.86-3.43-.05c-2.94,6.06-5.18,20.49,3.99,22,16.73,2.74,41.59-4.2,57.12-10.77,29.12-12.32,40.83-17.47,58.55-44.45,5.72-8.71,7.68-16.23,12.24-24.76,5.29-9.91,26.52-32.67,36.54-37.46,9.74-4.65,23.67-7.72,34.25-11.75,7.67-2.93,14.68-7.18,22.66-8.83ZM719.09,441.25c-5.05.8-23.28,10.24-23.79,15.31-.83,2.77,4.26,5.8,6.08,4.97,2.46-1.11.96-3.84,1.87-5.06,3.08-4.1,18.89-10.16,24.13-9.08,9.36,1.92,16.85,27.5,22.16,35.92,7.47,11.83,16.14,16.07,30.29,14.69,2.83-.28,17.05-3.34,17.5-5.51,1-4.83-11.27-.67-13.51-.5-29.65,2.28-28.22-14.38-38.94-35.03-6.24-12.04-10.97-18.06-25.8-15.72ZM376,510.66c7.23-7.13,1.64-20.45,6.5-27.01,1.06-1.43,16.48-13.82,17.83-14.25,3.6-1.14,6.4,2.9,8.04,2.15,5.59-2.56-3.64-9.78-10.04-8.09-2.95.78-18.87,12.71-20.99,15.32-7.33,8.99-.77,22.25-6.98,31.79.55,3.82,3.64,2.07,5.64.1ZM756.85,580.01c14.52,1.34,32.99,0,48,0,.82,0,2-2.49,1.48-3.48-.84-2.65-12.3-1.25-15.47-1.53-10.93-.96-25.22-2.31-35.89-4.11-17.29-2.92-12.63-10.08-16.09-23.91-4.56-18.22-12.59-47.22-31.27-54.73-15.56-6.25-38.02-12.68-54.51-9.99-12.61,2.06-13.55,3.08-27.25,2.67-12.32-.37-6.08,10.69-3.1,10.05,4.1-5.59,2.31-3.06,7.09-2.96,13.52.29,26.23-4.96,38-3.99,4.69.38,36.31,10.27,40.44,12.55,10.68,5.89,18.05,30.33,20.99,42.01,2.06,8.16,2.57,22.46,7.22,28.78,4,5.44,13.98,8.06,20.35,8.65ZM376.48,587.13c0,6.91,4.74,4.48,8.81,2.32,24.56-13.02,54.19-57.98,55.07-85.98.1-3.25-1.69-19.52-4.59-20.43-6.93-2.16-2.62,10.66-2.44,13.49,1.59,25.1-15.56,50.41-31.47,68.5-6.92,7.87-16.21,17.3-25.39,22.1ZM200.34,1153.01c5.55-38.45,31.67-79.2,17.03-118.53-1.51-4.06-12.25-25.15-16.4-24.42l-2.16,1.97c-1.37,3.12,7.89,14.54,9.71,18.3,18.04,37.18-9.84,76.63-13.05,113.3-.26,3.02-.38,5.92.77,8.79l4.09.59ZM280.34,1010.01l-3.04.44c-4.88,3.58,4.45,28.18,6.57,33.54,6.76,17.14,19.83,38.18,21.47,56.53,1,11.27.41,33.14-4.79,43.18-2.25,4.35-9.95,10.98-9.24,15.78.19,1.31,1.08,2.87,2.54,2.52,1.31-.31,13.32-19.77,14.23-22.78,2.49-8.18,3.84-26.05,3.27-34.71-2.2-33.03-28.88-61.3-31-94.51ZM255.24,1011.13l-3.9.46c.1,8.67,3.7,17.36,3.91,26.03.52,21.37-.04,56.96-6.88,76.92-1.32,3.84-11.86,25.3-11.02,26.47,4.17,1.76,5.93-1.34,7.82-4.68,16.46-29.03,19.19-69.96,16.16-102.8-.72-7.8-4.56-14.83-6.1-22.4ZM81.01,1030.15c-8.26,2.2-.59,23.8.23,29.48,3.27,22.76-2.42,42.83-2.93,64.84-.05,2.18-.3,9.1,3.43,8.49s2.32-8.7,2.63-11.43c2.37-20.98,5.01-42.65,1.72-63.74-.86-5.54-4.67-14.68-4.56-19.3.06-2.46,5.69-9.98-.52-8.33ZM286.35,1090.01c-7.78-1.64-9.81,6.45-10.89,12.6-3.42,19.46.19,42.88-1.12,62.88-.84,12.83-4.77,25.57-5,38.51l-7.74-21.75-.41-21.59-1.43-1.61-3.2,1.2c-1.69,2.32-1.56,22.19-1.12,26.15,1.36,12.24,9.82,27.79,9.93,40.16.13,14.15,1.78,28.47,1.01,42.99-1.04,19.49-5.6,40.43-12.3,58.7-1.6,4.38-7.34,14.15-7.75,17.3-.31,2.39,2.93,2.9,4.88.84,5.32-5.65,13.76-30.15,16.41-38.6,9.37-29.88,4.55-49.91,6.73-79.27,1.5-20.28,8.81-41.85,10.03-62.97,1-17.27-6.06-56.82-1.23-69.16.88-2.25,4.46-2.25,3.19-6.38ZM201.35,1209.01v-49c-2.17-.64-5.21-1.46-6.34,1.23-1.71,10.02-3.77,20.14-4.65,30.28-2.9,33.51-3.79,69.3-4.97,103.03-.08,2.37-1,4.55-1.08,6.92-.87,24.77,1.85,49.07-3.95,73.54l4.51-.98c8.58-28.87,9.85-59.15,12.5-89.01l14.51,43.98c1.58,2.16,4.33,1,4.51-1.48-6.46-25.26-12.33-48.64-11.07-75.05.98-20.41,5.77-40.57,8.19-60.81.56-1.94,3.57-1.44,4.39-2.61,1.12-1.58.2-6.16.46-8.54.83-7.5,2.92-14.84,1.99-22.51-2.99-.38-5.18.42-6.05,3.44l-12.94,47.56Z"/>
      <path d="M257.35,1409.51c-.78,5.24-5.12,8.72-10,4.99-1.61-1.23-1.37-3.31-2.99-3.49.1,2.09-.32,4.39.05,6.43,5.05,28.17,20.33,63.61,29.66,91.34,2.53,7.51,3.1,16.63,7.78,23.2,12.33-10.1,19.82-28.32,38.36-27.12.2-6.13,7.56-30,13.7-30.89,5.17-.84,5.2,4.22,8,7.03,2.41-3.21,9-2.17,9.99-2.89,5.04-3.67,11.73-20.45,15.64-26.43,6.15-9.41,15.59-17.34,22.26-26.74,20.85-29.4,40.27-59.05,62.13-87.87,7.35-9.69,19.2-21.66,25.23-31.77,7.45-12.48,13.87-28.03,21.03-40.97,18.85-34.09,38.94-63.42,49.1-101.9,8.83-33.45,5.68-65.94,2.07-99.92-5.55-52.19-22.24-105.2-36.28-155.72-6.74-24.24-12.95-47.98-18.42-72.58-4.21-18.92-5.25-39.36-9.78-58.22-5.59-23.33-16.61-50.76-17.56-74.44-.99-24.52,10.64-70.05,17.33-94.76,10.15-37.48,30.65-79.05,51.54-111.46,3.59-5.57,6.01-12.06,10.18-17.31-9.73-.46-19.79.59-29.49-.02-52.48-3.31-94.74-12.68-113.53-66.47-13.2-37.78-18.63-64.51-4.47-103.51,2.74-7.56,25.23-49.37,29.95-54.05,2.86-2.83,8.05-4.86,11.46-7.54,18.99-14.96,25.79-21.87,52.57-19.4,4.38.4,18.91,3.02,17.38,9.28-1.41,5.79-10.36.76-13.81.15-30.35-5.38-39.18,7.83-62.01,23.1-15.81,26.9-29.36,52.66-33.81,84.19-2.6,18.46.78,22.95,5.26,39.27,7.95,28.99,11.73,51.78,39.58,68.42,22.93,13.69,75.75,18.21,102.47,16.63,50.17-2.97,96.27-25.58,131.47-60.53s44.12-65.85,24.17-111.19c-3.06-6.95-23.37-29.89-29.71-35.29-5.5-4.69-12.13-7.14-17.78-11.22-23.38-16.84-30.24-25.59-60.5-32.5-32.27-7.37-74.75-7.97-107.42-3.04-27.2,4.1-32.6,12.09-50.73,29.27-2.69,2.55-10.74,9.25-12.6,2.55-2.83-10.2,13.58-24.55,21.23-29.92,22.55-15.82,54.96-17.29,81.79-18.21,35.17-1.21,81.42,3.53,111.86,22.22,7.97,4.89,14.83,12.09,22.36,17.64,6.49,4.78,13.55,7.66,19.84,13.16,6.63,5.8,27.59,29.56,31.18,36.82,29.25,59.07,4.2,101.86-40.7,140.72-20.16,17.45-55.73,37.33-81.81,43.19-11.66,2.62-24.19,4.08-36.08,5.43.37,3.74-3.09,3.96-4.16,5.59-2.5,3.79-4.29,9.75-6.79,13.94-20.62,34.58-41.71,76.98-51.88,116.12-6.49,24.98-16.77,66.8-15.34,91.75,1.19,20.74,12.47,47.56,17.75,68.25,4.99,19.55,6.07,41.54,10.76,61.24,2.08,8.75,5.74,16.65,7.26,25.74,5.88,35.16,17.68,67,26.79,101.21,12.99,48.79,21.98,95.8,24.53,146.47,3.48,69.29-35.88,126.01-66.85,184.24-9.61,18.07-18,29.45-30.22,45.78-13.19,17.62-30.03,36.29-41.78,54.22-10.17,15.51-20.12,31.77-31.38,46.62-10.56,13.94-16.47,20.59-25.78,36.22-1.09,1.83-7.58,9.01-6.03,10.46h5s-.15,3.86-.15,3.86c-8.85,1.47-6.67,4.25-9.36,10.13-1.37,2.99-6.44,14.4-7.99,16.03s-3.07.76-4.91.08l-1.09-3.09c-7.11,12.81-19.85,20.13-22.54.04-11.31-1.43-15.55,7.19-21.94,13.49-3.05,3-12.79,10.18-12.95,13.95,8.62,25.65,17.43,51.46,29.07,75.89,14.01,29.41,31.78,56.67,46.04,84.96,3.06,6.07,4.79,13.01,7.96,19.04,7.26,13.77,15.93,26.94,22.71,41l-3.33,2.65c-1.52-.33-2.58-1.61-4.12-1.91-15.09-3-35.06-.55-50.94-1.05-35.85-1.12-72.07-1.98-107.92-3.08-6.16-.19-12.38.22-18.54.05.14,2.26,1.69,2.84,2.05,5.44.97,7,.39,22.53-.07,30.05-1.29,21.11-9.62,41.2-7.99,62.51,5.84-.92,12.67-1.32,17.51,2.99,1.23,1.1,13.2,20.37,13.4,21.63.34,2.18-3.48,3.89-5.19,1.12-4.42-7.18-9-19.65-19.1-18.69-9.37.89-5.58,5.57-10.28,10.85-2.51.8-4.95-.85-5.32-3.43,1.45-8.23.28-16.74.99-24.95,1.1-12.83,4.86-24.6,6.85-37.15,2.63-16.63,4.22-33.56,2.15-50.36l-121,5.01c.65,3.25,1.77,6.06,2.03,9.46,1.91,24.89-1.56,50.38-3.02,75.05-.73,12.28-.01,25.73-1.03,37.97-.32,3.85-2.19,18.89-9.06,14.08-2.48-1.74.93-7.92-2.37-7.53l-35.13,11.97c-5.86.61-2.99-7.09,1-8.08,12.87-2.02,25.49-13.17,38.56-9.93l6.01-121.99c-7.44,1.04-15.02,2.36-22.51,2.98-10.66.88-23.49.23-33.93,2.07-4.26.75-7.06,4.36-10.92,5.84l-2.56-3.26c2.36-2.91,5.25-5.75,8.69-7.37,8.66-4.07,31.95-3.16,42.72-4.28,11.66-1.22,23.34-4.27,35.02-4.98,80.09-4.88,159.87-3.32,239.95-.97,15.15.44,30.4-.41,45.54-.05-4.23-10.18-11.5-19.39-16.52-28.97-10.41-19.89-21.59-39.18-32-59-35.82-68.16-64.53-146.44-86.74-220.26-1.47-4.9-3.17-17.6-5.22-20.78-.31-.48-1.29-1.3-1.5-.99,2.19,7.21-5.48,14.99-8.55,6.04-2.82-8.24-4.79-27.12-6.3-36.7-1.32-8.38-2.07-16.92-3.18-25.33l-5.76,40.73c-4.29,8.66-10.23,1.2-10.23-5.23v-15c0-.25-.98-4.79-1.99-4.49l-1.08,26.43c-.54,5.13-5.36,6.51-7.72,1.85l-3.2-20.28c-1.9,13.31-1.62,28.14-4.28,41.22-2.96,14.56-12.09,7.09-10.74-4.22-1.88-.2-.6,2.6-1.9,3.58-3.26,2.45-8.36-1.39-7.1-5.58-1.44-.29-1.05,1.13-1.31,2.16-.77,3.07-1.37,14.14-6.97,12.72-7.2-1.82-3.74-19.22-3.66-24.34.09-5.94.19-12.14-.05-18.06-.05-1.22.76-3.72-.99-3.48.79,4.62-.85,9.13-1.05,13.45-.65,13.97,1.81,31.91.09,45.09-.39,3.03-2.12,5.39-5.38,4.35-3.67-1.17-2.3-9.13-2.92-12.14l-5.73-25.75c-4.96,15.29-7.48,34.13-13.82,48.69-23.87,54.81-47.89,109.44-73.07,163.93-15.04,32.54-38.27,89.68-43.67,124.33-.83,5.33-.88,11.28.44,16.47-3.57,4.04-5.86.64-6.66-3.15-3.42-16.33,9.1-52.95,14.75-69.79,11.6-34.56,27.49-64.97,42.19-97.81,6.64-14.82,11.02-30.54,17.65-45.35,6.06-13.54,15.09-25.45,19.19-39.81-11.83-3.37-21.12-1.2-31.71,4.29-8.22,4.26-10.98,8.7-15.49,16.51-2.08,3.61-2.38,10.62-7.81,8.68v13c14.71-12.43,7.43,20.05,1.27,21.81-2.86.82-5.4-.95-6.69-.65-1.56.36-5.71,10.86-11.08,3.83-2.99-3.91.37-6.34-7.52-5.43-1.14-1.12-1.69-2.57-1.92-4.12-.74-4.95-1.37-15.71-.61-20.49.56-3.53,5.37-16.2,8.53-17.5,1.3-.54,2.34,1.23,3.48,1.18,4.04-.15,7.78-5.93,13.53,1.36,3.75-10.53,9.78-19.5,19.8-24.71,12.66-6.59,25.26-9.91,38.2-2.29,1.43-6.14,5.3-11.22,7.47-17.04,12.4-33.3,20.36-61.06,29.61-95.39.93-3.44,3.55-6.9,3.98-10.02.94-6.96-1.76-20.33-2.08-28.01-.39-9.14.38-18.4.03-27.54l-1.98,12.5c-1.14,10.77-.26,23.44-2.06,33.94-1.12,6.51-6.2,7.13-10.49,2.6-7.13-7.53-5.38-20.68-7.47-30.04l-2.74,17.74c-2.04,4.93-7.25,2.85-7.25.76v-45.5l-1.99,7.51c-.24,12.07-1.25,24.77-3.3,36.7-.97,5.62-3.55,23.85-10.2,23.89-5.16.03-1.71-4.62-5.49-4.09-.9,7.2-10.02,3.31-10.02-1.51v-39.5c-8.21,6.29-8.68-9.76-9.04-15.46-1.68-26.57,1.99-70.98-7.65-95.35-1.54-3.88-4.63-5.17-6.21-8.79-5.13-11.77-1.03-40.27-1.03-53.9,0-49.98-12.08-103.44-1.39-152.33,6.44-29.44,21.13-67.12,43.8-87.2,18.72-16.57,68.32-30.2,92.92-27.87,24.73,2.34,46.89,1.14,71.79,6.21,18.17,3.7,40.5,10.9,52.79,25.21,16.76,19.51,30.49,38.25,40.2,62.8,13.18,33.34,9.41,97.98,4.71,134.06-2.99,22.9-7.7,46.03-9.88,69.12-.58,6.12-2.2,13.97,1.04,19.03l-3.13,3.93c.08,14.69.15,29.38.13,44.07,0,1.81-1.04,3.73-.96,5.02.16,2.32,4.55,5.87-1.36,8.73-6.81,3.29-7.89-5.49-8.13-10.15-1.21-23.36-.63-47.47-.65-70.59,0-7.18.09-14.37.05-21.54l6.99,1.99,3.02-32.49c7.62-39.19,9.63-83.08,5.87-122.89-1.63-17.2-20.38-58.32-31.83-71.17-4.33-4.86-8.26-9.45-12.53-14.47-19.56-22.94-68.54-27.59-97.05-28.03-15.85-.25-32.46-3.24-48.52-.51-15.09,2.57-49.15,14.55-60.46,24.54-27.35,24.16-44.7,78.16-46.52,114.48-1.63,32.39,4.36,64.32,4.04,96.55,2.21,1.13,6.11-2.5,6.03.51-.28,10.87-4.28,23.9-5.02,34.99-.46,6.85.25,14.11.03,21.03-.1,3.18-2.23,7.65-.53,10.46.86,1.41,3.85,1.7,5.23,4.76,2.45,5.42,5.85,22.48,6.97,29.03,2.66,15.6,3.54,32.38,4.3,48.2,1.92-.31,1.23-3.11,3.69-3.85,1.96-.59,3.56.12,5.29.86,1.98-1.98.73-40.18.97-46.55.67-17.63,3.06-35.35,4.03-52.97,1.05-19.07.17-39.08,2.03-57.97.35-3.54.58-9.36,5.35-9.26,5.48.12,2.62,7.28,2.59,10.2-.49,46.33-2.35,89.87-5.96,136.03-1.48,18.98-6.37,38.41-2.99,57.52l6.31-.09,2.67,6.07,3.02-35.99c-5.64.67-7.32-3.88-7.89-8.62-2.37-19.66,9.03-44.04,10.87-62.9,2.04-20.83-1.86-37.49-3.87-57.11-.44-4.3-2.22-23.68,5.4-19.4,1.16,5.06.05,10.29.61,15.39.95,8.74,4.21,17.31,4.86,26.14,2.5,33.87-6.21,53.82-10.71,85.26-.81,5.66-3.39,15.73,1.71,19.22,2.4-15.52,12.37-6.82,11.02,5,2.23-.25-.05-4.18,1.92-5.56,5.86-4.11,6.73,5.14,7.06,9.08.76,9.26.23,19.67,1.02,28.98,1.03,12.14,2.53,24.66,5,36.5,1.74.24.95-2.27.99-3.48.45-13.06,2.13-57.65,6.78-67.23,1.17-2.41,3.25-3.27,4.53-6.47,11.6-29.07,1.29-62.44-.3-92.32-.54-10.11.39-20.37-.02-30.49-2.06.7-.58,4.18-2.5,6.02-1.06,1.02-3.27.59-3.56,1.58-.86,2.9.99,7.71,1.1,10.85.59,16.06-.37,32.14-1.13,48.04-.09,1.97,2.95,8.96-2.31,7.41-2.44-.72-3.45-8.92-3.64-11.37-1.26-16.21,1.34-32.7-1.08-48.92-2.45-16.4-13.46-31.3-15.62-47.38-1.89-14.04.48-43.46,7.54-55.94,1.43-2.52,8.19-8.8,9.2-3.78.11.56-3.67,5.63-4.48,7.5-13.76,31.75-4.99,58.37,8.45,87.52.46.99.58,2.35,2.02,2.47,6.85-29.74,5.28-59.3,3-89.49-.93-12.31-6.67-38.65-3.22-49.23.3-.91,2.01-4.1,2.75-4.27,5.92,1.84,1.88,4.44,1.53,7.55-1.9,16.63,7.83,47,8.94,65.96.62,10.53-.38,21.03-1,31.5h5.01c.76,5.1-1.7,9.56-2.04,14.46-2.78,39.67,7.91,83.2,2.76,120.76-1.1,8.05-6.59,20.98-6.78,27.31-.14,4.65,1.87,12.09,2.04,16.98.35,9.7.58,19.39,1,29,.55,12.49.71,25.04,1.51,37.5.84-6.53,1.68-20.15,11.49-16.01-.49-3.65-1.75-7.9-1.98-11.51-3.25-51.33,3.19-98.57,13.27-148.71.57-2.86,2.08-5.43,2.74-8.26-.03-1-2.78-.17-4.04-.98-3.47-2.22-2.69-20.71-2.93-25.08-2.23-40-3.42-90.08-1.09-130.01.28-4.71,1.28-14.79,3.27-18.73,1.32-2.61,4.6-4.29,5.64-1.06.5,1.58-.99,16.03-.9,19.88.59,26.05,3.94,51.75,3.08,78-.55,16.96-3.41,34.05-4.03,50.97-.31,8.53-.12,17.07,1,25.49,2.48-2.61,4.41-5.63,8.38-2.9,5.28,3.62-1.8,4.61-2.48,5.54-.88,1.22-2.27,9-2.62,11.15-2.28,13.98-2.8,29.34-4.42,43.58-3.89,34.27-10.12,75.86-6.92,110.17.68,7.31,6.66,8.57,6.06,15.45,2.31-.8,1.45-4.74,2.91-6.56,3.92-4.86,8.08,1.91,8.08,6.07v14.5l3.29-17.21c.65-2.94,3.4-7.55,7-6.65,2.6.65,2.7,4.16,4.7,4.85,1.27-5.97-.25-29.05,5.03-31.55,2.19-.9,5.09.05,5.5,2.51l4.48,34.03,3.06-44.44c1.91-7.64,7.89-7.47,9.66.24l6.28,40.21c-1.04-9.68,2.54-17.89,2.05-27.54-1.38-27.48-4.94-55.35-4.08-83,.86-27.61,5.81-53.39,4.08-82-1.48-24.62-10.33-46.24-8.02-71.94.35-3.89,1.89-13.26,6-5.99-5.36,25.6,7.7,48.43,10.87,73.09,1.74,13.58,1.63,30.15,1.16,43.93-.11,3.3-2.26,11.44-1.81,13.85.33,1.76,4.5,3.25,3.86,6.1-1.94,13.53-4.4,27.35-5.08,41.02-1.01,20.33-2.62,51.3-1,70.98.15,1.87.99,3.63,1,5.52,2.14-1.18,5.13-1.31,6.3,1.26l5.69,31.73v-25.5c2.14-5.59.14-15.03,9-13.5.38-4.95-1.93-24.2,4.51-25.04,4.32-.56,5.75,3.56,6.52,7.04,2.45-1.35,4.51-1.34,6.96,0l-.03-66.54c.05-2.36,1.02-4.55,1.08-6.92.52-20.68.1-41.39,1.98-62.02.44-4.79,1.37-11.98,7.96-9,5.52,2.49,2.09,10.6,1.98,14.94-.89,37.04,2.18,82.13-3.1,117.9-1.77,11.96-8.01,29.98-7.94,41.15.05,7.11,5.66,18.75,6.09,26.49l1.98-17.5c-.2-4.79.05-24.61,3.99-27.01,1.35-.82,3.7-.82,5.05,0l4.97,13.52c.21-4.81-.06-24.49,4.71-25.86,3.38-.87,5.16,1.67,6.05,4.61,2.08,6.89,1.31,37.79,3.26,40.25.55.09,1.32-.59,1.51-.98,1.24-2.63,2.21-18.39,2.47-22.53,1.59-24.73-.92-50.49,6.53-74.47l1.98-1.03,2.38,1.68-3.89,80.82c-1.62,5.89,0,23.87-8.47,24.6-5.81.5-7.47-2.05-9.03-7.07l-2.47-14.01c.1,3.63-1.77,20.96-4.64,21.92-8.7,2.91-5.57-18.47-7.87-22.93-.99,8.89-.37,18.51-1.62,27.39-.59,4.2-2.27,13.43-8.24,9.52-.53-.35-8.04-8.77-8.49-9.55-2.25-3.88-2.85-9.89-3.16-14.35-2.38,1.27-3.79,1.26-5.49-.98l-2.89,7.08c-2.05,1.69-4.46.91-6.6-.1-.57,5.45.78,12.25,0,17.5Z"/>
      <path d="M201.35,1209.01l12.94-47.56c.88-3.02,3.06-3.82,6.05-3.44.93,7.67-1.16,15.01-1.99,22.51-.26,2.37.65,6.95-.46,8.54-.82,1.16-3.83.66-4.39,2.61-2.42,20.24-7.22,40.4-8.19,60.81-1.26,26.41,4.6,49.79,11.07,75.05-.18,2.48-2.94,3.64-4.51,1.48l-14.51-43.98c-2.65,29.86-3.92,60.13-12.5,89.01l-4.51.98c5.8-24.47,3.09-48.77,3.95-73.54.08-2.37,1-4.55,1.08-6.92,1.18-33.73,2.07-69.52,4.97-103.03.88-10.15,2.94-20.26,4.65-30.28,1.13-2.68,4.17-1.87,6.34-1.23v49Z"/>
      <path d="M286.35,1090.01c1.27,4.13-2.31,4.13-3.19,6.38-4.82,12.34,2.23,51.88,1.23,69.16-1.22,21.12-8.53,42.7-10.03,62.97-2.18,29.36,2.65,49.39-6.73,79.27-2.65,8.45-11.09,32.96-16.41,38.6-1.95,2.06-5.19,1.55-4.88-.84.41-3.16,6.15-12.93,7.75-17.3,6.7-18.27,11.26-39.21,12.3-58.7.77-14.52-.88-28.84-1.01-42.99-.11-12.37-8.57-27.92-9.93-40.16-.44-3.96-.58-23.83,1.12-26.15l3.2-1.2,1.43,1.61.41,21.59,7.74,21.75c.23-12.94,4.16-25.67,5-38.51,1.3-20-2.3-43.42,1.12-62.88,1.08-6.15,3.11-14.24,10.89-12.6Z"/>
      <path d="M392.26,427.93c-7.99,1.65-15,5.9-22.66,8.83-10.58,4.04-24.51,7.1-34.25,11.75-10.03,4.79-31.25,27.55-36.54,37.46-4.55,8.53-6.51,16.05-12.24,24.76-17.71,26.98-29.42,32.13-58.55,44.45-15.53,6.57-40.39,13.51-57.12,10.77-9.17-1.5-6.93-15.93-3.99-22l3.43.05-.85,15.86c1.79,2.88,17.45-.57,20.86-1.35,6.69-1.53,14.77-4.33,21.26-6.74,14.67-5.45,45.64-17.65,55.25-28.75,21.62-25,27.63-53.49,55.57-75.43,12.47-9.79,36.92-14.35,52.44-19.56,4.95-1.66,18.13-10.77,17.39-.1Z"/>
      <path d="M744.35,283.99c8.54,1.89-3.33,8.61-6.3,7.89-7.09-1.73,1.54-13.84,3.88-16.79,7.37-9.27,33.18-24.89,44.93-26.07,20.12-2.03,19.49,4.77,32.76,14.22,4.54,3.23,16.44,10.33,21.42,12.58,19.05,8.64,52.84-2.97,73.13-6.5,17.04-2.96,39.13-7.65,55.81-9.19,3.08-.29,11.07-1.4,11.44,2.38.43,4.53-9.03,4.07-13.07,4.99-30.98,7-99.45,28.62-127.68,16.7-6.02-2.54-20.08-11.36-25.64-15.36-9.67-6.98-10.99-14.12-25.16-12.82-13.89,1.28-37.46,16.42-45.51,27.96Z"/>
      <path d="M721.67,416.33c-.55.59-1.99,6.86-4.83,2.7-.73-1.07-.7-3.18-.48-4.48.52-3.04,15.33-12.92,18.87-15.17,9.19-5.87,16.52-10.08,27.31-12.69,11.14-2.7,35.78-8.23,46.26-6.61s13.72,16.17,18.37,23.63c3.79,6.08,17.77,20.15,24.76,21.24,18.1,2.82,41.96-11.3,59.19-17.68,6.47-2.4,40.59-14.82,44.63-14.02l2.66,3.32c.48,4.86-11.07,6.05-15.31,7.68-21.15,8.15-43.21,19.45-64.49,26.51-24.48,8.13-42.87-.76-56.66-21.83-7.76-11.86-5.46-23.02-23.07-21.89-9.19.59-37.53,6.61-46.03,9.96-4.75,1.87-28.18,16.12-31.17,19.34Z"/>
      <path d="M414.35,254c-11.82,1.18-9.57-10.27-12.06-18.43-5.04-16.5-13.88-15.53-29.42-14.55-44.09,2.79-79.79,23.03-105.03-25.99-8.98-17.44-10.19-41.09-8.46-60.5.37-4.21,4.03-20.55,8.5-21.51l2.47,1.54c-1.24,4.73-3.35,9.11-3.87,14.08-2.7,25.85,6.84,77.59,34.35,88.4,16.33,6.42,55.98-3.17,74.98-4.07,18.87-.89,28.07,3.17,33.05,22.04.94,3.57.83,8.55,1.7,11.3.76,2.4,5.15,3.67,3.79,7.71Z"/>
      <path d="M770,66.14c2.19-.69,3.93,1.08,3.19,3.19-5.58,6.24-8.59,14.81-13.86,21.16-17.48,21.06-49.54,40.53-75.99,47.01-7.83,1.92-10.56-.18-17.5.51-9.33.93-26.96,16.14-30.29,24.7-4.36,11.24.26,27.86,2.89,39.7.49,2.2,3.13,4.19,1.41,6.61l-2.53.51c-1.88-1.62-3.22-3.54-4.18-5.82-5.69-13.52-10.25-34.16-3.34-47.74,4.73-9.3,22.65-25.51,33.12-26.88,5.02-.66,10.71.61,15.68-.32,26.3-4.93,46.7-23.19,66.26-39.74,8.71-7.37,18.23-13.16,25.12-22.89Z"/>
      <path d="M756.85,580.01c-6.37-.59-16.35-3.21-20.35-8.65-4.65-6.32-5.17-20.62-7.22-28.78-2.95-11.68-10.32-36.11-20.99-42.01-4.13-2.28-35.75-12.17-40.44-12.55-11.77-.97-24.47,4.28-38,3.99-4.78-.1-3-2.63-7.09,2.96-2.98.64-9.22-10.42,3.1-10.05,13.7.41,14.63-.61,27.25-2.67,16.49-2.69,38.94,3.73,54.51,9.99,18.69,7.51,26.72,36.5,31.27,54.73,3.46,13.83-1.2,20.99,16.09,23.91,10.67,1.8,24.95,3.16,35.89,4.11,3.18.28,14.64-1.12,15.47,1.53.52,1-.67,3.48-1.48,3.48-15.01,0-33.48,1.34-48,0Z"/>
      <path d="M367.36,346.01c.13-1.66-.02-3.11-.94-4.57-.58-.93-15.06-13.87-16.37-14.64-6.27-3.69-16.09-4.5-23.2-3.78-25.26,2.55-43.36,35.54-74.97,38.03-36.98,2.91-66.35-1.81-96.87-23.2-1.13-.79-3.98-2.81-3.66-4.32.88-4.12,11.33,3.26,13.64,4.34,26.69,12.53,50.97,17.79,80.85,16.13,40.75-2.26,63.23-53.25,103.86-34.84,4.76,2.16,20.81,16.46,22.21,20.8s.27,6.73-4.55,6.06Z"/>
      <path d="M401.17,3.86c-.38.64-2.72-.17-2.92,3.62-.63,11.9,20.78,20.62,28.61,29.51,28.31,32.15,12.53,61.52,21.56,97.44,3.4,13.52,14.31,23.42,24.4,32.6,7.87,7.16,25.83,15.44,21.39,27.83l-3.74.02c-1.83-10.5-14.05-15.22-21.65-21.85-10.66-9.3-23.57-21.83-27.4-35.6-9.35-33.64,5.3-64.68-20.1-94.9-7.3-8.68-21.07-15.5-25.51-24.49-2.04-4.13-4.5-11.01-2.23-15.31,2.49-4.71,9.85-2.67,7.59,1.13Z"/>
      <path d="M532.56,179.81c.85.57,4.4-.07,4.79,1.71.67,3.08-6.21,6.04-10.18.18-2.71-3.99-10.29-28.08-10.8-33.2-2.06-20.63-.82-59.1,8.5-77.48,6.37-12.57,15.57-15.83,25.5-24.5,12.59-10.99,30.49-30.25,46.76-35.24,4.05-1.24,12.75-3.24,9.23,3.23-12.41,3.15-25.84,13.91-35.53,22.47-6.86,6.06-13.01,14.2-20,20-10.26,8.52-14.42,7.34-20.65,21.35-7.01,15.77-8.38,50.66-6.86,68.21.29,3.32,7.81,32.3,9.24,33.27Z"/>
      <path d="M200.34,1153.01l-4.09-.59c-1.15-2.87-1.04-5.77-.77-8.79,3.21-36.67,31.09-76.12,13.05-113.3-1.82-3.76-11.08-15.18-9.71-18.3l2.16-1.97c4.15-.73,14.89,20.36,16.4,24.42,14.64,39.33-11.48,80.08-17.03,118.53Z"/>
      <path d="M376.48,587.13c9.17-4.8,18.47-14.24,25.39-22.1,15.91-18.09,33.05-43.4,31.47-68.5-.18-2.82-4.49-15.65,2.44-13.49,2.9.9,4.69,17.18,4.59,20.43-.88,28-30.51,72.96-55.07,85.98-4.07,2.16-8.8,4.59-8.81-2.32Z"/>
      <path d="M719.09,441.25c14.83-2.34,19.56,3.68,25.8,15.72,10.71,20.65,9.29,37.31,38.94,35.03,2.24-.17,14.51-4.33,13.51.5-.45,2.17-14.67,5.23-17.5,5.51-14.16,1.38-22.82-2.86-30.29-14.69-5.31-8.41-12.81-33.99-22.16-35.92-5.24-1.08-21.05,4.97-24.13,9.08-.92,1.22.59,3.95-1.87,5.06-1.82.82-6.91-2.21-6.08-4.97.51-5.06,18.74-14.51,23.79-15.31Z"/>
      <path d="M280.34,1010.01c2.12,33.21,28.8,61.48,31,94.51.58,8.66-.77,26.53-3.27,34.71-.92,3.01-12.92,22.46-14.23,22.78-1.45.35-2.34-1.21-2.54-2.52-.7-4.79,6.99-11.43,9.24-15.78,5.19-10.04,5.79-31.92,4.79-43.18-1.64-18.35-14.71-39.39-21.47-56.53-2.11-5.36-11.45-29.96-6.57-33.54l3.04-.44Z"/>
      <path d="M255.24,1011.13c1.54,7.57,5.38,14.59,6.1,22.4,3.02,32.85.29,73.77-16.16,102.8-1.89,3.34-3.65,6.44-7.82,4.68-.84-1.17,9.71-22.63,11.02-26.47,6.84-19.95,7.4-55.55,6.88-76.92-.21-8.67-3.82-17.36-3.91-26.03l3.9-.46Z"/>
      <path d="M716.36,238.01c3.54-1.91,7.07,1.67,2.92,4.41-3.74,2.48-6.84,1.94-8.47-2.37-2.16-16.1-1.74-33.24,8.11-46.99,6.18-8.61,13.11-7.77,21.44-11.56,11.91-5.43,20.63-16.58,31.09-23.91,2.96-2.07,7.37-6.03,7.48.43-11.51,8.47-21.38,22.27-33.9,29.14-12.72,6.98-18.26,2.98-24.85,19.15-4.35,10.68-4.17,20.3-3.81,31.69Z"/>
      <path d="M395.35,273.01l-1.68,3.81c-17.66,2.17-36.79,13.24-47.86-6.77-3.27-5.91-2.52-14.43-11.35-10.44-3.1,1.4-12.17,11.8-12.1,14.92.06,2.57,4.79,3.54,2,5.99-3.23,2.14-6.81-1.74-7.1-5-.55-6.11,8.2-17.69,13.38-20.72,19.89-11.67,16.65,14.78,29.41,20s22.75-2.85,35.29-1.79Z"/>
      <path d="M81.01,1030.15c6.2-1.65.58,5.87.52,8.33-.12,4.62,3.69,13.76,4.56,19.3,3.29,21.09.65,42.75-1.72,63.74-.31,2.73,1.18,10.81-2.63,11.43s-3.48-6.3-3.43-8.49c.51-22.01,6.2-42.08,2.93-64.84-.82-5.67-8.49-27.27-.23-29.48Z"/>
      <path d="M603.02,117.16c1.34-.37,3.02.2,3.33,1.37.74,2.8-5.17,6.67-6.98,9-4.21,5.44-7.54,11.8-11.63,17.37-7.04,9.58-13.75,9.88-9.89,23.11.86,2.94,9.42,17.83,2.15,15.86-3.51-.95-9.38-17.43-9.65-21.38-.76-11.07,4.43-11.03,9.97-18.01,5.22-6.57,9.8-15.76,15.49-21.51.78-.79,6.76-5.69,7.21-5.81Z"/>
      <path d="M751.27,339.92c-3.07,2.19-5.32-1.23-4.51-4.97,1.32-6.07,8.52-12.06,14.85-10.77,9.65,1.97,7.47,23.46,24.32,25.74,2.64.36,15.34-1.32,14.41,2.57-.48,2.01-13.12,3.51-15.54,3.55-6.74.12-13.61-5.5-17.28-10.71-2.13-3.03-5.56-13.78-6.81-14.22-7.07-2.46-8.55,8.16-9.45,8.8Z"/>
      <path d="M376,510.66c-2.01,1.98-5.09,3.73-5.64-.1,6.21-9.53-.35-22.8,6.98-31.79,2.13-2.61,18.05-14.54,20.99-15.32,6.39-1.69,15.63,5.54,10.04,8.09-1.64.75-4.43-3.29-8.04-2.15-1.36.43-16.77,12.82-17.83,14.25-4.86,6.56.73,19.88-6.5,27.01Z"/>
      <path d="M427.53,183.82c.45.68,4.12,1.02,4.81,2.7.73,3.15-5.93,2.89-7.98,1.97-8.66-3.89,1.23-32.5-11.38-32.4-2.21.02-10.24,1.94-11.19,3.92-.85,1.77,2.24,11.82-6.02,2.05-2.48-8.91,22.99-18.55,28.78-4.74,3.03,7.23.55,22.78,2.99,26.51Z"/>
      <path d="M321.63,390.3c3.02-2.48,15.28-.91,20.1-1.42,6.88-.72,14.23-2.01,21.03-2.87,1.94-.25,6.71-3.97,7.52.63.93,5.28-12.53,4.98-15.19,5.61-3.75.88-7.59,2.97-11.5,3.5-9.93,1.35-18.01-3.38-23.85,7.21l-3.23-3.27c.08-.85,4.41-8.81,5.12-9.39Z"/>
    </g>
  </g>
</svg>