<?xml version="1.0" encoding="UTF-8"?>
<svg id="Calque_2" data-name="Calque 2" xmlns="http://www.w3.org/2000/svg" viewBox="0 0 1161.58 935.74">
  <g id="Illu_Vectorisée_BLACK_" data-name="Illu Vectorisée (BLACK)">
    <g id="Bite">
      <path d="M786.67,277.85c6.87-2.58,13.87-5,20.66-7.81,34.27-14.21,68.8-27.08,102.58-42.32,47.46-21.42,124.28-36.21,176.11-32.84,15.85,1.03,18.68,5.64,31.22,11.75,7.86,3.82,18.62,6.35,24.84,12.64,2.17,2.19,15.92,27.77,17.07,31.4,2.45,7.71,3.78,21.53.45,28.88-3.95,8.71-27.1,26.4-35.94,31.02-32.98,17.23-71.45,20.05-108.14,20.28,5.25,7.99,16.05,12.96,19.86,21.6,3.28,7.44,5.13,22.33.58,29.3-5.12,7.86-30.73,17.49-40.22,19.74-7.86,1.87-16.1,2.95-24.19,3.3l10.98,7.49c2.23,2.73,3.6,5.45,4.01,8.98,2.88,24.83-14.04,28.17-33.79,32.16-22.81,4.62-46.32,5.7-69.14,10.32,13.11,10.53,12.65,27.64-1.68,36.78-12.58,8.02-34.94,9.58-49.79,10.17-13.37.52-30.11-1.94-44-2.95s-29.57-6.66-44.05-7.91c-14.2-1.23-36.13,3.53-49.04,9.68-7.55,3.6-14.53,19.34-20.32,26.65-24.76,31.24-47.6,47.5-80.2,69.69-19.69,13.4-40.14,25.65-59.7,39.23-23.68,28.26-5.54,65-2.99,95.97,3.4,41.37-10.6,86.45-33.15,120.71-18.03,27.39-60,66.21-92.74,72.15-64.07,11.61-131.53-32.51-142.63-97.23-2.21-12.91-2.49-26.1-2.3-39.17-1.86-.44-1.94.63-2.83,1.66-7.54,8.75-12.57,21.59-20.18,30.78s-17.43,19.54-25.44,28.52c-9.88,11.08-46.83,38.27-61.08,39.85-24.36,2.7-55.04-3.38-76.36-15.36-23.47-13.19-56.31-50.01-64.21-75.69-13.6-44.2,8.92-126.44,35.41-163.99,9.94-14.09,20.42-29.29,31.86-42.09,71.51-80.01,143.95-100.3,247.02-118.73,34.49-6.17,69.04-10.56,101.38-24.54,4.42-4.2,41.75-19.36,42.3-21.67.41-1.73-1.38-2-2.51-2.47-55.93-22.82-131.06-18.28-189.57-8.72-22.25,3.64-50.12,15.65-70.22-.31-9.56-7.59-8.38-13.79-6.05-24.99,6.22-29.98,34.71-48.8,52.5-70.41.93-1.13,2.43-1.61,1.99-3.49-3.2-2.98-35.29,18.46-40.3,21.15-12.09,6.5-26.78,11.85-40.22,14.74-16.17,3.49-35.31,2.95-34.39-18.4,1.05-24.54,21.89-43.62,35.96-61.46-26.38,5.65-63.33,29.48-89.46,13-4.56-2.88-7.62-5.97-8.38-11.6-3.32-24.49,12.54-45.86,27.37-63.39l30.5-21.95c-33-.45-70.67,2.55-101.6-10.83C10.57,176.76-2.16,159.42.3,132.59,4.75,84.09,61.63,54.64,105.56,51.98c78.79-4.76,155.88,40.05,215.93,85.95,29.67,22.68,58.88,45.78,88.52,68.37,29.34,22.37,59.33,43.94,88.37,66.52,10.08,7.84,19.49,11.84,32.22,13.75,8.2,1.23,32.84,3.78,37.43-4,2.59-4.4,6.72-26.89,8.28-33.69,3.73-16.26,5.28-30.14,12-45.96,9.86-23.19,30.04-42.21,36.44-66.94-25.65-9.4-29.1-35.41-23.89-59.41,2.54-11.71,13.85-34.79,21.4-43.56C638.34,14.34,699.02-1.18,723.19.07c17.48.91,34.14,10.45,49.5,18.46,4.28,2.23,15.51,10.37,18.96,11.1,2.88.6,5.13-2.5,8.52-2.65,9.94-.45,6.93,10.2,9.22,15.81,1.97,4.83,12.13,14.49,15.27,20.7,8.59,16.97,1.88,43.75-10.51,57.5-6.45,7.16-12.48,5.42-15.78,15.2-5.81,17.2-2.49,53.91-3.73,74.22-.68,11.11-1.77,25-3,35.97-1.19,10.55-4.26,20.87-4.98,31.49ZM660.74,91.99h19.49c.41,0,3.33-3.37,3.73-4.26,1.57-3.46,4.26-24.39,1.79-26.24-1.48-1.11-15.84-3.45-18.35-3.4-1.69.03-6.91.92-8.71,1.37-4.89,1.21-17.47,9.36-21.02,5.14-3.64-5.43,11.39-10.36,15.55-11.61,10.6-3.17,25.44-2.46,35.51,2.53,8.57,4.25,2.98,13.47,3.99,14.49,6.18-.4,11.92,1.67,17.98,0,1.51,4.27-3.12,5.15-6.73,5.76-4.19.7-8.81-1-11.22,4.02-2.72,5.68.25,12.39-7.68,17.04-7.19,4.22-23.83,1.45-32.81,2.17-7.44.59-31.29,8.75-31.52-4.48-.18-10.64,7.73-24.58,3.01-36.5-1.7-1.55-7.11,8.36-7.72,9.76-6.65,15.36-9.15,39.07,3.7,51.71,6.59,6.48,19.48,7.33,17.97,17.89-.7,4.9-8.07,19.21-10.78,24.23-8.38,15.51-21.2,29.84-27.92,46.03-10.21,24.63-10.67,51.84-18.5,76.44-1.12,3.51-4.45,8.21-5.75,12.24-3.79,11.77-6.6,23.89-10.96,35.5,6.55-6.03,15.93-11.08,21.97-17.5s10.44-16.12,16.02-22.95c6.65-8.14,16.71-19.04,23.99-26.98,4.94-5.38,19.05-16.44,25.91-18.08,2.01-.48,2.85-.08,3.04,2.05-17.16,8.72-27.89,20.63-38.97,35.99,1.7.98,4.68-.94,6.35-1.65,6.09-2.61,11.56-6.46,17.28-9.73l1.89,2.91c-7.94,7.47-19.14,10.11-27.03,16.95l-2.5-4c-2.27-2.25-19.5,24.81-21.46,27-6.9,7.73-16.45,12.78-23.48,20.49-13.17,14.46-17.91,30.46-27.58,46.36-24.75,40.71-68.49,69.99-112.08,87.78-40.49,16.52-80.13,18.48-122.39,26.51-18.17,3.45-39.78,9.25-57.75,14.2-66.91,18.45-120.56,50.87-165.91,102.9-7.44,9.61-14.89,26.86-22.55,35.41-2.98,3.32-7.74,2.73-8.53,3.69-23.71,46.81-52.59,129.42-16.85,175.73,17.45,22.61,47.51,53.82,77.53,57.38,10.66,1.26,36.05,3.59,45.33.58,7.13-2.31,36.59-23.21,43.01-28.94,5.93-5.29,9.39-11.93,14.47-17.51,17.92-19.72,39.5-44.48,47-70.92,1.32-4.65,1.81-19.76,5.48-21.52,8.45-4.06,8.36,6.44,7.87,11.89-2.47,27.54-4.56,49.65.6,77.58,9.94,53.74,62.78,89.06,115.99,87.96,36.62-.75,78.93-39.44,98.61-68.28,23.25-34.07,35.82-77.64,31.75-119.13-1.06-10.78-5.55-23.62-6.86-35.11-2.89-25.37-2.92-52.91,19.14-69.54,26.85-20.24,58.38-38.15,86.35-58.55,8.01-5.84,21.2-10.36,21.3-21.67.09-10.61-2.83-11.01-6.55-18.43-7.76-15.47-10.92-24.61-9.31-42.4,1.38-15.19,14.16-36.14,19.12-51.83,4.9-15.51,6.93-32.24,11.22-47.74,2.93-10.61,8-20.5,11.63-30.85,8.35,2.1,6.22-.6,11.35-5.14,2.24-1.98,4.79-4.37,8.01-3.98l.53,2.51c-28.31,20.42-29.12,57.82-38.99,88.43,8.32-10.18,13.83-22.62,24.49-30.97l2.48,2.48c-5.2,4.86-9.77,10.32-13.8,16.19-3.29,4.79-10.3,19.51-13.69,22.3-1.65,1.36-3.83.55-4.6,1.6-.9,1.23-10.84,25.51-11.59,28.17-1.59,5.6-2.7,12.48-1.79,18.19,5.69-6.61,9.77-15.84,15.95-22.02,4.21-4.2,7.69-2.66,4.09,2.09-6.25,8.23-20.63,23.02-18.31,34.2,1.61,7.72,11.29,19.64,12.53,24.44,1.03,3.99-.09,9.24,1.73,13.25,9.47-12.11,20.34-22.17,28.9-35.05,3.86-5.8,7.4-12.11,10.76-18.22,45.38-82.69,86.38-168.44,95.77-263.97,1.43-14.59,3.59-29.35,4.03-43.94.2-6.82-.23-13.7-.05-20.52-2.77-2.81-9.07,10.93-10.57,12.9-4.29,5.62-9.86,8.86-12.89,16.09-2.19,5.22-2.79,11.4-3.5,16.98,4.48-1.57,6.26-10.32,10.99-8.48.42,5.2-10.26,13.41-13.42,17.56-3.53,4.65-5.1,10.13-8.15,14.84-5.77,8.93-15.04,14.99-19.01,25.04-.55,2.63,5.84,12.61,6.49,17.58.48,3.65-.26,15.65-2.44,18.38-1.34,1.68-3.14.87-3.4-.53-.23-1.23,1.76-7.6,1.91-9.95.51-8.21-1.99-13.17-4.99-20.47-1.91-.32-2.87,1.29-3.96,2.52-2.74,3.09-9.32,14.46-11.98,16-.99.57-1.94.55-3.03.46.02-.81-.15-1.67,0-2.48.18-.99,9.93-14.12,11.57-16.42,11.54-16.17,25.99-30.57,33.15-49.79,4.45-11.94,2.69-20.91,11.25-31.72,2.4-3.03,6.04-5.48,8.41-8.58,3.77-4.94,5.8-14.23,13.51-13.97-.14-13.19-.41-26.26,4.87-38.61,5.3-12.41,9.17-7.8,16.16-14.82,9.88-9.92,14.98-30.92,10.24-44.19-1.63-4.57-18.98-27.56-23.6-26.19-3.56,4.07-5.03,9.68-7.81,14.24-6.26,10.27-13.62,14.68-11.88,28.24.19,1.5,3.77,2.33,1.97,5.32-.8,1.32-22.82-.11-26.36.12-4.12.27-10.48,1.42-14.52,2.46-8.28,2.14-18.97,10.71-20-4.94-.32-4.89,1.03-21.17,2.27-25.79,1.49-5.57,16.84-8.26,22.27-8.71s10.6.41,15.85-.14c4.82-.5,16.86-6.47,19.11-1.88l.99,8.99c5.49-6.56,9.75-14.33,12.54-22.41-6.4-2.6-11.96-6.92-18.01-10.08-11.77-6.16-30.67-16.42-43.51-17.45-22.46-1.79-70,11.3-88.76,24.13-3.01,2.05-10.75,10.65-10.43,14.17.06.62,3.98,11.09,4.32,11.6.87,1.28,3.56,1.39,3.5,3.54l-6.05,29.48c1.03,1.03,19.76-1.17,21.97-2.51,3.55-2.16.84-26.59,14.88-23.34,3.6,7.96-2.33,15.32-3.87,22.85ZM743.69,84.99c3.98.27,7.48-1.03,11.51-1.07,2.8-.03,8.54,2.3,10.04.13l1.43-26.04c-13.84,5.72-30.28,1.59-44.82,6.14l-1.13,26.83,15.85-5.12c2.41-5.22-2.49-6.35-2.84-7.44-.5-1.56,6.1-15,10.48-10.44,3.48,3.62.28,12.6-.51,17.01ZM562.8,292.85c-20.09,2.21-41.5,2.29-59.63-7.83-8.66-4.84-16.38-12.7-24.78-18.19-39.5-25.79-79.69-51.13-117.78-79.08-38.5-28.25-75.42-62.92-118.92-83.95-48.3-23.35-92.66-41.96-147.95-35.67-30.97,3.52-74.21,24.69-82.85,57.05-15.99,59.86,62.72,65.01,102.75,64.77,17.54-.1,36.52-4.12,53.98-2.1,2.86.33,4.96,2.44,4.29,5.34-.93,4.02-11.03,4.61-15.06,6-29.57,10.2-71,46.13-69.68,80.07.2,5.06,3.28,7.65,7.64,9.36,25.48,10,68.33-16.65,94.22-22.28,7.19-1.56,16.68-3.99,13.05,7.06-8.39,9.23-19.35,16.04-27.55,25.41-5.76,6.58-19.27,24.48-21.75,32.21-3.07,9.55-6.81,20.75,6.03,22.5,11.28,1.54,38.65-8.62,49.23-14.2,11.37-6,22.08-14.65,33.99-19.97,5.71-2.55,23.29-9.56,28.71-10.33,4.06-.58,8.75,1.39,8.05,6.06-.5,3.33-15.3,18.59-18.78,22.25-16.71,17.55-42.07,38.02-48.71,62.21-3.46,12.6-3.93,17.3,9.95,21.46,19.83,5.94,36.67-3.72,55.54-7.94,35.1-7.84,86.1-15.51,121.34-10.04,25.69,3.99,49.86,15.22,74.14,23.79l3.06,4.9c5.51-3.5,10.06-8.91,15.04-12.95,6.63-5.38,14.96-10.16,20.48-16.49,19.8-22.68,37.96-61.05,47.23-89.67.78-2.42,5.43-19.05,4.71-19.76ZM1135.1,226.23c-4.31-4.48-13.9-6.43-19.33-9.15-11.17-5.58-16.28-11.2-29.76-12.21-93.21-6.98-173.84,35.91-258.63,65.23l-42.72,17.24c-2.89,10.38-4.48,20.96-7.72,31.26-16.35,51.98-39.43,110.25-66.42,157.42-1.54,2.69-12.79,16.75-10.79,18.68,9.82-2.05,20.61-5.9,30.6-6.87,11.39-1.1,28.85,2.26,40.58,4.15,24.97,4.03,45.6,7.2,71.24,5.73,12.25-.7,25.51.28,35.96-8.01,12.9-10.22-1.58-17.09-11.05-19.92-3.25-.97-7.57-.55-10-1.99-3.64-2.15-4.02-7.48-.71-10.11,2.44-1.94,33.12-6.89,38.9-7.8,15.31-2.42,67.65-6.48,77.28-14.66,3.96-3.36,4.7-13.13.37-16.31-14.1-10.33-33.78-14.02-50.82-15.14-5.1-.33-22.49,2.13-24.29-3.71-3.3-10.73,12.71-8.5,19.34-8.34,29.07.71,56.36,5.85,84.95-3.91,3.45-1.18,22-9.25,23.71-10.99,4.22-4.3.88-19.16-3.22-23.57-15.02-16.17-25.33-17.85-46.64-21.32-3.44-.56-6.99.47-10.42-.57-5.89-1.78-5.41-10,.76-11.33,20.75-4.45,53.34-.09,75.78-1.17,27.21-1.31,65.84-8.41,87.88-25.04,3.29-2.48,17.31-14.38,18.96-17.01,3.11-4.96,1.72-19.79-.41-25.48-.84-2.26-12.39-24.07-13.37-25.1Z"/>
      <path d="M709.71,109.99c3.67,4.71,9.85,6.1,12.5,11.97,7.86,17.44-20.22,36.34-35.09,37.87-15.79,1.62-35.6-11.09-30.91-28.9,2.71-10.31,25.7-22.8,34.83-16.02,2.05,1.52,2.67,7.45.19,9.04l-4.08-4.8c-11.01,0-32.5,12.12-21.8,24.7,7.55,8.88,17.87,10.32,28.37,6.59,10.7-3.8,26.8-13.88,22.55-27.52-1.87-6.01-12.24-7.5-9.54-13.93-3.74.98-7.23-3.33-10.44-3.01-1.87.18-3.83,2.55-5.82,3.24-4.63,1.61-13.54,3.7-18.25,3.6-6.57-.15-8.69-7.96-18.4-3.27-6.44,3.11-7.23,7.35-9.56,13.42l-3.01-.96c-3.32-8.38,8.79-19.13,16.11-19.99,7.05-.83,11.92,4.91,15.84,5.02,1.99.06,11.1-1.99,13.35-2.74,3.48-1.16,6.38-4.23,9.71-4.37,3.98-.17,10.1,3.99,15.96,4.13,7.76.19,10.61-3.87,19.75-1.8,6.38,1.44,20.18,7.37,14.13,15.65-4.94,1.23-4.35-4.1-7.4-6.4-9.35-7.05-18.9-.96-28.96-1.51Z"/>
      <path d="M420.76,735.38l-3.85.15c2.88-21.48,18.66-38.96,31.15-55.76,11.22-1.07-2.09,10.47-4.98,14.48-9.01,12.49-16.71,26.77-22.31,41.14Z"/>
      <path d="M420.88,875.42h-2.97c.15-12.59,3.69-24.92,4.98-37.48.5-4.89-1.81-11.21,2.51-14.46,3.41,0,2.66,12.92,2.49,15.46-.82,12.11-5.57,24.41-7,36.48Z"/>
      <path d="M373.63,816.65c1.62-1.06,6.83.36,4.82,2.85l-36.99,32.95-1.04-3.02,33.21-32.77Z"/>
      <path d="M161.07,776.49c-.16-1.73-.02-3.34.46-5.02,1.11-3.88,19.21-27.52,22-26.94,1.09.22,1.74,1.65,1.03,3.01-.75,1.45-5.33,5.77-6.92,8.07-3.52,5.07-7.01,10.41-10.41,15.57-1.87,2.84-.6,6.35-6.16,5.32Z"/>
      <path d="M144.01,652.53l-2.92.06c-1.34-1.27,4.85-31.41,6.2-35.27,1.09-3.1,4.91-2.24,4.75,1.65-.39,9.43-7.75,23.28-8.03,33.55Z"/>
      <path d="M110.09,819.46l-3.91-1.63c-1.21-4.75,7.33-23.92,11.04-27.72,2.72-2.79,5.52-1.58,4.68,1.66s-6.52,10.43-8.29,14.72c-1.68,4.06-2.9,8.62-3.53,12.97Z"/>
      <path d="M468.87,765.51v3.99c-8.75-.24-17.85,2.41-25.99,5.49-1.28.49-6.16,4.75-6.98.99-1.31-5.96,28.13-12.31,32.98-10.47Z"/>
      <path d="M109.1,624.6c2.85,2.81-7.99,20.05-8.6,23.96-.43,2.76,1.16,5.14.5,7.35-.9,2.99-4.42,2.43-4.93-1.78-1.35-11.2,7.95-18.25,9.95-28.94l3.08-.59Z"/>
      <path d="M643.75,426.74c-2.43,2.38-7.68-8.22-8.49-9.98-1.33-2.89-1.28-6.26-2.96-9.03-.52-.68-1.23-.83-2.03-.97-3.66-.64-9.21,1.96-8.5-3.99,4.02.36,10.5-1.32,13.45,2.03l8.52,21.95Z"/>
      <path d="M58.02,808.35c-1.32.76-3.04-.1-3.86-1.37,2.33-4.3,13.42-25.17,19.98-21.03,3.41,4.54-3.15,4.37-6.01,7.03s-9.31,14.91-10.1,15.37Z"/>
      <path d="M89.1,730.53c1.91,9.04,2.52,20.14,10.98,25.48-4.96,5.81-9.36-3.37-11.01-7.96-1.81-5.02-2.48-10.78-3.85-15.95l3.88-1.58Z"/>
      <path d="M348.94,739.53c.21,4.02-4.3,6.37-5.52,9.96-.91,2.67-.77,6.5-1.48,9.38-6.32,2.65-4.06-8.43-2.18-12.05.82-1.59,7.33-9.14,9.19-7.29Z"/>
      <path d="M162.07,844.44c-1.48-1.54,5.97-13.27,7.55-14.92,3.42-3.57,6.69-1.8,4.94,1.93-.3.65-7.86,10.55-8.63,11.36-.87.91-2.71,2.82-3.85,1.63Z"/>
      <path d="M471.86,725.54c-2.37.69-4.64-1.48-4.84-3.69-.31-3.5,11.52-8.28,13.84-6.83,1.43,1.18,1.45,1.83-.04,2.99-3,2.34-10.32.65-8.97,7.53Z"/>
    </g>
  </g>
</svg>