<?xml version="1.0" encoding="UTF-8"?>
<svg id="Calque_2" data-name="Calque 2" xmlns="http://www.w3.org/2000/svg" viewBox="0 0 1241.37 1432.65">
  <g id="Illu_Vectorisée_BLACK_" data-name="Illu Vectorisée (BLACK)">
    <g id="Camera">
      <path d="M593.71,172.23c.46-5.79,2.32-11.93,2.89-17.6.63-6.26-.23-13.26,1.34-20.64,3.73-17.48,11.56-30.74,12.95-48.93.63-8.2,9.38-11.22,16.55-12.53,17.31-3.15,40.99-5.49,58.66-6.29,34.43-1.57,69.54,4.97,103.93,8.08,59.71,5.39,120.11,9.3,179.97,12.91,15.03.91,29.97,1.19,44.97,2,2.59.14,14.14,1.14,14.44,2.55,1.15,5.33-9.32,2.49-11.45,2.44-57.69-1.26-115.39-6.42-172.94-10.94-27.2-2.14-54.73-3.49-81.93-6.02-14.89-1.38-30.01-5.12-44.94-6.03-21.12-1.28-49.86.72-70.98,3.06-5.09.56-30,4.56-31.35,8.65-.75,3.01.88,5.5.66,8.53-.78,10.64-9.35,28.73-11.53,40.53-.54,2.93.13,5.88-.37,8.62-1.62,8.87-4.83,20.07-5.25,28.83-.04.82-.86,1.56.32,2.31,1.82,1.04,18.93.59,22.58.51,21.82-.5,43.96-3.43,65.95-2.08,17.45,1.07,35.69,6.53,52.94,8.02,56.83,4.9,113.98,5.47,170.88,9,8.18.51,16.57.6,24.77.8,11.51-11.79,22.18-24.5,33.66-36.3,34.46-35.45,74.53-71.62,115.23-99.65,7.22-4.97,15.16-7.99,22.18-13.8,9.99-8.26,20.19-18.59,30.52-27.44,2.52-2.16,7.27-8.72,9.37-9.58,10.02-4.07,28.4,3.09,39.1,4.05,15.23,1.36,32.46-.27,47.9,2.07,3.59.55,6.67,3.72,6.63,7.46-.05,4.86-3.46,3.16-5.75,4.3-5.89,2.91-18.76,21.62-24.29,27.69-5.36,5.89-11.4,8.16-17.02,12.96s-9.09,11.07-13.95,16.03c-33.38,34.08-64.33,69.71-98.44,103.45-4.32,4.27-13.48,10.63-16.61,15.45-1.62,2.49,1.2,5.03-.33,7.58-.51.72-4.28,1.64-5.37,1.72-19.14,1.36-46.38-5.1-66.61-5.82-6.75-.24-10.05,2.19-16.08,2.09-4.86-.09-10.11-1.87-14.9-2.09-36.57-1.71-73.48,1.32-110.01-.92-30.16-1.85-60.07-8.18-90.4-7.03l.5,5.99c-2.14-3.48-.83-3.95-5.24-4.71-4.99-.86-20.77-3.47-24.8-3.19-1.55.11-2.64,2-3.81,1.83s-2.4-3-4.36-3.68c-13.39-4.62-40.28-5.21-54.77-5.18-39.65.08-80.05,1.82-119.84,1.91-19.38.04-39.54-1.16-58.2,1.86-1.03.17-2.63-1.69-4.74-1.88-11.49-1.01-24.08,1.58-35.52-.93,3.73,19.56,13.21,37.21,17.69,56.76,15.65,68.38,14.55,146.01.02,214.33-1.71,8.04-5.53,15.46-5.73,23.76,32.89.64,65.42,5.65,98.01,9.43,7.35,8,18.68,9.28,28.27,13.7,11.43,5.27,22.1,12.88,33.95,18.02,14.08,6.11,29.3,9.54,43.33,15.64,26.54,11.54,52.92,33.83,81.73,41.2,42.74-1.98,86.43,2.89,128.99,1,26.38-1.17,53.7-6.5,79.92-8.03,21.09-1.23,41.29.16,62.82-2.14,3.69-.39,14.01-3.68,16.2-1.96s.95,4.54,7.42,3.09l.95-112.49c.35-41.78-.05-83.99,2.08-125.86,1.42-28.01,5.74-56.02,7-83.96.46-10.26-1.33-23.25.02-32.96.4-2.88,2.67-7.52,6.27-6.46,4.23,1.24.76,6.01.63,8.37-1.18,20.79-.43,40.73-1.95,62.01-4.5,62.69-5.29,122.18-6.05,184.86-.45,36.89-1.03,73.58-.95,110.49l-15.99.99c.02-1.21,2.5-3.17-.5-3.01-10.37.57-24.71,6.13-35.99,6.01-37.83-1.35-75.29,3.97-112.78,7.92-7.12,15.99-10.57,33.12-15.35,49.85-1.17,4.09-3.43,7.61-4.56,11.43-3.36,11.34-4.64,23.43-7.7,34.76l5.37-.1c3,12.82,18.12,11.42,27.97,15.23,11.66,4.51,36.8,21.37,45.63,30.32,9.3,9.42,22.47,22.9,28.47,34.5,22.89,44.23,19.63,83.86,7,130.98-6.43,23.99-13.27,32.58-25.31,52.64-15.6,25.97-29.21,45.45-47.6,69.33-2.76,3.59-3.46,10.37-8.57,8.93.03,26.83-9.1,52.46-15.99,77.96l2.87.1.08,3.84-5.05,1.47c-1.95,2.29,2.35,10.7-4.37,11.2-3.98.29-1.44-4.49-4.17-5.45l-22.34-3.15c-.34,8.79-.2,18.68-1.12,27.36-4.69,43.99-18.89,91.75-22.72,135.19-.16,1.79-.23,3.57-.13,5.36,3.07.51,1.57-.83,2-2.44,2.21-8.19,8.81-13.4,9.01-14.25.41-1.79-.26-4.27.23-6.54,2.08-9.49,8-15.8,15.23-21.72l2.48,2.48c-6.71,6.32-13.22,14.67-11.97,24.48,14.55-5.36,16.7,20.39,2.91,16.59-3.11-.86-6.38-9.55-7.41-9.57-3.96,2.06-6.25,10.67-4.04,14.01,1.85,2.79,12.86,2.51,15.91,3.07,5.51,1.01,11.86,3.36,17.11,3.87,10.86,1.07,29.42-2.83,38.16.81,3.82,1.59,5.84,5.17,10.19,5.3l-5.9,35.14c-2.71,3.92-5.6,1.41-8.48,1.66-21.67,1.86-29.73-2.21-49.1-3.78-12.2-.99-20.74,2.89-31.87,3.85-19.28,1.67-38.47-8.4-58.35-6.08l-21.59-188.81c-5.79,17.77-7.96,36.57-12.17,54.8-3.87,16.74-9.91,34.24-13.01,50.95-5.14,27.66-4.2,57.44-7.49,85.47-.4,1.38-1.3,1.94-2.55,2.44-2.02.8-19.75,5.02-21.8,5.18-.48.04.04-1.8-1.86-2.02-18.67-2.18-36.65-1.7-55.03-2.92-14.97-1-31.27-5.83-46-6.97-8.7-.67-27.06,1.92-33.84-2.13-4.85-2.9-4.12-20.84-3.66-26.41.27-3.24,1.64-5.38,1.96-8.03.57-4.78-1.18-9.09.22-13.28,4.72-2.07,4.84,2.42,7.32,2.89,3.12.59,6.79-.36,10.59.42,4.51.93,8.62,4.85,13.52,5.47,7.71.96,18.94-1.77,27.89-.9,7.86.76,15.6,5.14,23.49,5.98-.14-13.27-17.02-15.07-15.99-28.48,4.03-2.28,3.88,3.15,5.54,5.46.96,1.34,5.91,6.62,7.45,5.04-.84-8.71,11.02-9.15,12.78-1.29,1.17,5.22,1.02,13.86-5.77,14.32.45,6.38,10.36,6.56,15.36,7.03,5.3-7.28,4.25-15.13,5.88-23.29,10.34-51.71-1.29-102.95,1.69-155.24.21-3.68,3.91-25.45,2.99-26.4-2.09.08-4.11-.97-6.2-.81-9.11.71-21.24,3.43-30.27,3.8-10.68.43-4.68-8.53-3.7-13.79,3.28-17.59,9.21-35,11.99-51.98,2.08-12.7,2.37-23.39-7.2-33.26-2.18-2.25-5.32-3.34-7.54-5.45-14.32-13.57-24.02-23.81-33.5-41.46-8.97-16.71-26.67-53.81-28.34-71.6-2.84-30.3,9.85-72.4,32.35-93.38,20.32-18.94,35.18-27.48,59.16-40.78,17.58-9.75,29.33-15.61,47.98-22.97,12.49-4.93,23.82-15.04,37.12-17.34,1.48-5.02,1.28-9.74,2.46-15.04,6.59-29.61,24.1-57.8,19.58-89.68l-2.78-.11c1.03-5.69-1.46-4.3-3.16-6.38-.82-1-.67-2.95-1.14-3.36-.54-.47-3.09-.35-4.5-.98-10.47-4.7-21.33-9.35-31.63-14.36-12.23-5.95-23.25-14.28-35.26-19.71-13.93-6.3-29.74-9.91-44-15.96-22.33-9.47-39.69-19.82-63.5-28.44-11.24-4.07-16.36-6.67-29.41-8.57-16.9-2.47-37.93-5.26-54.83-6.13-2.53-.13-10.06-.52-11.86.12-.66.23-6.1,11.46-5.69-.64s4.69-19.56,6.79-30.24c13.65-69.44,15.91-140.26.6-209.95-4.66-21.19-15.17-40.06-18.49-61.47l-1.32-1.64c-3.35,2.13-8.12,2.5-11.95,1.91-7.92-1.22-19.48-2.57-27.45.64-2.88,1.16-6.07,5.16-9.64,5.39-4.34.28-8.54-3.99-12.15-4.74-12.97-2.7-16.93,5.93-27.26,9.79,4.51,15.43,5.33,31.55,6.99,47.47,8.23,79.03,24.23,162.1,16.05,241.92-.11,1.12-.33,3.17-1.57,3.44-4.79,1.05-1.49-13.33-1.44-15.45,1.29-56.2-3.97-109.51-11.02-164.97-3.87-30.39-5.89-61.59-10.15-91.8-1.98-14.08-3.49-28.66-16.93-36.04-4.73-2.6-9.24-1-14.17-1.82-3.37-.56-6.25-3.22-9.29-3.7-7.34-1.16-21.5-1.44-29.94-2.04-9.37-.67-16.37,1.64-24.93,2.02-20.32.9-77.66-1.31-92.72,8.94-2.27,1.55-1.21,4.51-6.75,2.02-1.71,13.76-5.99,26.34-7.04,40.44-3.15,42.19-4.48,107.63,4.71,148.29,1.46,6.48,4.4,12.55,6.04,18.95,7.83,30.62,16.5,61.1,22.27,92.16-4.92,1.44-6.26-4.9-7.7-8.78-8.43-22.68-14.19-55.33-20.35-79.6-4.93-19.4-10.32-36.56-11.9-57.06-.98-12.76.7-26.59-.03-39.46-1.74-.23-.94,2.27-.99,3.48-1,24.42.39,47.63,4.31,71.66,2.68,16.4,6.45,34.03,10.96,50.01s10.73,29.93,14.58,45.05c-3.15,4.43-5.78,4.77-8.72.06-4.07-6.54-12.37-31.23-15.18-39.79-18.32-55.96-23.59-109.36-14.81-167.81,4.1-27.29,11.7-52.77,20-78.95,6.89-4.47,13.39-8.76,21.59-10.39,16.19-3.22,30.75-2.3,46.75-3.22,29.42-1.69,58.56-5.23,87.91-2.05,4.3.47,7.84,3.15,11.22,3.77,6.1,1.13,10.24-.98,16.6,2.39,7.49,3.98,12.31,9.45,14.16,17.84,10.2-6.64,16.3-13.54,29.74-10.78,3.09.63,7.81,4.89,11.08,4.53,2.19-.24,6.28-4.42,9.39-5.49,3.99-1.37,19.44-2.7,23.64-2.18,2.75.34,4.87,1.99,8.07,1.99,4.42.01,7.52-3.02,11.01-3.15,8.3-.3,18.33,0,27.02.02,20.78.06,41.93-1.84,62.86-2,6.29-.05,21.29,2.48,25.9.91.94-.32,1.12-.69,1.44-1.56,2.13-5.73,1.95-14.99,3.48-21.51,1.44-6.14,4.66-13.98,6.96-20.03,2.36-6.21,19.53-47.06,23.2-47.48.59-.07,2.82.44,2.39,2.07-.98,3.7-6.11,11.68-8.03,16-7.05,15.88-12.71,29.14-17.06,45.9-1.54,5.92-5.48,17.9-5.69,23.35-.05,1.3-.32,2.04.94,2.95.74.62,1.25-.56,1.5-.56h21.49ZM1225.29,15.31l-40.45-2.02-29.28-4.74c-.46.61-.64,1.82-1.26,2.16-12.92,7.07-22.18,17.43-32.91,27.1-20.53,18.5-47.44,34.97-69.45,52.48-33.64,26.76-63.9,57.42-94.94,86.96-4.41,4.19-8.34,3.51-4.97,11.01,1.81,1.94,15.14.71,18.97.91,22.08,1.17,45,4.25,66.87,5.08,6.69.25,13.85.18,20.51-.56,15.24-16.07,31-31.64,46.46-47.48,23.16-23.72,44.62-48.54,67.51-72.41,4.66-4.86,8.78-11.71,13.56-16.42,5.55-5.46,14.25-9.23,18.92-14.06s12.98-15.53,16.87-21.11c.75-1.07,4.45-6.12,3.58-6.9ZM878.52,583.03l-128.96.46v14.07c1.93,11.95-1.35,24.62-4.69,36.21-5.53,19.22-16.27,37.98-16.77,58.19.61,1.44,12.66,10.03,14.82,11.21,9.24,5.01,21.54,8.37,31.05,12.92,3.34,1.6,12.24,8.96,14.94,8.64,4.2-1.95,5.94-6.37,9.73-9.2,3.55-2.65,10.3-5.07,13.62-7.87,11.16-9.4,14.33-17.15,30.55-22.91,1.2-.42,15.34-2.21,12.72-5.74-5.75-.57-.95-8.87-.24-12.76,1.04-5.7,1.48-11.6,2.71-17.28l20.52-65.93ZM798.59,782.92c1.95,1.97,24.18-31.01,25.83-33.62,1.24-1.95,1.09-4.58,2.27-6.73,1.8-3.29,14.9-15.69,18.38-18.6,5.1-4.27,11.56-8.15,17.02-12.02-.61-5.17-1.83-10.31-2.55-15.49-.43-3.15,1.19-6.8-1.99-9.05-3.68,2.05-8.93,1.64-12.27,2.8-1.24.43-14.27,7.34-15.67,8.32-4.47,3.14-8.17,9.81-11.52,12.46-9.67,7.66-21.79,8.37-28.04,23.02-.79,1.85.48,3.33.09,4.98-.6,2.54-2.73,5.67-2.38,8.22.6,4.37,6.9,14.86,8.33,19.7.8,2.69,1.87,15.38,2.49,16.01ZM890.53,1014.81c5.32-6.59,12.62-13.27,17.39-20.08,11.51-16.45,21.91-33.44,32.4-50.56,5.67-9.25,13.48-18.57,17.64-28.33,12.65-29.69,25.24-94.17,14.54-124.46-2.39-6.76-7.49-18.86-10.53-25.45-5.72-12.42-30.22-38.43-41.55-46.4-6.05-4.25-26.84-16.67-33.17-18.79-6.91-2.31-14.99-2.26-21.7-5.77-1.93,2.13,4.12,18.03,3.79,21.25-.7,6.94-5.9,16.98-8.1,23.92-1.53,4.82-1.92,10.38-3.66,15.33-2.4,6.82-6.84,12.86-8.74,20.24-4.72,18.37-1.43,34.99-3.4,52.57-1.23,10.96-6.57,23.94-8.6,35.38-5.2,29.33-7.06,55.03-18.52,83.43-9.28,23.02-19.88,49.2-30.57,71.38-8.28,17.19-16.02,34.3-24.55,51.41-1.02,2.05-7.42,15.08-6.6,15.88,8.34-1.67,13.16.3,20.77,1.81,1.73.34,3.29-.67,4.58-.5,2.99.38,12.16,6.07,16.39,7.43,18.15,5.84,31.75,3.89,49.69,5.28,6.97.54,13.61,3.08,20.49,3.99,1.13-6.17,3.99-11.77,5.72-17.78,6.89-24.02,11.3-43.52,11.32-68.72.02-27.32,4.04-53.47,8.25-80.63,3.43-22.1,7.04-42.96,13.73-64.32-4.39-21.66,2.53-41.14,8.65-61.5,4.6-3.16,14.55,10.46,16.74,14.14,10.43,17.51,11.88,58.16,2,75.84-2.76,4.93-8.04,8.69-11.25,13.74-2.44,3.84-3.92,8.78-6.35,12.64-5.57,8.85-12.32,15.34-19.31,22.67-3.17,21.53-8.01,43.13-7.49,64.96ZM765.48,778.8c3.93-10.32,11.92-20.73,15.62-30.84,2.03-5.55,2.54-11.73,4.41-17.35-17.95-14.34-41.93-17.44-59.37-32.63l-7.37,21.27c5.53,5.26,7.07,13.33,12,19.06,2.31,2.69,5.98,4.48,8.28,7.71,2.97,4.16,4.43,10.2,7.56,14.43,2.34,3.16,6.69,6.4,9.5,9.49,1.93,2.12,6.25,10.68,9.36,8.88ZM718.62,698.97c-1.14-1.18-25.22,14.38-28.6,15.87-5.94,2.6-12.15,3.21-18.04,5.94-15.17,7.04-30.74,19.42-45.61,27.35-19.52,10.4-25.75,14.58-42.19,29.77-23.9,22.1-36.59,68.6-28.03,100.05,2.37,8.72,9.11,20.83,13.1,28.88,7.09,14.32,12.61,30.69,22.02,43.95,5.05,7.11,9.56,8.03,14.01,16.96,3.21,6.44,13.56,9.95,17.91,16.07,1.45-.95,1.38-1.92,1.55-3.43,1.4-12.78.36-28.91.91-42.07.17-4,2.33-11.59,2.03-14.92-.17-1.9-2.33-3.23-2.79-5.23-1.02-4.41-.54-9.73-1.9-15.09-5.28-20.79-16.96-34.03-13.19-57.57,1.35-8.46,14.29-32.9,20.24-39.23,2.23-2.38,14.94-11.89,17.66-12.87,1.24-.45,4.07,2.85,5.9,2.61-1.6,8.58-4.14,17.07-5.65,25.67-9.41,53.83-14.67,109.02-17.31,163.6-.35,7.27.52,14.83.08,22.07-1.41,23.31-11.98,45.18-14.03,68.42,6.3-1.92,12.98-.57,19.47-1.01,3.08-.21,6.03-1.85,9.04-2.01,7.17-.39,12.03,1.49,18.05,2.93,7.6,1.82,15.07,1.56,22.9,4.08,5.96,1.92,10.25,5.96,15.6,7.38,4.7,1.25,10.4.99,15.1,1.89,6.6,1.26,12.71,4.77,19.75,3.74-2.53-13.62.19-27.04.04-40.52-.47-42.35-17.2-79.56-23.9-120.02-4.39-26.5-6.17-58.01-8.07-84.88-2.5-35.22-3.09-90.14,5.81-124.05.88-3.37,9.31-23.12,8.14-24.33ZM715.64,724.95c-4.14,23.64-5.23,47.5-6.02,71.45-1.04,31.41,3.15,60.44,5.3,90.73,3.37,47.62,17.6,83.56,25.4,128.46,2.55,14.67,2.59,29.68,3.44,44.53l2.34,1.68c6.34-2.5,11.61,1.71,15.69-4.34,5.26-7.8,7.66-20.11,11.94-29.04,18.89-39.38,42.65-85.58,51.36-128.54,2.74-13.51,3.14-27.78,5.76-41.22,2.08-10.71,7.62-23.92,8.6-34.39,1.47-15.73-1.47-30.05,2.56-47.4,2.11-9.06,6.61-15.27,9.57-23.41,3.42-9.41,4.75-20.41,9.44-29.54,1.93-3.75,5.55-5.09,6.5-8.98-24.78,12.09-36.59,34.22-51.55,55.88-3.02,4.37-7.47,8.63-10.23,12.76-1.65,2.48-4.62,10.54-5.11,10.88-5.45,3.78-6.54-13.58-8.55-13.53-2.47,2.95-7.58,6.46-8.94,10.03-1.28,3.35-2.65,17.49-2.59,21.38.05,3.11,1.92,6.85,2.01,10.06.32,10.53-.65,21.62-.03,32.01.41,6.8,2.6,14.3,3.03,20.96,1.73,26.77-10.75,45.16-18.7,69.23-5.17,15.64-8.17,35.8-14.47,50.49-1.17,2.72-2.31,4.5-5.3,5.5-1.71-1.05-3.32-3.32-3.45-5.33-.43-6.75,2.39-16.39,2.96-22.95,3.66-42.61-3.01-90.01,3.28-130.65,2.61-16.84,8.9-34.47,12.62-51.16-.22-9.62-13.89-19.53-19.31-26.67-3.52-4.63-5.04-10.67-8.15-14.84-2.36-3.16-5.83-4.59-8.41-7.58-1.21-1.41-9.87-17.62-11-16.47ZM785.57,752.94c-1.78-.39-1.97.52-2.83,1.65-1.35,1.78-11.28,21.45-11.73,23.33-5.77,23.76-12.63,48.7-15.42,73.45-3.45,30.65-.88,61.96-.94,93.01l-2.03,26.44,8.51-27.96c10.01-24.28,19.87-43.4,18.46-70.48-.84-16.06-1.47-31.83-1.95-48.03-.34-11.24-2.54-18.52.06-30.85,2.04-9.64,13.16-15.47,13.87-19.12,1.29-6.65-5.21-14.63-5.98-21.46ZM643.67,805.92c-5.41,1.17-9.97,7.21-12.79,11.69-11.15,17.7-17.57,32.23-11.93,53.52,1.06,3.98,4.35,8.48,5.77,12.23,1.96,5.17,2.02,11,5.47,15.51l13.48-92.94ZM899.52,939.85c10.78-6.42,14.31-20.79,21.15-30.31,2.72-3.78,7.4-7.12,9.66-11.32,5.89-10.91,7.17-38.35,4.86-50.52-2.37-12.47-6.94-21.27-15.2-30.78-2.8,10.59-6.63,21.47-7.47,32.5-.7,9.19,1.07,19.99-.1,28.88-.94,7.11-5.88,17.25-7.6,25.38-2.52,11.92-3.28,24.17-5.3,36.17ZM835.56,1106.76c-14.22-.06-30.12-2.62-43.78-6.69-7.75-2.31-16.21-7.62-24.82-8.24-4.61-.33-16.76,4.3-18.33,3.49-4.6-2.35.26-11.55,1.81-15.22,1.71-4.05,4.05-7.96,6.15-11.83-.16-2.58-12.22-1.04-13.47,1.5-3.04,6.16,5.12,27.72-4.19,29.83-.52.12-9.21-.86-10.54-1.09-7.9-1.38-18.24-3.3-26-4.99-6.75-1.47-11.07-6.05-17.72-8.26-3.16-1.05-24.47-5.26-25.87-4.37-3.1,22.41-5,45.69-4.16,68.39,1.5,40.46,9.26,92.07-3.79,131.06-1.49,4.45-4.93,7.56-5.65,12.34-3.72,3.54-6.14-1.19-8.21-1.81-3.46-1.04-12.01-.69-16.52-1.47-7.16-1.24-14.85-4.85-21.37-5.61-10.32-1.21-22.67,1.19-32.78-.2-6.92-.95-13.77-8.03-21.94-5.77-2.77.92-1.32,8.13-1.86,11.12-.49,2.68-2.44,4.37-2.81,7.18-.36,2.66-.17,15.85,1.28,17.3,10.98,2.76,22.98.4,34.23,1.24,16.43,1.23,34.26,5.98,50.99,6.97,9.59.57,19.36-.54,28.96.03,7.66.45,17.67,3.13,25.13,3.66,4.15.29,9.87-2.95,14.32-2.72,2.9-28.59,1.88-58.93,7.33-87.12,2.93-15.17,8.53-30.81,12.02-45.95,4.2-18.22,6.46-39.36,12.16-56.81,2.17-6.63,5.8-12.62,7.59-19.4,8.07-5.77,5.45,5.28,5.92,9.9,3.65,35.74,8.91,71.4,11.99,106.95,1.18,13.62,1.74,27.35,3,40.98,1.33,14.48,4.23,29.02,5.42,43.55,1,1.45,20.23,2.57,23.79,3.19,4.17.73,8.54,2.74,12.5,3.49,16.35,3.09,32.91-4.17,50.75-2.78,7.17.56,14.77,3.45,21.97,4.02,9.77.78,19.74-.8,29.47,1.02-.34-9.78,3.09-19.18,5.87-28.39-9.5-9.56-17.31-5.21-28.37-4.61-12.48.68-34.95-2.86-47.72-5.22-4.7-.87-7.21-4.7-11.72-4.76-1.51,4.42,3.88,13.84-2.99,12.99l-.94-10.39c-.42-1.56-4.76,1.49-3.97-6.99.56-5.96,3.06-13.57,3.89-20.11,4.54-35.89,10.6-67.87,16.68-103.26,2.62-15.27,5.18-30.76,6.31-46.17Z"/>
      <path d="M516.26,88.27c1.08-.13,2.81-1.61,4.5-1.01-1.87-6.84-6.39-12.6-8.72-19.77-4.26-13.16-3.62-27.65-9.89-40.26-9.68.15-19.28,2.4-28.88,3.05-6.54.44-13.45-.47-19.97.02-25.21,1.88-50.11,5.68-75.47,6.57-4.39.15-4.63-3.89.59-4.48,33.29-3.78,66.52-5.58,99.85-8.11,6.57-.5,22.59-4.98,26-4.97,1.2,0,2.7,1.77,4.94,2.04,7.55.92,15.83-.98,23-1.1,50.97-.82,101.18,3.48,151.9,5.08,62.65,1.98,125.37,2.04,187.91,5.97,11.75.74,19.6,4.8,30.26,6.71,21.85,3.91,45.17,4.97,67.43,9.52,18.73,3.83,34.94,10.37,52.65,15.3,6.56,1.83,12.52.55,18.98,5,3.12,2.15,8.35,7.63,2.57,9.43-2.07-3.95-6.16-5.54-10.29-6.71-32.18-9.06-64.44-18.16-97.78-23.15-10.76-1.61-21.86-1.69-32.56-3.42-9.31-1.51-18.04-5.91-27.29-6.69-12.39-1.04-27.21-1.41-39.92-2.06-49.55-2.5-99.37-2.38-148.99-3.92-54.57-1.69-111.27-8.09-165.89-5.08-4.05.22-8.14,1.78-12.45,1.05,6.19,19.94,4.52,42.31,17.99,59.52,12.72-1.9,25.66-2.24,38.46-3.56,6-.62,14.42-3.14,20.01-3.07,2.43.03,6.37.98,4.04,4.13-3.26,4.41-96.26,10.67-108.97,11.95-14.99,1.52-29.9,4.91-44.99,5.98l-33.46,2.01c-.65.58,2.49,6.36,3.45,7.1.33.25,9.29,1.18,2.53,4.38-7.72,3.65-12.43-12.06-13.99-17.49-10.92,3.4-3.17-5.76-4.38-10.01-.78-2.75-8.63-9.18-10.8-13.27-1.34-2.53-3.79-9.69-3.79-12.2v-22.99c0-1.02,3.13-2.06,3.99-1.5.95.63,2.81,18.6,3.98,22.52,2.91,9.82,8.76,16.49,12.25,24.73,1.17,2.76,2.46,12.71,5.44,13.62l9.32-.91c-.62-1.31-1.48-1.98-1.93-3.56-2.72-9.49-10.11-38.56-9.1-46.96.94-7.88,6.21-.39,7.92,3.18,5.26,10.98,6.15,24.35,13.61,34.37,3.36-.13-8.1-30.44-5.49-33,1.76-.1,3.05-.29,4.5.99,3.47,3.06,9.56,26.9,12.98,26.98,4.53-2.1-4.16-34.04,6.01-24.97,1.65,1.47,5.25,12.99,6.8,16.18.56,1.15,1.29,3.75,2.67,3.81,1.13-8.8-1.72-17.47-1.51-25.97,4.37-8.98,14.3,12.18,16.01,14.99,2.38-.1-6.99-27.63,5.7-12.71l7.78,16.69c.95-5.68-6.17-22-3.51-26.01.8-1.15,1.57-1.18,2.85-.83,5.63,1.53,16.44,33.38,22.64,37.84.58-10.08-3.63-21.7-3.46-31.49.08-4.96,2.9-2.05,4,1.48,1.92,6.15,6.33,29.59,4.8,34.85-.49,1.69-1.67,2.68-2.33,4.16,4.96-.41,10.64.56,15.49,0ZM452.8,59.28v18.49c0,.55-1.76,3.02-2.67,3.36-3.28,1.12-6.07-1.37-7.79-3.91-1.47-2.17-1.28-6.19-4.53-5.95l-1.25,13.74c-1.5,1.08-2.95,1.35-4.76.84-2.48-.7-4.12-3.13-5.98-4.58,0,3.63,1.3,11.59-4.46,11.04-4.63-.45-11-15.42-12.42-19.67-.88-2.63-1.3-2.38-1.15.14.53,8.58,5.64,17.07,3.03,25.47l86.93-8.99-10.16-14.32-5.84-12.65c-1.78-.23-.98,2.25-.87,3.36.46,4.56,2.17,8.76-1.07,13.18-5.04,3.43-10.33-8.8-11.06-12.54-2.02,1.04-1.12,4.32-3.44,6.08s-4.56-.35-6-2.13c-2.34-2.89-3.21-8.59-6.53-10.96Z"/>
      <path d="M977.46,334.13l3.57.93c.55.75.47,1.66.48,2.53.03,3.96-4.86,20.94-6.33,25.75-1.75,5.71-4.03,11.21-6.24,16.75-1.86,4.66-8.64,16.46-9.09,20.01-.39,3.12,3.27,4.41,1.72,8.53-.39,1.03-5.24,6.49-5.67,6.53-4.29.48-3.67-3.99-5.45-5.52-3.86-3.31-19.15-1.93-24.44-2.54-21.98-2.55-37.92-6.96-60.96-4.97-41.93,3.62-82.64,3.9-124.83,3.26-.96-.01-2.06,1.25-3.11,1.44l-2.47-2.21c1.12-1.04,2.27-2.68,3.61-3.37,4.6-2.37,46.73-1.69,55.88-2.09,15.16-.66,30.82-1.13,45.97-2,9.75-.56,20.02-3.52,29.9-4.08,22.13-1.25,45.73,3.46,67.98,5.06,4.55.33,9.16,2.83,13.85,1.83,1.62-.55,7.99-14.24,8.42-16.57,1.05-5.72.48-13.59,1.35-19.64,2.69-18.61,13.28-40.56,18.84-59.13.67-2.24-1.92-1.54-3.35-1.35-12.34,1.66-25.96,5.41-38.1,6.87-19.13,2.31-39.77.73-58.82,3.14-18.8,2.38-38.44,9.86-57.38,13.57-15.58,3.05-31.72,4.12-47.19,7.78-7.88,1.86-15.25,5.38-23.29,6.69-.9.17-1.12.8-1.49,1.5-1.48,2.79-2.77,15.61-3.86,20.13-2.72,11.31-7.15,22.11-6.33,34.15-2.23.24-2.64.22-3.8-1.69-6.99-11.46,12.71-44.35,7.8-58.27,11.89-1.45,22.21-6.74,33.97-9.51,14.79-3.48,30.15-4.82,45.01-7.95,21.31-4.49,42.6-13.04,64.43-14.52,27.75-1.88,51.14-3.17,78.84-7.11,4.86-.69,16.13-5.13,20.17-1.99,3.76,3.76-.69,5.79-1.91,9.26-3.07,8.71-3.66,19.97-7.67,28.8Z"/>
      <path d="M394.97,452.95c-1.22-.78-3-12.92-3.17-15.31-3.88-56.19,2.6-116.48-1.97-172.95-.7-8.59-4.39-39.57-8.18-45.79-1.36-2.25-4.68-2.08-3.8-5.69,7.27-.53,8.07,4.23,9.7,9.78,20.3,69.05,10.21,144.61,12.23,215.65.16,5.75,4.78,16.31-4.82,14.31Z"/>
      <path d="M435.81,463.08l-3.05-.44-.79-1.21c-1.46-8.34,1.55-16.75,1.88-24.79,1.28-30.48.71-61.64,1-91.96.35-36.49,1.18-72.66-.63-109.03,1.26-2.69,3.67-3.56,5.5-.86,2.39,3.53.79,34.79,1.05,41.92,1.91,52.39,4.39,98.02-.97,150.88-1.2,11.86-3.87,23.6-3.99,35.49Z"/>
      <path d="M17.75,111.41c5.58-1.95,6.13,2.07,8.81,4.86,17.28,17.96,39.44,36.85,60.16,50.77,5.15,3.46,43.61,24.69,47.01,24.96,3.03.24,7.39-3.04,7.36,2.71-.04,7.88-11.61,5.98-16.36,4.27-30.52-11.02-74.32-41.73-96.18-65.73-2.42-2.66-12.08-13.68-12.99-16.08-.75-1.98.07-5.03,2.18-5.77Z"/>
      <path d="M149.35,499.42c1.88-1.86,6.54-6.09,9.02-5.27,2.93,1.76,1.55,4.8.46,7.27-5.99,13.58-21.6,28.51-30.79,40.16-15.75,19.97-32.02,39.81-45.8,61.14-3.93,6.09-5.99-2.08-4.97-6.98,2.65-12.62,20.72-29.99,28.72-40.23,8.68-11.1,17.15-22.03,25.98-32.98,5.55-6.89,11.53-17.31,17.37-23.11Z"/>
      <path d="M191.62,485.23c.51-.1,7.74,2.39,9.97,2.72,8.22,1.2,19.74,2.89,27.78,2.04,17.24-1.82,34.45-4.23,52.09-3.96,22.98.35,42.72,2.39,65.93,1.05,7.31-.42,16.2-1.25,23.05-.08,2.51,3.09,4.07,5.55-1.02,6.12-9.01,1.01-18,.6-27.02.96-7.85.32-14.22,1.49-22.98.97-32.48-1.92-57.43-3.75-90.22.76-6.19.85-28.75-2.46-34.78-4.68-3.4-1.25-8.08-4.83-2.79-5.89Z"/>
      <path d="M99.05,303.16h3.97c.86,7.66-1.4,10.79-8.54,12.94-19.64,5.9-67.22-1.28-88.79-5.04C2.68,310.54,0,310.25,0,306.66c0-4.87,5.59-3.74,9.58-3.49,23.04,1.43,63.04,15.56,84.69,7.71,4.26-1.54,5.22-3.03,4.78-7.73Z"/>
      <path d="M81.82,398.39c3.25-.31,6.38-.89,9.24,1.19,1.42,1.3,1.57,5.01.04,6.09-24.68-.48-43.65,17.1-65.31,25.29-1.98-.93-3.45-2.66-2.26-4.87.92-1.71,29.47-17.54,33.51-19.5,7.02-3.42,17.03-7.45,24.78-8.2Z"/>
      <path d="M50.32,491.83c-.62-.66-1.27-2.43-1.2-3.29.25-2.99,18.8-17.52,22.48-20.42,4.54-3.58,24.62-19.45,28.9-19.06,3.46.32,4.93,4.85,2.09,7.07-11.42,7.37-22.66,15.24-33.42,23.54-3.73,2.88-12.61,12.17-16.01,12.89-.93.2-2.18-.05-2.82-.73Z"/>
      <path d="M454.49,468.8c-1.04,1.17-8.61,5.06-10.28,5.26-4.08.48-8.39-2.06-12.9-2.06-2.79,0-12.93,1.61-15.78,2.29-6.14,1.46-14.57,14.11-23.97,17.01-8.33,2.57-10.22-4.08-8.21-4.23,12.7,3.42,20.43-13.55,30.25-16.7,2.65-.85,15.21-3.37,17.71-3.36,7.99,0,13.07,6.26,22-1.93l2.46,1.51c-.64.61-.71,1.58-1.28,2.22Z"/>
      <path d="M57.33,219.96c-2-2.55-.66-4.56,2.78-3.31,12.16,6.4,24.37,18.22,37.11,22.86,2.26.82,8.03.1,6.8,4.17-.92,3.06-9.62-.42-11.66-1.31-11.91-5.17-22.93-16.96-35.03-22.42Z"/>
      <path d="M529.25,1428.61c2.61.42,6.54,3.64,9.98,3l-2.01,1.04-28.46-4.04c6.28.71,14.48-.97,20.49,0Z"/>
    </g>
  </g>
</svg>