<?xml version="1.0" encoding="UTF-8"?>
<svg id="Calque_2" data-name="Calque 2" xmlns="http://www.w3.org/2000/svg" viewBox="0 0 811.5 769.07">
  <g id="Illu_Vectorisée_BLACK_" data-name="Illu Vectorisée (BLACK)">
    <g id="Lapin">
      <path d="M493.73,395.81c-1.87.66-3.33-1.42-4.48-1.51-4.72-.35-18.33-.09-23.02.49-3.6.44-5.43,2.79-8.86,2.97-3.47-5.67-6.7-7.48-7.6-14.45-.41-3.16,1.22-7.17-1.51-9.46-3.21,4.89-7.33,9.66-6.56,15.91l-8.89,2.02-1.18-4.83c-13.04-2.44-22.78-3.87-36.1-1.9-3.26.48-6.17,3.95-8.63-.92l34.88-44.76c-5.84-.88-10.48-2.69-15.67-5.33-4.25-2.17-17.57-9.93-19.52-13.46-6.94-12.58-5.71-40.33-1.52-53.88,2.9-9.36,16.65-29.48,25.96-33,2.33-.88,4.72-.41,6.71-1.28.92-.4,13.94-10.47,15.92-12.06,17.22-13.72,9.33-41.2,11.2-60.75,1.52-15.96,9.28-32.48,12.89-48.07l-20.52,21.46c-12.22,20.84-40.93,39.68-51.89,60.03-4.26,7.9-3.68,19.5,3.42,25.42l-2.47,2.24c-4.5-1.6-7.28-6.93-8.45-11.29-6.32-23.54,19.04-45.33,32.43-61.39,5.61-6.73,10.17-14.37,16.44-20.56l-.43-1.46c-2.78-1.55-4.92-3.63-6.95-6.06-1.71-2.05-14.82-21.53-15.14-22.86-.61-2.47-1.24-6.8-1.94-10.02-6.37-29.32,2.08-48,21.52-69.43C433.25,7.19,447.6-.68,462.21.05s33.57,23.25,38.29,35.75c1.93,5.1,7.28,19.84-2.13,18.98-7.34-.67-6.99-11.75-9.45-17.4-3.62-8.3-17.92-25.21-27.15-26.9-6.34-1.16-19.66,3.37-24.94,7.16-4.44,3.2-18.88,21.22-21.59,26.38-7.94,15.13-10.75,39.94,1.54,53.52l-3.96,3.94c2.94,3.95,11.88,22.44,17.31,21.38l25.08-27.87c11.26-8.34,20.03-20.29,30.51-29.45,4.33-3.79,13.09-13.14,16-4-4.49,1.87-6.21,3.04-9.5,6.5-1.3,1.36-10.4,13.06-9.48,14,6.08-2.15,10.53-7.5,16.3-10.17,11.6-5.36,38.02-7.43,47.28,3.11l1.4-.37c8.32-11.42,18.26-25.58,23.14-38.87,2.88-7.85.16-8.87.8-14.1.6-4.85,8.49-4.01,12.05-3.09,13.22,3.42,27.89,18.24,44.49,18.54,10.52.19,23.18-11.97,30.77-10.06.82.21,7.93,12.37,8.84,14.35,9.85,21.31,15.75,42.85,21.48,65.45.38,1.5,1.89,2.84,2.11,3.91.99,4.75-3.17,2.65-5.34.32-3.6-3.88-9.14-27.9-11.7-35.27-4.16-11.99-10.12-28.49-16.75-38.47-.94-1.42-1.63-3.56-2-5.25-7.77,3.63-14.67,9.89-23.58,10.87-18.25,2.01-36.91-13.66-53.35-18.87.35,10.42-6.67,22.54-11.83,31.64-5.26,9.29-12.16,17.44-17.14,26.87,1.96,9.82,6.07,20.89,6.07,30.92,0,3.41-1.31,6.38-1.12,9.98.08,1.51-.7,2.92,1.51,2.5l38.16-62.86c8.4-2.8,2.54,6.64,5.99,7.75,7.04,2.27,28.22-4.37,32.84,3.14,2.11,3.43-1.79,6.25-1.11,9.01,1.01,4.05,8.03,14.76,10.44,19.62,2.46,4.98,3.71,11.23,6.94,16.04,2.03,3.02,6.01,5.19,6.68,6.3,2.93,4.82-7.36,29.99-9.2,36.76-2.55,9.39-4.09,19-6.57,28.41-1.99,7.56-6.63,14.58-5.7,22.76,1.53-.56,2.69-3.51,3.5-4.98,14.29-25.84,26.8-52.76,41.65-78.26.78-1.35,5.52-9.2,6.01-9.47,4.35-2.4,4.15,1.13,3.01,4.5-5.17,15.35-18.13,31.94-25.75,46.2-2.69,5.04-4.62,11.62-7.27,16.71-5.06,9.72-11.29,18.88-15.31,29.15l-5.75-.74c-2.23,5.38-4.62,3.47-5.11-1.59-.89-9.21,8.28-40.95,11.28-51.69,1.34-4.8,11.24-31.73,10.22-33.83-8.76-5.72-10.48-16.42-14.64-25.27-2.23-4.73-9.76-16.78-10.67-20.39-.67-2.65.78-4.04,1.81-6.22-11.01-3.02-23.69,3.92-33.96-3.01-2.24,6-4.73,12.05-7.84,17.66-6.37,11.46-28.11,39.19-30.68,49.27-2.57,10.07-1.96,28.94-3.59,40.37-1.39,9.69-9.17,35.33-4.76,42.99,6.94,6.27,14.09,12.67,20.39,19.58,3.38,3.71,11.74,12.21,12.41,16.57s.42,14.99-.39,19.47c-2.29,12.74-14.26,22.78-14.55,35.93-3.6-2.17-5.25,2.38-8.07,4.41-8,5.74-15.06,8.9-23.57,13.4-13.74,7.27-14.11,9.79-31.85,8.21-7.91-.7-25.01-13.86-29.96-20-2.03-2.52-3.01-7.95-5.94-7.05-.51.16-5.15,6.48-7.01,8.06-6.58,5.58-28.25,12.79-30.28,15.19-.51.6-2.05,6.75-3.4,9.09-6.13,10.71-18.55,18.66-22.81,30.65h17.49l17.51,4.58c2.38-5.6,7.81-11.64,10.17-16.88,3.27-7.28,3.38-16.88,7.7-24.06,9.35-2.71,2.42,7.4,1.37,11.14-2.7,9.64-1.98,9.67-1.27,18.73.52,6.7-1.2,14.83,5.49,19.2,8.31-3.89,18.61-.3,27.55-2.19,1.21-.69-1.94-21.72-2.09-24.97-.17-3.65-.63-24.85,1.54-25.54l2.52.6,2.99,30.4c1.07,1.07,13.21-17.27,12.49-19.98.83-1.1,1.26-1.42,2.5-.52,6.86,5.02-14,23.93-14,28.99v18.49ZM540,231.63c-7.82-14.97-.51-31.9,1.57-47.28.89-6.6,3.35-23.29,3.05-28.94-.11-2.12-2.78-2.8-2.98-4.96s2.66-4.47,3.08-7.92c1.93-15.88.92-38.95-3.74-54.27-1.61-5.29-2.43-9.5-8.75-10.23-11.47-1.34-26.8-.86-35.48,7.52,1.75,1.37,2.5,2.64,3.29,4.69,6.32,16.39.6,73.38-3.8,91.74-1.9,7.92-8.21,28.29-12.28,34.69-1.79,2.82-3.02,3.52-4.19-.14,2.84-12.22,8.8-24.26,11.68-36.35,4.44-18.68,9.62-73.84,3.39-90.76-.34-.93.42-1.88-1.53-1.33-3.48.99-17.81,14.98-20.52,18.46-8.22,10.54-17.69,44.46-18.88,58.06-1.8,20.49,5.75,45.69-12.11,60.84-4.68,3.97-10.64,6.02-15.7,9.28-3.81,2.45-1.91,4.86,1.03,4.04,1.62-.45,8.35-5.92,11.68-7.32,19.86-8.35,41.6-3.3,61.39-4.55,2.76-.17,6.66-2.81,11.02-3.01,6.33-.29,22.8,3.33,26.93,8.11,14.56,16.86-4.75,49.32-22.88,55.92-10.98,4-24.9,5.28-36.51,4.96-.64,11.2-12.9,12.84-2.53,25.01,2.43,2.86,20.8,16.38,24.08,16.89,17.71,2.76,20.06-2.36,33.37-9.47,6.11-3.27,13.1-6,19.1-9.88,9.13-16.67,23.69-34.83,17.79-54.9-10.39-9.38-18.37-21.86-30.55-28.91ZM489.73,284.89c1.47,1.33,21.28-2.92,24.27-4.2,10.6-4.54,24.7-26.07,20.92-37.5-3.38-10.25-20.11-10.01-28.67-12.28l-3.02,4.6-5.95.31-2.17-3.95c-9.37-1.07-17.95,1.14-26.89,2.05-13.07,1.33-25.2.32-35.94,10.03-8.28,7.49-14.79,28.93-3.47,36.4,8.28,5.47,35.75,4.26,46.46,4.5,2.18.05,8.72,2.53,9.2-.41-1.9-12.48,5.48-25.23,10.41-36.35l3.83-.17-1.79,5.66c5,10.08-4.67,21.29-7.2,31.31ZM472.74,292.9c-3.8-.18-7.68.23-11.48-.02-9.03-.6-26.3-1.54-34.01-4.96-18.07-8.03-11.64-31.52-4.61-45.36-8.89-9.37-15.1.76-20.66,8.04s-9.83,14.1-11.71,23.26c-1.97,9.55-3.3,38.94,4.57,45.46,1.69,1.4,14.71,8.89,17.06,9.92,8.81,3.86,11.66,2.42,20.14-.62,5.48-1.96,15.14-6.02,19.63-9.35,8.51-6.31,14.53-18.12,21.07-26.38Z"/>
      <path d="M650.62,656.63c-4.02,3.6-6.47,9.05-10.02,13.46-3.22,4-7.64,7.85-10.94,12.05-4.32,5.5-10.02,16.49-14.46,20.52-1.61,1.46-4.56,2.17-5.07,2.92-2.39,3.52.25,11.5-9.91,9.97-9.67-1.45-19.95-3.55-30.01-4-18.65-.82-37.32,2.14-56,1.03-17.35-1.03-34.12-6.3-51.93-7.03-14.98-.61-25.18,2.03-38.98,3.07-18.23,1.38-39.4-.23-58.04-.08-28.53.24-56.44.88-84.92-.94-8.28-.53-16.7.14-24.98-1.02-1.31.04-1.85.47-2.3,1.69-1.26,3.39-1.43,9.54-2.48,13.51-4.5,16.98-17.23,44.99-37.14,46.8-16.91,1.54-37.97-.01-49.48-13.56-11.17-13.15-13.96-23.53-10.76-40.68,2.3-12.36,18.14-48.25,35.12-36.63,2.79,1.91,2.32,4.63-1.38,4.48-4.7-.19-6.69-1.97-11.05,1.87-11.08,9.75-19.07,37.42-15.47,51.54,1.78,6.98,13.39,20.29,20.29,22.68,6.54,2.27,30.13,3.83,36.4,2,15.1-4.41,26.47-37.06,26.78-51.69-10.58-1.18-20.42,1.09-31.01,1.47-1.95,1.2,1.16,5.09,1.08,7.98-.15,5.78-6.65,16.29-12.8,17.31-17.6,2.94-13.02-29.01-6.53-30.61,3.98-.98,3.91,3.36,5.67,2.76,2.95-1.61,7.22-6,10.32-6.69,7.21-1.62,20.87-1.57,28.76-2.22,1.83-.15,3.6-.8,5.4-1.09,2.26-10.46-7.71-35.5-16.53-40.71-12.63-7.45-37.86,4.73-45.29,16.37l-3.03-1.05c6.82-15.84,34.01-29.15,50.26-23.25,13.92,5.05,23.85,32.79,23.69,46.76,10.12.95,20.33.57,30.47,1.01,12.2.53,24.48.96,36.94,1.03,39.47.23,78.87-.9,117.99-4.03,27.74-2.22,49.96,5.42,75.94,6.97,23.89,1.42,47.07-.58,71.95,1,6.48.41,13.14-.9,19.42.99,4.5-8.83,9.5-18.19,15.23-26.28,8.14-11.5,28.48-28.78,30.56-41.39.8-4.85-.18-9.88.25-14.74,2.91-32.9,4.39-66.08,8.09-98.83,2.27-20.08,10.26-44.42,1.61-63.78-1.18-2.64-3.31-4.64-4.5-7.49-3.58-8.55-3.58-18.7-14.65-22.33l-32.53-.96,1-6.98c19.9,2.71,40.44-.22,60.5.96,10.59.62,21.13,4.08,31.86,2.96,2.42-.25,5.66-2.5,7.9-1.99.97.22.94,2.08,1.66,2.54,1.46.95,21.48,1.16,25.5,1.53,8.44.78,17.5,2.62,25.95,3.03,13.01.64,29.81-1.72,42.06-.09,2.18.29,3.13.76,4.43,2.55-1.92,2.6-5.45,3.17-8.49,3.48-21.82,2.21-45.32-1.5-66.95-2.97-9.52-.65-19.39-.57-28.95-.99-6.19,1.18-23.9,27.65-26.68,34.28-2.14,5.08-2.08,7.93-3.06,12.93-11.51,58.95-13.43,120.05-16.71,180.15-.16,2.85-2.96,17.54-2.04,18.45,9.36-.18,12.33-6.54,19.82,2.67,20.66,25.41,5.84,60.67-16.8,78.78-15.11,12.09-37.93,6.54-46.16-10.82-9.99-21.07,5.09-50.04,22.25-63.05,3.47-2.63,12.9-5.7,12.9-10.08v-17.49ZM696.59,429.8l-41.97-1.99c6.28,5.24,6.01,12.26,8.52,18.95,1.97,5.26,4.46,8.05,5.36.41.61-5.18.6-11.1,1.12-16.37l10.56,3.96-3.56,22.02,19.97-26.97ZM675.55,683.63c-.69-.47-2.56.75-3.46.6-1.26-.21-1.9-2.41-3.99-2.63-2.29-.24-6.5,2-9.49,1.01-1.47,1.42,4.09,26.11-7.03,19.32l-.96-16.32c-3.53-3.67-20.91,17.09-23.01,20.46-8.08,12.99-13.16,37.94,2.67,47.35,5.05,3,16.66,4.56,22.08,2.39,4.89-1.96,19.12-18.01,22.06-22.91,5.59-9.3,7.5-23.05,6.09-33.71-.21-1.57-4.29-15.1-4.97-15.55ZM200.9,715.58l-3.04-.43-1.93-4.55c-6.34,18.8,4.72,29.21,12.83,7.28-2.88-3.22-6.99-10.55-7.87-2.3Z"/>
      <path d="M377.8,328.87c-1.59,7.3-16.12,2.73-13.99,12.99-5.7-1.88-9.42-.27-14.67,1.81-22.56,8.94-46.74,28.27-61.79,47.14-4.93,6.18-7.94,11.19-2.5,18.51,2,2.69,16.2,12.69,19.62,14.36,42.33,20.55,105.02,8.32,144.3-15.35,3.28-1.98,12.16-10.32,13.52-10.53,1.94-.3,4.38,0,4.45,2.5-6.68,3.65-10.26,8.98-16.97,13.02-27.11,16.34-52.83,24.44-84.42,25.51-24.03.81-44.25.28-65.97-11.09-1.01,3.83-3.23,1.08-5.64,1.6-23.99,5.19-41.14,7.03-66.33,5.44-9.17-.58-19.54-2.31-27.95-6.02-5.63,11.95-23.83,12.53-22.56-4.5.04-.59,1.33-7.11,1.52-7.44.51-.89,7.15-4.63,8.12-4.75,1.39-.17,14.09,2.44,15.32,3.28,4.56,3.09-.85,6.35,2.5,9.49,3.17,2.97,20.92,4.71,26,4.99,20,1.1,43.46.92,62.5-5.05,1.75-2.37-10.11-8.68-11.64-10.32-5.4-5.79-5.88-15.21-2.17-21.96,2.49-4.53,21.9-26.52,26.31-30.65,4.9-4.58,12.04-8.65,17.81-12.17,7.8-4.75,17.08-10.1,25.66-12.83,1.86-2.14-8.19-10.37-9.97-12.51-3.86-4.63-6.82-9.96-10.49-14.48-2.31-2.85-5.68-2.36-4.52-6.97,9.3.64,13.65,12.37,19.47,19,1.82,2.07,9.97,10.53,11.81,11.26,5.85,2.32,16.18-5.76,22.68-4.28ZM197.92,418.81c-11.51-2.04-17.76-1.85-15.53,12.02,2.77,3.35,12.47-.1,12.48-3.45,0-4.57-1.61-4.14,3.06-8.58Z"/>
      <path d="M116.69,567.92c3.75-.77,18.19-.09,13.84,5.84-2.14,1.36-4.74.93-7.12,1.87-8.25,3.25-26.94,25.58-33.39,33.56-13.02,16.1-28.09,40.12-38.81,58.12-5.26,8.83-11.72,25.25-17.7,32.25-4.75,5.56-12.92,2.02-9.01-7.01,4.3-9.93,14.18-25.15,20.11-34.84,15.6-25.48,38.46-61.75,59.84-82.07,2.47-2.34,9.08-7.07,12.25-7.72Z"/>
      <path d="M135.73,60.29c11.79,35.67,20.92,72.7,40.04,105.36,4.68,7.99,20.61,27.08,17.97,35.61-1.55,5.01-8.35,3.79-11.22-.39-4.85-7.06-10.8-17.22-15.09-24.88-19.45-34.66-28.76-73.25-41.26-110.7-.01-5.63,4.83-7.99,9.57-5Z"/>
      <path d="M562.37,446.44c-11.54,9.39-14.52-16.8-10.18-18.64,4.75-2.02,3.19,9.15,3.44,11.53.16,1.5.13,2.52,1.56,3.44,2.67.58,7.68-13.76,13.04-1,2.01.59,4.87-3.75,9.44-1.49,2.22,1.1,4.07,8.01,6.42,7.46,6.21-6.96,8.71,2.07,13.97-7.05,5.75-9.99,1.01-28.21-3.13-38.67-1.8-4.54-6.44-11.39-12.26-8.7-10.07,6.81-16.02,24.8-28.85,24.66l-4.09,7.34-26.29-2.53c-1.75-.76-1.75-4.24,0-4.99,9-1.4,18.55.1,27.67,1.02l2.56-2-51.8-43.27,1.85-5.71c10.46,8.63,21.86,16.44,31.98,25.47,3.68,3.28,18.7,20.1,21.65,20.36,4.04.35,15.4-23.17,22.57-26.08,6.51-2.64,12.93.25,17.15,5.32,6.3,7.57,10.81,32.57,9.49,42.3-.62,4.58-6.59,15.43-11.4,15.67-1.69.08-3.67-1.09-4.89-.86-1.68.31-3.11,3.9-7.14,3.84-4.89-.06-7.12-7.7-8.95-7.84-2.51-.19-7.85,5.21-12.01-2.21-.64.03-1.2,2.15-1.81,2.64Z"/>
      <path d="M19.64,217.99c5.27-1.53,14.54,12.51,17.87,15.95,3.55,3.68,7.7,8.22,11.49,11.49s24.25,16.7,24.88,19.18c.54,2.12-1.39,4.06-3.37,4.3-1.9-.02-27.24-19.61-30.51-22.48-4.62-4.05-18.02-17.52-20.63-22.33-.92-1.69-2.78-5.23.26-6.11Z"/>
      <path d="M317.84,267.91c4.23-.21,8.05-1.58,10.99,2.51-.63,4.4-5.06.71-7.99,1.48l-.1,6.88c-1.84.59-2.62,1.49-3.93-.31l-8.95-36.54c-2.89,10.89.84,25.16-1.01,35.47-.44,2.47-1.59,2.77-3.99,2.5-.8-9.71-1.69-19.68-.99-29.47.26-3.69,2.44-22.41,9.43-14.45,5.34,6.09,4.97,23.89,6.55,31.93Z"/>
      <path d="M283.86,382.82c-12.97-5.25-27.31-5.69-40.99-8.47-8.56-1.74-43.7-9.12-48.29-14.43-2.74-3.16-.56-4.77,3.37-3.61,8.83,2.6,17.05,6.59,26.94,9.04,15.75,3.89,40.32,5.22,53.8,10.16,3.52,1.29,5.75,3.25,5.17,7.31Z"/>
      <path d="M40.9,523.58l-3.87-1.39c-.95-4.82,21.76-23.4,26.01-27.92,5.96-6.35,10.68-13.87,16.95-20.02,1.85-1.82,11.12-9.98,12.73-10.32,2.97-.62,4.4.2,4.37,3.34-.05,4.33-13.79,12.85-17.61,16.46-6.44,6.08-12.37,13.65-18.94,20.04s-15.5,10.84-19.64,19.82Z"/>
      <path d="M330.83,264.91l3.93.07c2.39,9.38,2.31,32.58-8.97,36.36-3.62,1.21-19.94.97-24.47.58-7.44-.64-19.16-5.05-20.32-13.42l3.38-2.58c1.94,1.32,1.06,3.89,2.48,5.48s10.36,4.88,12.76,5.23c4.44.64,20.39.95,23.97-.5,2.9-1.17,7.25-8.03,7.25-10.74v-20.49Z"/>
      <path d="M193.64,345.16c-2.58-2.11-16.5-1.15-20-.33-.92.22-1.16,2.15-2.3,2.87-4.46,2.79-12.24,4.87-7.8,12.04,6.02,9.73,19.29-5.67,25.37,1.59-.66.62-1.2,1.56-2.02,1.96-1.44.69-12.06,4.04-13.69,4.29-9.75,1.51-17.68-4.62-15-15,.83-3.21,4.06-4.8,6.16-6.87.6-.59.16-2.18,1.29-2.89,4.03-2.55,21.99-3.86,26.75-2.95,3.48.66,7.91,7.16,4,7.97-1.93.4-1.93-2-2.77-2.68Z"/>
      <path d="M64.9,409.92l-.03,4.74c-17.11,8.45-33.75,12.72-52.04,17.41-3.21.82-11.27,6.27-12.67,1.04-.39-1.45-.05-1.83.89-2.82,3.59-3.81,28.53-6.87,35.76-9.21s19.44-10.58,25.11-11.77c1.06-.22,2.03.27,2.98.61Z"/>
      <path d="M297.55,276.22c1.57,1.36,2.62,4.59,2.29,6.67l-4.97-1c-.24,1.66-1.01,4.36-2.7,4.9-2.2.7-12.97-2.51-10.32-6.89.45-.48,6.62.46,8.29.01,1.45-.39,2.9-7.61,7.4-3.7Z"/>
      <path d="M483.45,145.25c4.78-.87,2.32,3.64,1.55,6.5-2.2,8.16-9.01,30.68-13.05,36.91-.63.97-1.1,2.63-2.68,2.29l-4.6-12.48c.44-4.75,1.38-9.73,2.82-14.25.74-2.32,8.18-17.1,9.22-17.8,1.56-1.06,3.29.3,4.54.09.88-.14,1.57-1.14,2.21-1.26Z"/>
      <path d="M521.7,147.99c.79,2.48-1,5.59-.89,7.55.1,1.68,2,2.74,1.95,5.87-.06,3.76-5.96,21.65-8.48,23.66-2.38,1.9-4.6-.56-5.43-.02-.67.43-.48,3.89-3.62,2.9-4.31-1.29,2.06-21.92,3.47-25.49,2.07-5.24,3.28-5.85,6.44-9.55,2.09-2.44,1.36-5.99,6.56-4.93Z"/>
      <path d="M463.74,243.93l-8.29,18.18c-.88,2.63-.63,17.5-6.18,15.78-3.06-.94-1-11.27-.52-13.98-3.33,1.18-.21,10.56-5.48,8.98-3.22-4.04.91-12.5,4.43-15.53,1.4-1.2,3.41-1.37,4.52-2.48,3.15-3.12,3.59-12.25,11.52-10.96Z"/>
      <path d="M652.57,713.53l-4.83.1-6.1,21.94c7.54,2.04,17.59-18.78,17.04-23.43-2.51-1.25-4.73-.68-4.06-4.53,20.8-4.45,2.36,27.85-5.47,32-3.58,1.9-11.53,3.82-12.52-1.52-1.18-6.43,3.66-23.16,7.14-28.83,4.44-7.23,9.87-3.03,8.79,4.29Z"/>
    </g>
  </g>
</svg>