<?xml version="1.0" encoding="UTF-8"?>
<svg id="Calque_2" data-name="Calque 2" xmlns="http://www.w3.org/2000/svg" viewBox="0 0 125.27 125.4">
  <defs>
    <style>
      .cls-1 {
        fill: #fff;
      }
    </style>
  </defs>
  <g id="Calque_1-2" data-name="Calque 1">
    <g>
      <path class="cls-1" d="M125.27,37.13v50.3l-.52,5.95c-3.35,23.97-19.3,31.37-41.65,31.65-.41,0-1.09-.16-1.34.25-12.53-.26-25.12.35-37.64,0-14.01-.39-27.66-1.96-36.52-14.18C1.35,102.48.99,93.87.62,83.64c-.56-15.51-1.16-34.2.24-49.56C2.87,12.03,16.56,1.75,37.88.49c14.26-.84,30.17-.45,44.49.02,3,.1,6.06-.03,9.05.24,21.45,1.9,32.78,15.36,33.86,36.38ZM40.89,11.81c-20.4.79-28.24,7.65-29.05,28.37-.59,15.24-.53,31.45.25,46.65.95,18.48,7.8,25.84,26.51,26.99,13.9.86,29.54.45,43.51-.02,9.85-.33,19.05-.03,26.05-8.16,6.09-7.08,5.58-15.94,5.85-24.68.42-13.62.78-28.41,0-41.99-1.17-20.57-9.74-26.56-29.69-27.24-13.87-.48-29.58-.45-43.45.08Z"/>
      <path class="cls-1" d="M59.23,30.86c32.09-2.84,48.55,35.93,24.36,56.57-19.42,16.57-49.94,4.06-52.67-21.12-1.85-17.07,10.91-33.91,28.3-35.45ZM60.45,42.09c-14.45,1.4-22.65,17.68-15.96,30.46s24.95,14.93,34.34,3.77c12.25-14.55.61-36.07-18.38-34.23Z"/>
      <path class="cls-1" d="M94.66,22.05c10.75-1.81,12.36,13.48,2.81,14.77-10.06,1.36-11.48-13.31-2.81-14.77Z"/>
    </g>
  </g>
</svg>