<?xml version="1.0" encoding="UTF-8"?>
<svg id="Calque_2" data-name="Calque 2" xmlns="http://www.w3.org/2000/svg" viewBox="0 0 160.01 131.85">
  <defs>
    <style>
      .cls-1 {
        fill: #fff;
      }
    </style>
  </defs>
  <g id="Calque_1-2" data-name="Calque 1">
    <g>
      <path class="cls-1" d="M89.98,83.44c-3.41-6.4-5.28-13.68-7.25-20.63-4.46-15.67-7.14-34.54-12.81-49.35-7.6-19.86-24.63-9.94-37.16-1.45C21.58,19.6,11.47,28.64,1.11,37.22c-3.81,2.9,3.16,10.82,6.08,11.15,2.4.26,8.52-5.02,11.18-6.43,6.88-3.66,10.01-3.72,13.97,3.27,5.19,9.17,8.05,24.23,11.42,34.62,4.25,13.12,12.94,39.06,22.96,48.36,8.76,8.13,22.4,1.03,30.66-4.71,19.89-13.81,48.05-50.88,57.47-72.91,7.21-16.87,10.53-48.51-15.35-50.41-20.73-1.52-35.35,8.4-43.4,26.58-1.6,3.61-4.5,9.49,2.4,8.79,3.66-.37,6.28-1.41,10.19-.59,11.67,2.45,4.66,14.66,1.19,21.02-4.02,7.39-10.79,18.59-16.29,24.84-.59.68-2.56,3.24-3.61,2.65Z"/>
      <path class="cls-1" d="M89.98,83.44c1.04.59,3.01-1.98,3.61-2.65,5.5-6.25,12.27-17.45,16.29-24.84,3.47-6.37,10.48-18.57-1.19-21.02-3.91-.82-6.53.22-10.19.59-6.9.71-4-5.18-2.4-8.79C104.14,8.55,118.76-1.37,139.49.15c25.89,1.9,22.57,33.54,15.35,50.41-9.42,22.03-37.58,59.1-57.47,72.91-8.26,5.73-21.9,12.84-30.66,4.71-10.02-9.31-18.71-35.25-22.96-48.36-3.37-10.38-6.23-25.44-11.42-34.62-3.96-7-7.09-6.93-13.97-3.27-2.66,1.41-8.78,6.7-11.18,6.43-2.92-.32-9.89-8.25-6.08-11.15,10.36-8.58,20.47-17.62,31.65-25.2,12.53-8.49,29.56-18.41,37.16,1.45,5.67,14.81,8.34,33.68,12.81,49.35,1.98,6.95,3.84,14.22,7.25,20.63Z"/>
    </g>
  </g>
</svg>