<?xml version="1.0" encoding="UTF-8"?>
<svg id="Calque_2" data-name="Calque 2" xmlns="http://www.w3.org/2000/svg" viewBox="0 0 152.79 107.41">
  <defs>
    <style>
      .cls-1 {
        fill: #fff;
      }
    </style>
  </defs>
  <g id="Calque_1-2" data-name="Calque 1">
    <path class="cls-1" d="M0,95.47V11.94C1.14,5.36,5.9.58,12.68.02l127.08-.02c7.15.54,12.28,5.57,12.96,12.69-.24,28.1.5,56.29-.38,84.33-1.51,6.04-6.41,9.92-12.58,10.39l-127.08-.02c-6.35-.42-11.96-5.56-12.68-11.93ZM137.22,8.96H15.51l52.2,52.06c5.18,4.2,12.12,4.2,17.31,0l52.2-52.06ZM8.95,91.89l38.46-38.29L8.95,15.52v76.36ZM143.78,91.89V15.52l-38.46,38.29,38.46,38.07ZM137.22,98.45l-38.59-38.16c-6.97,7.18-12.73,13.35-23.62,12.82-9.7-.47-14.61-6.84-21.12-12.82L15.51,98.45h121.71Z"/>
  </g>
</svg>