<?xml version="1.0" encoding="UTF-8"?>
<svg id="Calque_2" data-name="Calque 2" xmlns="http://www.w3.org/2000/svg" viewBox="0 0 512 192">
  <g id="Calque_1-2" data-name="Calque 1">
    <g>
      <path d="M396,0c3.47,4.08,9.21,3.3,13.93,6.56,9.15,6.33,4.46,10.03,4.08,17.94-.61,12.91-.27,26.26.03,38.92.21,8.94-2.57,19.85,7.47,24.32,2.64-.22,7.88-15.64,10.05-18.72,6.26-8.91,20.1-18.46,31.43-17.06l-14.38-6.1c-9.07-6.24,6.66-22.8,9.78-28.96,2.41-4.75,1.83-11.84,8.16-12.83,8.44-1.32,26.68,2.31,29.02,11.93.82,3.39-4.45,10.06-6.06,14-1.96,4.78-4.59,17.16-7.99,20-2.13,1.78-6.38,1.34-5.53,5.96,20.18,2.82,28.53,16.15,29.99,35.5.84,11.19,2.96,38.22-13.99,36.47l.05,2.94c8.15,1.05,13.61,5.42,19.96,10.05v8.99c-10.85,14.83-20.47,39.99-42.5,39.96-7.58-.01-28.07-8.03-34.44-12.54-11.68-8.29-18.54-31.08-19.1-44.86-.2-4.99,3.25-15.65-1.96-16.53,1.01,19.49.68,38.93.95,58.5.07,4.86,2.84,8.65-1.4,13.51-1.95,2.23-4.46,2.24-6.56,3.94-2.87-.27-6.23.38-9,0-7.12-.98-28.01-9.77-31.21-16.28-5.9-11.99,5.71-39.65.2-53.68-3.74,2.86-19.46,2.45-20.83,6.66-.22.68-1.24,12.23-1.24,13.83-.04,10.14,1.99,19.62,3.85,29.21,5.01,25.96-31.09,12.16-42.08,5.09-8.98-5.78-7.31-9.19-4.69-18.81-5.63,3.41-7.31,10.36-11.16,15.32-19.03,24.45-64.35,14.41-75.31-13.33-9.15-23.16-4.53-86.71,13.95-104.95,16.52-16.31,53.96-1.89,66.37,14.69l6.16,12.33V13.49c0-2.86,11.12-11,14.59-11.46,6.89-.91,30.66,5.68,32.96,12.9,2.54,7.98-3.55,13.3-3.55,14.55v48.47l21-4V8.49c0-4.31,9.63-5.78,12-8.49h17ZM377,12.49v66.96l-38.99,10.49c1.2-20.29-1.63-42.41-.04-62.49.24-3.05,2.39-4.36,1.64-7.52-1.02-4.29-26.9-14.93-28.65-.49-.96,7.91-.78,21.4-1,29.98-1.02,39.55.89,79.25,0,118.81l30.04,8.64-1.57-57.02,39.57-7.93v44.47c0,2.19-3.35,9.15-3.67,12.01.55,5.25,25.54,16.22,31.66,14.46l-2.02-74.24,15-10.2-14.96-15.01c-.13-22.94-2.47-45.7,1.55-68.44-3.6-4-26.97-7.48-28.57-2.5ZM485,16c-3.63.25-12.32-4.24-15.01-2.55l-13.99,26.52,17.92,3.98,11.08-27.94ZM280.01,127.92c-2.52,15.25-9.79,33.05-26.09,37.5-3.62-1.26-6.61-4.33-8.11-7.83-6.28-14.65-2.07-76.01,10.14-87.18,16.27-14.87,21.63,23.87,12.15,32.03,2.48,4.56,19.91,9.08,22.46,5.52-2.72-11.02,3.98-25.23-3.12-34.94-5.01-6.85-30.71-17.02-38.95-16.85-18.7.38-25.63,37.07-27.36,51.4-3.62,29.94-2.28,65.94,35.48,70.22,24.35,2.76,27.37-16.82,38.55-31.22,1.69-2.18,5.62-3.28,5.89-6.2.54-5.82-16.54-10.31-21.04-12.44ZM448,124.92c12.36-.04,32.84-.06,44.02-5.48,7.73-3.74,5.14-25.25,3.71-32.73-2.26-11.8-6.15-17.15-17.47-21.52-25.06-9.66-39.29,3.59-46.97,26.53-7.72,23.05-10.66,62.64,11.77,78.6,5.49,3.9,25.03,11.04,31.33,10.27,5.82-.71,21.91-22.3,24.79-28.02,6.49-12.88-1.7-9.11-10.88-14.55l-1.33.29c-3.79,10.35-20.34,42.21-32.81,23.9-1.9-2.8-6.17-15.8-6.17-18.82v-18.49ZM302,124.92v-29.98l-6.01,21.48c-9.49,3.07-22.69,1.84-30.92-4.05-14.59-10.44,2.38-18.51-1.55-31.44-.51-1.11-2.96-1.34-3.51-.98-1.88,1.26-7.79,39.39-8.06,44.42-.55,10.09-.37,22.26,3.56,31.52,2.12.46,11.72-14.76,12.7-17.27,2.33-5.97.13-13.21,5.83-17.16,9.01-6.24,18.64,3.68,27.96,3.46ZM477,133.92l-18.86,2.14c-1.43,2.29,1.27,18.8,3.84,20.42,5.91,3.74,14.54-18.51,15.02-22.56Z"/>
      <path d="M0,85.94l.93-1.59C3.17,35.03,35.04-26.44,90.33,17.16c16.57,13.06,21.73,32.74,20.66,53.28-.37,7.08-1.59,21.12-9.26,23.72-7.18,2.44-33.82-4.77-38.79-10.66-6.4-7.57,2.37-25.93,1.06-35.53-1.54-.37-1.6.23-2.43,1.06-2.53,2.54-7.15,12.67-8.59,16.4-10.51,27.23-8.93,58.35,1.03,85.47,2.22,2.26,17.53-19.36,18.73-21.74s1.07-5.23,2.39-7.61c7.23-13.01,33.3,4.36,41.86,9.36-1.64-34.69,2.88-69.84,1.05-104.48-.26-4.94-2.92-11.39-1.8-15.69,3.35-12.87,35.73-8.66,43.72-2.21,7.96,6.43,1.62,15.53.29,23.2-1.93,11.15-.91,22.51-1.21,33.77-.9,33.84-.06,67.97.92,101.93.27,9.42,5.84,20.94-6.96,24.44h-8c-9.44-2.78-23.5-3.29-27.31-14.18-3.39-9.66.58-20.61-.7-30.79l-18.48,24.99c-9.31,9.11-18.16,20.63-32.76,18.71-27.74-3.64-53.99-28.65-60.25-55.71L0,105.93v-19.99ZM70,77.94c8.66.73,29.12,15.67,31.03-.47,3.43-29.07-5.99-53.18-34.75-63.26C28.51.98,12.01,55.57,10.01,83.46c-3,41.98,7.28,84.02,52.23,95.69,6.81,1.77,9.04,2.9,15.69-.83,12.28-6.89,24.88-27.4,31.1-39.86l-23.55-12.43c-4.47,8.21-22.85,36.55-32.73,35.69-8.02-.7-11.05-14.22-12.44-20.61-6.16-28.44-5.37-68.91,9.88-94.43,4.67-7.81,10.67-14.29,19.79-16.69,6.21,15.63,4.42,32.09,0,47.96ZM126,12.99v160.4l25.99,9.49c1.15-1.3-2.79-19.02-3.03-22.44-2.54-36.05-2.84-84.02.05-119.95.42-5.24,5.14-20.17,3.49-23.5-.41-.83-1.31-1.54-2.2-1.8l-24.3-2.2Z"/>
      <path d="M206,59.95c13.91,2.68,6.04,11.62,4.25,19.75-3.87,17.6-3.87,64.43-.98,82.42,1.13,7.03,9,20.09,1.43,25.47-6.62,4.7-27.22.61-34.7-2.22-19.22-7.25-9.96-13.9-8.14-28.09,2.86-22.35,1.78-57,.16-79.86-.68-9.59-9.32-27.2,6.96-25.46-4.72-6.18-11.66-4.92-11.8-14.47-.35-22.62,16.86-26.9,35.34-20.54,23.4,8.05,18.47,26.05,7.46,43ZM174.11,39.87l28.41,8.06c4.06-9.71,4.85-15.81-5.13-20.83-14.05-7.06-25.08-5.54-23.27,12.77ZM202.88,68.08c-3.98-2.05-23.05-9.81-25.94-7.7s.78,10.85,1.05,14.08c2.12,25.4,1.3,54.44-1,79.93-.61,6.81-2.19,13.7-3,20.49,6.02.5,25.41,8.8,30.06,5.56,4.16-2.89-2.88-8.26-3.81-11.3-1.74-5.68-2.07-20.97-2.29-27.69-.54-16.5-.44-39.71,1.06-55.99.56-6.11,3.6-11.38,3.86-17.38Z"/>
      <path d="M467.73,74.11c5.18-1.07,7.46,8.59,8.01,12.6,2.59,18.85-7.19,34.7-27.8,30.79-3.54-2.48,2.43-18.7,3.88-22.23,2.3-5.6,9.75-19.88,15.91-21.15Z"/>
    </g>
  </g>
</svg>